<svg width="331" height="542" viewBox="0 0 331 542" fill="none" xmlns="http://www.w3.org/2000/svg">
<path d="M6.15332 407.04V429.344C6.15332 432.527 9.01576 435.389 11.8782 429.023C11.8782 429.023 11.237 441.137 16.023 431.245C16.023 431.245 17.3054 441.755 24.6333 434.428L25.2744 405.757L6.15332 407.04Z" fill="#94D8F1"/>
<path d="M6.15332 407.04V429.344C6.15332 432.527 9.01576 435.389 11.8782 429.023C11.8782 429.023 11.237 441.137 16.023 431.245C16.023 431.245 17.3054 441.755 24.6333 434.428L25.2744 405.757L6.15332 407.04Z" stroke="#231F20" stroke-width="0.7466" stroke-miterlimit="10" stroke-linecap="round" stroke-linejoin="round"/>
<path d="M11.8781 429.986C11.8781 429.986 11.7178 424.719 12.4735 419.795" stroke="#231F20" stroke-width="0.7466" stroke-miterlimit="10" stroke-linecap="round" stroke-linejoin="round"/>
<path d="M16.252 431.451C16.252 431.451 15.6108 423.803 16.8932 419.658" stroke="#231F20" stroke-width="0.7466" stroke-miterlimit="10" stroke-linecap="round" stroke-linejoin="round"/>
<path d="M25.595 306.557C25.595 306.557 7.80202 305.687 1.36724 396.621C0.0848696 414.689 3.06182 411.712 8.58061 411.712H22.183C22.183 411.712 19.6411 481.395 20.6945 489.456C21.7708 497.517 16.023 520.05 89.0954 533.423C162.168 546.796 320.77 546.888 326.358 501.341C330.617 466.717 330.388 414.254 329.129 386.202C327.846 358.173 320.198 270.009 260.522 204.792C260.522 204.792 240.988 180.587 228.874 178.663C216.76 176.762 203.799 189.082 203.799 189.082L25.595 306.557Z" fill="#004891"/>
<path d="M25.595 306.557C25.595 306.557 7.80202 305.687 1.36724 396.621C0.0848696 414.689 3.06182 411.712 8.58061 411.712H22.183C22.183 411.712 19.6411 481.395 20.6945 489.456C21.7708 497.517 16.023 520.05 89.0954 533.423C162.168 546.796 320.77 546.888 326.358 501.341C330.617 466.717 330.388 414.254 329.129 386.202C327.846 358.173 320.198 270.009 260.522 204.792C260.522 204.792 240.988 180.587 228.874 178.663C216.76 176.762 203.799 189.082 203.799 189.082L25.595 306.557Z" stroke="#231F20" stroke-width="1.2444" stroke-miterlimit="10" stroke-linecap="round" stroke-linejoin="round"/>
<path d="M278.567 427.627C278.567 427.627 273.254 438.458 279.414 450.984C280.628 453.48 282.597 454.602 282.803 446.725C282.803 446.725 289.604 462.228 289.398 450.343C289.398 450.343 294.505 461.816 294.711 449.702C294.917 437.588 296.405 425.703 296.405 425.703L278.567 427.627Z" fill="#94D8F1"/>
<path d="M278.567 427.627C278.567 427.627 273.254 438.458 279.414 450.984C280.628 453.48 282.597 454.602 282.803 446.725C282.803 446.725 289.604 462.228 289.398 450.343C289.398 450.343 294.505 461.816 294.711 449.702C294.917 437.588 296.405 425.703 296.405 425.703L278.567 427.627Z" stroke="#231F20" stroke-width="0.7466" stroke-miterlimit="10" stroke-linecap="round" stroke-linejoin="round"/>
<path d="M282.826 446.748C282.826 446.748 281.772 441.756 283.352 437.611" stroke="#231F20" stroke-width="0.7466" stroke-miterlimit="10" stroke-linecap="round" stroke-linejoin="round"/>
<path d="M289.398 450.365C289.398 450.365 288.116 442.076 288.757 438.251" stroke="#231F20" stroke-width="0.7466" stroke-miterlimit="10" stroke-linecap="round" stroke-linejoin="round"/>
<path d="M245.431 220.959C245.431 220.959 270.483 250.911 274.948 309.534C279.414 368.157 274.742 411.277 272.819 419.773C270.895 428.268 271.445 434.108 294.917 432.092C307.237 431.039 306.802 427.009 308.29 408.3C309.778 389.614 314.656 274.04 256.468 212.875" fill="#004891"/>
<path d="M245.431 220.959C245.431 220.959 270.483 250.911 274.948 309.534C279.414 368.157 274.742 411.277 272.819 419.773C270.895 428.268 271.445 434.108 294.917 432.092C307.237 431.039 306.802 427.009 308.29 408.3C309.778 389.614 314.656 274.04 256.468 212.875" stroke="#231F20" stroke-width="1.2444" stroke-miterlimit="10" stroke-linecap="round" stroke-linejoin="round"/>
<path d="M22.183 412.994V360.096" stroke="#231F20" stroke-width="1.2444" stroke-miterlimit="10" stroke-linecap="round" stroke-linejoin="round"/>
<path d="M90.7903 152.764C90.7903 152.764 90.9964 163.801 65.7153 189.93C40.4342 216.058 19.4124 257.896 21.1069 306.969C22.8015 356.043 20.2597 358.379 17.0766 365.386C13.8936 372.393 19.6185 378.553 34.0681 356.455C34.0681 356.455 11.1227 396.186 37.045 365.592C37.045 365.592 16.4354 406.17 45.3347 371.546C45.3347 371.546 42.9989 402.987 51.7008 423.162C60.4026 443.336 80.6916 466.785 75.4934 485.403C72.5164 496.028 74.8522 503.035 91.2254 477.754C91.2254 477.754 74.8751 515.768 105.446 475.625C105.446 475.625 95.8969 500.906 109.705 490.486C123.514 480.067 139.223 469.236 135.628 478.602C135.628 478.602 165.786 467.358 183.007 451.42C200.204 435.482 220.608 418.284 223.997 378.141C223.997 378.141 229.516 398.11 232.928 392.156C236.317 386.202 231.645 374.317 231.645 374.317C231.645 374.317 249.69 411.689 238.447 370.493C238.447 370.493 252.667 394.698 249.072 374.958C245.454 355.196 243.965 339.899 248.637 324.396C253.308 308.893 266.521 268.361 232.699 215.646C218.249 193.136 218.89 194.83 218.89 186.128C218.89 186.128 237.37 180.61 269.659 216.722C269.659 216.722 266.27 198.655 248.202 178.915C230.134 159.153 212.295 167.878 201.143 151.207L196.563 148.55L95.6679 149.191L90.7903 152.764Z" fill="white"/>
<path d="M90.7903 152.764C90.7903 152.764 90.9964 163.801 65.7153 189.93C40.4342 216.058 19.4124 257.896 21.1069 306.969C22.8015 356.043 20.2597 358.379 17.0766 365.386C13.8936 372.393 19.6185 378.553 34.0681 356.455C34.0681 356.455 11.1227 396.186 37.045 365.592C37.045 365.592 16.4354 406.17 45.3347 371.546C45.3347 371.546 42.9989 402.987 51.7008 423.162C60.4026 443.336 80.6916 466.785 75.4934 485.403C72.5165 496.028 74.8522 503.035 91.2254 477.754C91.2254 477.754 74.8751 515.768 105.446 475.625C105.446 475.625 95.8969 500.906 109.705 490.486C123.514 480.067 139.223 469.236 135.628 478.602C135.628 478.602 165.786 467.358 183.007 451.42C200.204 435.482 220.608 418.284 223.997 378.141C223.997 378.141 229.516 398.11 232.928 392.156C236.317 386.202 231.645 374.317 231.645 374.317C231.645 374.317 249.69 411.689 238.447 370.493C238.447 370.493 252.667 394.698 249.072 374.958C245.454 355.196 243.965 339.899 248.637 324.396C253.308 308.893 266.521 268.361 232.699 215.646C218.249 193.136 218.89 194.83 218.89 186.128C218.89 186.128 237.37 180.61 269.659 216.722C269.659 216.722 266.27 198.655 248.202 178.915C230.134 159.153 212.295 167.878 201.143 151.207L196.563 148.55L95.6679 149.191L90.7903 152.764Z" stroke="#231F20" stroke-width="0.8711" stroke-miterlimit="10" stroke-linecap="round" stroke-linejoin="round"/>
<path d="M158.138 232.866C158.138 232.866 153.672 243.698 155.596 267.284" stroke="#231F20" stroke-width="0.7466" stroke-miterlimit="10" stroke-linecap="round" stroke-linejoin="round"/>
<path d="M106.728 235.179C106.728 235.179 82.7296 234.126 82.7296 247.293C82.7296 259.819 109.911 253.018 123.079 257.277C136.727 261.674 162.764 262.819 152.596 243.034C148.795 235.614 106.728 235.179 106.728 235.179Z" fill="#231F20"/>
<path d="M106.728 235.179C106.728 235.179 82.7296 234.126 82.7296 247.293C82.7296 259.819 109.911 253.018 123.079 257.277C136.727 261.674 162.764 262.819 152.596 243.034C148.795 235.614 106.728 235.179 106.728 235.179Z" stroke="#231F20" stroke-width="0.9955" stroke-miterlimit="10" stroke-linecap="round" stroke-linejoin="round"/>
<path d="M89.5306 237.951L93.3549 245.187L99.721 235.409L89.5306 237.951Z" fill="white"/>
<path d="M101.003 235.821L103.545 243.263L106.728 235.18L101.003 235.821Z" fill="white"/>
<path d="M129.238 236.255L129.88 247.499L139.016 237.949L129.238 236.255Z" fill="white"/>
<path d="M141.558 238.156L140.917 248.987C140.917 248.987 148.131 244.316 151.108 241.98C151.13 241.98 143.688 239.003 141.558 238.156Z" fill="white"/>
<path d="M153.512 255.377C152.344 252.949 147.398 251.69 141.764 252.537C135.742 253.43 131.162 256.407 131.322 259.247C140.116 260.644 149.94 260.231 153.512 255.377Z" fill="#CA1F8D"/>
<path d="M106.522 154.687C106.522 154.687 79.1113 205.02 78.4701 209.073L99.2858 201.219V214.386L117.331 201.425C117.331 201.425 111.377 254.323 63.1732 318.052C63.1732 318.052 111.171 308.068 139.635 200.807C139.635 200.807 143.024 200.371 153.443 216.516L167.458 195.494C167.458 195.494 182.961 208.455 189.762 212.691C189.762 212.691 183.19 176.373 183.19 152.58L106.522 154.687Z" fill="#94D8F1"/>
<path d="M106.522 154.687C106.522 154.687 79.1113 205.02 78.4701 209.073L99.2858 201.219V214.386L117.331 201.425C117.331 201.425 111.377 254.323 63.1732 318.052C63.1732 318.052 111.171 308.068 139.635 200.807C139.635 200.807 143.024 200.371 153.443 216.516L167.458 195.494C167.458 195.494 182.961 208.455 189.762 212.691C189.762 212.691 183.19 176.373 183.19 152.58L106.522 154.687Z" stroke="#231F20" stroke-width="0.7466" stroke-miterlimit="10" stroke-linecap="round" stroke-linejoin="round"/>
<path d="M219.348 193.434C219.348 193.434 216.921 191.212 219.966 173.832" stroke="#231F20" stroke-width="0.7466" stroke-miterlimit="10" stroke-linecap="round" stroke-linejoin="round"/>
<path d="M104.667 159.405C104.667 159.405 106.156 165.565 112.957 170.992L115.499 167.053L125.048 176.419C125.048 176.419 118.453 163.367 118.453 157.939H111.239L110.827 161.878L107.644 158.924L104.667 159.405Z" fill="white"/>
<path d="M104.667 159.405C104.667 159.405 106.156 165.565 112.957 170.992L115.499 167.053L125.048 176.419C125.048 176.419 118.453 163.367 118.453 157.939H111.239L110.827 161.878L107.644 158.924L104.667 159.405Z" stroke="#231F20" stroke-width="0.7466" stroke-miterlimit="10" stroke-linecap="round" stroke-linejoin="round"/>
<path d="M171.946 164.443V158.1H166.427L151.13 176.145L164.939 169.801H165.786V177.106C165.786 177.106 176.251 171.816 183.694 166.321C183.51 163.206 183.373 160.161 183.281 157.229L173.641 164.443H171.946Z" fill="white"/>
<path d="M171.946 164.443V158.1H166.427L151.13 176.145L164.939 169.801H165.786V177.106C165.786 177.106 176.251 171.816 183.694 166.321C183.51 163.206 183.373 160.161 183.281 157.229L173.641 164.443H171.946V164.443Z" stroke="#231F20" stroke-width="0.7466" stroke-miterlimit="10" stroke-linecap="round" stroke-linejoin="round"/>
<path d="M115.43 187.044C115.43 189.563 113.392 191.578 110.896 191.578C108.4 191.578 106.362 189.54 106.362 187.044C106.362 184.548 108.4 182.51 110.896 182.51C113.392 182.51 115.43 184.548 115.43 187.044Z" fill="white"/>
<path d="M115.43 187.044C115.43 189.563 113.392 191.578 110.896 191.578C108.4 191.578 106.362 189.54 106.362 187.044C106.362 184.548 108.4 182.51 110.896 182.51C113.392 182.51 115.43 184.548 115.43 187.044Z" stroke="#231F20" stroke-width="0.6934" stroke-miterlimit="10" stroke-linecap="round" stroke-linejoin="round"/>
<path d="M157.245 189.014C157.245 191.51 155.207 193.548 152.711 193.548C150.214 193.548 148.176 191.51 148.176 189.014C148.176 186.518 150.214 184.479 152.711 184.479C155.207 184.479 157.245 186.518 157.245 189.014Z" fill="white"/>
<path d="M157.245 189.014C157.245 191.51 155.207 193.548 152.711 193.548C150.214 193.548 148.176 191.51 148.176 189.014C148.176 186.518 150.214 184.479 152.711 184.479C155.207 184.479 157.245 186.518 157.245 189.014Z" stroke="#231F20" stroke-width="0.6934" stroke-miterlimit="10" stroke-linecap="round" stroke-linejoin="round"/>
<path d="M142.52 0.802246L118.934 106.575L106.82 61.967L91.5228 152.466C91.5228 152.466 129.765 170.946 201.12 151.184L183.281 55.9215L163.84 106.575L142.52 0.802246Z" fill="#FFCE01"/>
<path d="M142.52 0.802246L118.934 106.575L106.82 61.967L91.5228 152.466C91.5228 152.466 129.765 170.946 201.12 151.184L183.281 55.9215L163.84 106.575L142.52 0.802246Z" stroke="#231F20" stroke-width="0.9955" stroke-miterlimit="10" stroke-linecap="round" stroke-linejoin="round"/>
<path d="M134.345 108.797L126.697 116.674V138.956L132.009 143.856L138.811 137.696V116.033L134.345 108.797Z" fill="#ED2433"/>
<path d="M134.345 108.797L126.697 116.674V138.956L132.009 143.856L138.811 137.696V116.033L134.345 108.797Z" stroke="#231F20" stroke-width="0.7466" stroke-miterlimit="10" stroke-linecap="round" stroke-linejoin="round"/>
<path d="M193.403 126.682L193.815 126.018L181.93 109.461L182.022 126.751L193.403 126.682Z" fill="#ED2433"/>
<path d="M193.403 126.682L193.815 126.018L181.93 109.461L182.022 126.751L193.403 126.682Z" stroke="#231F20" stroke-width="0.7466" stroke-miterlimit="10" stroke-linecap="round" stroke-linejoin="round"/>
<path d="M181.93 109.46V109.438L168.351 126.841L182.022 126.75L181.93 109.46Z" fill="#E27588"/>
<path d="M181.93 109.46V109.438L168.351 126.841L182.022 126.75L181.93 109.46Z" stroke="#231F20" stroke-width="0.7466" stroke-miterlimit="10" stroke-linecap="round" stroke-linejoin="round"/>
<path d="M168.351 126.842L168.328 126.865L181.724 145.551L182.114 144.886L182.022 126.75L168.351 126.842Z" fill="#ED2433"/>
<path d="M168.351 126.842L168.328 126.865L181.724 145.551L182.114 144.886L182.022 126.75L168.351 126.842Z" stroke="#231F20" stroke-width="0.7466" stroke-miterlimit="10" stroke-linecap="round" stroke-linejoin="round"/>
<path d="M182.022 126.75L182.114 144.886L193.403 126.658L182.022 126.75Z" fill="#CA1F8D"/>
<path d="M182.022 126.75L182.114 144.886L193.403 126.658L182.022 126.75Z" stroke="#231F20" stroke-width="0.7466" stroke-miterlimit="10" stroke-linecap="round" stroke-linejoin="round"/>
<path d="M98.8738 110.285L89.0957 119.834C89.0957 119.834 88.9583 121.437 89.0728 123.91L102.423 126.155L98.8738 110.285Z" fill="#ED2433"/>
<path d="M98.8738 110.285L89.0957 119.834C89.0957 119.834 88.9583 121.437 89.0728 123.91L102.423 126.155L98.8738 110.285Z" stroke="#231F20" stroke-width="0.7466" stroke-miterlimit="10" stroke-linecap="round" stroke-linejoin="round"/>
<path d="M89.0724 123.91C89.2785 128.123 90.2402 134.901 93.9729 140.649L102.469 126.429L102.4 126.154L89.0724 123.91Z" fill="#E27588"/>
<path d="M89.0724 123.91C89.2785 128.123 90.2402 134.901 93.9729 140.649L102.469 126.429L102.4 126.154L89.0724 123.91Z" stroke="#231F20" stroke-width="0.7466" stroke-miterlimit="10" stroke-linecap="round" stroke-linejoin="round"/>
<path d="M134.276 108.865L136.681 96.7051L121.384 114.544V115.803H127.521L134.276 108.865Z" fill="#E27588"/>
<path d="M134.276 108.865L136.681 96.7051L121.384 114.544V115.803H127.521L134.276 108.865Z" stroke="#231F20" stroke-width="0.7466" stroke-miterlimit="10" stroke-linecap="round" stroke-linejoin="round"/>
<path d="M126.697 116.674L127.521 115.804H121.384V140.673L126.697 138.703V116.674Z" fill="#ED2433"/>
<path d="M126.697 116.674L127.521 115.804H121.384V140.673L126.697 138.703V116.674Z" stroke="#231F20" stroke-width="0.7466" stroke-miterlimit="10" stroke-linecap="round" stroke-linejoin="round"/>
<path d="M134.345 108.796L136.818 112.826L147.627 115.483L136.681 96.7051L134.276 108.865L134.345 108.796Z" fill="#ED2433"/>
<path d="M134.345 108.796L136.818 112.826L147.627 115.483L136.681 96.7051L134.276 108.865L134.345 108.796Z" stroke="#231F20" stroke-width="0.7466" stroke-miterlimit="10" stroke-linecap="round" stroke-linejoin="round"/>
<path d="M138.81 137.696L132.009 143.856V155.741L147.833 140.558L138.81 136.826V137.696Z" fill="#CA1F8D"/>
<path d="M138.81 137.696L132.009 143.856V155.741L147.833 140.558L138.81 136.826V137.696Z" stroke="#231F20" stroke-width="0.7466" stroke-miterlimit="10" stroke-linecap="round" stroke-linejoin="round"/>
<path d="M126.697 138.956V138.704L121.384 140.673L132.009 155.741V143.856L126.697 138.956Z" fill="#CA1F8D"/>
<path d="M126.697 138.956V138.704L121.384 140.673L132.009 155.741V143.856L126.697 138.956Z" stroke="#231F20" stroke-width="0.7466" stroke-miterlimit="10" stroke-linecap="round" stroke-linejoin="round"/>
<path d="M147.627 115.483L136.818 112.827L138.81 116.033V136.825L147.833 140.558L147.947 140.444V116.033L147.627 115.483Z" fill="#ED2433"/>
<path d="M147.627 115.483L136.818 112.827L138.81 116.033V136.825L147.833 140.558L147.947 140.444V116.033L147.627 115.483Z" stroke="#231F20" stroke-width="0.7466" stroke-miterlimit="10" stroke-linecap="round" stroke-linejoin="round"/>
<path d="M186.396 126.109C186.396 128.17 184.724 129.818 182.686 129.818C180.625 129.818 178.976 128.147 178.976 126.109C178.976 124.048 180.648 122.399 182.686 122.399C184.724 122.399 186.396 124.071 186.396 126.109Z" fill="#ED2433"/>
<path d="M186.396 126.109C186.396 128.17 184.724 129.818 182.686 129.818C180.625 129.818 178.976 128.147 178.976 126.109C178.976 124.048 180.648 122.399 182.686 122.399C184.724 122.399 186.396 124.071 186.396 126.109Z" stroke="#231F20" stroke-width="0.7466" stroke-miterlimit="10" stroke-linecap="round" stroke-linejoin="round"/>
</svg>
