<svg id="Capa_1" enable-background="new 0 0 512 512" height="512" viewBox="0 0 512 512" width="512" xmlns="http://www.w3.org/2000/svg"><g><g><path d="m314.53 259.531h120.409c16.569 0 30-13.431 30-30v-184.531c0-16.569-13.431-30-30-30h-120.409c-16.569 0-30 13.431-30 30v184.531c0 16.569 13.431 30 30 30z" fill="#9b9696"/><path d="m434.939 274.531h-120.41c-24.813 0-45-20.187-45-45v-184.531c0-24.813 20.187-45 45-45h120.41c24.813 0 45 20.187 45 45v184.531c0 24.813-20.187 45-45 45zm-120.41-244.531c-8.271 0-15 6.729-15 15v184.531c0 8.271 6.729 15 15 15h120.41c8.271 0 15-6.729 15-15v-184.531c0-8.271-6.729-15-15-15z" fill="#453d83"/></g><g><path d="m235.373 338.688h120.409c16.569 0 30-13.431 30-30v-184.532c0-16.569-13.431-30-30-30h-120.409c-16.569 0-30 13.431-30 30v184.531c0 16.569 13.432 30.001 30 30.001z" fill="#c8beb9"/><path d="m355.783 353.688h-120.409c-24.813 0-45-20.187-45-45v-184.532c0-24.813 20.187-45 45-45h120.409c24.813 0 45 20.187 45 45v184.531c0 24.813-20.187 45.001-45 45.001zm-120.409-244.532c-8.271 0-15 6.729-15 15v184.531c0 8.271 6.729 15 15 15h120.409c8.271 0 15-6.729 15-15v-184.531c0-8.271-6.729-15-15-15z" fill="#5f55af"/></g><g><path d="m156.217 417.844h120.409c16.569 0 30-13.431 30-30v-184.532c0-16.569-13.431-30-30-30h-120.409c-16.569 0-30 13.431-30 30v184.531c0 16.569 13.432 30.001 30 30.001z" fill="#ebe1dc"/><path d="m276.626 432.844h-120.409c-24.813 0-45-20.187-45-45v-184.531c0-24.813 20.187-45 45-45h120.409c24.813 0 45 20.187 45 45v184.531c0 24.813-20.187 45-45 45zm-120.409-244.531c-8.271 0-15 6.729-15 15v184.531c0 8.271 6.729 15 15 15h120.409c8.271 0 15-6.729 15-15v-184.531c0-8.271-6.729-15-15-15z" fill="#8078bf"/></g><g><path d="m77.061 497h120.409c16.569 0 30-13.431 30-30v-184.531c0-16.569-13.431-30-30-30h-120.409c-16.569 0-30 13.431-30 30v184.531c0 16.569 13.431 30 30 30z" fill="#fff5f5"/><path d="m197.471 512h-120.41c-24.813 0-45-20.187-45-45v-184.531c0-24.813 20.187-45 45-45h120.41c24.813 0 45 20.187 45 45v184.531c0 24.813-20.187 45-45 45zm-120.41-244.531c-8.271 0-15 6.729-15 15v184.531c0 8.271 6.729 15 15 15h120.41c8.271 0 15-6.729 15-15v-184.531c0-8.271-6.729-15-15-15z" fill="#a09ad0"/></g><g><path d="m122.266 359.734h30v30h-30z" fill="#a09ad0"/></g><g><path d="m122.266 299.734h30v30h-30z" fill="#a09ad0"/></g><path d="m122.266 419.734h30v30h-30z" fill="#a09ad0"/></g></svg>