<svg width="225" height="676" viewBox="0 0 225 676" fill="none" xmlns="http://www.w3.org/2000/svg">
<g clip-path="url(#clip0)">
<path d="M201.152 88.8016C202.45 88.6837 204.339 88.4952 206.393 88.3302C202.663 77.2527 195.368 67.0236 183.327 59.7878C185.121 82.9564 196.879 89.2258 201.152 88.8016Z" fill="#EE5DA1"/>
<path d="M201.152 88.8016C202.45 88.6837 204.339 88.4952 206.393 88.3302C202.663 77.2527 195.368 67.0236 183.327 59.7878C185.121 82.9564 196.879 89.2258 201.152 88.8016Z" stroke="#231F20" stroke-width="0.7466" stroke-miterlimit="10" stroke-linecap="round" stroke-linejoin="round"/>
<path d="M176.174 59.2222V56.0875C166.116 51.68 153.462 49.0403 137.739 49.0403C94.5582 49.0403 74.8213 75.0607 66.1805 93.8454C85.5161 89.108 124.116 86.7746 145.128 85.5255C168.761 84.182 176.174 65.2323 176.174 59.2222Z" fill="#EE5DA1"/>
<path d="M176.174 59.2222V56.0875C166.116 51.68 153.462 49.0403 137.739 49.0403C94.5582 49.0403 74.8213 75.0607 66.1805 93.8454C85.5161 89.108 124.116 86.7746 145.128 85.5255C168.761 84.182 176.174 65.2323 176.174 59.2222Z" stroke="#231F20" stroke-width="0.7466" stroke-miterlimit="10" stroke-linecap="round" stroke-linejoin="round"/>
<path d="M209.486 107.751C209.486 104.074 209.179 100.351 208.518 96.6501C177.449 95.4717 109.266 96.0374 91.914 97.5694C79.1889 98.7007 68.8718 100.869 62.7808 102.377C60.6324 108.623 59.9713 112.819 59.9713 112.819C59.9713 112.819 44.2243 156.728 31.2631 301.373C18.3018 446.041 12.7538 550.948 12.7538 561.577C12.7538 572.207 26.6357 590.685 43.7757 577.298H163.661L167.368 563.439C167.368 563.439 172.916 574.988 182.17 574.988C191.425 574.988 195.604 563.887 195.604 563.887C195.604 563.887 198.39 573.598 210.879 573.598C223.368 573.598 223.84 560.187 223.84 553.257C223.84 546.328 209.486 131.815 209.486 107.751Z" fill="#EE5DA1"/>
<path d="M209.486 107.751C209.486 104.074 209.179 100.351 208.518 96.6501C177.449 95.4717 109.266 96.0374 91.914 97.5694C79.1889 98.7007 68.8718 100.869 62.7808 102.377C60.6324 108.623 59.9713 112.819 59.9713 112.819C59.9713 112.819 44.2243 156.728 31.2631 301.373C18.3018 446.041 12.7538 550.948 12.7538 561.577C12.7538 572.207 26.6357 590.685 43.7757 577.298H163.661L167.368 563.439C167.368 563.439 172.916 574.988 182.17 574.988C191.425 574.988 195.604 563.887 195.604 563.887C195.604 563.887 198.39 573.598 210.879 573.598C223.368 573.598 223.84 560.187 223.84 553.257C223.84 546.328 209.486 131.815 209.486 107.751Z" stroke="#231F20" stroke-width="0.7466" stroke-miterlimit="10" stroke-linecap="round" stroke-linejoin="round"/>
<path d="M206.393 88.3302C204.339 88.4952 202.45 88.6602 201.152 88.8016C196.879 89.2258 185.121 82.9329 183.327 59.7878C183.186 57.8552 183.091 55.8282 183.091 53.6834C183.091 33.0132 183.587 24.5282 183.847 21.4642C187.6 19.8851 190.268 16.1847 190.268 11.8715C190.268 6.12064 185.594 1.4775 179.857 1.4775C174.096 1.4775 169.445 6.12064 169.445 11.8715C169.445 16.3026 172.231 20.0972 176.15 21.5821V56.111V59.2458C176.15 65.2559 168.737 84.2056 145.128 85.5962C124.116 86.8218 85.4925 89.1787 66.1805 93.9161C64.764 97.0037 63.6543 99.8791 62.7808 102.425C68.8719 100.916 79.1889 98.7478 91.914 97.6165C109.266 96.0845 177.449 95.4953 208.518 96.6973C208.022 93.8454 207.314 91.0642 206.393 88.3302Z" fill="#FFCC02"/>
<path d="M206.393 88.3302C204.339 88.4952 202.45 88.6602 201.152 88.8016C196.879 89.2258 185.121 82.9329 183.327 59.7878C183.186 57.8552 183.091 55.8282 183.091 53.6834C183.091 33.0132 183.587 24.5282 183.847 21.4642C187.6 19.8851 190.268 16.1847 190.268 11.8715C190.268 6.12064 185.594 1.4775 179.857 1.4775C174.096 1.4775 169.445 6.12064 169.445 11.8715C169.445 16.3026 172.231 20.0972 176.15 21.5821V56.111V59.2458C176.15 65.2559 168.737 84.2056 145.128 85.5962C124.116 86.8218 85.4925 89.1787 66.1805 93.9161C64.764 97.0037 63.6543 99.8791 62.7808 102.425C68.8719 100.916 79.1889 98.7478 91.914 97.6165C109.266 96.0845 177.449 95.4953 208.518 96.6973C208.022 93.8454 207.314 91.0642 206.393 88.3302Z" stroke="#231F20" stroke-width="0.7466" stroke-miterlimit="10" stroke-linecap="round" stroke-linejoin="round"/>
<path d="M189.584 11.6359C189.584 15.2184 186.68 18.1174 183.091 18.1174C179.503 18.1174 176.599 15.2184 176.599 11.6359C176.599 8.05333 179.503 5.17788 183.091 5.17788C186.68 5.15432 189.584 8.05333 189.584 11.6359Z" fill="#00B1D6"/>
<path d="M189.584 11.6359C189.584 15.2184 186.68 18.1174 183.091 18.1174C179.503 18.1174 176.599 15.2184 176.599 11.6359C176.599 8.05333 179.503 5.17788 183.091 5.17788C186.68 5.15432 189.584 8.05333 189.584 11.6359Z" stroke="#231F20" stroke-width="0.7466" stroke-miterlimit="10" stroke-linecap="round" stroke-linejoin="round"/>
<path d="M176.858 297.578C174.993 293.925 156.201 260.15 156.201 260.15L160.379 253.056H168.879C168.879 253.056 186.42 286.335 194.046 305.049C201.671 323.763 180.541 355.865 180.541 355.865C176.41 361.168 173.482 365.552 173.671 367.744C173.789 368.969 188.734 378.633 185.924 381.98C185.428 382.592 184.106 382.498 182.147 381.815C183.563 383.771 184.154 385.256 183.634 385.916C183.162 386.505 181.887 386.434 180.046 385.798C181.32 387.613 181.816 388.98 181.32 389.616C179.691 392.138 142.366 379.01 159.506 359.801C160.899 357.868 191.449 326.168 176.858 297.578Z" fill="#F8CADE"/>
<path d="M176.858 297.578C174.993 293.925 156.201 260.15 156.201 260.15L160.379 253.056H168.879C168.879 253.056 186.42 286.335 194.046 305.049C201.671 323.763 180.541 355.865 180.541 355.865C176.41 361.168 173.482 365.552 173.671 367.744C173.789 368.969 188.734 378.633 185.924 381.98C185.428 382.592 184.106 382.498 182.147 381.815C183.563 383.771 184.154 385.256 183.634 385.916C183.162 386.505 181.887 386.434 180.046 385.798C181.32 387.613 181.816 388.98 181.32 389.616C179.691 392.138 142.366 379.01 159.506 359.801C160.899 357.868 191.449 326.168 176.858 297.578Z" stroke="#231F20" stroke-width="0.7466" stroke-miterlimit="10" stroke-linecap="round" stroke-linejoin="round"/>
<path d="M183.705 382.522C183.705 382.522 173.931 377.501 172.467 375.946L183.705 382.522Z" fill="#F8CADE"/>
<path d="M183.705 382.522C183.705 382.522 173.931 377.501 172.467 375.946" stroke="#231F20" stroke-width="0.7466" stroke-miterlimit="10" stroke-linecap="round" stroke-linejoin="round"/>
<path d="M181.037 386.269C171.216 382.215 171.381 381.508 171.971 382.05L181.037 386.269Z" fill="#F8CADE"/>
<path d="M181.037 386.269C171.216 382.215 171.381 381.508 171.971 382.05" stroke="#231F20" stroke-width="0.7466" stroke-miterlimit="10" stroke-linecap="round" stroke-linejoin="round"/>
<path d="M141.068 205.493C143.381 204.739 145.836 204.338 148.386 204.338C161.418 204.338 171.995 214.897 171.995 227.907C171.995 237.123 166.683 245.113 158.963 249.002" fill="#EC268F"/>
<path d="M141.068 205.493C143.381 204.739 145.836 204.338 148.386 204.338C161.418 204.338 171.995 214.897 171.995 227.907C171.995 237.123 166.683 245.113 158.963 249.002" stroke="#231F20" stroke-width="0.7466" stroke-miterlimit="10" stroke-linecap="round" stroke-linejoin="round"/>
<path d="M173.624 250.204C173.624 253.716 169.847 256.568 165.172 256.568C160.498 256.568 156.72 253.716 156.72 250.204C156.72 246.692 160.498 243.84 165.172 243.84C169.823 243.864 173.624 246.692 173.624 250.204Z" fill="#EC268F"/>
<path d="M173.624 250.204C173.624 253.716 169.847 256.568 165.172 256.568C160.498 256.568 156.72 253.716 156.72 250.204C156.72 246.692 160.498 243.84 165.172 243.84C169.823 243.864 173.624 246.692 173.624 250.204Z" stroke="#231F20" stroke-width="0.7466" stroke-miterlimit="10" stroke-linecap="round" stroke-linejoin="round"/>
<path d="M165.975 398.454C165.975 383.205 163.212 360.555 154.406 340.215C150.157 330.386 149.59 315.208 150.747 301.043C146.403 303.117 138.187 304.814 122.912 302.315L121.992 284.756C121.992 284.756 128.578 290.507 152.659 286.123C154.194 277.379 156.224 270.332 158.113 267.197C163.661 257.958 163.212 243.628 157.641 237.146C152.093 230.689 146.993 214.049 144.68 202.028H93.3069L66.9123 349.925C66.9123 349.925 42.3828 348.087 40.5177 403.074C38.6762 458.061 28.9494 657.268 28.9494 657.268C28.9494 657.268 92.8347 696.558 173.836 657.268C173.836 657.245 165.975 413.704 165.975 398.454Z" fill="#EC268F"/>
<path d="M165.975 398.454C165.975 383.205 163.212 360.555 154.406 340.215C150.157 330.386 149.59 315.208 150.747 301.043C146.403 303.117 138.187 304.814 122.912 302.315L121.992 284.756C121.992 284.756 128.578 290.507 152.659 286.123C154.194 277.379 156.224 270.332 158.113 267.197C163.661 257.958 163.212 243.628 157.641 237.146C152.093 230.689 146.993 214.049 144.68 202.028H93.3069L66.9123 349.925C66.9123 349.925 42.3828 348.087 40.5177 403.074C38.6762 458.061 28.9494 657.268 28.9494 657.268C28.9494 657.268 92.8347 696.558 173.836 657.268C173.836 657.245 165.975 413.704 165.975 398.454Z" stroke="#231F20" stroke-width="0.7466" stroke-miterlimit="10" stroke-linecap="round" stroke-linejoin="round"/>
<path d="M121.992 284.756L122.912 302.316C138.164 304.814 146.403 303.117 150.747 301.043C151.172 295.81 151.833 290.719 152.659 286.123C128.602 290.507 121.992 284.756 121.992 284.756Z" fill="#9B2A8F"/>
<path d="M121.992 284.756L122.912 302.316C138.164 304.814 146.403 303.117 150.747 301.043C151.172 295.81 151.833 290.719 152.659 286.123C128.602 290.507 121.992 284.756 121.992 284.756Z" stroke="#231F20" stroke-width="0.7466" stroke-miterlimit="10" stroke-linecap="round" stroke-linejoin="round"/>
<path d="M47.6712 366.872C42.2648 360.791 22.882 342.525 20.167 336.067C16.4604 327.275 14.6189 313.888 24.7943 302.339C34.9697 290.79 65.0709 255.672 65.0709 255.672L50.2682 251.972C50.2682 251.972 17.8533 288.009 8.15012 302.339C-1.57669 316.669 -0.655948 332.838 12.3053 346.696C22.6459 357.75 37 370.384 37 374.98C37 376.205 23.0473 387.259 26.1636 390.323C26.7302 390.865 28.0287 390.653 29.8938 389.781C28.6661 391.879 28.2176 393.387 28.8078 394.023C29.3272 394.566 30.5785 394.377 32.3727 393.576C31.2867 395.508 30.909 396.899 31.4756 397.488C33.3407 399.845 66.5582 384.36 47.6712 366.872Z" fill="#F8CADE"/>
<path d="M47.6712 366.872C42.2648 360.791 22.882 342.525 20.167 336.067C16.4604 327.275 14.6189 313.888 24.7943 302.339C34.9697 290.79 65.0709 255.672 65.0709 255.672L50.2682 251.972C50.2682 251.972 17.8533 288.009 8.15012 302.339C-1.57669 316.669 -0.655948 332.838 12.3053 346.696C22.6459 357.75 37 370.384 37 374.98C37 376.205 23.0473 387.259 26.1636 390.323C26.7302 390.865 28.0287 390.653 29.8938 389.781C28.6661 391.879 28.2176 393.387 28.8078 394.023C29.3272 394.566 30.5785 394.377 32.3727 393.576C31.2867 395.508 30.909 396.899 31.4756 397.488C33.3407 399.845 66.5582 384.36 47.6712 366.872Z" stroke="#231F20" stroke-width="0.7466" stroke-miterlimit="10" stroke-linecap="round" stroke-linejoin="round"/>
<path d="M28.4064 390.653C28.4064 390.653 37.6611 384.714 38.9832 383.04" stroke="#231F20" stroke-width="0.7466" stroke-miterlimit="10" stroke-linecap="round" stroke-linejoin="round"/>
<path d="M31.4284 394.118C40.8247 389.145 40.5886 388.461 40.0456 389.05" stroke="#231F20" stroke-width="0.7466" stroke-miterlimit="10" stroke-linecap="round" stroke-linejoin="round"/>
<path d="M54.4233 243.628C54.4233 243.628 44.2479 242.237 41.4621 249.167C38.6762 256.096 53.0304 255.625 54.8955 255.625C56.7369 255.625 53.5025 263.945 65.0708 263.945C73.8769 263.945 66.4638 242.685 66.4638 242.685L54.4233 243.628Z" fill="#EC268F"/>
<path d="M54.4233 243.628C54.4233 243.628 44.2479 242.237 41.4621 249.167C38.6762 256.096 53.0304 255.625 54.8955 255.625C56.7369 255.625 53.5025 263.945 65.0708 263.945C73.8769 263.945 66.4638 242.685 66.4638 242.685L54.4233 243.628Z" stroke="#231F20" stroke-width="0.7466" stroke-miterlimit="10" stroke-linecap="round" stroke-linejoin="round"/>
<path d="M80.8179 252.443C78.3626 253.315 75.6948 253.786 72.9326 253.786C59.9005 253.786 49.3238 243.227 49.3238 230.217C49.3238 217.207 59.9005 206.648 72.9326 206.648C74.9865 206.648 76.9697 206.907 78.8584 207.402" fill="#EC268F"/>
<path d="M80.8179 252.443C78.3626 253.315 75.6948 253.786 72.9326 253.786C59.9005 253.786 49.3238 243.227 49.3238 230.217C49.3238 217.207 59.9005 206.648 72.9326 206.648C74.9865 206.648 76.9697 206.907 78.8584 207.402" stroke="#231F20" stroke-width="0.7466" stroke-miterlimit="10" stroke-linecap="round" stroke-linejoin="round"/>
<path d="M73.8533 197.409C73.8533 197.409 76.167 251.948 70.1467 288.457C70.1467 288.457 53.9511 404.913 53.479 410.003C53.0068 415.094 46.0658 515.382 49.7724 538.032C53.479 560.682 72.4604 601.339 103.01 565.301C103.01 565.301 112.265 579.631 125.226 579.631C138.187 579.631 150.676 567.611 150.676 543.594C150.676 519.553 137.715 407.717 133.56 378.138C129.405 348.558 120.127 231.183 126.147 197.904" fill="#EE5DA1"/>
<path d="M73.8533 197.409C73.8533 197.409 76.167 251.948 70.1467 288.457C70.1467 288.457 53.9511 404.913 53.479 410.003C53.0068 415.094 46.0658 515.382 49.7724 538.032C53.479 560.682 72.4604 601.339 103.01 565.301C103.01 565.301 112.265 579.631 125.226 579.631C138.187 579.631 150.676 567.611 150.676 543.594C150.676 519.553 137.715 407.717 133.56 378.138C129.405 348.558 120.127 231.183 126.147 197.904" stroke="#231F20" stroke-width="0.7466" stroke-miterlimit="10" stroke-linecap="round" stroke-linejoin="round"/>
<path d="M126.17 197.385L125.25 205.964C124.99 208.439 127.492 210.065 130.113 210.065C132.922 210.065 134.551 206.483 135.331 204.338C136.11 206.483 136.936 210.065 140.548 210.065C143.192 210.065 145.412 208.203 145.955 205.729L146.356 197.055C146.332 197.126 146.309 197.173 146.309 197.173L126.17 197.385Z" fill="#9B2A8F"/>
<path d="M126.17 197.385L125.25 205.964C124.99 208.439 127.492 210.065 130.113 210.065C132.922 210.065 134.551 206.483 135.331 204.338C136.11 206.483 136.936 210.065 140.548 210.065C143.192 210.065 145.412 208.203 145.955 205.729L146.356 197.055C146.332 197.126 146.309 197.173 146.309 197.173L126.17 197.385Z" stroke="#231F20" stroke-width="0.7466" stroke-miterlimit="10" stroke-linecap="round" stroke-linejoin="round"/>
<path d="M194.683 126.701C194.683 126.701 176.622 124.863 161.347 124.863C146.073 124.863 140.052 125.334 135.425 137.802C131.01 149.681 126.619 192.954 126.194 197.079H146.332C146.686 195.924 150.11 185.294 155.776 183.102C164.936 179.59 177.071 175.254 187.718 165.072C198.39 154.89 194.683 126.701 194.683 126.701Z" fill="#F8CADE"/>
<path d="M194.683 126.701C194.683 126.701 176.622 124.863 161.347 124.863C146.073 124.863 140.052 125.334 135.425 137.802C131.01 149.681 126.619 192.954 126.194 197.079H146.332C146.686 195.924 150.11 185.294 155.776 183.102C164.936 179.59 177.071 175.254 187.718 165.072C198.39 154.89 194.683 126.701 194.683 126.701Z" stroke="#231F20" stroke-width="0.7466" stroke-miterlimit="10" stroke-linecap="round" stroke-linejoin="round"/>
<path d="M154.643 145.297C154.643 147.277 153.037 148.88 151.054 148.88C149.071 148.88 147.465 147.277 147.465 145.297C147.465 143.317 149.071 141.715 151.054 141.715C153.037 141.715 154.643 143.317 154.643 145.297Z" fill="#231F20"/>
<path d="M189.583 145.297C189.583 147.277 187.978 148.88 185.995 148.88C184.012 148.88 182.406 147.277 182.406 145.297C182.406 143.317 184.012 141.715 185.995 141.715C187.978 141.715 189.583 143.317 189.583 145.297Z" fill="#231F20"/>
<path d="M170.13 152.792C165.266 152.792 161.371 150.412 161.135 150.27C160.781 150.058 160.663 149.563 160.828 149.139C161.017 148.738 161.418 148.573 161.772 148.785C161.867 148.832 170.201 153.923 177.425 148.809C177.756 148.573 178.18 148.715 178.369 149.092C178.558 149.492 178.464 150.011 178.133 150.247C175.442 152.156 172.656 152.792 170.13 152.792Z" fill="#231F20"/>
</g>
<defs>
<clipPath id="clip0">
<rect x="0.713379" y="0.581863" width="224" height="675" fill="white"/>
</clipPath>
</defs>
</svg>
