<svg width="341" height="248" viewBox="0 0 341 248" fill="none" xmlns="http://www.w3.org/2000/svg">
<path d="M314.678 204.22C307.531 197.962 303.782 188.042 304.978 178.633L304.846 178.925C305.415 173.586 309.237 169.254 312.87 165.315L313.322 164.163C312.417 175.38 311.6 187.138 316.123 197.437C316.648 198.633 317.246 199.814 317.45 201.113C317.654 202.396 317.392 203.855 316.414 204.73" fill="#D0FF47"/>
<path d="M315.058 203.841C307.968 197.116 304.672 188.378 305.518 178.633C305.561 178.108 304.73 177.875 304.496 178.356C305.649 175.876 309.996 166.642 313.336 165.607C313.832 165.446 313.847 160.983 312.563 166.774C312.053 169.108 312.184 172.229 312.111 174.622C311.98 178.998 312.082 183.403 312.782 187.721C313.424 191.704 318.063 200.792 315.948 204.439C315.598 205.051 316.546 205.606 316.896 204.993C319.595 200.34 315.743 195.934 314.62 191.193C312.49 182.309 313.161 173.178 313.876 164.163C313.935 163.506 313.016 163.492 312.797 164.017C310.579 169.618 305.561 172.346 304.321 178.765C304.205 179.334 305.036 179.786 305.328 179.188C301.448 187.576 308.187 198.793 314.299 204.585C314.795 205.095 315.568 204.322 315.058 203.841Z" fill="black"/>
<path d="M83.7878 182.688C64.9116 169.72 56.3488 144.279 53.3583 121.567C51.9725 110.991 51.2723 100.254 52.556 89.6784C55.9987 61.4517 73.9704 36.0111 97.8939 20.6359C121.817 5.26069 151.138 -0.5597 179.511 1.27832C207.884 3.11634 235.425 12.2919 260.924 24.8955C278.749 33.7063 296.429 44.9386 306.393 62.1519C311.571 71.094 314.372 81.1885 317.115 91.1518C320.718 104.237 324.365 117.599 323.562 131.151C321.418 167.517 288.333 196.152 284.935 232.417C284.614 235.845 284.541 239.404 283.024 242.497C281.507 245.589 277.991 248.04 274.709 247.034C270.683 245.808 269.589 240.717 269.209 236.531C268.465 228.61 267.721 220.674 266.992 212.753C215.79 222.979 161.729 218.428 112.963 199.814C100.024 194.869 93.1967 191.441 83.073 181.988" fill="#D0FF47"/>
<path d="M84.065 182.222C67.6979 170.464 59.6018 151.077 55.6486 131.88C51.3453 111.02 50.5722 88.8763 58.464 68.7747C74.058 29.053 113.955 6.06317 155.121 2.15373C197.541 -1.87241 243.346 12.4817 278.808 35.5299C287.648 41.2774 295.919 48.148 302.192 56.6963C309.194 66.2511 312.753 77.5126 315.918 88.7888C321.841 109.926 326.173 130.305 318.69 151.602C311.761 171.339 299.07 188.348 291.032 207.589C287.677 215.627 285.504 223.767 284.424 232.403C284.351 233.263 284.278 234.124 284.205 234.984C284.643 241.914 280.398 244.729 271.485 243.416C269.311 240.28 269.632 234.897 269.297 231.235C268.713 225.065 268.144 218.909 267.561 212.739C267.532 212.374 267.24 212.141 266.875 212.213C233.908 218.632 200.006 219.259 166.864 213.774C138.374 209.063 105.334 201.594 83.4961 181.594C82.971 181.113 82.1978 181.886 82.723 182.367C103.583 201.492 134.202 208.902 161.335 213.92C192.756 219.726 225.155 220.193 256.708 215.145C259.873 214.635 264.352 212.476 266.715 215.379C268.144 217.144 267.736 226.247 267.955 228.581C268.407 233.438 267.969 240.44 271.018 244.685C276.649 252.533 283.811 243.97 285.008 237.639C286.335 230.652 286.583 223.854 288.742 216.998C290.974 209.879 294.081 203.082 297.48 196.459C303.738 184.235 311.075 172.55 316.575 159.932C321.68 148.204 324.875 135.892 324.131 123.026C323.227 107.257 318.398 90.9623 313.22 76.1122C303.607 48.5711 280.602 33.3709 255.205 21.5259C202.734 -2.96648 134.669 -11.8794 86.9388 28.0173C63.8176 47.3458 50.3971 75.3829 51.4183 105.623C52.3664 133.383 59.6894 166.029 83.5253 183.155C84.0796 183.564 84.6339 182.615 84.065 182.222Z" fill="black"/>
<path d="M319.857 206.116C319.711 208.917 320.032 211.732 320.776 214.431C321.024 215.291 321.301 216.167 321.797 216.911C322.308 217.684 322.993 218.296 323.679 218.909C325.59 220.601 327.734 222.395 330.287 222.381C329.674 219.945 325.969 218.953 326.013 216.444C330.01 217.917 333.278 221.258 334.663 225.298C335.83 222.016 334.065 218.486 332.344 215.452C334.182 217.757 337.391 218.88 340.28 218.238C337.668 216.823 335.86 214.037 335.641 211.076C335.582 210.244 335.553 209.267 334.868 208.8C334.474 208.537 333.963 208.537 333.482 208.493C332.038 208.391 330.623 207.939 329.397 207.166C331.104 207.356 332.811 207.545 334.518 207.735C334.576 205.649 332.227 204.234 330.156 204.263C328.084 204.292 326.13 205.24 324.102 205.707C322.074 206.174 319.609 205.97 318.413 204.263" fill="#D0FF47"/>
<path d="M319.303 206.115C319.128 213.468 321.739 222.016 330.287 222.92C330.754 222.964 330.9 222.424 330.754 222.103C329.791 219.857 326.947 218.777 326.538 216.298C326.276 216.502 325.998 216.706 325.736 216.91C329.733 218.602 332.534 221.374 334.138 225.444C334.313 225.911 335.057 226.013 335.189 225.444C336.064 221.637 334.634 218.486 332.825 215.174C332.534 215.393 332.257 215.612 331.965 215.831C334.313 218.311 337.07 219.215 340.425 218.763C340.921 218.69 340.907 217.99 340.557 217.756C337.362 215.699 337.07 213.541 336.108 210.2C336.005 209.85 336.049 209.412 335.83 209.12C334.474 207.341 331.629 207.706 329.675 206.684C329.587 207.02 329.485 207.37 329.397 207.706C331.104 207.895 332.811 208.085 334.518 208.274C334.911 208.318 335.101 207.895 335.043 207.589C333.715 199.434 322.614 207.881 318.792 203.869C318.311 203.358 317.538 204.132 318.019 204.642C319.42 206.13 321.01 206.582 323.052 206.422C324.511 206.32 325.838 205.678 327.238 205.342C329.543 204.146 331.396 204.701 332.796 206.991C331.658 206.859 330.521 206.743 329.383 206.611C328.843 206.553 328.639 207.399 329.106 207.633C330.316 208.26 332.315 208.391 333.321 209.018C335.539 210.39 334.911 211.702 335.655 213.686C336.487 215.904 338.033 217.45 339.988 218.719C340.032 218.384 340.075 218.048 340.119 217.713C337.056 218.136 334.78 217.231 332.723 215.058C332.286 214.605 331.571 215.189 331.863 215.714C333.54 218.777 334.97 221.476 334.124 225.138C334.474 225.138 334.824 225.138 335.174 225.138C333.467 220.834 330.535 217.756 326.261 215.962C325.809 215.772 325.371 216.079 325.459 216.575C325.619 217.494 325.896 218.063 326.465 218.807C327.326 219.944 332.154 223.708 326.99 220.805C321.506 217.727 320.222 211.98 320.368 206.101C320.411 205.415 319.317 205.415 319.303 206.115Z" fill="black"/>
<path d="M317.027 205.503C316.327 207.108 315.058 208.406 314.197 209.923C313.205 211.645 312.739 213.672 312.855 215.656C314.081 214.402 315.291 213.132 316.517 211.878C316.487 213.803 316.444 215.729 316.415 217.655C316.415 217.815 316.429 217.99 316.56 218.063C316.692 218.136 316.867 218.048 316.983 217.946C317.888 217.188 318.253 215.948 318.326 214.766C318.398 213.585 318.238 212.403 318.311 211.221C318.501 208.289 320.149 205.649 321.958 203.33C323.767 201.01 325.809 198.822 327.049 196.153C327.18 195.875 327.297 195.598 327.297 195.307C327.326 194.227 325.853 193.629 324.861 194.067C323.869 194.504 323.285 195.54 322.789 196.503C322.775 195.598 322.673 194.533 321.885 194.067C321.214 193.673 320.309 193.964 319.77 194.533C319.245 195.102 318.997 195.875 318.821 196.634C318.238 199.085 318.048 201.608 317.552 204.088C317.071 206.568 316.24 209.048 314.591 210.944" fill="#FF5DC1"/>
<path d="M316.56 205.226C314.591 208.917 312.359 211.265 312.315 215.656C312.315 216.123 312.913 216.386 313.249 216.05C314.066 215.204 314.883 214.373 315.685 213.526C316.239 212.987 316.327 213.395 315.919 214.766C316.239 215.875 315.627 217.086 316.035 218.209C316.137 218.486 316.4 218.676 316.706 218.588C318.967 217.932 318.807 214.81 318.865 212.987C319.069 206.218 323.825 203.14 326.83 197.714C329.368 193.119 324.525 192.287 322.308 196.197C322.643 196.284 322.993 196.386 323.329 196.474C323.183 194.359 321.753 192.054 319.434 194.081C318.107 195.248 317.99 197.903 317.727 199.435C317.042 203.49 316.677 207.196 314.11 210.653C313.687 211.222 314.635 211.761 315.058 211.207C316.662 209.063 317.523 206.831 318.077 204.22C318.398 202.746 318.53 201.229 318.778 199.741C318.865 199.245 318.938 198.749 319.026 198.253C318.938 196.372 320.003 195.788 322.22 196.488C322.264 196.999 322.964 197.261 323.241 196.765C325.707 196.328 326.451 196.678 325.473 197.787C325.109 198.399 324.7 198.983 324.233 199.522C323.373 200.689 322.425 201.784 321.549 202.936C320.339 204.541 319.157 206.204 318.457 208.1C317.961 209.427 317.859 210.711 317.757 212.097C317.698 212.943 317.392 216.721 316.969 216.211C316.502 215.627 317.027 212.564 317.042 211.878C317.056 211.411 316.429 211.149 316.108 211.484C315.291 212.33 314.474 213.162 313.672 214.008C313.453 212.651 313.774 211.382 314.649 210.201C315.481 208.654 316.662 207.341 317.479 205.781C317.829 205.153 316.896 204.614 316.56 205.226Z" fill="black"/>
<path d="M220.866 219.274C220.633 226.859 220.414 234.605 222.588 241.87C222.967 243.154 223.478 244.481 224.543 245.298C225.724 246.202 227.387 246.29 228.787 245.794C230.188 245.313 231.369 244.321 232.405 243.256C238.284 237.217 240.239 228.376 240.764 219.974C240.837 218.822 240.764 217.407 239.743 216.852C239.276 216.59 238.722 216.59 238.196 216.59C232.011 216.634 225.812 217.057 219.67 217.874" fill="#D0FF47"/>
<path d="M220.312 219.274C220.152 224.788 219.962 230.346 220.735 235.831C221.114 238.544 221.435 242.468 223.244 244.729C227.358 249.835 233.237 243.708 235.643 240.061C237.992 236.502 239.392 232.417 240.239 228.274C240.807 225.503 242.252 220.747 241.143 218.092C240.311 216.138 239.232 216.167 237.161 216.079C231.384 215.831 225.388 216.634 219.67 217.348C218.985 217.436 218.97 218.53 219.67 218.442C224.324 217.859 231.559 215.963 236.125 217.188C241.829 218.705 240.151 222.921 239.363 227.093C238.926 229.47 238.328 231.834 237.452 234.08C236.227 237.26 234.462 240.469 231.997 242.891C227.387 247.413 223.025 242.468 222.121 237.727C220.968 231.659 221.202 225.43 221.377 219.288C221.435 218.574 220.341 218.574 220.312 219.274Z" fill="black"/>
<path d="M52.5124 110.189C51.5059 109.853 48.0049 119.627 40.2443 136.927C38.1583 141.566 37.9249 142.339 37.5602 144.075C35.6639 153.207 42.7242 162.908 51.8414 164.848C55.4007 165.606 59.6749 165.096 61.8046 162.135C63.7302 159.465 62.4173 156.227 60.3313 148.758C56.7865 136.052 52.2644 119.904 52.7312 111.501C52.7458 111.151 52.8041 110.291 52.5124 110.189Z" fill="#D0FF47"/>
<path d="M52.3665 109.663C50.7619 109.897 49.77 113.646 49.2594 114.783C45.9918 122.033 42.9722 129.386 39.7629 136.65C35.4596 146.395 35.9264 156.897 46.0501 163.083C53.6356 167.721 64.9847 166.088 62.7382 155.424C60.9731 147.08 58.0411 138.926 56.0572 130.625C54.9485 125.914 53.8545 121.144 53.4168 116.315C53.2418 114.317 53.7669 111.924 53.0376 110.057C52.7896 109.415 51.7247 109.692 51.9873 110.349C53.0521 113.091 52.3811 117.19 52.8333 120.225C53.6211 125.374 54.861 130.45 56.1447 135.483C57.5159 140.851 59.0476 146.19 60.5355 151.529C61.8338 156.212 64.5908 161.77 57.2096 164.366C53.1543 165.796 48.1507 163.316 45.0728 160.967C32.688 151.529 39.6171 139.83 44.3872 128.846C45.1457 127.081 50.0763 111.093 52.6437 110.714C53.3585 110.611 53.0521 109.561 52.3665 109.663Z" fill="black"/>
<path d="M160.08 208.946C159.614 219.186 159.176 229.602 161.729 239.521C162.298 241.738 163.319 244.218 165.507 244.846C168.074 245.575 170.467 243.328 171.998 241.14C176.637 234.503 179.161 226.407 179.132 218.311C179.132 217.946 179.117 217.567 178.898 217.275C178.65 216.954 178.271 216.838 178.125 216.794C171.152 214.883 168.352 214.664 168.352 214.664C166.236 214.504 163.202 213.978 159.526 212.286" fill="#D0FF47"/>
<path d="M159.541 208.946C159.234 215.773 158.913 222.644 159.526 229.456C159.905 233.657 159.993 239.507 162.546 243.051C166.455 248.463 171.298 243.416 173.807 239.375C176.812 234.547 178.694 228.931 179.38 223.3C179.584 221.579 180.474 218.384 179.292 216.896C177.717 214.898 172.188 214.737 169.767 214.314C166.236 213.701 163.027 213.147 159.687 211.761C159.03 211.499 158.753 212.549 159.395 212.812C162.779 214.212 165.945 214.752 169.475 215.364C171.225 215.671 174.07 215.787 175.572 216.677C180.532 219.668 178.125 225.867 176.798 230.112C175.82 233.249 173.457 240.455 170.321 242.337C164.792 242.847 161.918 241.024 161.685 236.866C161.175 234.416 160.824 231.936 160.62 229.441C160.007 222.629 160.328 215.758 160.635 208.931C160.664 208.246 159.57 208.246 159.541 208.946Z" fill="black"/>
<path d="M160.547 173.484C156.273 174.651 151.007 175.73 144.91 176.241C139.527 176.678 134.727 176.576 130.701 176.241C131.649 169.356 132.598 162.47 133.546 155.585C139.775 157.948 144.457 157.744 147.754 156.956C153.545 155.57 157.965 151.705 159.132 152.828C159.716 153.397 159.103 154.943 158.418 156.271C157.878 158.094 157.192 161.289 157.703 165.227C158.199 169.02 159.599 171.85 160.547 173.484Z" fill="#CB0002"/>
<path d="M121.73 203.592C111.387 198.56 100.666 194.256 90.7169 188.494C88.0619 186.948 83.496 182.849 85.2174 179.844C81.1912 185.81 77.1651 192.608 71.4614 196.999C65.7577 201.39 58.5952 204.249 51.4182 203.621C47.1295 203.242 43.0304 201.652 39.1355 199.8C34.7301 197.699 30.3976 195.161 27.2467 191.426C21.0908 184.118 20.5657 173.382 23.3227 164.235C26.0797 155.089 31.6376 147.11 36.8161 139.086C38.3478 136.723 39.9087 133.922 39.0772 131.238C38.0415 127.912 33.6652 126.658 30.3684 127.781C27.0717 128.904 21.3972 131.005 19.1215 133.66C15.9123 132.26 14.7015 129.663 12.3529 127.052C10.0043 124.441 5.75937 122.588 3.14821 124.907C1.32478 126.527 1.31019 129.43 2.2292 131.691C3.14821 133.937 4.81119 135.804 6.05112 137.89C10.4128 145.286 9.09991 154.68 6.59086 162.893C4.0964 171.106 0.52247 179.275 0.785044 187.852C0.945506 193.221 2.63765 198.457 4.95706 203.301C14.1763 222.585 34.0445 236.195 55.313 238.369C76.5816 240.542 98.5503 231.425 112.452 215.175C122.736 203.155 128.586 187.838 131.43 172.288C134.275 156.737 134.304 140.808 134.085 124.98" fill="#D0FF47"/>
<path d="M122.007 203.111C115.618 200.048 109.141 197.203 102.752 194.14C98.4045 192.054 83.7879 187.021 85.7426 179.99C85.9176 179.377 85.0862 179.071 84.7361 179.567C79.3241 187.663 74.1164 195.978 65.0284 200.34C52.5998 206.291 34.2926 200.938 26.3862 189.413C19.9385 180.019 21.9078 167.591 26.3278 157.861C27.9762 154.243 30.0038 150.8 32.0899 147.416C34.3801 143.726 38.1145 139.714 39.3106 135.484C40.3172 131.939 39.4419 128.803 35.8242 127.358C30.6165 125.258 26.0798 129.517 21.4702 131.049C18.7715 131.953 20.8137 134.025 16.3937 131.078C15.1684 130.261 14.3661 128.511 13.3741 127.431C11.8716 125.797 10.2378 124.164 7.97675 123.595C4.51952 122.734 1.60202 124.353 1.09146 128.059C0.785125 130.276 1.8646 132.231 2.85655 134.098C5.80322 139.685 8.3852 143.405 8.29767 150.086C8.16639 160.589 2.75444 169.925 0.887239 180.092C-1.79686 194.767 5.4677 208.975 15.4601 219.362C36.4807 241.228 69.8568 245.006 95.7934 229.748C132.32 208.261 135.063 162.85 134.596 124.995C134.581 124.295 133.487 124.295 133.502 124.995C133.852 152.974 133.371 183.024 117.587 207.327C103.116 229.631 75.4293 242.395 49.0989 236.867C24.6502 231.732 -3.02221 207.779 1.95212 180.384C4.00896 169.049 10.515 158.444 9.28962 146.599C9.04164 144.251 8.53107 141.975 7.59748 139.816C6.73681 137.803 4.30071 135.586 3.79014 133.558C4.34447 124.31 7.05774 122.267 11.93 127.446C12.7906 128.438 13.6075 129.459 14.3952 130.495C15.8394 132.099 16.9626 133.091 18.8007 134.142C19.0195 134.258 19.282 134.229 19.4571 134.054C21.7182 131.924 24.3439 130.655 27.1885 129.517C28.2679 129.094 29.362 128.7 30.4561 128.321C32.7755 131.209 35.0949 134.098 37.3997 136.986C37.3997 140.079 30.777 147.343 29.2453 149.954C25.2775 156.723 21.937 163.988 21.2805 171.894C19.8655 188.845 32.5712 200.792 48.6758 203.811C56.1154 205.197 63.5259 203.038 69.7401 198.895C72.9056 196.795 75.5751 194.14 77.9529 191.193C79.4116 189.399 82.5771 182.499 84.4443 181.959C87.639 181.04 83.3503 180.967 84.2838 181.361C83.9046 181.201 85.2904 184.279 85.3196 184.322C86.4574 186.306 88.5434 187.751 90.4106 188.99C99.907 195.234 111.212 199.187 121.424 204.089C122.08 204.366 122.634 203.417 122.007 203.111Z" fill="black"/>
<path d="M84.9695 121.509C94.5098 141.012 94.6848 162.193 83.3212 180.996C82.9565 181.594 83.9047 182.149 84.2693 181.551C95.8518 162.412 95.6476 140.837 85.9177 120.969C85.5968 120.327 84.6486 120.867 84.9695 121.509Z" fill="black"/>
<path d="M82.2124 83.8586C107.93 72.1886 137.295 72.0719 163.1 83.5376C163.742 83.8148 164.296 82.8812 163.654 82.5894C137.455 70.9486 107.755 71.0507 81.6581 82.9104C81.0308 83.2021 81.5851 84.1503 82.2124 83.8586Z" fill="black"/>
<path d="M103.16 66.2948C117.368 60.8682 132.335 60.9849 146.456 66.6157C147.112 66.8783 147.389 65.8134 146.747 65.5654C132.466 59.8617 117.237 59.745 102.868 65.2445C102.212 65.4925 102.489 66.5574 103.16 66.2948Z" fill="black"/>
<path d="M165.492 106.425C168.147 105.345 170.89 105.068 173.691 105.681C174.376 105.827 174.668 104.777 173.982 104.631C171.006 103.989 168.031 104.222 165.201 105.375C164.559 105.637 164.851 106.702 165.492 106.425Z" fill="black"/>
<path d="M161.291 116.315C164.544 113.34 171.794 113.062 175.762 114.798C176.404 115.075 176.958 114.142 176.316 113.85C171.75 111.852 164.311 112.07 160.518 115.542C159.993 116.024 160.781 116.797 161.291 116.315Z" fill="black"/>
<path d="M164.53 125.856C166.543 125.972 168.556 125.914 170.554 125.681C171.24 125.593 171.254 124.499 170.554 124.587C168.541 124.82 166.543 124.878 164.53 124.762C163.829 124.718 163.829 125.812 164.53 125.856Z" fill="black"/>
<path d="M63.0301 100.007C65.6996 98.9272 68.4566 98.1541 71.3011 97.6873C72.0013 97.5706 71.695 96.5203 71.0094 96.637C68.1648 97.1038 65.4078 97.8769 62.7383 98.9564C62.0819 99.2189 62.3736 100.284 63.0301 100.007Z" fill="black"/>
<path d="M69.5506 105.142C68.5149 106.309 67.8147 107.665 67.5813 109.212C67.4063 110.335 67.3479 112.042 68.1502 112.99C68.8942 113.865 70.2362 113.792 71.1261 113.194C72.3368 112.377 72.7745 110.612 72.9933 109.255C73.1683 108.176 72.9495 106.965 71.8554 106.455C70.4988 105.827 69.6965 107.009 69.288 108.147C68.8942 109.212 68.2232 111.254 69.0984 112.26C69.6673 112.917 70.7468 112.873 71.1261 112.042C71.4178 111.4 70.4696 110.845 70.1779 111.487C69.857 111.283 69.7403 111.02 69.8278 110.685C69.8716 110.247 69.9445 109.81 70.0612 109.372C70.1487 109.051 70.2362 108.745 70.3529 108.424C70.5718 107.33 71.1115 107.417 71.9867 108.657C72.1472 109.562 71.3449 111.589 70.7176 112.144C68.8796 113.719 68.5295 110.714 68.6462 109.62C68.8067 108.22 69.4193 106.951 70.3529 105.9C70.7906 105.39 70.0174 104.617 69.5506 105.142Z" fill="black"/>
<path d="M62.8695 121.859C65.3786 122.048 67.8876 122.252 70.3967 122.442C71.0969 122.5 71.0969 121.406 70.3967 121.348C67.8876 121.158 65.3786 120.954 62.8695 120.764C62.1693 120.721 62.1693 121.815 62.8695 121.859Z" fill="black"/>
<path d="M196.359 78.3294C212.77 107.767 163.727 148.626 195.397 173.367C204.674 180.617 219.437 183.709 230.13 177.904C241.697 171.631 248.626 159.129 250.012 146.365C250.085 145.665 248.991 145.665 248.918 146.365C247.211 162.076 235.702 179.348 218.46 179.771C202.282 180.165 185.054 168.538 185.609 151.077C185.827 144.002 188.862 136.869 190.948 130.188C193.179 123.084 195.47 115.994 197.614 108.876C200.765 98.4164 202.895 87.7967 197.308 77.7605C196.958 77.1624 196.009 77.7021 196.359 78.3294Z" fill="black"/>
<path d="M205.054 139.378C205.71 151.457 206.104 163.594 200.736 174.782C200.429 175.409 201.378 175.964 201.684 175.336C207.14 163.973 206.833 151.69 206.162 139.378C206.104 138.678 205.01 138.664 205.054 139.378Z" fill="black"/>
<path d="M215.848 171.442C216.374 173.352 216.053 175.249 214.944 176.883C214.55 177.466 215.498 178.02 215.892 177.437C217.147 175.57 217.511 173.323 216.913 171.15C216.709 170.479 215.659 170.756 215.848 171.442Z" fill="black"/>
<path d="M229.838 152.2C230.567 160.151 232.857 170.552 229.692 178.108C229.415 178.75 230.479 179.041 230.742 178.4C233.98 170.668 231.661 160.253 230.932 152.2C230.873 151.5 229.779 151.5 229.838 152.2Z" fill="black"/>
<path d="M279.887 88.6716C280.063 108.686 293.002 128.189 289.894 148.174C288.261 158.692 285.489 169.705 274.461 173.41C264.862 176.634 248.145 179.406 241.406 169.428C241.012 168.844 240.064 169.399 240.458 169.982C245.709 177.743 255.92 177.874 264.381 176.795C272.565 175.759 282.207 173.658 286.145 165.635C290.624 156.503 292.608 144.585 290.726 134.564C287.852 119.305 281.127 104.309 280.996 88.6425C280.982 87.9569 279.887 87.9568 279.887 88.6716Z" fill="black"/>
<path d="M165.142 147.022C154.245 150.494 155.544 171.413 163.538 177.204C164.106 177.612 164.661 176.664 164.092 176.256C157.148 171.238 155.514 151.238 165.449 148.073C166.09 147.868 165.813 146.818 165.142 147.022Z" fill="black"/>
<path d="M131.795 176.489C136.23 177.408 140.635 177.787 145.157 177.291C150.146 176.751 154.887 175.03 159.891 174.534C160.591 174.461 160.591 173.367 159.891 173.44C150.175 174.403 142.036 177.495 132.087 175.424C131.387 175.293 131.095 176.343 131.795 176.489Z" fill="black"/>
<path d="M135.442 173.017C140.489 165.183 149.475 162.003 157.863 159.057C158.52 158.823 158.242 157.773 157.571 158.006C148.892 161.07 139.716 164.396 134.494 172.477C134.115 173.046 135.048 173.6 135.442 173.017Z" fill="black"/>
<path d="M103.073 225.181C103.204 226.859 103.321 228.536 103.452 230.214C103.612 232.358 103.787 234.532 104.546 236.545C105.304 238.558 106.763 240.41 108.791 241.14C111.708 242.19 115.063 240.6 116.945 238.135C118.827 235.669 119.542 232.519 120.067 229.47C121.292 222.351 121.788 215.116 121.526 207.895C121.467 206.101 121.321 204.204 120.315 202.716C119.775 204.817 119.206 206.976 117.923 208.712C117.033 209.908 115.866 210.856 114.728 211.819C109.972 215.86 105.742 220.542 102.197 225.677" fill="#D0FF47"/>
<path d="M102.533 225.181C102.883 229.893 102.358 237.187 106.632 240.498C109.579 242.774 113.313 242.22 116.041 239.871C120.359 236.18 120.782 229.31 121.394 224.087C122.182 217.45 123.714 208.712 120.782 202.41C120.578 201.973 119.892 202.119 119.775 202.542C117.339 211.396 107.07 217.873 101.701 225.386C101.293 225.955 102.241 226.509 102.65 225.94C106.34 220.761 110.468 216.473 115.093 212.184C116.187 211.177 117.5 210.215 118.375 208.96C118.827 208.333 119.206 207.676 119.498 206.962C119.994 204.438 120.373 204.248 120.607 206.393C122.78 210.258 120.811 219.726 120.286 224.073C120.038 226.159 119.848 231.571 118.477 233.846C108.309 238.835 103.481 237.624 103.992 230.185C103.86 228.507 103.744 226.83 103.612 225.152C103.569 224.481 102.474 224.467 102.533 225.181Z" fill="black"/>
<path d="M22.6809 181.346C18.8444 184.658 16.5396 189.121 15.9998 194.169C15.9269 194.869 17.021 194.869 17.0939 194.169C17.6044 189.413 19.8363 185.241 23.454 182.119C23.9938 181.653 23.2206 180.894 22.6809 181.346Z" fill="black"/>
<path d="M30.3247 193.016C25.715 197.363 23.454 203.344 24.0521 209.661C24.125 210.361 25.2191 210.361 25.1461 209.661C24.5626 203.607 26.6632 197.976 31.0978 193.789C31.6084 193.308 30.8352 192.535 30.3247 193.016Z" fill="black"/>
<path d="M71.2427 198.501C74.4228 203.476 76.042 208.931 76.0566 214.839C76.0566 215.539 77.1506 215.539 77.1506 214.839C77.1361 208.771 75.4585 203.053 72.1763 197.947C71.8116 197.363 70.8634 197.903 71.2427 198.501Z" fill="black"/>
<path d="M83.8463 186.087C85.7718 188.115 87.1138 190.492 87.8578 193.191C88.0474 193.877 89.0977 193.585 88.9081 192.899C88.1204 190.026 86.6762 187.458 84.6194 185.314C84.138 184.803 83.3649 185.576 83.8463 186.087Z" fill="black"/>
<path d="M139.658 157.072C139.06 158.064 138.914 159.333 139.381 160.398C139.848 161.449 140.971 162.222 142.123 162.149C142.823 162.105 143.48 161.784 144.063 161.39C145.551 160.384 146.733 158.706 146.616 156.912C146.747 159.085 148.936 160.894 151.094 160.632C153.253 160.369 154.931 158.064 154.523 155.935" fill="white"/>
<path d="M139.191 156.795C138.185 158.998 138.52 161.945 141.292 162.587C144.486 163.331 147.039 159.64 147.185 156.898C146.82 156.941 146.47 157 146.106 157.043C147.17 162.966 155.514 161.959 155.091 155.92C155.048 155.22 153.954 155.22 153.997 155.92C154.158 158.225 153.21 159.144 150.963 159.436C149.65 160.136 148.717 159.873 148.177 158.619C147.506 158.152 147.156 157.539 147.156 156.766C147.039 156.139 146.106 156.329 146.076 156.912C146.106 158.094 145.726 159.056 144.939 159.815C143.669 161.741 142.065 160.924 140.125 157.364C140.416 156.708 139.483 156.154 139.191 156.795Z" fill="black"/>
<path d="M140.65 157.102C140.46 157.364 140.11 157.948 140.11 158.706C140.125 159.815 140.898 160.851 142.065 161.376C142.43 161.39 142.94 161.361 143.494 161.128C144.224 160.821 144.588 160.267 144.909 159.961C146.324 158.546 144.909 157.116 144.909 157.116H140.65V157.102Z" fill="white"/>
<path d="M158.855 152.361C151.051 156.723 142.254 157.642 133.692 155.147C133.021 154.943 132.729 156.008 133.4 156.198C142.24 158.78 151.357 157.802 159.409 153.295C160.022 152.959 159.468 152.011 158.855 152.361Z" fill="black"/>
<path d="M158.695 171.791C160.051 170.887 155.908 169.997 154.333 170.376C152.757 170.756 151.43 171.85 150.423 173.119C149.825 172.025 148.95 170.77 147.696 170.858C146.864 170.916 146.208 171.587 145.799 172.302C145.391 173.017 145.143 173.834 144.676 174.519C144.195 172.9 142.517 171.718 140.825 171.806C139.133 171.893 137.586 173.236 137.266 174.884C136.565 174.184 135.851 173.483 134.99 173.031C134.129 172.564 133.064 172.36 132.145 172.71C131.226 173.06 130.526 174.052 130.716 175.015C130.73 175.015 145.099 180.85 158.695 171.791Z" fill="white"/>
<path d="M159.176 172.069C159.264 171.923 159.351 171.777 159.439 171.631C159.555 171.427 159.526 171.135 159.351 170.975C158.33 170.012 156.711 169.676 155.31 169.749C153.326 169.866 151.999 171.806 150.205 171.762C149.154 171.748 149.125 170.172 147.564 170.347C145.945 170.537 145.405 173.002 144.545 173.075C143.83 173.134 142.167 171.194 140.767 171.281C139.22 171.383 138.141 173.44 137.236 173.528C135.792 173.673 134.669 171.894 132.889 172.113C131.139 172.331 130.57 173.207 130.205 174.884C130.132 175.19 130.293 175.438 130.585 175.555C139.906 179.202 150.642 177.422 158.972 172.273C159.57 171.908 159.016 170.96 158.417 171.325C152.48 174.986 145.901 176.781 138.929 176.212C136.974 176.051 135.034 175.73 133.137 175.22C128.105 173.863 135.573 174.067 136.886 175.307C137.207 175.614 137.659 175.453 137.805 175.059C139.935 174.972 142.079 174.899 144.209 174.811C144.399 175.176 144.968 175.161 145.157 174.811C145.799 172.871 147.404 172.404 149.957 173.411C150.146 173.703 150.569 173.79 150.817 173.528C152.393 171.325 154.26 170.479 156.39 171.004C157.061 170.975 157.673 171.15 158.228 171.529C157.878 172.127 158.826 172.681 159.176 172.069Z" fill="black"/>
<path d="M131.212 174.68C132.087 174.242 135.617 172.594 137.222 174.68C137.441 174.957 137.864 175.628 137.762 175.847C137.616 176.153 136.492 175.176 135.209 174.68C134.304 174.33 132.977 174.096 131.212 174.68Z" fill="white"/>
<path d="M141.073 175.891C142.886 175.891 144.355 175.152 144.355 174.242C144.355 173.332 142.886 172.594 141.073 172.594C139.26 172.594 137.791 173.332 137.791 174.242C137.791 175.152 139.26 175.891 141.073 175.891Z" fill="white"/>
<path d="M148.514 174.377C149.414 174.239 150.055 173.553 149.946 172.844C149.838 172.135 149.02 171.672 148.12 171.81C147.22 171.948 146.579 172.635 146.688 173.343C146.796 174.052 147.614 174.515 148.514 174.377Z" fill="white"/>
<path d="M83.7878 184.103C83.7878 184.103 83.7878 178.414 88.0474 178.414C92.3069 178.414 116.478 192.622 116.478 192.622L120.738 198.311C120.738 198.311 120.738 205.416 116.478 205.416C112.219 205.416 95.1515 196.882 95.1515 196.882L88.0474 188.348L83.7878 184.103Z" fill="#D0FF47"/>
</svg>
