<svg width="330" height="528" viewBox="0 0 330 528" fill="none" xmlns="http://www.w3.org/2000/svg">
<path d="M324.633 152.56C322.285 153.043 319.475 155.855 315.701 153.987C311.949 152.119 303.478 151.658 296.916 155.897C290.354 160.136 289.431 173.776 289.431 173.776C289.431 173.776 263.203 226.972 249.114 226.993C239.68 227.014 236.745 206.218 234.396 185.38C226.849 184.898 221.964 187.416 218.84 190.144C220.328 215.997 225.78 229.868 227.037 234.065C228.463 238.766 243.307 263.192 269.808 237.759C296.308 212.304 303.772 173.734 303.772 173.734C306.12 175.622 311.55 182.191 311.55 182.191C320.964 189.703 313.416 173.251 313.416 173.251L318.133 182.17C325.66 184.499 317.651 170.418 317.651 170.418L322.83 176.525C329.413 177.931 325.157 168.53 321.865 165.235C318.574 161.94 321.865 160.534 327.023 158.163C332.159 155.834 327.002 152.077 324.633 152.56Z" fill="#FBCEC0"/>
<path d="M324.633 152.56C322.285 153.043 319.475 155.855 315.701 153.987C311.949 152.119 303.478 151.658 296.916 155.897C290.354 160.136 289.431 173.776 289.431 173.776C289.431 173.776 263.203 226.972 249.114 226.993C239.68 227.014 236.745 206.218 234.396 185.38C226.849 184.898 221.964 187.416 218.84 190.144C220.328 215.997 225.78 229.868 227.037 234.065C228.463 238.766 243.307 263.192 269.808 237.759C296.308 212.304 303.772 173.734 303.772 173.734C306.12 175.622 311.55 182.191 311.55 182.191C320.964 189.703 313.416 173.251 313.416 173.251L318.133 182.17C325.66 184.499 317.651 170.418 317.651 170.418L322.83 176.525C329.413 177.931 325.157 168.53 321.865 165.235C318.574 161.94 321.865 160.534 327.023 158.163C332.159 155.834 327.002 152.077 324.633 152.56Z" stroke="#231F20" stroke-width="0.7466" stroke-miterlimit="10" stroke-linecap="round" stroke-linejoin="round"/>
<path d="M234.396 185.401C233.243 175.077 232.237 164.752 230.665 156.967C227.666 142.067 220.895 133.799 216.345 129.728C215.905 142.151 214.731 154.239 214.521 158.75C219.511 165.235 218.483 180.743 218.483 180.743C218.546 184.058 218.651 187.185 218.84 190.186C221.964 187.437 226.849 184.919 234.396 185.401Z" fill="#0093CD"/>
<path d="M234.396 185.401C233.243 175.077 232.237 164.752 230.665 156.967C227.666 142.067 220.895 133.799 216.345 129.728C215.905 142.151 214.731 154.239 214.521 158.75C219.511 165.235 218.483 180.743 218.483 180.743C218.546 184.058 218.651 187.185 218.84 190.186C221.964 187.437 226.849 184.919 234.396 185.401Z" stroke="#231F20" stroke-width="0.7466" stroke-miterlimit="10" stroke-linecap="round" stroke-linejoin="round"/>
<path d="M299.998 168.823C299.998 168.823 304.233 173.293 306.833 176.797" stroke="#231F20" stroke-width="0.7466" stroke-miterlimit="10" stroke-linecap="round" stroke-linejoin="round"/>
<path d="M306.33 157.533C306.33 157.533 310.334 162.234 309.642 165.529" stroke="#231F20" stroke-width="0.7466" stroke-miterlimit="10" stroke-linecap="round" stroke-linejoin="round"/>
<path d="M198.755 140.557L198.923 112.815C198.923 112.815 219.112 99.1325 220.077 116.529C220.37 121.733 220.329 127.546 220.119 133.296L219.658 140.515" fill="#7FC579"/>
<path d="M198.755 140.557L198.923 112.815C198.923 112.815 219.112 99.1325 220.077 116.529C220.37 121.733 220.329 127.546 220.119 133.296L219.658 140.515" stroke="#231F20" stroke-width="0.7466" stroke-miterlimit="10" stroke-linecap="round" stroke-linejoin="round"/>
<path d="M219.637 140.515L218.484 158.96C218.358 160.849 218.274 162.276 218.274 163.094C218.274 167.795 215.947 174.867 198.566 174.888L198.755 140.557" fill="#00A551"/>
<path d="M219.637 140.515L218.484 158.96C218.358 160.849 218.274 162.276 218.274 163.094C218.274 167.795 215.947 174.867 198.566 174.888L198.755 140.557" stroke="#231F20" stroke-width="0.7466" stroke-miterlimit="10" stroke-linecap="round" stroke-linejoin="round"/>
<path d="M62.1424 140.787L61.8908 113.045C61.8908 113.045 41.6589 99.4472 40.7574 116.844C40.4848 122.048 40.5477 127.861 40.7783 133.611L41.2605 140.829" fill="#7FC579"/>
<path d="M62.1424 140.787L61.8908 113.045C61.8908 113.045 41.6589 99.4472 40.7574 116.844C40.4848 122.048 40.5477 127.861 40.7783 133.611L41.2605 140.829" stroke="#231F20" stroke-width="0.7466" stroke-miterlimit="10" stroke-linecap="round" stroke-linejoin="round"/>
<path d="M41.2396 140.829L42.4765 159.275C42.6233 161.164 42.7072 162.591 42.7072 163.409C42.7072 168.11 45.0763 175.161 62.4568 175.14L62.1424 140.808" fill="#00A551"/>
<path d="M41.2396 140.829L42.4765 159.275C42.6233 161.164 42.7072 162.591 42.7072 163.409C42.7072 168.11 45.0763 175.161 62.4568 175.14L62.1424 140.808" stroke="#231F20" stroke-width="0.7466" stroke-miterlimit="10" stroke-linecap="round" stroke-linejoin="round"/>
<path d="M52.2046 478.539L52.2256 493.123C52.2256 493.123 23.5655 501.643 26.8781 513.856C30.1907 526.069 52.7497 526.049 76.6716 506.239L76.6297 477.552L52.2046 478.539Z" fill="#231F20"/>
<path d="M206.072 478.266L206.848 499.419C206.848 499.419 235.529 507.834 232.258 520.068C228.987 532.302 204.08 532.344 181.689 506.05L181.647 477.364L206.072 478.266Z" fill="#231F20"/>
<path d="M202.885 119.635L203.116 27.8889C203.116 27.8889 202.948 24.3634 202.927 12.5909C202.885 -3.54642 178.208 -2.79096 178.25 12.6539L178.271 20.6491C178.271 20.6491 155.23 15.5078 126.801 15.5708C94.136 15.6337 85.2256 20.817 85.2256 20.817L85.2046 12.8218C85.1837 -2.6021 60.507 -3.27361 60.528 12.8637C60.549 24.6153 60.3813 28.1617 60.3813 28.1617L57.9073 118.942C70.4658 122.3 99.021 128.994 126.528 128.931C156.194 128.868 190.788 122.174 202.885 119.635Z" fill="white"/>
<path d="M202.885 119.635L203.116 27.8889C203.116 27.8889 202.948 24.3634 202.927 12.5909C202.885 -3.54642 178.208 -2.79096 178.25 12.6539L178.271 20.6491C178.271 20.6491 155.23 15.5078 126.801 15.5708C94.136 15.6337 85.2256 20.817 85.2256 20.817L85.2046 12.8218C85.1837 -2.6021 60.507 -3.27361 60.528 12.8637C60.549 24.6153 60.3813 28.1617 60.3813 28.1617L57.9073 118.942C70.4658 122.3 99.021 128.994 126.528 128.931C156.194 128.868 190.788 122.174 202.885 119.635Z" stroke="#231F20" stroke-width="0.7466" stroke-miterlimit="10" stroke-linecap="round" stroke-linejoin="round"/>
<path d="M88.1608 472.243C88.1817 479.588 77.615 485.548 64.5534 485.569C51.5127 485.59 40.9041 479.672 40.9041 472.327C40.8831 464.983 51.4708 459.023 64.5115 459.002C77.5731 458.96 88.1608 464.899 88.1608 472.243Z" fill="white"/>
<path d="M88.1608 472.243C88.1817 479.588 77.615 485.548 64.5534 485.569C51.5127 485.59 40.9041 479.672 40.9041 472.327C40.8831 464.983 51.4708 459.023 64.5115 459.002C77.5731 458.96 88.1608 464.899 88.1608 472.243Z" stroke="#231F20" stroke-width="0.7466" stroke-miterlimit="10" stroke-linecap="round" stroke-linejoin="round"/>
<path d="M215.716 472.012C215.737 479.357 205.17 485.317 192.109 485.338C179.047 485.359 168.459 479.441 168.459 472.096C168.438 464.752 179.026 458.792 192.067 458.771C205.107 458.729 215.716 464.668 215.716 472.012Z" fill="white"/>
<path d="M192.112 485.339C205.161 485.315 215.729 479.349 215.716 472.013C215.703 464.676 205.114 458.748 192.064 458.772C179.015 458.795 168.446 464.761 168.46 472.098C168.473 479.434 179.062 485.362 192.112 485.339Z" stroke="#231F20" stroke-width="0.7466" stroke-miterlimit="10" stroke-linecap="round" stroke-linejoin="round"/>
<path d="M183.743 70.614C183.785 89.7732 160.304 105.344 131.287 105.407C102.271 105.47 78.7472 89.962 78.7052 70.8029C78.6633 51.6437 102.145 36.0729 131.161 36.01C160.178 35.947 183.722 51.4548 183.743 70.614Z" fill="#FBCEC0"/>
<path d="M183.743 70.614C183.785 89.7732 160.304 105.344 131.287 105.407C102.271 105.47 78.7472 89.962 78.7052 70.8029C78.6633 51.6437 102.145 36.0729 131.161 36.01C160.178 35.947 183.722 51.4548 183.743 70.614Z" stroke="#231F20" stroke-width="0.7466" stroke-miterlimit="10" stroke-linecap="round" stroke-linejoin="round"/>
<path d="M106.191 63.815C106.191 65.7666 104.619 67.3405 102.669 67.3405C100.719 67.3405 99.1468 65.7666 99.1468 63.815C99.1468 61.8634 100.719 60.2896 102.669 60.2896C104.619 60.2896 106.191 61.8634 106.191 63.815Z" fill="#231F20"/>
<path d="M167.055 63.71C167.055 65.6616 165.482 67.2355 163.532 67.2355C161.583 67.2355 160.01 65.6616 160.01 63.71C160.01 61.7584 161.583 60.1846 163.532 60.1846C165.461 60.1846 167.055 61.7584 167.055 63.71Z" fill="#231F20"/>
<path d="M133.258 78.3365C126.843 78.3575 120.637 75.6504 116.276 70.9288C116.003 70.635 116.024 70.1944 116.318 69.9216C116.611 69.6488 117.052 69.6697 117.303 69.9635C121.412 74.3913 127.22 76.9305 133.258 76.9095C139.275 76.8885 145.083 74.3494 149.171 69.9006C149.444 69.6068 149.884 69.6068 150.156 69.8586C150.45 70.1314 150.471 70.5721 150.198 70.8659C145.837 75.6085 139.674 78.3365 133.258 78.3365Z" fill="#231F20"/>
<path d="M202.529 258.596L202.885 119.635C190.788 122.174 156.194 128.868 126.528 128.931C99.042 128.973 70.4657 122.279 57.9073 118.942L54.1964 255.176C63.3793 258.093 86.0852 263.759 123.949 263.696C123.949 263.675 177.475 262.29 202.529 258.596Z" fill="#0093CD"/>
<path d="M202.529 258.596L202.885 119.635C190.788 122.174 156.194 128.868 126.528 128.931C99.042 128.973 70.4657 122.279 57.9073 118.942L54.1964 255.176C63.3793 258.093 86.0852 263.759 123.949 263.696C123.949 263.675 177.475 262.29 202.529 258.596Z" stroke="#231F20" stroke-width="0.7466" stroke-miterlimit="10" stroke-linecap="round" stroke-linejoin="round"/>
<path d="M1.06928 266.969C3.10295 314.479 19.5401 346.418 16.2065 319.159C16.2065 319.159 20.9238 334.205 20.9028 316.808C20.9028 316.808 29.3939 334.205 28.4295 321.026C27.6538 310.492 10.9022 251.609 25.9765 196.67C17.0242 195.999 11.3844 194.551 8.28148 193.501C3.01909 212.682 -0.230592 236.898 1.06928 266.969Z" fill="#FBCEC0"/>
<path d="M1.06928 266.969C3.10295 314.479 19.5401 346.418 16.2065 319.159C16.2065 319.159 20.9238 334.205 20.9028 316.808C20.9028 316.808 29.3939 334.205 28.4295 321.026C27.6538 310.492 10.9022 251.609 25.9765 196.67C17.0242 195.999 11.3844 194.551 8.28148 193.501C3.01909 212.682 -0.230592 236.898 1.06928 266.969Z" stroke="#231F20" stroke-width="0.7466" stroke-miterlimit="10" stroke-linecap="round" stroke-linejoin="round"/>
<path d="M8.26048 193.459C11.3634 194.53 17.0032 195.957 25.9555 196.628C29.4987 183.722 34.7821 171.048 42.4555 159.254C42.0362 153.567 41.1347 143.725 40.7363 133.59C33.021 141.102 17.5273 159.485 8.26048 193.459Z" fill="#0093CD"/>
<path d="M8.26048 193.459C11.3634 194.53 17.0032 195.957 25.9555 196.628C29.4987 183.722 34.7821 171.048 42.4555 159.254C42.0362 153.567 41.1347 143.725 40.7363 133.59C33.021 141.102 17.5273 159.485 8.26048 193.459Z" stroke="#231F20" stroke-width="0.7466" stroke-miterlimit="10" stroke-linecap="round" stroke-linejoin="round"/>
<path d="M202.319 335.737L202.508 258.596C177.475 262.29 123.928 263.675 123.928 263.675C86.0642 263.738 63.3583 258.072 54.1754 255.155L51.932 337.646L51.974 338.822C60.8844 341.13 75.204 341.13 80.8437 338.297L80.047 291.039L174.036 290.871L173.407 338.15C179.068 340.962 190.851 343.543 202.319 335.737Z" fill="#0061AE"/>
<path d="M202.319 335.737L202.508 258.596C177.475 262.29 123.928 263.675 123.928 263.675C86.0642 263.738 63.3583 258.072 54.1754 255.155L51.932 337.646L51.974 338.822C60.8844 341.13 75.204 341.13 80.8437 338.297L80.047 291.039L174.036 290.871L173.407 338.15C179.068 340.962 190.851 343.543 202.319 335.737Z" stroke="#231F20" stroke-width="0.7466" stroke-miterlimit="10" stroke-linecap="round" stroke-linejoin="round"/>
<path d="M72.6252 470.271L70.9899 340.458C70.9899 340.458 60.8844 341.172 51.995 338.843L56.4187 470.061" fill="#FBCEC0"/>
<path d="M72.6252 470.271L70.9899 340.458C70.9899 340.458 60.8844 341.172 51.995 338.843L56.4187 470.061" stroke="#231F20" stroke-width="0.7466" stroke-miterlimit="10" stroke-linecap="round" stroke-linejoin="round"/>
<path d="M198.336 471.677L202.319 337.374V335.716C190.578 342.41 183.282 340.941 183.282 340.941L182.108 469.347" fill="#FBCEC0"/>
<path d="M198.336 471.677L202.319 337.374V335.716C190.578 342.41 183.282 340.941 183.282 340.941L182.108 469.347" stroke="#231F20" stroke-width="0.7466" stroke-miterlimit="10" stroke-linecap="round" stroke-linejoin="round"/>
<path d="M49.5839 468.193C49.5839 468.193 62.5197 475.223 78.244 468.613" stroke="#231F20" stroke-width="0.7466" stroke-miterlimit="10" stroke-linecap="round" stroke-linejoin="round"/>
<path d="M178.733 467.648C178.733 467.648 191.144 475.58 207.288 470.103" stroke="#231F20" stroke-width="0.7466" stroke-miterlimit="10" stroke-linecap="round" stroke-linejoin="round"/>
</svg>
