<svg width="653" height="395" viewBox="0 0 653 395" fill="none" xmlns="http://www.w3.org/2000/svg">
<path d="M308.535 271.725C310.037 277.448 312.363 282.978 315.346 288.104C315.859 289.007 316.411 289.884 316.991 290.754C317.077 290.897 317.173 291.022 317.259 291.165C317.381 291.328 317.67 291.28 317.873 291.301C318.566 291.34 319.268 291.361 319.963 291.354C322.814 291.368 325.685 291.181 328.525 290.836C334.654 290.069 340.7 288.479 346.31 285.935C351.854 283.425 357.229 279.948 361.124 275.257C363.097 272.866 364.669 270.131 365.475 267.151C366.238 264.287 366.26 261.428 365.301 258.578C364.365 255.812 362.728 253.19 360.541 251.245C358.353 249.3 355.416 247.966 352.584 247.328C350.421 246.856 348.164 246.802 345.97 247.184C345.018 247.351 344.071 247.592 343.156 247.945C342.714 248.095 342.27 248.291 341.844 248.496C341.854 248.479 341.471 248.733 341.435 248.713C341.382 245.481 339.89 242.141 337.915 239.61C336.299 237.541 334.245 235.908 331.941 234.674C329.439 233.328 326.668 232.794 323.848 232.892C321.093 233.003 318.32 233.693 316.008 235.209C313.467 236.877 311.462 239.367 310.033 242.018C307.121 247.455 306.458 253.929 306.72 260.033C306.897 263.97 307.528 267.906 308.535 271.725C309.179 274.208 307.876 269.186 308.535 271.725Z" fill="url(#paint0_radial)"/>
<g clip-path="url(#clip0)">
<path d="M392.855 353.791C395.25 354.77 397.794 355.411 400.369 355.715C400.819 355.773 401.271 355.811 401.727 355.837C401.8 355.844 401.869 355.844 401.941 355.851C402.03 355.851 402.09 355.738 402.15 355.672C402.346 355.44 402.538 355.2 402.718 354.956C403.473 353.963 404.162 352.91 404.787 351.826C406.13 349.483 407.164 346.951 407.75 344.322C408.33 341.724 408.528 338.931 407.912 336.337C407.595 335.019 407.053 333.751 406.223 332.686C405.423 331.666 404.429 330.907 403.181 330.494C401.968 330.094 400.622 329.977 399.367 330.23C398.113 330.484 396.875 331.16 395.907 331.982C395.174 332.614 394.562 333.389 394.119 334.256C393.927 334.633 393.762 335.027 393.645 335.44C393.581 335.634 393.533 335.841 393.493 336.044C393.489 336.035 393.477 336.236 393.461 336.243C392.318 335.412 390.758 335.056 389.355 335.081C388.207 335.103 387.096 335.391 386.059 335.872C384.931 336.393 384.016 337.222 383.31 338.233C382.624 339.225 382.136 340.376 382.058 341.582C381.974 342.909 382.317 344.264 382.867 345.461C384.002 347.907 386.09 349.841 388.292 351.353C389.715 352.326 391.256 353.14 392.855 353.791C393.892 354.219 391.794 353.354 392.855 353.791Z" fill="url(#paint1_radial)"/>
</g>
<g clip-path="url(#clip1)">
<path d="M39.3251 153.188C41.7197 154.167 44.2636 154.808 46.8391 155.112C47.2896 155.17 47.7412 155.207 48.1975 155.233C48.27 155.241 48.3389 155.24 48.4114 155.248C48.5006 155.248 48.5598 155.134 48.6203 155.069C48.8161 154.837 49.0082 154.597 49.1885 154.352C49.9428 153.359 50.6317 152.307 51.2576 151.223C52.6005 148.879 53.6343 146.348 54.2199 143.718C54.7996 141.121 54.9976 138.328 54.3819 135.733C54.0651 134.416 53.5226 133.147 52.6928 132.082C51.8928 131.063 50.8995 130.304 49.6512 129.89C48.4385 129.49 47.092 129.373 45.8375 129.627C44.5831 129.88 43.3446 130.557 42.3774 131.379C41.6439 132.011 41.0318 132.786 40.5887 133.653C40.3967 134.03 40.2321 134.424 40.1151 134.836C40.0512 135.03 40.0027 135.237 39.9626 135.44C39.9591 135.432 39.9475 135.632 39.9308 135.64C38.7877 134.809 37.2281 134.453 35.8248 134.478C34.6769 134.499 33.5663 134.788 32.5296 135.269C31.4014 135.79 30.4864 136.618 29.7797 137.63C29.0943 138.622 28.6063 139.773 28.5284 140.979C28.4436 142.306 28.7866 143.661 29.3373 144.857C30.4721 147.304 32.5604 149.237 34.7621 150.75C36.1847 151.723 37.7259 152.536 39.3251 153.188C40.3619 153.615 38.2645 152.751 39.3251 153.188Z" fill="url(#paint2_radial)"/>
</g>
<g clip-path="url(#clip2)">
<path d="M73.4929 281.499C79.237 282.915 85.2058 283.515 91.1338 283.344C92.1722 283.324 93.2064 283.259 94.2474 283.165C94.414 283.158 94.5696 283.134 94.7361 283.126C94.9379 283.097 95.0339 282.82 95.149 282.652C95.5145 282.062 95.8691 281.455 96.1953 280.841C97.5705 278.343 98.7778 275.732 99.8322 273.072C102.088 267.321 103.582 261.249 104.03 255.105C104.475 249.035 103.991 242.651 101.733 236.987C100.576 234.112 98.9257 231.424 96.6932 229.291C94.5433 227.252 92.0428 225.866 89.0807 225.347C86.204 224.847 83.1188 225.032 80.3653 226.024C77.6119 227.016 75.0359 228.96 73.1218 231.142C71.6735 232.817 70.5473 234.774 69.8341 236.884C69.5255 237.801 69.2846 238.747 69.1574 239.719C69.0776 240.18 69.037 240.663 69.014 241.136C69.0032 241.119 69.0439 241.576 69.0087 241.598C66.1454 240.1 62.4983 239.815 59.3319 240.34C56.7423 240.772 54.3259 241.795 52.1411 243.229C49.7626 244.784 47.9691 246.964 46.7076 249.488C45.4881 251.961 44.7681 254.727 44.9944 257.482C45.2451 260.512 46.4732 263.463 48.1183 265.986C51.5017 271.142 56.871 274.819 62.3566 277.506C65.8996 279.232 69.6577 280.559 73.4929 281.499C75.9812 282.12 70.9478 280.865 73.4929 281.499Z" fill="url(#paint3_radial)"/>
</g>
<g clip-path="url(#clip3)">
<path d="M176.13 151.963C180.87 155.934 186.196 159.243 191.839 161.81C192.822 162.269 193.823 162.684 194.843 163.075C195.003 163.145 195.16 163.193 195.32 163.263C195.523 163.328 195.74 163.113 195.926 163.008C196.54 162.622 197.152 162.216 197.74 161.79C200.18 160.078 202.514 158.183 204.727 156.172C209.49 151.813 213.685 146.802 216.931 141.242C220.14 135.751 222.622 129.537 223.107 123.183C223.344 119.952 223.032 116.67 221.917 113.642C220.837 110.74 219.128 108.288 216.587 106.439C214.116 104.646 211.136 103.4 208.095 103.065C205.055 102.729 201.743 103.368 198.943 104.535C196.813 105.441 194.856 106.759 193.216 108.411C192.505 109.129 191.843 109.907 191.277 110.761C190.99 111.156 190.73 111.591 190.491 112.024C190.489 112.003 190.316 112.451 190.273 112.455C188.275 109.732 184.983 107.787 181.77 106.823C179.141 106.037 176.402 105.885 173.692 106.226C170.744 106.591 168.059 107.811 165.714 109.6C163.431 111.36 161.484 113.624 160.429 116.314C159.271 119.273 159.066 122.607 159.449 125.731C160.254 132.127 163.602 138.047 167.514 143.093C170.046 146.342 172.963 149.316 176.13 151.963C178.18 153.691 174.033 150.197 176.13 151.963Z" fill="url(#paint4_radial)"/>
</g>
<g clip-path="url(#clip4)">
<path d="M428.258 194.956C430.992 197.247 434.065 199.156 437.32 200.637C437.888 200.902 438.465 201.141 439.053 201.367C439.146 201.407 439.236 201.435 439.328 201.475C439.445 201.513 439.571 201.389 439.678 201.328C440.032 201.106 440.385 200.871 440.725 200.626C442.132 199.638 443.479 198.545 444.756 197.384C447.503 194.87 449.924 191.979 451.796 188.771C453.648 185.603 455.08 182.018 455.36 178.352C455.496 176.489 455.316 174.595 454.673 172.848C454.05 171.174 453.064 169.76 451.598 168.692C450.173 167.658 448.453 166.939 446.699 166.746C444.945 166.552 443.034 166.921 441.419 167.594C440.19 168.117 439.061 168.877 438.115 169.83C437.705 170.245 437.323 170.693 436.996 171.186C436.831 171.414 436.68 171.665 436.543 171.915C436.541 171.902 436.442 172.161 436.417 172.163C435.264 170.593 433.365 169.47 431.511 168.914C429.994 168.46 428.414 168.373 426.851 168.57C425.15 168.78 423.601 169.484 422.248 170.516C420.931 171.532 419.808 172.838 419.199 174.39C418.531 176.096 418.413 178.02 418.634 179.823C419.098 183.512 421.03 186.928 423.287 189.839C424.747 191.714 426.43 193.429 428.258 194.956C429.44 195.953 427.048 193.937 428.258 194.956Z" fill="url(#paint5_radial)"/>
</g>
<g clip-path="url(#clip5)">
<path d="M298.163 73.8894C300.897 76.1806 303.97 78.0897 307.225 79.5705C307.793 79.8355 308.37 80.0746 308.959 80.3002C309.051 80.3405 309.142 80.3684 309.234 80.4087C309.351 80.4465 309.476 80.3219 309.583 80.2614C309.937 80.039 310.291 79.8044 310.63 79.5588C312.038 78.5712 313.384 77.478 314.661 76.3175C317.409 73.8029 319.829 70.912 321.701 67.7045C323.553 64.5363 324.985 60.9516 325.265 57.2856C325.402 55.4219 325.221 53.5284 324.578 51.7814C323.955 50.1068 322.969 48.6928 321.503 47.6255C320.078 46.5914 318.358 45.8727 316.604 45.679C314.85 45.4854 312.939 45.8538 311.324 46.5275C310.095 47.0499 308.966 47.8105 308.02 48.7635C307.61 49.1778 307.228 49.6263 306.901 50.119C306.736 50.3469 306.586 50.5981 306.448 50.848C306.446 50.8357 306.347 51.0941 306.322 51.0967C305.169 49.5258 303.27 48.4033 301.416 47.8474C299.9 47.3936 298.32 47.3063 296.756 47.5029C295.056 47.7134 293.506 48.4175 292.153 49.4492C290.837 50.4648 289.713 51.7711 289.104 53.3229C288.436 55.0297 288.318 56.9536 288.539 58.756C289.003 62.4455 290.935 65.8613 293.192 68.7722C294.653 70.6469 296.336 72.3624 298.163 73.8894C299.345 74.8863 296.953 72.8706 298.163 73.8894Z" fill="url(#paint6_radial)"/>
</g>
<g clip-path="url(#clip6)">
<path d="M584.579 204.158C584.999 210.328 586.302 216.461 588.359 222.309C588.709 223.336 589.104 224.345 589.529 225.352C589.589 225.515 589.663 225.662 589.723 225.826C589.816 226.017 590.123 226.025 590.327 226.086C591.03 226.262 591.748 226.421 592.462 226.551C595.387 227.124 598.37 227.495 601.354 227.698C607.797 228.113 614.317 227.667 620.575 226.156C626.758 224.667 632.959 222.152 637.878 218.1C640.372 216.034 642.523 213.534 643.934 210.633C645.279 207.843 645.863 204.913 645.437 201.798C645.018 198.775 643.852 195.763 641.987 193.337C640.123 190.912 637.369 188.966 634.587 187.755C632.458 186.847 630.152 186.349 627.824 186.31C626.814 186.295 625.795 186.356 624.787 186.539C624.303 186.606 623.809 186.72 623.331 186.848C623.345 186.831 622.902 187.018 622.869 186.989C623.448 183.662 622.571 179.94 621.04 176.955C619.786 174.514 617.998 172.434 615.875 170.716C613.57 168.843 610.829 167.752 607.915 167.299C605.065 166.873 602.082 167.037 599.412 168.139C596.476 169.353 593.929 171.516 591.942 173.957C587.887 178.967 585.936 185.483 585.008 191.8C584.418 195.877 584.294 200.041 584.579 204.158C584.753 206.833 584.4 201.423 584.579 204.158Z" fill="url(#paint7_radial)"/>
</g>
<g clip-path="url(#clip7)">
<path d="M548.557 319.163C548.795 321.857 549.418 324.527 550.37 327.065C550.532 327.511 550.713 327.949 550.907 328.385C550.935 328.456 550.969 328.52 550.997 328.591C551.039 328.674 551.173 328.674 551.263 328.699C551.572 328.77 551.887 328.834 552.201 328.884C553.484 329.109 554.792 329.245 556.098 329.307C558.919 329.432 561.766 329.18 564.488 328.464C567.179 327.758 569.868 326.605 571.983 324.79C573.055 323.864 573.973 322.753 574.565 321.472C575.128 320.24 575.358 318.954 575.144 317.596C574.934 316.278 574.398 314.971 573.562 313.927C572.725 312.883 571.504 312.056 570.277 311.552C569.338 311.173 568.325 310.976 567.307 310.979C566.866 310.981 566.421 311.017 565.981 311.106C565.771 311.14 565.555 311.194 565.347 311.254C565.353 311.246 565.162 311.332 565.147 311.32C565.371 309.86 564.955 308.24 564.259 306.949C563.689 305.893 562.889 304.999 561.946 304.266C560.922 303.468 559.714 303.015 558.436 302.843C557.186 302.681 555.883 302.779 554.725 303.285C553.452 303.841 552.358 304.809 551.51 305.894C549.782 308.12 548.986 310.986 548.636 313.756C548.414 315.544 548.396 317.365 548.557 319.163C548.657 320.331 548.455 317.968 548.557 319.163Z" fill="url(#paint8_radial)"/>
</g>
<defs>
<radialGradient id="paint0_radial" cx="0" cy="0" r="1" gradientUnits="userSpaceOnUse" gradientTransform="translate(323.736 240.054) rotate(73.0027) scale(139.433 139.567)">
<stop stop-color="#D95988"/>
<stop offset="0.4996" stop-color="#B3355F"/>
<stop offset="1" stop-color="#B3355F"/>
</radialGradient>
<radialGradient id="paint1_radial" cx="0" cy="0" r="1" gradientUnits="userSpaceOnUse" gradientTransform="translate(385.783 340.154) rotate(19.9439) scale(60.967 61.0397)">
<stop stop-color="#D95988"/>
<stop offset="0.4996" stop-color="#B3355F"/>
<stop offset="1" stop-color="#B3355F"/>
</radialGradient>
<radialGradient id="paint2_radial" cx="0" cy="0" r="1" gradientUnits="userSpaceOnUse" gradientTransform="translate(32.2529 139.551) rotate(19.9439) scale(60.967 61.0397)">
<stop stop-color="#D95988"/>
<stop offset="0.4996" stop-color="#B3355F"/>
<stop offset="1" stop-color="#B3355F"/>
</radialGradient>
<radialGradient id="paint3_radial" cx="0" cy="0" r="1" gradientUnits="userSpaceOnUse" gradientTransform="translate(52.9439 253.009) rotate(11.5522) scale(139.416 139.584)">
<stop stop-color="#D95988"/>
<stop offset="0.4996" stop-color="#B3355F"/>
<stop offset="1" stop-color="#B3355F"/>
</radialGradient>
<radialGradient id="paint4_radial" cx="0" cy="0" r="1" gradientUnits="userSpaceOnUse" gradientTransform="translate(169.947 115.773) rotate(37.6628) scale(145.725 145.878)">
<stop stop-color="#D95988"/>
<stop offset="0.4996" stop-color="#B3355F"/>
<stop offset="1" stop-color="#B3355F"/>
</radialGradient>
<radialGradient id="paint5_radial" cx="0" cy="0" r="1" gradientUnits="userSpaceOnUse" gradientTransform="translate(424.691 174.077) rotate(37.6628) scale(84.0714 84.1599)">
<stop stop-color="#D95988"/>
<stop offset="0.4996" stop-color="#B3355F"/>
<stop offset="1" stop-color="#B3355F"/>
</radialGradient>
<radialGradient id="paint6_radial" cx="0" cy="0" r="1" gradientUnits="userSpaceOnUse" gradientTransform="translate(294.596 53.0107) rotate(37.6628) scale(84.0714 84.1599)">
<stop stop-color="#D95988"/>
<stop offset="0.4996" stop-color="#B3355F"/>
<stop offset="1" stop-color="#B3355F"/>
</radialGradient>
<radialGradient id="paint7_radial" cx="0" cy="0" r="1" gradientUnits="userSpaceOnUse" gradientTransform="translate(606.396 174.629) rotate(83.8154) scale(145.725 145.878)">
<stop stop-color="#D95988"/>
<stop offset="0.4996" stop-color="#B3355F"/>
<stop offset="1" stop-color="#B3355F"/>
</radialGradient>
<radialGradient id="paint8_radial" cx="0" cy="0" r="1" gradientUnits="userSpaceOnUse" gradientTransform="translate(557.836 306.061) rotate(82.6628) scale(63.7255 63.7925)">
<stop stop-color="#D95988"/>
<stop offset="0.4996" stop-color="#B3355F"/>
<stop offset="1" stop-color="#B3355F"/>
</radialGradient>
<clipPath id="clip0">
<rect width="26.7768" height="24.6864" transform="matrix(0.916763 -0.399431 0.399307 0.916817 379.859 338.554)" fill="white"/>
</clipPath>
<clipPath id="clip1">
<rect width="26.7768" height="24.6864" transform="matrix(0.916763 -0.399432 0.399306 0.916818 26.3291 137.95)" fill="white"/>
</clipPath>
<clipPath id="clip2">
<rect width="61.2333" height="56.4506" transform="matrix(0.848662 -0.528935 0.528808 0.848742 39.009 251.366)" fill="white"/>
</clipPath>
<clipPath id="clip3">
<rect x="157.624" y="107.82" width="64" height="59" transform="rotate(-5.81826 157.624 107.82)" fill="white"/>
</clipPath>
<clipPath id="clip4">
<rect x="417.581" y="169.49" width="36.9229" height="34.0383" transform="rotate(-5.81826 417.581 169.49)" fill="white"/>
</clipPath>
<clipPath id="clip5">
<rect x="287.486" y="48.423" width="36.9229" height="34.0383" transform="rotate(-5.81826 287.486 48.423)" fill="white"/>
</clipPath>
<clipPath id="clip6">
<rect x="603.595" y="160.233" width="64" height="59" transform="rotate(40.3344 603.595 160.233)" fill="white"/>
</clipPath>
<clipPath id="clip7">
<rect x="556.485" y="299.791" width="27.9872" height="25.8007" transform="rotate(39.1817 556.485 299.791)" fill="white"/>
</clipPath>
</defs>
</svg>
