<svg width="322" height="311" viewBox="0 0 322 311" fill="none" xmlns="http://www.w3.org/2000/svg">
<path d="M273.554 40.4045C273.554 40.4045 298.098 37.951 286.746 2.70801C286.746 2.70801 307.152 24.0098 290.41 51.7971L273.554 40.4045Z" fill="#FCB614"/>
<path d="M273.554 40.4045C273.554 40.4045 298.098 37.951 286.746 2.70801C286.746 2.70801 307.152 24.0098 290.41 51.7971L273.554 40.4045Z" stroke="#231F20" stroke-width="1.439" stroke-miterlimit="10" stroke-linecap="round" stroke-linejoin="round"/>
<path d="M205.882 206.387L206.509 246.404C206.509 246.404 201.118 250.531 197.321 252.433C193.525 254.335 188.76 261.011 199.542 263.864C210.324 266.717 221.41 254.335 221.41 254.335L217.917 203.838L205.882 206.387Z" fill="#FCB614"/>
<path d="M205.882 206.387L206.509 246.404C206.509 246.404 201.118 250.531 197.321 252.433C193.525 254.335 188.76 261.011 199.542 263.864C210.324 266.717 221.41 254.335 221.41 254.335L217.917 203.838L205.882 206.387Z" stroke="#231F20" stroke-width="1.2444" stroke-miterlimit="10" stroke-linecap="round" stroke-linejoin="round"/>
<path d="M10.6494 97.2539C10.6494 97.2539 7.68821 120.648 13.4019 120.648C19.0966 120.648 18.2613 111.652 18.2613 104.881L10.6494 97.2539Z" fill="#FCB614"/>
<path d="M10.6494 97.2539C10.6494 97.2539 7.68821 120.648 13.4019 120.648C19.0966 120.648 18.2613 111.652 18.2613 104.881L10.6494 97.2539Z" stroke="#231F20" stroke-width="0.9955" stroke-miterlimit="10" stroke-linecap="round" stroke-linejoin="round"/>
<path d="M25.0189 103.511C25.0189 103.511 6.85285 153.893 47.418 191.171C47.418 191.171 44.5706 204.827 44.5706 209.582C44.5706 214.337 46.1462 272.46 46.7916 276.264C46.7916 276.264 32.8396 285.793 36.3323 291.822C39.8251 297.851 61.0473 291.176 65.8118 285.146L63.9136 205.436H67.8809C67.8809 205.436 90.8684 220.366 145.367 216.867L147.91 291.176C147.91 291.176 129.839 301.655 133.958 306.733C138.077 311.812 157.724 309.586 165.962 301.655L165.336 215.916C165.336 215.916 243.315 210.21 292.745 175.271L293.694 252.433C293.694 252.433 275.319 255.609 278.167 264.815C281.014 274.02 304.799 271.795 306.052 266.412C306.052 266.412 308.272 185.123 311.12 169.546C313.967 153.988 334.886 101.59 302.559 62.5241C270.801 24.1429 224.656 20.4151 192.082 28.1179" fill="#FCB614"/>
<path d="M25.0189 103.511C25.0189 103.511 6.85285 153.893 47.418 191.171C47.418 191.171 44.5706 204.827 44.5706 209.582C44.5706 214.337 46.1462 272.46 46.7916 276.264C46.7916 276.264 32.8396 285.793 36.3323 291.822C39.8251 297.851 61.0473 291.176 65.8118 285.146L63.9136 205.436H67.8809C67.8809 205.436 90.8684 220.366 145.367 216.867L147.91 291.176C147.91 291.176 129.839 301.655 133.958 306.733C138.077 311.812 157.724 309.586 165.962 301.655L165.336 215.916C165.336 215.916 243.315 210.21 292.745 175.271L293.694 252.433C293.694 252.433 275.319 255.609 278.167 264.815C281.014 274.02 304.799 271.795 306.052 266.412C306.052 266.412 308.272 185.123 311.12 169.546C313.967 153.988 334.886 101.59 302.559 62.5241C270.801 24.1429 224.656 20.4151 192.082 28.1179" stroke="#231F20" stroke-width="1.2444" stroke-miterlimit="10" stroke-linecap="round" stroke-linejoin="round"/>
<path d="M192.082 28.1374C191.493 28.2705 190.924 28.4227 190.354 28.5558L185.78 29.6209C167.253 13.3403 140.659 1.45312 108.693 1.45312C98.5562 1.45312 58.4087 5.257 34.7378 35.3267C34.7378 35.3267 69.817 34.9083 73.6135 71.3114C73.6135 71.3114 96.4302 66.2333 113.343 73.86C113.343 73.86 118.734 39.9865 152.219 39.9865C183.065 39.9865 203.357 74.7159 185.172 109.008C185.172 109.008 192.348 127.21 201.231 127.21C217.917 127.21 221.106 104.767 213.057 71.7489C209.565 57.3702 200.054 42.1927 185.761 29.6209" fill="#FCB614"/>
<path d="M192.082 28.1374C191.493 28.2705 190.924 28.4227 190.354 28.5558L185.78 29.6209C167.253 13.3403 140.659 1.45312 108.693 1.45312C98.5562 1.45312 58.4087 5.257 34.7378 35.3267C34.7378 35.3267 69.817 34.9083 73.6135 71.3114C73.6135 71.3114 96.4302 66.2333 113.343 73.86C113.343 73.86 118.734 39.9865 152.219 39.9865C183.065 39.9865 203.357 74.7159 185.172 109.008C185.172 109.008 192.348 127.21 201.231 127.21C217.917 127.21 221.106 104.767 213.057 71.7489C209.565 57.3702 200.054 42.1927 185.761 29.6209" stroke="#231F20" stroke-width="1.2444" stroke-miterlimit="10" stroke-linecap="round" stroke-linejoin="round"/>
<path d="M192.689 82.8563C192.689 106.003 174.561 124.775 152.219 124.775C129.858 124.775 111.749 106.003 111.749 82.8563C111.749 59.7097 129.877 40.9375 152.219 40.9375C174.58 40.9375 192.689 59.7097 192.689 82.8563Z" fill="#231F20"/>
<path d="M146.562 106.364C147.226 107.771 148.688 107.03 151.27 106.668C171.182 103.91 184.546 92.7841 184.546 75.6476C184.546 58.5111 169.644 44.627 151.27 44.627C132.895 44.627 117.994 58.5111 117.994 75.6476C117.975 75.6666 134.546 81.0872 146.562 106.364Z" fill="white"/>
<path d="M36.5978 36.183C36.1992 36.183 35.8006 36.202 35.402 36.221L34.7186 32.9116L31.8712 36.4492C13.6672 38.5794 0 54.0612 0 72.8714C0 93.1271 16.3817 109.56 36.6168 109.56C56.8329 109.56 73.2336 93.1461 73.2336 72.8714C73.2146 52.5967 56.814 36.183 36.5978 36.183Z" fill="#231F20"/>
<path d="M68.5641 72.8141C70.0447 72.5478 69.2095 69.79 68.9627 68.2494C66.0014 49.7245 53.1125 39.7773 37.585 39.7773C20.2542 39.7773 6.20728 52.5204 6.20728 68.2494C6.20728 83.9785 20.2542 96.7215 37.585 96.7215C37.7558 96.7215 37.9456 96.7215 38.1165 96.7215C38.1165 96.7215 48.5188 76.4088 68.5641 72.8141Z" fill="white"/>
<path d="M89.2547 69.2002C79.9534 69.2002 47.4178 72.1672 35.5918 105.622C35.5918 105.622 26.3854 132.345 37.6988 159.181C44.0389 174.206 77.2199 173.465 71.5063 125.84L100.34 123.938C100.34 123.938 103.7 139.306 106.358 151.573C109.528 166.18 127.599 186.797 144.398 164.906C159.185 145.639 152.01 69.2002 89.2547 69.2002Z" fill="#FCB614"/>
<path d="M89.2547 69.2002C79.9534 69.2002 47.4178 72.1672 35.5918 105.622C35.5918 105.622 26.3854 132.345 37.6988 159.181C44.0389 174.206 77.2199 173.465 71.5063 125.84L100.34 123.938C100.34 123.938 103.7 139.306 106.358 151.573C109.528 166.18 127.599 186.797 144.398 164.906C159.185 145.639 152.01 69.2002 89.2547 69.2002Z" stroke="#231F20" stroke-width="0.9955" stroke-miterlimit="10" stroke-linecap="round" stroke-linejoin="round"/>
<path d="M108.902 117.168C108.902 125.403 97.8349 132.098 84.1866 132.098C70.5384 132.098 59.4717 125.422 59.4717 117.168C59.4717 108.932 70.5384 102.237 84.1866 102.237C97.8349 102.237 108.902 108.913 108.902 117.168Z" fill="#231F20"/>
<path d="M72.1323 137.479C78.8521 139.495 91.9878 141.891 102.656 134.531" stroke="#231F20" stroke-width="0.9955" stroke-miterlimit="10"/>
</svg>
