<svg width="41" height="42" viewBox="0 0 41 42" fill="none" xmlns="http://www.w3.org/2000/svg">
<g clip-path="url(#clip0)">
<path d="M26.8688 0.812866C27.7753 1.16839 28.0113 1.88261 27.8813 2.81635C28.0567 2.82669 28.1955 2.84021 28.3334 2.8418C28.9178 2.84896 29.5038 2.82192 30.0859 2.86487C31.1989 2.94679 31.9603 3.77793 31.9707 4.89062C31.981 5.97707 31.9778 7.06351 31.9731 8.14996C31.9643 10.1948 30.5626 11.667 28.52 11.6622C27.8327 11.6606 27.5473 11.8412 27.2921 12.495C26.5778 14.3235 25.2535 15.6302 23.4588 16.4423C23.2004 16.5592 23.1135 16.6944 23.1223 16.9704C23.1438 17.6456 23.1223 18.3217 23.1406 18.9969C23.1438 19.1123 23.2283 19.2777 23.3248 19.3302C24.1285 19.7668 24.5287 20.4294 24.4849 21.3392C24.4657 21.7329 24.5327 21.997 24.9369 22.2197C25.5229 22.5426 25.8315 23.1105 25.8451 23.8008C25.8538 24.2613 25.8466 24.7226 25.8466 25.2372C26.03 25.2372 26.1704 25.2372 26.3115 25.2372C28.5694 25.2372 30.8273 25.2364 33.0853 25.2372C34.5658 25.238 35.3926 26.0692 35.3926 27.5581C35.3926 30.4595 35.391 33.3617 35.3895 36.2632C35.3895 36.4183 35.3895 36.5741 35.3895 36.7722C36.3813 36.7722 37.3333 36.7722 38.286 36.7722C39.3137 36.7722 39.6486 37.0028 40.0329 37.9413C40.2856 38.5593 40.5583 39.1702 40.8214 39.7842C40.8214 40.0228 40.8214 40.2614 40.8214 40.5C40.52 41.2635 39.9619 41.5435 39.1407 41.5427C26.6671 41.5284 14.1942 41.5276 1.72056 41.5435C0.888185 41.5443 0.30935 41.2818 0 40.5C0 40.2876 0 40.0761 0 39.8637C0.291809 39.1558 0.591592 38.4504 0.873833 37.7377C1.13535 37.0784 1.61771 36.7698 2.31933 36.7714C3.33906 36.7738 4.3596 36.7722 5.42797 36.7722C5.42797 36.5924 5.42797 36.4509 5.42797 36.3101C5.42877 34.4943 5.42877 32.6785 5.43196 30.8627C5.43435 29.4741 6.26832 28.6445 7.66757 28.6429C9.93985 28.6405 12.2113 28.6421 14.4836 28.6421C14.6271 28.6421 14.7707 28.6421 14.9692 28.6421C14.9692 28.4648 14.9692 28.324 14.9692 28.1832C14.9692 26.8184 14.9819 25.4528 14.9644 24.088C14.9524 23.163 15.3192 22.4829 16.1412 22.0415C16.2321 21.993 16.3046 21.8514 16.323 21.7417C16.3533 21.5611 16.3318 21.3718 16.3326 21.1865C16.3373 20.3673 16.7224 19.7676 17.4264 19.3811C17.6329 19.2673 17.7015 19.1504 17.6967 18.9253C17.6824 18.2501 17.6832 17.5733 17.6919 16.898C17.6943 16.692 17.6505 16.5711 17.4384 16.4757C15.4109 15.5602 14.0132 14.061 13.3076 11.9454C13.2327 11.7195 13.1075 11.6901 12.901 11.6789C12.3732 11.6503 11.8294 11.659 11.3232 11.5318C9.89281 11.1739 8.87308 9.85121 8.85314 8.38618C8.8372 7.19395 8.83879 6.00013 8.84916 4.8079C8.85793 3.81929 9.62492 2.96588 10.6152 2.876C11.2083 2.82192 11.8095 2.85055 12.4067 2.8426C12.5637 2.84021 12.7208 2.8426 12.9433 2.8426C12.8037 1.90727 13.0286 1.17316 13.951 0.812866C18.258 0.812866 22.5634 0.812866 26.8688 0.812866ZM24.4841 36.7579C24.4841 36.5845 24.4841 36.4532 24.4841 36.3228C24.4833 32.2538 24.4825 28.184 24.4809 24.115C24.4809 23.4215 24.2816 23.2242 23.5784 23.2234C21.4655 23.2226 19.3527 23.2226 17.2399 23.2234C16.5406 23.2234 16.3373 23.4246 16.3373 24.1166C16.3365 28.1856 16.3373 32.2554 16.3373 36.3244C16.3373 36.4644 16.3373 36.6052 16.3373 36.7579C19.0713 36.7579 21.751 36.7579 24.4841 36.7579ZM14.3353 2.18882C14.313 2.24052 14.2947 2.26438 14.2947 2.28744C14.3082 4.963 14.2165 7.64412 14.3648 10.3117C14.5546 13.7222 18.0667 16.3007 21.4273 15.6541C24.4944 15.0639 26.5228 12.6325 26.5355 9.5108C26.5451 7.19236 26.5379 4.87392 26.5363 2.55548C26.5363 2.44015 26.5228 2.32403 26.514 2.18882C22.4438 2.18882 18.3975 2.18882 14.3353 2.18882ZM25.8522 36.7404C28.6013 36.7404 31.289 36.7404 33.9934 36.7404C34.0006 36.5916 34.0109 36.4739 34.0109 36.3562C34.0133 33.4277 34.0149 30.4985 34.0157 27.57C34.0157 26.8065 33.8108 26.6029 33.0462 26.6029C30.801 26.6021 28.5559 26.61 26.3107 26.5941C25.9487 26.5917 25.8419 26.684 25.8443 27.0538C25.8594 30.1286 25.853 33.2027 25.853 36.2775C25.8522 36.4206 25.8522 36.5646 25.8522 36.7404ZM1.3841 40.1556C14.093 40.1556 26.7436 40.1556 39.4437 40.1556C39.2252 39.6132 38.9956 39.1216 38.8314 38.6086C38.7078 38.2229 38.4997 38.133 38.109 38.133C27.3216 38.145 16.5335 38.1426 5.74609 38.1426C4.66975 38.1426 3.5942 38.137 2.51785 38.1505C2.3863 38.1521 2.1798 38.2229 2.13675 38.3199C1.87045 38.9085 1.64163 39.5138 1.3841 40.1556ZM6.80569 36.7459C9.55157 36.7459 12.2408 36.7459 14.9405 36.7459C14.9405 34.4879 14.9405 32.257 14.9405 30.0221C14.8607 30.0125 14.8081 30.0014 14.7563 30.0006C12.3652 29.9998 9.97494 29.9974 7.58385 30.0014C7.06242 30.0022 6.81447 30.2543 6.80888 30.7951C6.79932 31.8418 6.80569 32.8885 6.80569 33.9352C6.80569 34.861 6.80569 35.7859 6.80569 36.7459ZM12.913 4.21855C12.26 4.21855 11.6516 4.21616 11.0433 4.21935C10.4414 4.22253 10.2069 4.45715 10.2054 5.06401C10.2022 6.06933 10.203 7.07544 10.2046 8.08076C10.2077 9.63408 11.3399 10.5463 12.913 10.2497C12.913 8.26051 12.913 6.26816 12.913 4.21855ZM27.9108 4.22809C27.9108 6.27532 27.9108 8.26688 27.9108 10.2974C28.1652 10.2974 28.4004 10.3054 28.6356 10.2958C29.6984 10.256 30.5499 9.49331 30.5977 8.43151C30.6511 7.25678 30.6216 6.07728 30.6105 4.90016C30.6073 4.52158 30.3545 4.24321 30.0069 4.23366C29.3213 4.21457 28.634 4.22809 27.9108 4.22809ZM17.6951 21.8093C19.5313 21.8093 21.3156 21.8093 23.1263 21.8093C23.1263 21.6343 23.1271 21.4903 23.1263 21.3464C23.1223 20.7364 22.9014 20.5129 22.2843 20.5073C21.8729 20.5033 21.4607 20.5105 21.0485 20.5105C20.1851 20.5105 19.3216 20.5009 18.4581 20.5097C17.9391 20.5145 17.7071 20.757 17.6959 21.2661C17.6919 21.4363 17.6951 21.6073 17.6951 21.8093ZM19.0752 17.0571C19.0752 17.7013 19.0752 18.3941 19.0752 19.0987C19.977 19.0987 20.8564 19.0987 21.7382 19.0987C21.7382 18.3845 21.7382 17.6957 21.7382 17.0571C20.8365 17.0571 19.9666 17.0571 19.0752 17.0571Z" fill="white"/>
<path d="M24.4872 6.97523C24.5032 7.34746 24.3597 7.72604 24.0336 7.94874C23.2299 8.49833 23.139 9.20698 23.3925 10.0723C23.5528 10.6203 23.3335 11.0975 22.8759 11.4324C22.4382 11.7529 21.9223 11.8054 21.4974 11.4849C20.7527 10.9241 20.0862 10.917 19.3375 11.4785C18.8982 11.8078 18.3728 11.7489 17.9263 11.4109C17.4878 11.0784 17.318 10.6243 17.4152 10.0771C17.436 9.96018 17.4288 9.83213 17.4726 9.72555C17.7652 9.02167 17.471 8.53253 16.9289 8.09986C16.6028 7.83978 16.3596 7.5105 16.3341 7.06193C16.2942 6.34611 16.7009 5.80686 17.4065 5.65654C17.471 5.64302 17.5372 5.61121 17.601 5.61598C18.49 5.68677 18.9221 5.19047 19.186 4.4158C19.3774 3.85269 19.8079 3.52342 20.4234 3.52819C21.019 3.53296 21.4487 3.8503 21.6289 4.40148C21.8912 5.20558 22.3616 5.60007 23.249 5.64223C24.0519 5.68199 24.4816 6.22919 24.4872 6.97523ZM18.7969 10.1542C18.8201 10.19 18.8432 10.2258 18.8663 10.2616C19.9124 9.30004 20.9616 9.39071 22.069 10.3229C21.9702 9.73987 21.9271 9.31754 21.8219 8.91191C21.7182 8.51344 21.833 8.22313 22.1185 7.95351C22.4294 7.65844 22.7204 7.34268 23.0696 6.98478C22.5817 6.90683 22.183 6.82253 21.7796 6.78435C21.3778 6.74617 21.1234 6.55847 20.9672 6.19102C20.8093 5.82038 20.6235 5.46168 20.4107 5.01708C20.193 5.47202 20.0056 5.84425 19.8358 6.22442C19.6875 6.55608 19.4531 6.73981 19.0824 6.78117C18.6598 6.82809 18.242 6.91081 17.8219 6.97841C17.8059 7.01579 17.7908 7.05238 17.7748 7.08976C18.0929 7.38722 18.4103 7.68548 18.73 7.98135C18.9955 8.22632 19.0943 8.50628 19.0106 8.87293C18.9149 9.29367 18.8663 9.72634 18.7969 10.1542Z" fill="white"/>
</g>
<defs>
<clipPath id="clip0">
<rect width="41" height="42" fill="white"/>
</clipPath>
</defs>
</svg>
