<?xml version="1.0" encoding="utf-8"?>
<!-- Generator: Adobe Illustrator 23.0.3, SVG Export Plug-In . SVG Version: 6.00 Build 0)  -->
<svg version="1.1" id="Layer_1" xmlns="http://www.w3.org/2000/svg" xmlns:xlink="http://www.w3.org/1999/xlink" x="0px" y="0px"
	 viewBox="0 0 477 503" style="enable-background:new 0 0 477 503;" xml:space="preserve">
<style type="text/css">
	.st0{clip-path:url(#SVGID_2_);}
	.st1{fill:#D2CFC0;}
	.st2{clip-path:url(#SVGID_4_);}
	.st3{opacity:0.5;fill:#FDFFF9;enable-background:new    ;}
	.st4{clip-path:url(#SVGID_6_);}
	.st5{fill:#D0416C;}
	.st6{clip-path:url(#SVGID_8_);}
	.st7{fill:#FF96B5;}
	.st8{clip-path:url(#SVGID_10_);}
	.st9{fill:#FBA6CD;}
	.st10{clip-path:url(#SVGID_12_);}
	.st11{fill:#03254A;}
	.st12{clip-path:url(#SVGID_14_);}
	.st13{clip-path:url(#SVGID_16_);}
	.st14{fill:#EA638B;}
	.st15{fill:#342642;}
	.st16{clip-path:url(#SVGID_18_);}
	.st17{fill:#F2F4F1;}
	.st18{clip-path:url(#SVGID_20_);}
	.st19{fill:#FFFFFF;}
	.st20{fill:none;stroke:#FF96B5;stroke-width:0.25;stroke-miterlimit:10;}
	.st21{fill:none;stroke:#102248;stroke-width:0.25;stroke-miterlimit:10;}
	.st22{clip-path:url(#SVGID_22_);}
	.st23{fill:#456CAF;}
	.st24{fill:#57426C;}
</style>
<g>
	<defs>
		<rect id="SVGID_1_" x="91.72" y="274.01" width="78.28" height="25.76"/>
	</defs>
	<clipPath id="SVGID_2_">
		<use xlink:href="#SVGID_1_"  style="overflow:visible;"/>
	</clipPath>
	<g class="st0">
		<path class="st1" d="M170,274.01H91.72v25.76H170V274.01z"/>
		<g>
			<defs>
				<rect id="SVGID_3_" x="112.33" y="273.84" width="36.58" height="25.76"/>
			</defs>
			<clipPath id="SVGID_4_">
				<use xlink:href="#SVGID_3_"  style="overflow:visible;"/>
			</clipPath>
			<g class="st2">
				<path class="st3" d="M148.91,273.84h-36.58v25.76h36.58V273.84z"/>
			</g>
		</g>
	</g>
</g>
<g>
	<defs>
		<rect id="SVGID_5_" x="0.96" y="82.34" width="259.32" height="191.67"/>
	</defs>
	<clipPath id="SVGID_6_">
		<use xlink:href="#SVGID_5_"  style="overflow:visible;"/>
	</clipPath>
	<g class="st4">
		<path class="st5" d="M260.28,274.01H0.96v-117.2c0-41.13,33.34-74.47,74.47-74.47h184.85V274.01z"/>
		<g>
			<defs>
				<rect id="SVGID_7_" x="0.96" y="82.34" width="86.91" height="191.67"/>
			</defs>
			<clipPath id="SVGID_8_">
				<use xlink:href="#SVGID_7_"  style="overflow:visible;"/>
			</clipPath>
			<g class="st6">
				<path class="st7" d="M87.87,82.34H75.43c-41.13,0-74.47,33.34-74.47,74.47v117.2h12.44v-117.2
					C13.41,115.68,46.74,82.34,87.87,82.34z"/>
			</g>
		</g>
		<g>
			<defs>
				<rect id="SVGID_9_" x="77.21" y="137.93" width="53.41" height="40.25"/>
			</defs>
			<clipPath id="SVGID_10_">
				<use xlink:href="#SVGID_9_"  style="overflow:visible;"/>
			</clipPath>
			<g class="st8">
				<path class="st9" d="M125.81,162.81c9.27-8.24,4.35-23.94-8.03-24.84c-0.42-0.02-0.85-0.04-1.27-0.04
					c-4.94,0-9.4,2.05-12.59,5.33c-3.18-3.28-7.64-5.33-12.58-5.33c-0.43,0-0.86,0.01-1.27,0.05c-12.38,0.89-17.31,16.6-8.03,24.84
					l13.84,12.3c4.59,4.09,11.53,4.09,16.12,0L125.81,162.81z"/>
				<g>
					<defs>
						<rect id="SVGID_11_" x="91.67" y="145.82" width="24.48" height="24.48"/>
					</defs>
					<clipPath id="SVGID_12_">
						<use xlink:href="#SVGID_11_"  style="overflow:visible;"/>
					</clipPath>
					<g class="st10">
						<path class="st11" d="M103.91,170.29c6.76,0,12.24-5.48,12.24-12.24c0-6.76-5.48-12.24-12.24-12.24
							c-6.76,0-12.24,5.48-12.24,12.24C91.67,164.81,97.15,170.29,103.91,170.29z"/>
					</g>
				</g>
			</g>
		</g>
		<g>
			<defs>
				<rect id="SVGID_13_" x="173.37" y="82.34" width="86.91" height="191.67"/>
			</defs>
			<clipPath id="SVGID_14_">
				<use xlink:href="#SVGID_13_"  style="overflow:visible;"/>
			</clipPath>
			<g class="st12">
				<path class="st7" d="M260.28,82.34h-12.44c-41.13,0-74.47,33.34-74.47,74.47v117.2h12.44v-117.2
					C185.81,115.68,219.15,82.34,260.28,82.34z"/>
			</g>
		</g>
	</g>
</g>
<g>
	<defs>
		<rect id="SVGID_15_" x="185.81" y="82.17" width="148.94" height="191.67"/>
	</defs>
	<clipPath id="SVGID_16_">
		<use xlink:href="#SVGID_15_"  style="overflow:visible;"/>
	</clipPath>
	<g class="st13">
		<path class="st14" d="M334.74,273.84H185.81v-117.2c0-41.13,33.34-74.47,74.47-74.47s74.47,33.34,74.47,74.47V273.84z"/>
		<path class="st15" d="M316.69,155.04H216.43v15.42h100.25V155.04z"/>
	</g>
</g>
<g>
	<defs>
		<rect id="SVGID_17_" x="47.5" y="0.11" width="62.18" height="159.4"/>
	</defs>
	<clipPath id="SVGID_18_">
		<use xlink:href="#SVGID_17_"  style="overflow:visible;"/>
	</clipPath>
	<g class="st16">
		<path class="st17" d="M104.03,159.51c-3.12,0-5.67-2.54-5.67-5.67V0.11h2.66c4.79,0,8.67,3.88,8.67,8.67v145.07
			C109.69,156.97,107.15,159.51,104.03,159.51z"/>
		<path class="st17" d="M56.18,34.19h53.52V8.78c-0.01-4.79-3.88-8.67-8.67-8.67H56.18c-4.79,0-8.67,3.88-8.67,8.67v16.74
			C47.5,30.3,51.39,34.19,56.18,34.19z"/>
	</g>
</g>
<g>
	<defs>
		<rect id="SVGID_19_" x="233.68" y="161.79" width="243.14" height="179.84"/>
	</defs>
	<clipPath id="SVGID_20_">
		<use xlink:href="#SVGID_19_"  style="overflow:visible;"/>
	</clipPath>
	<g class="st18">
		<path class="st19" d="M294.03,216.97l-60.31-55.04h59.48l60.31,55.04H294.03z"/>
		<path class="st20" d="M293.2,161.93l0.42,27.52l59.89,27.52"/>
		<path class="st20" d="M233.72,161.93l59.75,17.88"/>
		<path class="st20" d="M294.03,216.98l20.56-17.88"/>
		<path class="st9" d="M296.97,193.34c4.63,1.68,8.9,0.73,6.64-1.51c-0.05-0.05-0.1-0.1-0.15-0.15c-0.95-0.88-2.51-1.67-4.23-2.23
			c0.48-0.56,0.29-1.36-0.67-2.23c-0.05-0.05-0.11-0.1-0.16-0.15c-2.65-2.24-8.98-3.18-9.95-1.51l-2.23,3.88L296.97,193.34z"/>
		<path class="st9" d="M428.75,277.26l-81.17-23.86l48.06-26.21l81.15,23.87L428.75,277.26z"/>
		<path class="st21" d="M395.64,227.19l16.55,25.04l64.61-1.16"/>
		<path class="st21" d="M347.58,253.4l58.82-9.95"/>
		<path class="st21" d="M428.75,277.26l6.09-25.44"/>
		<path class="st19" d="M417.19,254.31c4.73-0.5,7.62-3.26,4.47-4.31c-0.06-0.03-0.13-0.05-0.21-0.06
			c-1.29-0.38-3.01-0.42-4.73-0.18c0.05-0.72-0.56-1.37-1.86-1.75c-0.07-0.02-0.15-0.04-0.22-0.06c-3.45-0.88-9.12,1.04-8.92,3
			l0.49,4.54L417.19,254.31z"/>
		<path class="st19" d="M467.83,302.69l-38.36,38.83l-98.07-20.96l38.36-38.83L467.83,302.69z"/>
		<path class="st20" d="M369.76,281.73l59.71,59.78"/>
		<path class="st20" d="M331.4,320.56l136.43-17.87"/>
		<path class="st5" d="M403.63,315.28c4.46-1.13,6.27-5.6,2.78-7.01c-0.07-0.02-0.15-0.06-0.22-0.09c-1.41-0.5-3.11-0.44-4.71,0.05
			c-0.22-1.14-1.07-2.08-2.49-2.58c-0.07-0.02-0.16-0.05-0.23-0.07c-3.72-1.13-8.59,2.26-7.64,5.3l2.18,7.02L403.63,315.28z"/>
	</g>
</g>
<g>
	<defs>
		<rect id="SVGID_21_" x="225.19" y="264.54" width="205.03" height="173.74"/>
	</defs>
	<clipPath id="SVGID_22_">
		<use xlink:href="#SVGID_21_"  style="overflow:visible;"/>
	</clipPath>
	<g class="st22">
		<path class="st5" d="M430.22,405.1l-39.6,33.18l-44.37-19.08l39.6-33.18L430.22,405.1z"/>
		<path class="st20" d="M346.25,419.2l41.99-7.05l-2.39-26.12"/>
		<path class="st7" d="M282.9,264.54l-57.72,36.41l53.5,84.81l57.72-36.41L282.9,264.54z"/>
		<path class="st19" d="M272.16,324.09l-17.66-27.99l-12.83,8.09l17.66,27.99L272.16,324.09z"/>
		<path class="st23" d="M306.1,343.57c5.41,0.85,9.26-5.32,5.96-9.7c-0.07-0.1-0.15-0.18-0.22-0.27c-1.36-1.65-3.27-2.58-5.25-2.74
			c0.22-1.97-0.33-4.03-1.69-5.68c-0.07-0.08-0.15-0.18-0.23-0.27c-3.68-4.07-10.46-1.46-10.66,4.01l-0.48,12.69L306.1,343.57z"/>
		<path class="st21" d="M302.04,333.35c7.19-2.71,4.6,7.15,7.41,6.98c8.67-0.54,1.71,8.05,6.48,7.57"/>
		<path class="st21" d="M299.29,336.24c5.38-0.86,2.23,8.95,5.4,7.4c9.86-4.83,2.06,7.17,8.89,8"/>
	</g>
</g>
<rect x="102.42" y="299.77" class="st24" width="56.88" height="203.11"/>
</svg>
