<svg width="37" height="32" viewBox="0 0 37 32" fill="none" xmlns="http://www.w3.org/2000/svg">
<path d="M14.1067 15.2435C9.93613 15.2435 6.54309 11.8508 6.54309 7.68026C6.54309 3.50973 9.93613 0.116699 14.1067 0.116699C18.2772 0.116699 21.6702 3.50973 21.6702 7.68026C21.6702 11.8508 18.2772 15.2435 14.1067 15.2435ZM14.1067 2.38574C11.1873 2.38574 8.81213 4.76059 8.81213 7.68026C8.81213 10.5997 11.1873 12.9745 14.1067 12.9745C17.0261 12.9745 19.4012 10.5997 19.4012 7.68026C19.4012 4.76059 17.0261 2.38574 14.1067 2.38574Z" fill="white"/>
<path d="M26.5864 31.8832H1.62695C1.00069 31.8832 0.492432 31.375 0.492432 30.7487V25.4542C0.492432 21.4925 3.71595 18.269 7.67763 18.269H20.5357C24.4974 18.269 27.7209 21.4925 27.7209 25.4542V30.7487C27.7209 31.375 27.2127 31.8832 26.5864 31.8832ZM2.76147 29.6142H25.4519V25.4542C25.4519 22.7436 23.2463 20.538 20.5357 20.538H7.67763C4.96708 20.538 2.76147 22.7436 2.76147 25.4542V29.6142Z" fill="white"/>
<path d="M35.6625 15.6218H22.8047C22.1785 15.6218 21.6702 15.1136 21.6702 14.4873C21.6702 13.861 22.1785 13.3528 22.8047 13.3528H35.6625C36.2888 13.3528 36.7971 13.861 36.7971 14.4873C36.7971 15.1136 36.2888 15.6218 35.6625 15.6218Z" fill="white"/>
<path d="M29.6118 21.6726C29.3213 21.6726 29.031 21.562 28.81 21.3399C28.3668 20.8965 28.3668 20.178 28.81 19.7348L34.0591 14.4857L28.81 9.23659C28.3668 8.79342 28.3668 8.07493 28.81 7.63176C29.2532 7.18858 29.9716 7.18858 30.4151 7.63176L36.4658 13.6824C36.9089 14.1256 36.9089 14.8444 36.4658 15.2876L30.4151 21.3382C30.1927 21.562 29.9021 21.6726 29.6118 21.6726Z" fill="white"/>
</svg>
