<svg width="288" height="334" viewBox="0 0 288 334" fill="none" xmlns="http://www.w3.org/2000/svg">
<path d="M80.3441 284.88C70.9073 274.653 49.5853 291.047 28.7127 282.23C10.3659 274.467 1.92075 250.898 0.727583 234.705C-1.20937 208.409 14.5807 182.361 40.7218 168.399C24.7768 159.443 14.7511 140.925 15.9443 122.687C17.4474 99.676 38.4749 82.4604 46.4862 80.6009C47.3849 80.3995 50.8714 79.7332 53.3972 76.882C56.1399 73.7829 56.2329 69.7695 56.2949 68.5763C56.8217 58.2717 66.3205 34.0366 78.3916 20.8033C88.8667 9.32107 101.96 5.36968 107.663 3.72714C111.165 2.71993 134.439 -3.61778 157.652 7.98844C180.942 19.6411 195.647 45.1005 196.05 73.473C200.42 71.8149 208.384 69.4906 218.023 70.7922C240.832 73.8913 252.408 94.5935 254.685 98.6688C258.776 105.983 263.859 117.744 261.178 132.511C259.086 144.009 250.238 154.825 238.632 156.251C250.083 160.76 261.922 165.517 270.413 174.427C277.448 181.818 281.617 191.534 284.127 201.42C289.659 223.145 287.149 247.954 272.831 265.216C258.528 282.478 231.008 289.126 212.646 276.264C217.837 285.98 215.125 299.213 206.509 306.093C197.909 312.973 184.397 312.725 176.061 305.52C177.13 311.207 176.278 317.777 171.877 321.527C167.476 325.277 159.108 323.882 157.776 318.257C161.851 323.991 156.164 332.792 149.145 333.35C142.141 333.908 135.803 328.531 132.673 322.24C132.874 326.145 127.978 328.763 124.259 327.601C120.54 326.439 118.091 322.859 116.588 319.264C115.085 315.654 114.202 311.765 112.095 308.48C102.704 313.035 91.3305 316.971 85.6746 312.183C78.5931 306.217 87.2706 292.38 80.3441 284.88Z" fill="#B18DC4"/>
<path d="M80.747 284.461C72.6118 276.822 58.7432 282.943 49.2754 283.981C29.0071 286.197 14.2863 274.9 6.67791 256.724C-7.77951 222.138 9.35866 186.405 41.0162 168.91C41.4036 168.693 41.3881 168.12 41.0162 167.903C17.1994 153.709 9.07973 122.532 25.0867 99.4125C30.2777 91.9126 37.4987 84.4437 46.2382 81.2671C52.6534 78.9273 55.8765 76.169 56.8527 69.0875C59.8434 47.3162 71.868 22.6007 91.2995 11.1494C108.422 1.04624 130.751 -1.20061 149.501 5.21457C178.447 15.1163 194.64 43.9846 195.477 73.4728C195.492 73.8292 195.848 74.1701 196.205 74.0306C218.689 65.8954 240.089 76.2775 252.253 95.6935C264.014 114.474 267.361 150.656 238.477 155.693C237.842 155.801 238.012 156.622 238.477 156.808C255.863 163.673 271.545 171.545 279.463 189.55C286.234 204.953 288.171 223.114 284.468 239.555C280.997 254.989 272.056 269.074 257.831 276.574C243.714 284.027 226.53 284.709 212.94 275.784C212.413 275.443 211.917 276.094 212.15 276.574C222.857 299.167 196.36 320.581 176.479 305.132C175.999 304.76 175.425 305.101 175.503 305.69C176.355 311.703 175.89 320.194 168.7 322.611C167.6 322.751 166.5 322.89 165.4 323.045C160.162 322.72 156.862 324.905 155.467 329.615C147.657 337.565 137.26 329.29 133.184 321.961C132.874 321.403 132.177 321.728 132.1 322.255C129 323.619 125.901 324.982 122.802 326.346C121.516 325.06 120.214 323.774 118.928 322.487C117.503 320.504 116.774 318.071 115.922 315.824C114.915 313.159 114.001 310.711 112.606 308.2C112.451 307.906 112.095 307.86 111.816 307.999C106.563 310.463 101 313.02 95.1579 313.547C86.8058 314.306 82.9939 308.665 83.3968 301.026C83.7067 295.091 84.6674 289.59 80.8555 284.585C80.4061 283.996 79.3989 284.57 79.8483 285.174C86.2944 293.65 75.8814 312.803 90.8811 314.864C94.724 315.39 98.8769 314.275 102.487 313.097C104.161 312.555 105.865 311.64 107.57 311.176C112.219 309.92 112.374 309.719 114.419 315.019C116.294 319.9 118.277 326.532 124.057 328.143C125.824 328.639 127.699 328.531 129.372 327.771C130.178 327.4 132.843 324.13 132.983 324.13C133.246 324.099 140.421 331.986 142.884 332.931C152.151 336.495 163.602 327.849 158.303 317.978C157.993 317.405 157.001 317.808 157.233 318.428C158.86 322.642 162.781 324.75 167.306 324.114C173.256 323.278 176.37 317.637 176.959 312.121C177.486 307.193 175.766 306.744 180.337 309.053C183.715 310.742 187.419 311.609 191.2 311.671C198.653 311.811 205.859 308.743 210.507 302.87C214.645 297.632 216.504 290.613 215.667 284.012C215.528 282.958 214.164 279.828 214.443 278.96C215.001 277.271 212.894 278.154 215.9 278.976C219.572 279.983 222.764 282.013 226.638 282.772C242.227 285.871 259.319 279.936 270.429 268.749C295.191 243.832 293.564 190.837 265.253 169.05C261.039 165.811 256.312 163.254 251.509 161.008C249.618 160.124 247.697 159.288 245.76 158.482C245.187 158.234 243.947 157.831 243.389 157.506C241.406 156.359 240.708 157.397 241.979 156.142C243.823 154.298 248.41 153.43 250.672 151.602C253.864 149.029 256.467 145.744 258.389 142.134C265.935 128.033 262.34 110.864 254.778 97.615C248.797 87.1244 239.965 77.7651 228.668 73.0699C220.487 69.6609 211.406 69.0101 202.76 70.854C201.907 71.04 197.987 72.7135 197.336 72.3726C195.941 71.6443 196.391 67.7084 196.267 66.4223C195.818 61.8046 194.981 57.2024 193.741 52.7397C183.948 17.0687 150.229 -4.95056 113.567 1.75905C82.7149 7.39945 60.4167 35.2916 56.016 65.8954C55.2877 70.9315 54.9468 75.9831 49.8642 78.8498C47.6329 80.1049 44.8591 80.3683 42.5348 81.546C36.8324 84.4592 31.8428 89.1699 27.7675 94.0045C17.2149 106.525 12.6282 122.609 17.091 138.601C19.3688 146.736 23.6921 154.344 29.5649 160.434C30.6031 161.519 38.5679 167.283 38.382 168.383C38.0101 170.646 29.3015 174.954 27.2251 176.643C13.4185 187.83 3.20689 203.775 0.634615 221.518C-1.62775 237.091 2.27716 254.09 10.9082 267.246C20.3451 281.641 34.8025 287.142 51.6152 284.818C60.2308 283.624 72.6583 278.433 79.9257 285.267C80.4681 285.794 81.3048 284.973 80.747 284.461Z" fill="black"/>
<path d="M119.641 152.516C121.16 154.561 122.167 160.93 120.896 163.099C120.664 163.487 112.436 167.314 113.164 167.113C118.122 165.749 122.105 163.905 127.373 163.285C136.733 162.201 152.151 162.34 158.241 170.894C158.674 171.498 159.682 170.925 159.248 170.305C154.708 163.936 146.046 162.557 138.685 161.906C129.372 161.085 118.82 162.216 110.762 167.237C110.235 167.562 110.514 168.244 111.056 168.321C120.757 169.561 126.49 159.799 120.664 151.927C120.199 151.323 119.192 151.911 119.641 152.516Z" fill="black"/>
<path d="M95.5763 204.24C102.332 214.034 110.39 225.299 123.097 227.158C129.946 228.15 136.779 225.826 143.706 226.647C152.259 227.67 160.147 231.28 167.925 234.813C178.292 239.539 190.704 246.667 202.078 241.476C211.22 237.308 221.044 229.793 222.919 219.426C223.043 218.698 221.928 218.388 221.804 219.116C219.402 232.427 201.613 244.405 188.597 241.6C178.276 239.369 168.933 233.636 159.201 229.746C149.61 225.903 141.288 224.881 131.108 225.872C114.574 227.484 105.184 216.11 96.599 203.667C96.1652 203.047 95.1579 203.621 95.5763 204.24Z" fill="black"/>
<path d="M79.182 214.808C94.3212 247.473 138.112 258.382 164.78 232.752C165.322 232.226 164.501 231.404 163.959 231.931C137.786 257.096 95.003 246.172 80.1892 214.22C79.8638 213.553 78.8566 214.142 79.182 214.808Z" fill="black"/>
<path d="M103.82 211.911C127.249 199.499 151.624 204.163 172.698 218.667C179.067 223.052 185.745 229.468 194.097 227.98C202.961 226.399 208.106 217.923 212.274 210.826C212.661 210.175 211.654 209.602 211.267 210.237C207.966 215.847 204.433 222.107 198.39 225.191C189.898 229.529 183.111 224.478 176.448 219.86C169.072 214.747 161.681 209.618 153.127 206.658C136.64 200.925 118.556 202.784 103.231 210.904C102.58 211.245 103.169 212.252 103.82 211.911Z" fill="black"/>
<path d="M164.966 213.429C170.126 212.949 174.139 210.935 178.881 209.122C183.359 207.417 187.45 206.968 192.192 208.099C194.283 208.579 196.282 209.339 198.173 210.392C203.317 212.562 202.605 214.654 196.019 216.653C195.554 216.203 194.748 216.777 195.105 217.35C196.313 219.085 197.274 220.96 198.002 222.975C194.562 224.943 192.316 223.92 191.231 219.86C190.828 219.209 189.914 219.783 190.224 220.449C191.2 222.556 194.438 224.896 189.201 226.089C188.256 226.306 183.731 224.09 182.801 223.843C182.073 223.641 181.763 224.772 182.491 224.958C184.924 225.625 191.99 230.785 194.376 227.794C196.143 225.563 192.083 221.611 191.603 222.68C190.874 224.307 196.732 228.352 198.793 226.57C201.225 224.462 196.701 219.054 196.964 218.744C196.406 219.411 203.069 221.921 204.759 220.573C207.222 218.621 205.192 215.413 203.751 213.553C200.559 209.432 195.167 207.231 190.146 206.503C180.647 205.139 174.139 211.369 164.95 212.221C164.222 212.329 164.222 213.491 164.966 213.429Z" fill="black"/>
<path d="M82.7924 117.078C89.6725 123.803 100.798 125.213 109.848 123.431C110.576 123.291 110.266 122.16 109.538 122.315C100.907 124.02 90.1838 122.687 83.6137 116.272C83.0713 115.729 82.2501 116.551 82.7924 117.078Z" fill="black"/>
<path d="M96.0876 123.368C94.3366 124.763 93.2829 126.994 93.3139 129.241C93.3294 130.031 93.4689 130.837 93.8873 131.503C94.786 132.975 97.0949 133.068 98.6134 132.604C100.302 132.077 102.208 130.45 102.177 128.11C102.162 126.266 100.953 124.561 99.1248 123.849" fill="black"/>
<path d="M95.6848 122.966C93.6084 124.748 92.3377 127.521 92.8491 130.279C93.2985 132.79 95.5298 133.704 97.8852 133.363C103.262 132.573 104.44 125.646 99.4347 123.337C98.7529 123.028 98.1641 124.035 98.8459 124.345C102.844 126.189 102.053 131.55 97.7147 132.201C95.4523 132.542 93.8563 131.364 93.9183 128.962C93.9648 126.901 94.9875 125.104 96.5215 123.787C97.0639 123.291 96.2426 122.47 95.6848 122.966Z" fill="black"/>
<path d="M160.751 121.153C169.924 121.68 179.78 121.757 186.846 114.707C187.372 114.18 186.551 113.359 186.024 113.885C179.206 120.688 169.583 120.502 160.751 119.991C160.007 119.944 160.007 121.106 160.751 121.153Z" fill="black"/>
<path d="M171.66 120.827C170.994 121.804 170.327 122.811 170.033 123.942C169.738 125.089 169.862 126.406 170.653 127.289C171.892 128.684 173.969 128.606 174.945 128.544C175.813 128.482 178.137 128.327 179.547 126.406C179.702 126.189 181.298 123.927 180.244 121.912C179.377 120.254 177.052 119.402 174.743 120.177" fill="black"/>
<path d="M171.164 120.533C169.583 122.873 168.034 126.592 171.179 128.467C173.008 129.536 175.875 129.334 177.765 128.513C179.81 127.614 181.438 125.243 181.128 122.95C180.709 119.774 177.207 118.906 174.557 119.619C173.829 119.82 174.139 120.936 174.867 120.734C177.626 119.99 180.864 121.54 179.702 124.81C179.175 126.313 177.982 127.32 176.448 127.738C175.425 128.017 174.077 128.126 173.039 127.909C169.165 127.134 170.668 123.338 172.156 121.137C172.59 120.502 171.582 119.928 171.164 120.533Z" fill="black"/>
</svg>
