<svg width="285" height="380" viewBox="0 0 285 380" fill="none" xmlns="http://www.w3.org/2000/svg">
<path d="M80.2776 288.062C81.575 292.039 85.2794 294.412 88.4546 296.939C93.3711 300.848 97.5364 305.816 100.626 311.449C100.917 311.978 101.19 312.593 101.002 313.156C100.848 313.6 100.421 313.873 100.046 314.095C94.1734 317.663 88.2156 321.06 82.1554 324.252C78.8436 325.994 75.2416 327.974 73.7905 331.576C72.2371 335.417 73.654 339.889 75.6684 343.491C77.99 347.64 81.0799 351.31 84.716 354.212C85.5525 354.878 86.4573 355.51 87.4816 355.629C89.9739 355.919 91.8347 353.068 92.1932 350.439C92.637 347.059 91.5445 343.491 89.2911 341.05C88.4375 340.128 87.345 338.797 88.0449 337.738C88.2497 337.431 88.5912 337.226 88.8984 337.039C96.5975 332.583 104.023 327.581 111.091 322.084C113.122 320.514 115.307 318.551 115.427 315.888C115.512 314.01 114.539 312.286 113.566 310.715C111.654 307.608 109.674 304.535 107.625 301.531C104.348 296.734 100.677 291.903 95.5732 289.479C91.425 287.515 86.7475 287.328 82.2066 287.191C81.5749 287.174 80.858 287.174 80.397 287.652C79.9361 288.13 80.1239 289.188 80.7556 289.188" fill="#5F958A"/>
<path d="M79.7142 288.386C82.0188 293.285 86.1159 295.59 90.0422 299.141C92.4663 301.326 95.8293 304.262 97.1608 307.13C99.2094 311.534 98.168 313.532 94.6514 316.57C88.5912 321.811 76.3341 323.092 73.1589 331.422C69.9325 339.872 86.3207 365.121 92.1932 352.761C93.2686 350.525 93.0638 347.571 92.3468 345.267C91.2372 341.682 89.6325 342.126 90.7933 338.456C91.9371 334.819 96.2731 333.385 99.2947 331.388C104.177 328.145 115.495 322.887 116.059 315.956C116.349 312.422 112.986 308.581 111.21 305.833C108.445 301.548 105.594 296.939 101.89 293.354C96.4438 288.079 87.7205 285.211 80.2434 287.106C80.0385 287.157 79.8508 287.345 79.7996 287.55C79.4923 288.83 79.3898 288.779 80.3288 289.701C80.9092 290.281 81.8139 289.376 81.2335 288.796C81.4213 288.984 89.2569 288.335 90.23 288.557C92.6882 289.103 95.2147 289.922 97.3657 291.288C101.838 294.122 104.945 298.765 107.847 303.05C110.937 307.625 113.122 310.032 112.593 315.751C112.081 321.18 111.193 321.282 107.199 324.269C105.611 325.464 103.989 326.608 102.35 327.752C98.6802 330.296 94.9074 332.651 91.1177 335.024C90.4519 335.434 87.8571 336.424 87.4815 337.448C87.2425 338.08 87.3279 339.002 87.4474 339.651C87.584 340.35 88.5911 340.726 88.7106 341.409C89.2057 342.092 89.6837 342.757 90.1787 343.44C87.7205 352.112 85.0062 354.622 82.0359 350.969C79.9873 349.552 78.1949 346.547 76.9316 344.413C74.3709 340.094 74.2685 338.729 75.5659 333.573C77.2389 326.847 80.7384 325.806 86.3378 322.75C89.3593 321.094 100.609 316.878 101.548 313.498C102.368 310.578 98.1851 306.259 96.6487 304.296C91.9712 298.373 84.0844 294.634 80.8409 287.754C80.4653 287.003 79.3728 287.652 79.7142 288.386Z" fill="black"/>
<path d="M162.168 294.651C161.963 297.194 161.348 299.687 160.699 302.162C155.049 324.115 147.469 345.574 143.304 367.886C142.689 371.197 142.382 375.26 144.977 377.343C146.24 378.367 147.913 378.623 149.518 378.675C155.459 378.879 161.246 376.694 166.469 373.775C168.518 372.631 170.669 371.112 171.198 368.773C171.437 367.715 171.215 366.452 170.327 365.871C169.798 365.53 169.133 365.479 168.518 365.462C166.35 365.359 164.182 365.257 161.997 365.154C161.143 365.12 160.221 365.052 159.556 364.506C158.48 363.618 158.548 361.928 158.77 360.511C159.453 355.936 160.46 351.412 161.792 346.991C162.85 343.457 164.114 340.009 165.292 336.509C166.708 332.275 168.006 327.991 169.303 323.723C171.796 315.495 174.271 307.249 176.763 299.021C177.019 298.15 177.258 297.109 176.661 296.426C176.302 296.016 175.739 295.88 175.21 295.777C170.805 294.856 166.367 294.207 161.894 293.848" fill="#5F958A"/>
<path d="M161.519 294.651C158.173 320.121 144.055 344.106 142.365 369.849C141.989 375.482 143.765 378.658 149.518 379.306C155.39 379.972 167.425 376.507 170.754 371.163C173.281 367.101 171.283 366.537 168.518 364.796C165.599 365.479 163.601 364.301 162.56 361.279C159.897 359.726 159.18 357.694 160.375 355.202C160.546 352.693 161.707 349.551 162.424 347.144C164.097 341.477 166.196 335.929 167.972 330.278C169.918 324.047 171.761 317.765 173.656 311.517C174.425 308.956 178.487 300.318 177.668 297.621C176.2 292.756 166.094 293.558 161.894 293.166C161.075 293.08 161.075 294.361 161.894 294.446C165.172 294.753 174.783 294.514 176.149 298.816C176.968 301.394 172.803 309.93 171.949 312.712C169.303 321.47 166.725 330.261 163.789 338.933C161.86 344.635 152.539 363.413 161.843 365.752C162.219 365.854 164.984 365.667 165.274 365.923C165.565 368.347 165.872 370.771 166.162 373.195C165.274 373.656 164.387 374.117 163.516 374.595C158.207 379.016 146.155 379.597 143.543 372.034C142.28 368.398 145.404 360.784 146.291 356.96C147.264 352.761 148.34 348.578 149.467 344.413C153.888 328.059 160.614 311.483 162.816 294.651C162.919 293.831 161.638 293.849 161.519 294.651Z" fill="black"/>
<path d="M242.453 204.533C251.501 205.847 260.429 208.767 267.991 213.922C273.061 217.387 284.687 225.274 284.294 235.346C284.192 237.805 283.406 239.819 283.065 240.707C282.331 242.567 281.409 243.882 280.709 244.804C277.551 249.02 275.554 249.43 272.993 252.469C268.162 258.187 266.13 267.491 266.489 269.949C266.523 270.222 266.779 271.486 266.165 271.844C265.84 272.032 265.448 271.964 265.089 271.878C263.109 271.383 261.299 270.171 260.087 268.532C261.214 269.215 260.924 271.161 259.746 271.759C258.568 272.356 257.066 271.793 256.229 270.786C255.324 269.693 255.068 268.225 254.829 266.842C254.727 268.652 254.386 270.837 252.696 271.52C250.408 272.442 248.325 269.54 248.24 267.064C248.138 263.94 249.503 260.97 251.005 258.204C253.395 253.8 256.195 249.601 259.336 245.691C263.484 240.519 264.628 237.224 264.014 234.39C263.058 229.986 258.039 227.681 256.195 226.845C254.829 226.213 250.835 224.455 245.833 225.65C242.129 226.538 239.739 228.603 238.68 229.627" fill="#5F958A"/>
<path d="M242.282 205.147C255.99 207.384 289.193 219.624 282.894 239.29C280.521 246.681 272.805 250.147 269.34 256.941C268.025 259.519 267.001 262.267 266.387 265.101C265.738 268.089 266.506 274.456 260.497 268.071C260.002 267.559 259.08 268.242 259.49 268.84C258.124 268.106 256.758 267.372 255.41 266.655C255.239 265.886 254.232 266.16 254.147 266.825C249.674 265.408 248.479 263.326 250.545 260.594C251.023 259.416 251.586 258.29 252.252 257.214C253.447 255.012 254.812 252.895 256.246 250.83C258.773 247.194 262.392 243.694 263.98 239.477C265.243 236.097 264.782 233.025 262.443 230.259C256.315 223.038 244.877 223.192 238.185 229.166C237.571 229.713 238.475 230.618 239.09 230.071C243.545 226.094 250.306 224.779 255.837 227.374C261.077 229.849 264.628 235.244 261.948 240.758C258.602 247.603 252.508 252.861 249.35 259.963C248.189 262.575 245.952 274.559 252.917 272.066C254.846 271.383 255.171 269.318 254.676 269.13C256.366 269.727 256.451 274.081 259.814 272.356C260.343 272.083 261.658 269.318 261.368 269.42C259.404 270.069 264.782 272.493 266.148 272.442C266.455 272.425 266.643 272.237 266.762 271.964C267.923 269.181 267.428 265.579 268.401 262.558C270.279 256.702 273.505 252.947 277.807 248.867C282.706 244.223 286.257 237.873 284.397 230.976C280.026 214.793 256.963 206.24 242.624 203.884C241.821 203.782 241.463 205.011 242.282 205.147Z" fill="black"/>
<path d="M26.9816 5.00593C27.6303 0.704021 51.9054 1.02837 61.0384 1.16494C183.421 3.1964 201.533 6.37163 223.623 17.8434C232.535 22.4697 245.577 30.2541 259.797 43.0745C234.293 40.4284 208.789 37.8848 183.267 35.4607C168.518 34.0609 153.751 32.6952 139.002 31.3637C139.002 31.3637 123.758 29.7761 108.257 30.6296C101.941 30.9881 98.7997 31.1589 94.3441 32.0978C88.7448 33.2757 86.9865 34.4023 83.3674 34.2999C79.185 34.1634 76.6926 32.405 70.6494 29.0079C65.6988 26.2424 60.4922 23.9036 55.5415 21.121C34.271 9.103 26.6231 7.46417 26.9816 5.00593Z" fill="#84E2CE"/>
<path d="M27.6133 5.17662C29.5423 0.533282 44.6844 1.84775 48.9863 1.77946C58.4095 1.62582 67.8327 1.93311 77.2389 2.10382C96.6658 2.47938 116.093 2.90616 135.503 3.69143C156.858 4.54498 178.897 5.04005 199.826 9.75167C216.385 13.4732 231.357 21.9233 244.979 31.8587C246.499 32.9683 257.134 39.7114 256.468 42.1014C256.332 42.5793 238.219 40.2406 236.512 40.0528C224.306 38.8237 212.118 37.6117 199.912 36.4338C178.505 34.3511 157.063 32.0806 135.622 30.4418C124.014 29.5541 112.2 29.3151 100.609 30.5101C91.3738 31.4661 84.2893 35.4949 75.4123 30.971C64.6404 25.4741 54.1759 19.3798 43.4211 13.8658C41.3043 12.7903 27.6474 7.90798 27.6474 5.02297C27.6474 4.20356 26.3671 4.20356 26.3671 5.02297C26.3671 7.12271 29.1326 8.11284 30.6348 8.94932C38.7265 13.3707 47.1255 17.2629 55.2343 21.6843C60.6287 24.6206 66.1768 27.2666 71.5372 30.254C74.6953 32.0124 77.8705 34.1633 81.5067 34.7779C89.0692 36.0411 97.7242 31.9441 105.355 31.4661C128.213 30.0321 151.071 33.1049 173.793 35.2388C202.472 37.936 231.152 40.7869 259.814 43.7402C260.36 43.7914 260.668 43.0061 260.275 42.6476C241.087 25.6619 219.304 11.749 193.869 7.27635C158.207 1.02834 120.924 1.72825 84.8868 0.994194C71.247 0.721056 57.5389 0.0894316 43.8991 0.652777C39.8874 0.823488 28.3985 0.0382171 26.4012 4.85226C26.0598 5.60339 27.2889 5.92774 27.6133 5.17662Z" fill="black"/>
<path d="M85.5525 34.3001C68.9423 76.1072 66.9621 121.465 65.033 166.396C63.3942 204.328 61.7554 242.26 60.1166 280.192C59.9971 282.872 59.9971 285.86 61.8066 287.84C63.5649 289.769 66.4499 290.059 69.0447 290.23C108.342 292.756 147.674 295.129 186.989 297.348C196.31 297.878 205.665 298.39 214.985 297.758C219.236 297.468 223.658 296.888 227.225 294.566C234.685 289.718 235.368 279.407 236.273 270.291C237.929 253.783 241.207 237.48 242.948 220.989C243.272 217.985 244.86 205.318 248.069 179.985C251.671 151.493 252.764 143.743 253.925 136.061C254.334 133.295 255.802 124.316 258.739 106.34C261.538 89.1666 261.094 71.6175 262.272 54.2562C262.511 50.8079 262.614 46.9498 260.326 44.355C258.312 42.0675 255.051 41.47 252.03 41.009C200.253 33.2588 147.777 30.425 95.4366 31.7053C94.3611 31.7394 93.4735 32.0809 93.3198 32.115C89.3935 33.1051 86.3548 35.1878 84.1014 37.2193" fill="#6FBFA4"/>
<path d="M84.9379 34.1292C73.1759 64.4133 68.5838 96.524 66.3475 128.771C63.9234 163.562 63.0186 198.49 61.4993 233.349C61.1579 241.15 60.8165 248.969 60.4921 256.77C60.1336 265.186 58.2729 274.917 59.5191 283.265C61.0043 293.217 73.1247 291.134 80.8409 291.612C116.212 293.866 151.601 296.017 186.989 297.98C198.853 298.629 216.88 302.009 227.55 295.112C235.624 289.888 236.017 278.86 236.922 270.291C239.5 245.913 243.46 221.621 246.533 197.295C249.111 176.843 251.466 156.341 254.59 135.975C256.024 126.654 257.629 117.368 259.097 108.064C261.675 91.8465 261.743 75.5095 262.614 59.1554C262.87 54.3584 264.27 47.9738 260.77 43.9109C256.775 39.2846 247.591 39.7114 242.265 38.9774C223.453 36.3996 204.538 34.4364 185.606 33.0878C165.599 31.6709 145.557 30.9198 125.499 30.8003C111.825 30.7149 94.9416 27.4715 83.6234 36.7923C82.9918 37.3215 83.8966 38.2262 84.5282 37.697C91.4761 31.9611 98.6119 32.2514 107.113 32.1489C115.461 32.0465 123.826 32.0465 132.174 32.1489C147.213 32.3538 162.253 32.9 177.258 33.8219C192.827 34.7779 208.362 36.1436 223.862 37.936C232.108 38.892 240.336 39.9333 248.547 41.1454C255.154 42.1184 260.787 43.706 261.675 52.9415C262.016 56.4923 261.248 60.4698 261.094 64.0377C260.036 88.1933 257.066 111.495 253.395 135.344C251.193 149.649 249.452 164.04 247.625 178.397C245.133 198.012 243.033 217.712 240.182 237.258C238.151 251.222 236.99 265.511 234.549 279.372C233.166 287.242 229.701 294.224 221.165 296.256C213.722 298.031 205.46 297.502 197.863 297.229C167.255 296.136 136.646 293.814 106.089 291.92C98.2192 291.442 90.3665 290.947 82.4967 290.434C73.5856 289.871 62.0285 291.971 60.7311 280.192C59.9629 273.227 61.3628 265.442 61.67 258.443C62.0115 250.642 62.3529 242.823 62.6772 235.022C64.1453 201.187 65.1525 167.284 67.2864 133.483C69.4203 99.7675 73.8588 66.1545 86.15 34.4877C86.4743 33.7024 85.2281 33.361 84.9379 34.1292Z" fill="black"/>
<path d="M28.5351 3.46924C24.7283 10.4513 21.9457 17.9797 20.2556 25.747C18.7192 32.8656 18.1217 40.1379 17.5413 47.3931C12.3859 110.59 7.24747 173.787 2.092 236.967C1.59694 242.994 1.15309 249.293 3.49183 254.875C6.63291 262.386 13.1541 266.398 20.9726 270.649C30.6007 275.89 44.5649 282.547 62.8651 288.334C62.37 286.644 61.6189 283.776 61.0214 280.174C59.3655 270.034 60.3897 262.079 60.6629 259.792C63.0187 239.716 59.3826 206.786 68.0205 135.019C71.4006 106.988 76.6243 73.2046 85.0062 35.1702C66.467 25.0129 47.9108 14.8727 29.3716 4.71542" fill="#5F958A"/>
<path d="M27.9888 3.145C15.066 27.9151 16.0903 57.414 13.871 84.6253C11.2933 116.224 8.71556 147.822 6.13783 179.421C4.85749 195.212 3.5601 211.02 2.27977 226.81C1.40915 237.48 -1.39052 250.061 5.30135 259.433C10.9519 267.354 21.1774 271.707 29.6618 275.821C40.3312 281.011 51.3933 285.279 62.6773 288.932C63.1552 289.086 63.5991 288.608 63.4625 288.147C59.263 273.056 61.8749 258.46 62.1993 243.199C62.5236 227.169 62.609 211.173 63.4113 195.161C66.1256 141.404 74.1319 87.8859 85.6208 35.324C85.672 35.0509 85.5866 34.7436 85.3306 34.607C66.7914 24.4497 48.2351 14.3095 29.6959 4.15219C28.9789 3.75955 28.3302 4.86918 29.0472 5.26181C39.7849 11.1343 50.5226 17.0238 61.2604 22.8962C66.6207 25.8325 71.9981 28.7687 77.3584 31.7049C80.5165 33.4291 83.0089 33.9071 83.6747 38.2431C84.2039 41.6574 81.6774 47.5981 80.9774 51.0294C76.6755 72.1463 73.0053 93.3998 70.0178 114.739C64.9306 150.929 61.8066 187.342 61.1921 223.874C61.0214 233.827 61.1579 243.83 60.5263 253.766C60.2532 258.187 59.5703 262.591 59.4679 267.013C59.3825 270.461 59.5532 273.909 59.9629 277.341C60.2019 279.27 61.6871 283.23 61.3457 285.108C62.4553 287.054 62.0115 287.583 60.0142 286.713C58.0851 286.081 56.1561 285.415 54.2441 284.733C45.4184 281.574 36.7463 277.921 28.3644 273.739C18.5314 268.839 6.29147 263.428 3.16746 251.837C0.0434532 240.279 3.71373 224.967 4.66971 213.256C5.67691 200.845 6.70118 188.435 7.70838 176.024C10.013 147.805 12.3005 119.604 14.6051 91.3854C16.9609 62.5353 15.4074 30.0149 29.0984 3.77664C29.474 3.07672 28.3644 2.42801 27.9888 3.145Z" fill="black"/>
<path d="M25.394 105.179C32.0688 108.576 38.7436 111.974 45.4354 115.371C46.4426 115.883 47.4669 116.412 48.3375 117.129C51.325 119.621 51.9225 124.145 50.7958 127.884C49.6691 131.622 47.1767 134.746 44.7185 137.768C44.0356 138.621 43.3016 139.509 42.2773 139.919C41.492 140.226 40.6043 140.226 39.7849 140.055C37.7364 139.612 35.9439 138.075 35.1928 136.095C35.0562 135.719 34.9197 135.31 34.5953 135.088C34.0149 134.678 33.2296 135.122 32.6151 135.463C29.6276 137.187 25.1891 136.624 23.4991 133.637C22.987 132.732 22.765 131.691 22.5431 130.666C21.553 125.733 20.9555 120.714 20.7507 115.678C20.597 111.717 20.9384 107.211 24.0283 104.735" fill="black"/>
<path d="M29.3374 119.673C28.7229 121.243 28.5009 122.899 28.7229 124.555C28.8253 125.357 30.1056 125.374 30.0032 124.555C29.7983 122.984 29.9861 121.482 30.5665 120.014C30.8738 119.246 29.6447 118.904 29.3374 119.673Z" fill="#5F958A"/>
<path d="M40.2288 125.426C40.3824 126.86 40.536 128.276 40.7068 129.71C40.7921 130.513 42.0724 130.53 41.9871 129.71C41.8334 128.276 41.6798 126.86 41.5091 125.426C41.4237 124.606 40.1434 124.606 40.2288 125.426Z" fill="#5F958A"/>
<path d="M21.4506 139.56C21.4165 142.206 20.5458 144.767 20.3581 147.396C20.1703 150.025 20.9043 153.029 23.1748 154.361C24.5575 155.18 26.2988 155.249 27.7157 156.017C29.1326 156.785 30.0374 158.97 28.7741 159.96C28.4497 160.216 28.023 160.336 27.6474 160.507C26.111 161.206 25.0697 162.845 25.1038 164.535C25.1209 165.764 25.6672 166.942 25.7354 168.171C25.8037 169.401 25.1038 170.869 23.8747 170.92C22.6285 170.971 21.775 169.588 20.5458 169.349C19.1289 169.059 17.8657 170.459 17.5755 171.893C17.1316 174.078 18.2412 176.348 19.8801 177.885C21.5189 179.404 23.6016 180.326 25.6501 181.231C30.0032 183.143 34.3563 185.038 38.7095 186.95C39.2899 187.206 39.9727 187.462 40.5531 187.172C41.0994 186.881 41.2872 186.216 41.4238 185.601C42.2432 181.948 43.0114 177.885 41.0994 174.658C40.1776 173.105 38.7095 171.927 37.9583 170.288C37.8218 169.981 37.7193 169.657 37.7876 169.332C37.9242 168.803 38.4875 168.547 38.9826 168.325C41.3896 167.25 43.5747 165.56 44.9575 163.323C46.3402 161.087 46.8865 158.253 46.1012 155.744C44.8209 151.612 40.5531 149.274 36.678 147.362C31.7957 144.955 26.9304 142.565 22.0481 140.158" fill="black"/>
<path d="M39.6654 43.0064C39.4947 43.86 39.563 44.8501 40.3653 45.3793C40.9458 45.7719 41.8505 45.7378 42.3285 45.1915C42.8748 44.594 42.7211 43.7404 42.1407 43.2283C41.5262 42.6991 40.5531 42.5455 39.7679 42.7162C38.2485 43.0405 37.7876 44.9525 38.8972 46.028C40.3141 47.3937 42.3456 45.8402 42.3797 44.2014C41.9529 44.2526 41.5432 44.3209 41.1165 44.3721C41.492 45.806 39.4606 46.4036 39.0338 44.9525C38.8119 44.1672 37.5657 44.4916 37.8047 45.2939C38.1632 46.523 39.4435 47.3937 40.7409 47.0352C42.0212 46.6767 42.687 45.2598 42.3627 44.0307C42.1749 43.3137 41.1165 43.4844 41.0994 44.2014C41.0823 44.7135 40.5702 45.4817 39.9556 45.2256C39.6142 45.0891 39.4435 44.5599 39.6142 44.2355C39.8361 43.7917 40.6897 43.8941 41.0652 44.0648C41.2018 44.1331 41.5774 44.4575 41.2018 44.338C40.775 44.2014 40.8263 43.7063 40.8945 43.3478C41.0652 42.5455 39.8361 42.187 39.6654 43.0064Z" fill="black"/>
<path d="M54.0393 52.2073C53.8515 53.0609 53.9369 54.0169 54.6539 54.6314C55.2855 55.1777 56.3098 55.2801 56.9585 54.6997C58.3583 53.4194 56.9755 51.405 55.3196 51.5074C54.3978 51.5757 53.6296 52.1561 53.1858 52.9414C52.8443 53.5389 52.4346 54.4948 53.0663 55.0411C53.4248 55.3655 54.0222 55.4679 54.4661 55.6216C54.9953 55.8093 55.5416 56.0825 56.1049 55.98C56.8902 55.8435 57.2999 55.0411 56.9073 54.3412C56.7707 54.1022 56.4463 53.9656 56.1903 54.051C55.8488 54.1534 55.5416 54.3071 55.2343 54.4949C55.0806 54.5973 54.927 54.6997 54.7563 54.7851C54.6027 54.8533 54.4319 54.9729 54.3466 55.007C55.0977 54.6485 54.449 53.5559 53.6979 53.8974C52.9468 54.2559 52.9126 55.3313 53.5101 55.8435C54.5685 56.7482 55.5416 55.5533 56.5146 55.2631C56.2756 55.1606 56.0366 55.0753 55.7976 54.9728C55.7976 54.7168 55.6781 54.5973 55.4221 54.5973C55.2684 54.5461 55.0977 54.4778 54.9441 54.4266C54.7904 54.3753 54.6197 54.3071 54.4661 54.2559C54.2954 54.0852 54.1588 54.0681 54.0734 54.2217C53.9539 54.3754 53.9539 54.3241 54.0564 54.0681C54.1076 53.8974 54.1759 53.7267 54.2783 53.5559C54.4149 53.317 54.6026 53.078 54.8416 52.9243C55.2684 52.6683 56.2585 52.6341 56.2073 53.3682C56.1732 53.7437 55.8488 53.8803 55.5416 53.6925C55.1489 53.4365 55.1831 52.9243 55.2684 52.5317C55.4562 51.7464 54.2271 51.405 54.0393 52.2073Z" fill="black"/>
<path d="M30.9933 57.363C29.9861 57.2094 28.8936 57.4996 28.3132 58.4044C27.7669 59.2408 27.8693 60.3675 28.5351 61.1016C30.0544 62.7575 32.8712 60.7431 31.6079 58.8482C30.4983 57.1923 26.7597 57.4655 27.306 59.9578C27.545 61.0333 28.757 61.426 29.7301 61.1699C30.7543 60.8968 31.5225 60.0091 31.6762 58.9848C31.7957 58.1825 30.5666 57.8239 30.4471 58.6433C30.3446 59.275 29.7471 60.1798 28.9619 59.9578C28.3644 59.7871 28.5522 59.2579 29.0472 59.0872C29.474 58.9506 30.1398 59.1043 30.4471 59.4457C31.0958 60.1627 29.7471 60.948 29.3204 59.992C28.9448 59.1384 29.8837 58.4897 30.6519 58.6092C31.4713 58.7287 31.8128 57.4825 30.9933 57.363Z" fill="black"/>
<path d="M44.9063 64.8741C43.5918 64.6351 42.4139 64.7546 41.7993 66.0862C41.3213 67.1275 41.2019 68.5956 42.3968 69.1931C43.3528 69.6711 44.4283 68.92 44.4966 67.8957C44.5649 66.8032 43.5235 65.9838 42.4993 66.0179C39.9898 66.0691 40.997 70.0637 43.2675 68.9541C45.6062 67.8104 43.4382 64.5156 41.3555 65.7448C41.6116 66.0862 41.8676 66.4105 42.1237 66.7519C43.2162 65.4716 44.2064 67.7762 42.8577 67.8104C41.5945 67.8445 41.9359 66.1545 43.0626 66.1886C43.882 66.2227 43.882 64.9424 43.0626 64.9083C41.7652 64.857 40.6044 66.0179 40.7409 67.3324C40.8775 68.5786 42.2432 69.3126 43.404 69.0053C44.6844 68.681 45.1794 67.1787 44.5478 66.0691C43.8479 64.8229 42.0896 64.8058 41.2189 65.8472C40.758 66.3764 41.3384 67.247 41.9871 66.8544C42.3627 66.6324 43.0797 66.9227 43.0114 67.4348C42.9773 67.7079 42.431 68.0494 42.2603 67.725C42.0554 67.3324 42.4822 67.2811 42.7383 67.3665C43.0114 67.4519 43.4894 67.964 42.9772 67.9469C42.5163 67.9299 42.7041 67.2982 42.7895 67.0251C43.0797 66.052 43.6601 65.9837 44.5478 66.1374C45.3672 66.2569 45.7257 65.0278 44.9063 64.8741Z" fill="black"/>
<path d="M57.2145 70.8831C56.0537 71.4635 55.405 72.9146 56.1732 74.0754C56.856 75.0997 58.3412 75.2704 59.1265 74.2632C60.9872 71.8562 55.9512 69.8588 54.7392 72.5219C54.2783 73.5633 54.6709 74.9631 55.9 75.2021C56.8731 75.3899 58.0339 74.6387 57.9827 73.5803C57.9315 72.4366 56.5658 71.5318 55.4733 71.8049C54.0222 72.1805 54.2954 73.9559 55.2513 74.707C56.3439 75.5435 58.1876 75.1338 58.3241 73.5974C58.4436 72.2147 56.8219 71.5489 55.8318 72.3854C55.2001 72.9146 56.122 73.8193 56.7365 73.2901C56.9926 73.0682 57.0779 73.5803 56.839 73.7681C56.617 73.9388 56.378 73.8705 56.139 73.7511C55.5415 73.4267 55.7293 72.8121 56.3097 73.1706C57.4194 73.8535 55.3708 74.4168 55.883 73.1023C56.1902 72.3 58.1876 72.2829 58.1705 73.2219C58.1705 73.8876 57.2828 73.6998 57.1121 73.1706C56.9584 72.6414 57.4194 72.2146 57.8291 72.0098C58.5973 71.6172 57.9486 70.5075 57.2145 70.8831Z" fill="black"/>
<path d="M30.8397 77.012C29.9008 77.0462 28.9277 76.7901 28.4497 77.7632C28.1254 78.4289 28.1083 79.2654 28.5863 79.88C29.3716 80.8871 31.386 80.4433 31.2494 79.0093C31.0958 77.4388 28.7058 77.0632 27.9035 78.3094C27.0158 79.7092 28.7912 81.3481 29.9861 80.1019C30.5495 79.5044 29.6447 78.5996 29.0814 79.1971C28.8594 79.1459 28.8765 79.0605 29.1155 78.9752C29.235 78.8215 29.4057 78.7703 29.5935 78.8557C29.7642 78.9069 30.0203 79.0264 29.7984 79.1459C29.5764 79.2654 29.4911 78.8045 29.474 78.7362C29.4569 78.4801 29.6276 78.207 29.7642 78.0021C29.5764 78.1046 29.3887 78.207 29.2179 78.3265C29.7471 78.3094 30.2763 78.2923 30.8226 78.2753C31.6591 78.2582 31.6591 76.9779 30.8397 77.012Z" fill="black"/>
<path d="M46.1525 83.9256C45.1794 84.4206 44.2234 85.4449 44.7185 86.6057C45.1453 87.6129 46.4597 88.0056 47.1767 87.0667C47.8596 86.179 47.484 84.8474 46.5963 84.2499C45.7086 83.6524 44.599 83.9256 43.9332 84.7279C42.431 86.5375 44.599 88.7567 46.5451 87.6812C47.4669 87.1691 47.7913 85.9741 47.2792 85.0523C46.6817 83.9939 45.4013 83.9256 44.5136 84.6255C43.882 85.1376 44.7868 86.0424 45.4184 85.5303C46.0842 84.984 46.6134 86.3838 45.7086 86.6399C45.1965 86.7765 44.5819 86.5033 44.7185 85.9058C44.8721 85.2742 45.6403 84.9328 46.0671 85.5303C46.4597 86.0765 45.6745 86.4692 45.9135 85.7522C46.033 85.4108 46.4939 85.2059 46.7841 85.0523C47.5352 84.6596 46.8865 83.55 46.1525 83.9256Z" fill="black"/>
<path d="M26.7426 197.721C22.5773 197.875 18.5656 199.872 15.6806 202.894C12.7956 205.916 11.0372 209.91 10.4056 214.024C10.1495 215.663 10.0813 217.353 10.3885 218.992C10.986 222.082 12.9492 224.813 15.4074 226.776C17.1487 228.176 19.2484 229.269 21.4847 229.388C24.2844 229.525 26.8963 228.125 29.235 226.572C33.2296 223.909 36.917 220.546 38.9143 216.175C40.9116 211.822 40.9287 206.325 38.0266 202.501C35.0392 198.575 29.6618 197.141 24.7453 197.534" fill="black"/>
<path d="M20.4263 221.109C19.4533 229.627 31.2494 236.302 32.0517 236.746C40.8092 241.56 49.6179 239.46 51.7005 238.982C54.5173 238.351 57.2828 237.326 59.6386 235.636C63.0357 233.212 65.3574 229.593 67.5937 226.076C70.7519 221.109 73.9271 216.107 76.4707 210.798C80.7384 201.921 83.4186 191.951 90.1617 184.781C91.3396 183.518 92.6882 182.272 93.0638 180.582C93.4393 178.892 92.1761 176.758 90.469 177.048C89.8715 177.151 89.3593 177.526 88.8984 177.885C87.7205 178.807 86.628 179.831 85.6037 180.923C85.7573 179.489 87.7205 178.807 87.9254 177.373C88.1132 175.99 86.3548 174.983 85.0062 175.358C83.6576 175.734 82.7187 176.912 81.8651 178.038C83.1113 177.304 84.4258 176.502 85.0745 175.222C85.7403 173.941 85.3818 172.029 84.0332 171.534C83.2138 171.244 82.0017 171.876 80.0044 174.044C69.9837 184.969 63.582 203.389 63.582 203.389C61.6018 209.057 60.697 212.488 57.7266 217.302C53.6978 223.84 50.4543 225.547 48.5595 226.281C47.0913 226.845 43.5918 228.176 40.1434 226.828C37.4291 225.752 35.1245 222.679 30.6177 216.585C28.7229 214.007 28.1424 213.034 26.9645 212.932C24.3356 212.676 20.8872 216.978 20.4263 221.109Z" fill="#5F958A"/>
<path d="M19.7776 221.109C19.7264 232.871 34.032 240.399 44.3429 240.468C62.7455 240.587 71.4176 223.55 78.1607 208.698C80.397 203.782 82.1724 198.643 84.716 193.881C86.9353 189.698 91.3737 186.318 93.0638 182.067C94.0027 179.712 93.8149 176.571 90.486 176.451C89.8886 176.434 89.0691 177.117 88.5912 177.39C86.5426 178.482 87.4815 178.517 87.7376 179.114C87.2084 177.868 89.3593 177.834 88.1814 176.024C86.1841 172.969 82.9406 175.854 81.4213 177.629C80.9775 178.141 81.5579 179.063 82.1895 178.636C85.4671 176.485 88.079 169.742 82.0871 171.466C78.0754 172.627 73.671 181.248 71.742 184.526C68.8399 189.442 66.3646 194.632 64.2478 199.924C60.3556 209.654 50.3861 238.504 35.8757 222.441C33.8954 220.255 30.669 212.795 26.8963 212.352C22.7309 211.856 20.5117 218.087 19.7947 220.989C19.5898 221.792 20.836 222.133 21.0238 221.331C25.9744 215.288 29.5935 214.639 31.881 219.402C32.4273 220.136 32.9906 220.887 33.554 221.604C34.749 223.089 35.8927 224.745 37.412 225.906C39.7337 227.698 42.1237 228.33 45.094 227.972C51.1201 227.238 55.2684 222.577 58.2729 217.678C62.1139 211.464 63.7186 204.226 66.6036 197.568C68.5839 192.959 70.8372 188.418 73.4491 184.133C74.7977 181.931 77.0511 177.783 78.9119 176.332C80.9092 172.832 83.2138 173.805 85.7915 179.285C85.4671 179.695 85.2282 180.138 85.0745 180.651C84.7502 181.282 85.5525 181.965 86.0817 181.419C89.2228 178.295 89.4959 183.467 88.8643 185.379C88.5399 186.335 86.884 187.855 86.3207 188.657C83.7771 192.344 82.0017 196.492 80.2263 200.572C76.4024 209.398 72.3224 217.729 67.0474 225.786C60.8165 235.278 52.0249 240.587 40.5702 238.812C32.1029 237.497 21.0238 230.805 21.058 221.126C21.058 220.29 19.7776 220.272 19.7776 221.109Z" fill="black"/>
<path d="M111.176 52.6003C107.523 52.6003 101.565 54.3245 99.107 58.3704C96.6487 62.4162 96.0171 67.2815 95.4879 71.976C93.0809 93.0076 91.3908 114.107 90.4007 135.259C90.0764 142.053 89.8374 148.881 90.4861 155.658C90.6568 157.553 90.9641 159.551 92.142 161.036C93.9515 163.306 97.195 163.699 100.097 163.904C135.707 166.447 171.437 167.386 207.15 166.738C214.61 166.601 222.104 166.396 229.393 164.774C230.52 164.518 231.732 164.194 232.449 163.289C233.064 162.538 233.217 161.514 233.337 160.541C235.983 141.097 238.612 121.636 240.899 102.141C242.043 92.2906 243.102 82.4064 242.931 72.4881C242.88 69.7738 242.692 66.8888 241.087 64.6867C238.748 61.4602 234.276 60.8115 230.315 60.436C216.744 59.1556 203.172 57.8582 189.601 56.5779C163.721 54.1538 122.17 52.6003 111.176 52.6003Z" fill="#E2FFEE"/>
<path d="M111.176 51.9517C97.5535 52.8223 95.761 63.7307 94.4636 75.2879C92.0566 96.6438 90.3153 118.136 89.5642 139.629C89.3594 145.467 88.062 154.139 90.6226 159.653C92.7053 164.143 97.3657 164.331 101.736 164.672C122.853 166.328 144.089 167.062 165.274 167.42C184.804 167.745 205.443 169.128 224.818 166.243C230.281 165.423 232.227 165.406 233.934 160.729C235.334 156.871 235.146 151.852 235.693 147.755C236.427 142.292 237.161 136.829 237.878 131.366C239.158 121.636 240.387 111.905 241.514 102.158C242.692 92.0346 245.184 79.9483 243.409 69.7739C241.019 56.0829 220.243 58.8825 209.932 57.8924C177.139 54.7855 144.158 52.0712 111.176 51.9517C110.357 51.9517 110.357 53.232 111.176 53.232C131.132 53.3003 151.157 54.4611 171.062 55.7927C184.599 56.6975 198.102 58.0631 211.622 59.3435C215.583 59.719 219.543 60.0946 223.504 60.4702C225.757 60.6921 228.045 60.8287 230.281 61.1189C235.744 61.8017 234.737 61.5286 238.595 67.1791C242.692 73.171 242.402 75.5098 242.06 82.4236C241.838 86.8279 241.429 91.2152 240.968 95.6025C239.261 111.854 237.041 128.072 234.873 144.272C234.31 148.437 234.173 153.064 233.132 157.161C231.561 163.323 228.915 164.416 222.975 165.167C214.405 166.26 205.699 166.157 197.078 166.243C180.895 166.413 164.711 166.243 148.545 165.748C140.743 165.509 132.925 165.201 125.123 164.809C121.231 164.621 117.322 164.399 113.43 164.16C109.589 163.921 103.699 164.689 100.063 163.289C95.9829 161.719 91.6298 156.666 90.8787 152.774C90.5202 150.947 90.708 148.813 90.708 146.952C90.6738 143.06 90.8445 139.168 91.0323 135.276C91.442 126.382 91.9883 117.471 92.6541 108.594C93.3711 99.1532 94.2076 89.7129 95.2148 80.3068C96.4097 68.9886 96.6316 54.188 111.176 53.2662C111.996 53.1808 112.013 51.9005 111.176 51.9517Z" fill="black"/>
<path d="M133.847 83.362C133.932 86.7591 137.363 88.9442 140.538 88.9784C143.97 89.0125 146.804 86.5031 147.282 83.1401C147.401 82.3377 146.155 81.9792 146.052 82.7986C145.711 85.1374 144.123 87.1176 141.733 87.5956C139.019 88.1419 135.195 86.5031 135.11 83.362C135.11 82.5426 133.83 82.5426 133.847 83.362Z" fill="black"/>
<path d="M197.368 87.5791C198.307 90.7884 201.209 93.5198 204.76 93.0247C207.816 92.5979 210.615 89.7471 210.086 86.5718C209.949 85.7524 208.72 86.1109 208.857 86.9133C209.318 89.7129 206.126 91.9322 203.633 91.7615C201.107 91.5908 199.28 89.5422 198.614 87.2376C198.375 86.4523 197.129 86.7767 197.368 87.5791Z" fill="black"/>
<path d="M157.883 105.196C161.604 110.078 166.913 113.254 173.127 113.646C178.795 114.005 184.838 111.956 186.204 105.913C186.391 105.111 185.145 104.769 184.974 105.572C183.489 112.178 175.876 113.185 170.327 111.956C165.701 110.932 161.86 108.286 159.009 104.547C158.497 103.899 157.388 104.547 157.883 105.196Z" fill="black"/>
<path d="M94.5831 186.062C94.7709 189.22 94.9416 192.361 95.1294 195.519C116.246 197.09 137.363 198.643 158.531 198.848C159.214 198.848 159.965 198.848 160.529 198.456C161.314 197.909 161.485 196.817 161.57 195.861C161.741 194 161.928 192.139 162.099 190.296C162.15 189.681 162.202 189.049 161.929 188.503C161.451 187.564 160.221 187.325 159.18 187.206C139.787 185.021 120.275 183.774 100.763 183.467C98.0144 183.416 94.3612 184.218 94.2758 186.967" fill="black"/>
<path d="M93.9344 186.062C94.1222 189.22 94.2929 192.361 94.4807 195.519C94.4978 195.878 94.7538 196.134 95.1294 196.168C113.464 197.534 131.798 198.882 150.184 199.343C153.837 199.429 159.47 201.033 161.86 197.636C162.987 196.031 163.38 189.561 162.424 188.11C160.529 185.225 153.717 185.977 151.088 185.703C141.921 184.799 132.72 184.099 123.519 183.604C115.82 183.194 106.669 181.606 99.0387 182.904C96.2731 183.365 94.4978 184.065 93.6442 186.779C93.4052 187.564 94.6343 187.906 94.8733 187.12C96.9389 180.565 124.816 184.935 130.006 185.26C135.417 185.601 140.829 186.028 146.223 186.523C151.976 187.052 167.374 187.803 158.19 195.622C153.359 199.736 146.36 197.995 140.163 197.739C134.598 197.517 129.033 197.209 123.484 196.868C117.919 196.526 112.371 196.151 106.806 195.741C104.604 195.588 100.507 196.151 98.4753 195.127C94.805 193.283 95.4367 189.527 95.2489 186.062C95.1635 185.242 93.8832 185.225 93.9344 186.062Z" fill="black"/>
<path d="M214.183 189.783C212.647 189.032 210.735 189.066 209.233 189.903C207.73 190.722 206.672 192.31 206.467 194.017C206.365 194.939 206.501 195.878 206.757 196.782C207.321 198.729 208.567 200.538 210.325 201.528C212.083 202.518 214.439 202.57 216.112 201.426C218.195 199.992 218.826 197.021 217.973 194.632C217.136 192.259 215.088 190.449 212.835 189.322" fill="black"/>
<path d="M214.354 189.152C210.649 187.649 206.347 189.749 205.835 193.897C205.392 197.482 207.884 201.631 211.418 202.621C214.934 203.611 218.297 201.494 218.895 197.892C219.561 193.778 216.556 190.534 213.176 188.725C212.442 188.332 211.81 189.442 212.527 189.835C214.746 191.029 216.932 192.788 217.546 195.366C218.297 198.472 216.334 201.716 212.92 201.579C210.035 201.46 207.918 198.848 207.286 196.219C206.279 192.02 209.984 188.742 214.012 190.364C214.781 190.705 215.105 189.459 214.354 189.152Z" fill="black"/>
<path d="M90.3665 270.308C89.0008 271.11 87.4986 272.561 87.6181 273.824C87.6351 273.995 87.6864 274.678 88.1814 275.019C88.4887 275.241 88.8813 275.275 89.2569 275.293C93.0467 275.532 96.8706 275.378 100.626 274.797C101.446 274.678 102.333 274.473 102.828 273.807C103.392 273.039 102.948 271.742 102.299 271.008C101.565 270.171 100.49 270.018 99.4142 269.898C94.6684 269.42 92.2955 269.164 90.3665 270.308Z" fill="black"/>
<path d="M90.0422 269.745C88.4887 270.769 85.3476 273.756 87.8571 275.566C89.3593 276.641 92.6882 276.061 94.3953 276.01C96.6316 275.941 100.438 276.112 102.487 274.917C105.15 273.347 103.033 270.069 100.78 269.471C97.6559 268.669 93.0296 268.191 90.0422 269.745C89.3081 270.12 89.9568 271.23 90.6909 270.854C92.1419 270.103 93.6783 270.103 95.266 270.188C96.2561 270.24 97.3998 270.205 98.3558 270.462C98.7143 270.496 99.0557 270.53 99.4142 270.564C102.094 272.869 102.436 274.081 100.473 274.2C98.4582 275.088 94.8562 274.781 92.6882 274.781C91.9541 274.781 89.9568 275.088 89.274 274.678C87.1572 273.381 89.2911 271.793 90.6909 270.871C91.3737 270.41 90.725 269.301 90.0422 269.745Z" fill="black"/>
<path d="M124.731 274.507C125.106 275.361 125.874 275.924 126.779 276.163C130.569 277.102 134.598 277.119 138.388 276.215C138.985 276.078 139.6 275.89 140.078 275.532C140.573 275.156 140.914 274.542 140.812 273.944C140.709 273.364 140.231 272.903 139.685 272.681C139.139 272.459 138.541 272.425 137.944 272.374C136.919 272.288 137.756 272.186 132.976 271.742C128.042 271.281 125.55 271.076 124.85 272.032C124.372 272.715 124.423 273.79 124.731 274.507Z" fill="black"/>
<path d="M124.184 274.832C126.711 278.673 134.171 277.802 138.012 276.948C139.497 276.607 141.614 275.958 141.477 274.012C141.392 272.629 140.129 272.083 138.951 271.81C135.724 271.076 132.157 270.905 128.879 270.735C125.96 270.598 123.143 270.991 124.133 274.661C124.338 275.463 125.584 275.122 125.362 274.319C124.423 270.752 130.142 272.083 131.849 272.237C133.454 272.373 135.52 272.288 137.056 272.834C137.21 272.885 137.483 272.851 137.602 272.937C137.739 272.954 137.858 272.971 137.995 272.988C139.053 274.917 138.763 275.873 137.107 275.822C134.461 276.965 126.984 276.726 125.311 274.166C124.833 273.5 123.723 274.132 124.184 274.832Z" fill="black"/>
<path d="M172.018 253.39C167.357 258.597 167.938 265.391 168.04 268.328C168.177 271.742 168.791 275.48 171.403 277.682C172.922 278.963 174.92 279.526 176.883 279.868C180.178 280.448 183.541 280.516 186.852 280.072C191.171 279.492 195.798 277.665 197.675 273.722C198.546 271.895 198.734 269.83 198.768 267.815C198.819 266.074 198.768 264.316 198.427 262.609C197.505 257.829 194.227 253.544 189.857 251.41C187.143 250.079 184.821 249.31 183.899 249.14C182.994 248.969 181.543 248.679 179.956 248.815C175.773 249.174 172.905 252.383 172.018 253.39Z" fill="#660029"/>
<path d="M171.574 252.929C167.033 258.785 164.865 270.512 169.832 276.897C174.903 283.418 189.891 282.121 195.661 277.238C202.677 271.315 199.741 258.221 193.408 252.929C186.767 247.381 177.617 246.306 171.574 252.929C171.027 253.544 171.915 254.449 172.479 253.834C177.532 248.303 184.326 248.918 190.369 252.4C197.778 256.668 202.25 270.786 194.125 276.709C187.467 281.557 173.486 281.438 169.423 273.278C166.674 267.781 169.15 258.136 172.479 253.834C172.974 253.185 172.069 252.281 171.574 252.929Z" fill="black"/>
<path d="M192.076 256.48C191.154 255.814 187.877 253.646 183.575 254.124C182.55 254.244 180.895 254.415 179.29 255.575C178.027 256.48 177.156 257.795 176.439 259.177C174.868 262.182 173.947 265.545 173.827 268.959C173.725 271.725 174.271 274.712 176.319 276.573C177.992 278.092 180.348 278.57 182.602 278.724C185.094 278.894 187.638 278.741 189.993 277.938C192.349 277.136 194.534 275.651 195.9 273.568C197.419 271.212 197.607 268.908 197.658 267.901C197.897 263.496 195.678 260.355 194.995 259.433C193.8 257.76 192.52 256.805 192.076 256.48Z" fill="#E80042"/>
<path d="M175.739 218.497C171.83 221.757 168.945 226.076 166.384 230.481C165.787 231.505 165.189 232.58 165.018 233.758C164.916 234.458 164.967 235.192 165.274 235.824C165.838 237.019 167.221 237.667 168.535 237.787C169.867 237.906 171.181 237.599 172.496 237.394C176.234 236.814 180.075 237.036 183.814 236.37C184.582 236.234 185.384 236.029 185.879 235.431C186.357 234.834 186.391 233.997 186.169 233.263C185.948 232.546 185.487 231.915 185.043 231.3C183.933 229.764 182.841 228.21 181.85 226.588C180.331 224.045 179.085 221.296 177.036 219.145C176.763 218.855 176.473 218.582 176.098 218.48C175.722 218.377 175.261 218.497 175.09 218.855" fill="#63ECFF"/>
<path d="M175.295 218.036C172.444 220.545 170.089 223.413 168.023 226.588C166.572 228.825 163.96 232 164.37 234.902C164.643 236.831 166.077 237.907 167.886 238.316C169.047 238.572 170.208 238.367 171.369 238.231C174.459 237.872 177.514 237.65 180.604 237.411C182.482 237.258 185.35 237.36 186.511 235.602C188.081 233.195 185.179 230.429 183.984 228.654C182.704 226.776 178.044 215.543 174.681 218.377C174.049 218.906 174.954 219.811 175.585 219.282C176.644 218.394 182.243 228.364 182.875 229.303C183.353 230.02 184.206 230.822 184.514 231.624C185.009 232.905 184.992 234.629 183.66 235.773C182.397 236.865 176.627 236.336 174.937 236.49C173.161 236.643 170.481 237.548 168.808 237.07C167.306 237.292 166.726 236.404 167.067 234.424C166.128 233.297 166.009 232.256 166.674 231.334C166.913 230.549 167.613 229.712 168.04 229.013C170.328 225.274 172.922 221.843 176.234 218.941C176.815 218.394 175.91 217.49 175.295 218.036Z" fill="black"/>
<path d="M178.283 223.294C177.753 223.55 177.463 224.147 177.156 224.66C176.678 225.445 176.063 226.111 175.466 226.794C173.349 229.183 171.403 231.727 169.662 234.39C169.337 234.885 169.013 235.397 168.552 235.79C168.091 236.166 167.46 236.405 166.879 236.234C166.299 236.063 165.872 235.534 165.65 234.953C165.326 234.151 165.292 233.246 165.531 232.427C165.735 231.744 166.128 231.13 166.521 230.532C167.716 228.688 168.945 226.862 170.174 225.052C170.891 223.977 171.625 222.918 172.513 221.962C173.383 221.023 174.39 220.221 175.5 219.572C175.773 219.419 176.08 219.248 176.388 219.299C176.883 219.351 177.19 219.829 177.429 220.272C177.685 220.785 177.924 221.297 178.112 221.826C178.249 222.184 178.368 222.56 178.351 222.935C178.317 223.772 177.617 224.421 176.968 224.967" fill="#4D99AA"/>
<path d="M177.822 222.833C176.166 224.318 174.885 226.418 173.452 228.159C172.649 229.132 171.881 230.122 171.147 231.13C170.669 231.778 170.208 232.427 169.764 233.076C169.303 234.493 168.637 234.441 167.801 232.922C166.367 232.41 166.111 231.727 167.067 230.856C167.545 230.122 168.04 229.388 168.518 228.654C169.337 227.425 170.14 226.179 170.993 224.967C171.796 223.823 172.598 222.679 173.639 221.74C174.442 220.631 175.517 220.255 176.866 220.58C177.839 221.86 177.719 223.174 176.524 224.506C175.91 225.069 176.832 225.974 177.429 225.411C178.863 224.096 179.239 223.106 178.573 221.245C178.197 220.187 177.6 218.736 176.302 218.651C174.561 218.531 172.393 221.075 171.437 222.235C169.406 224.66 167.596 227.51 165.974 230.208C164.882 232.034 163.84 237.856 167.92 236.831C169.918 236.319 171.215 233.178 172.257 231.761C174.134 229.2 176.354 225.889 178.726 223.738C179.341 223.191 178.436 222.287 177.822 222.833Z" fill="black"/>
<path d="M212.288 229.457C211.913 229.491 211.605 229.201 211.315 228.945C210.445 228.211 209.284 227.92 208.14 227.852C205.511 227.698 202.865 228.723 200.987 230.566C199.126 232.41 198.051 235.022 198.051 237.651C198.051 238.812 198.239 239.973 198.734 241.014C199.143 241.919 199.775 242.721 200.441 243.472C201.636 244.787 203.036 245.982 204.709 246.596C205.443 246.869 206.211 247.023 206.979 247.176C209.369 247.637 211.981 247.979 214.098 246.767C216.3 245.504 217.358 242.823 217.461 240.297C217.631 235.875 215.19 231.437 211.366 229.201" fill="#416B60"/>
<path d="M212.459 228.825C209.967 228.108 208.601 226.81 205.733 227.374C202.984 227.92 200.526 229.61 199.041 231.983C195.78 237.207 197.829 243.369 202.967 246.425C207.542 249.156 215.037 249.327 217.375 243.745C219.748 238.094 216.471 231.744 211.674 228.637C210.974 228.193 210.342 229.303 211.025 229.747C214.849 232.222 217.427 236.643 216.658 241.287C215.6 247.774 207.85 248.098 203.138 245.059C198.922 242.328 197.402 236.985 200.134 232.649C201.79 230.037 204.948 228.262 208.055 228.569C209.591 228.722 210.666 229.678 212.118 230.088C212.903 230.293 213.244 229.064 212.459 228.825Z" fill="black"/>
<path d="M94.2417 223.755C94.4465 225.325 94.2929 226.947 93.7807 228.432C93.6954 228.671 93.61 228.893 93.4223 229.064C93.2345 229.235 92.9613 229.303 92.7053 229.354C89.9568 229.969 87.1572 230.31 84.3575 230.379C84.1185 230.379 83.8283 230.413 83.6917 230.6C83.5893 230.737 83.5722 230.925 83.5722 231.096C83.5552 233.52 83.6405 235.944 83.8454 238.351C83.8625 238.556 83.8795 238.76 84.0161 238.914C84.1868 239.119 84.4941 239.136 84.7501 239.136C87.2937 239.17 89.8373 239.187 92.3639 239.17C92.3639 240.399 92.3639 241.628 92.3639 242.858C92.3639 243.216 92.3638 243.592 92.5004 243.916C92.7223 244.445 93.2515 244.769 93.7807 244.991C95.4708 245.725 97.3828 245.743 99.2435 245.743C100.131 245.743 101.121 245.708 101.77 245.077C102.35 244.496 102.453 243.609 102.47 242.806C102.504 241.475 102.436 240.143 102.231 238.829C104.279 238.726 106.328 238.368 108.291 237.753C109.315 237.429 110.391 236.985 110.92 236.063C111.347 235.329 111.347 234.424 111.279 233.571C111.176 232.086 110.971 230.618 110.63 229.166C110.596 228.979 110.545 228.774 110.391 228.654C110.203 228.467 109.913 228.467 109.657 228.467C108.803 228.484 107.95 228.501 107.096 228.518C106.294 228.535 105.423 228.535 104.809 228.023C104.177 227.494 104.023 226.572 104.04 225.735C104.058 224.899 104.211 224.062 104.006 223.243C103.972 223.089 103.904 222.918 103.784 222.799C103.665 222.662 103.477 222.611 103.306 222.56C102.06 222.184 100.729 222.048 99.4313 222.048C98.0827 222.048 96.7341 222.201 95.4025 222.423C94.9245 222.509 94.4124 222.611 94.0539 222.953C93.6954 223.294 93.5759 223.926 93.9515 224.25" fill="#7E7841"/>
<path d="M93.61 223.755C94.1222 233.195 85.6549 226.247 82.9577 231.113C82.4285 232.052 82.5309 238.129 83.4869 239.256C84.1697 240.075 85.8768 239.768 86.6792 239.819C88.5229 239.938 90.5885 239.187 91.7493 241.031C92.0907 241.577 91.5274 243.421 91.9541 244.172C92.6882 245.452 94.0198 245.828 95.4025 246.135C99.5337 247.057 102.111 246.699 103.119 242.806C103.648 240.792 102.846 240.604 104.467 239.273C105.713 238.248 108.496 238.863 109.981 237.77C111.347 236.763 111.603 236.473 111.944 234.885C112.2 233.724 111.876 229.696 111.21 228.859C110.237 227.63 110.084 228.228 108.411 227.869C107.984 227.886 107.557 227.886 107.13 227.903C105.15 227.272 104.365 226.145 104.775 224.506C104.706 224.335 104.809 223.345 104.587 222.953C103.904 221.758 102.88 221.741 101.412 221.553C99.6532 221.314 92.0736 220.768 93.3369 224.455C93.61 225.223 94.8392 224.899 94.566 224.113C93.6271 221.382 101.309 223.533 101.463 223.618C104.57 225.36 102.641 224.574 103.562 227.016C103.767 227.562 104.04 228.211 104.518 228.603C105.526 229.44 106.704 228.825 107.762 229.184C109.691 229.815 111.125 231.3 110.647 233.605C109.845 237.583 105.355 237.941 102.231 238.214C101.907 238.248 101.548 238.487 101.582 238.863C101.838 241.458 102.658 243.933 99.2435 245.145C95.9829 246.289 93.0126 242.226 92.9955 239.221C92.9955 238.88 92.7053 238.573 92.3468 238.573C88.9496 238.59 84.3575 239.29 84.238 234.766C84.1185 230.174 88.6253 231.147 91.8176 230.208C95.0099 229.286 95.0099 227.101 94.8392 223.772C94.8392 222.936 93.5588 222.936 93.61 223.755Z" fill="black"/>
<path d="M213.022 233.178C211.554 233.024 210.24 231.949 208.772 232.017C207.713 232.068 206.774 232.683 205.921 233.314C204.248 234.543 202.592 235.892 201.499 237.667C201.107 238.316 200.782 239.033 200.782 239.784C200.782 240.689 201.226 241.542 201.67 242.345C202.097 243.13 202.541 243.932 203.019 244.684C203.343 245.179 203.701 245.674 204.231 245.93C204.64 246.135 205.118 246.169 205.579 246.186C208.891 246.391 212.271 246.596 215.463 245.64C215.702 245.571 215.959 245.486 216.129 245.281C216.317 245.076 216.368 244.786 216.402 244.513C216.778 241.952 216.71 239.323 216.215 236.763C216.078 236.08 215.907 235.38 215.515 234.799C214.849 233.809 213.654 233.348 212.527 232.956" fill="#66F82C"/>
<path d="M213.193 232.563C210.888 232.068 209.267 230.839 206.945 231.932C204.794 232.939 202.541 234.97 201.226 236.934C200.116 238.607 199.912 239.989 200.68 241.867C201.38 243.574 202.558 245.964 204.384 246.664C206.638 247.535 210.427 247.142 212.766 246.852C214.49 246.647 216.471 246.596 217.017 244.718C217.717 242.328 217.375 239.033 216.829 236.626C216.283 234.202 214.968 233.229 212.698 232.376C211.93 232.085 211.588 233.314 212.356 233.605C215.276 234.714 215.839 237.275 215.976 240.109C216.061 242.021 216.385 244.257 214.217 245.315C212.391 246.22 207.44 246.118 205.579 245.554C203.667 244.991 203.002 243.608 202.216 242.021C201.175 239.955 201.636 238.214 203.206 236.473C204.214 235.329 205.716 233.81 207.133 233.263C209.625 232.29 210.735 233.332 212.869 233.792C213.654 233.963 214.012 232.734 213.193 232.563Z" fill="black"/>
<path d="M96.6317 226.452C96.8195 227.937 96.6829 229.457 96.2049 230.873C96.1366 231.095 96.0513 231.317 95.8805 231.471C95.6928 231.642 95.4538 231.693 95.2148 231.744C92.62 232.325 89.991 232.649 87.3279 232.7C87.106 232.7 86.8329 232.717 86.6963 232.905C86.5939 233.042 86.5939 233.212 86.5939 233.366C86.5768 235.653 86.6621 237.941 86.8499 240.211C86.867 240.399 86.8841 240.604 87.0206 240.741C87.1914 240.928 87.4645 240.945 87.7206 240.945C90.1105 240.98 92.5175 240.997 94.9075 240.98C94.9075 242.14 94.9075 243.301 94.9075 244.462C94.9075 244.803 94.9075 245.145 95.0441 245.469C95.2489 245.964 95.761 246.272 96.2561 246.494C97.8608 247.176 99.6532 247.193 101.412 247.193C102.248 247.193 103.187 247.159 103.784 246.562C104.331 246.016 104.416 245.179 104.45 244.411C104.484 243.165 104.416 241.901 104.228 240.655C106.174 240.57 108.103 240.228 109.947 239.648C110.903 239.341 111.927 238.931 112.422 238.06C112.832 237.36 112.815 236.507 112.764 235.705C112.678 234.305 112.474 232.905 112.166 231.539C112.132 231.369 112.081 231.181 111.944 231.044C111.774 230.873 111.484 230.873 111.245 230.873C110.442 230.891 109.64 230.908 108.837 230.925C108.086 230.942 107.267 230.942 106.687 230.447C106.089 229.952 105.935 229.081 105.952 228.296C105.97 227.51 106.106 226.708 105.918 225.957C105.884 225.803 105.833 225.65 105.713 225.547C105.594 225.428 105.423 225.36 105.253 225.308C104.075 224.95 102.828 224.83 101.582 224.83C100.302 224.83 99.0387 224.967 97.7754 225.189C97.3145 225.257 96.8365 225.36 96.4951 225.684C96.1537 226.008 96.0512 226.606 96.3927 226.913" fill="#F6E400"/>
<path d="M95.9829 226.452C96.4609 235.312 88.4546 228.774 85.9281 233.383C85.433 234.288 85.5354 240.007 86.4402 241.099C87.106 241.884 88.6936 241.594 89.4788 241.645C91.203 241.748 93.1321 241.048 94.2417 242.755C94.5489 243.233 94.0368 245.043 94.4295 245.742C95.1294 246.972 96.3926 247.33 97.7071 247.62C101.633 248.491 104.092 248.149 105.048 244.445C105.543 242.533 104.792 242.397 106.294 241.133C107.438 240.194 110.084 240.655 111.501 239.716C112.798 238.846 113.071 238.402 113.378 236.951C113.617 235.841 113.31 232.051 112.696 231.249C111.774 230.071 111.62 230.618 110.015 230.293C109.606 230.31 109.213 230.31 108.803 230.327C106.96 229.747 106.226 228.688 106.618 227.152C106.533 226.93 106.652 226.06 106.43 225.667C105.782 224.523 104.792 224.506 103.409 224.335C101.719 224.113 94.5489 223.601 95.761 227.118C96.0341 227.886 97.2633 227.562 96.9901 226.777C96.1366 224.301 103.306 226.264 103.443 226.333C106.345 227.954 104.553 227.237 105.406 229.525C105.611 230.054 105.867 230.669 106.328 231.044C107.284 231.847 108.394 231.249 109.418 231.591C111.227 232.188 112.542 233.571 112.115 235.722C111.364 239.443 107.13 239.768 104.211 240.041C103.887 240.075 103.528 240.314 103.562 240.689C103.801 243.114 104.57 245.452 101.377 246.579C98.3217 247.672 95.522 243.831 95.522 241.031C95.522 240.689 95.2318 240.382 94.8733 240.382C91.681 240.399 87.362 241.082 87.2596 236.831C87.1401 232.512 91.3737 233.451 94.3953 232.564C97.4169 231.676 97.434 229.61 97.2633 226.452C97.2291 225.633 95.9488 225.633 95.9829 226.452Z" fill="black"/>
</svg>
