<svg width="38" height="38" viewBox="0 0 38 38" fill="none" xmlns="http://www.w3.org/2000/svg">
<g clip-path="url(#clip0)">
<path d="M19.9425 37.5H17.6203C15.7422 37.5 14.2142 35.972 14.2142 34.0939V33.3083C13.4157 33.0532 12.6399 32.7312 11.8947 32.3455L11.3379 32.9022C9.98952 34.2523 7.82958 34.2127 6.52034 32.9017L4.87912 31.2606C3.56757 29.9505 3.52984 27.7913 4.87955 26.443L5.43585 25.8867C5.05017 25.1414 4.72823 24.3658 4.47306 23.5672H3.68753C1.80949 23.5672 0.281433 22.0392 0.281433 20.1611V17.8389C0.281433 15.9608 1.80949 14.4328 3.6876 14.4328H4.47313C4.7283 13.6343 5.05024 12.8586 5.43592 12.1133L4.87919 11.5566C3.53028 10.2092 3.5675 8.04973 4.87962 6.73905L6.52099 5.09776C7.83326 3.78368 9.9927 3.75087 11.3385 5.09819L11.8947 5.65442C12.64 5.26881 13.4158 4.94679 14.2142 4.69162V3.9061C14.2142 2.02798 15.7422 0.5 17.6204 0.5H19.9425C21.8206 0.5 23.3486 2.02798 23.3486 3.9061V4.6917C24.1471 4.94679 24.9229 5.26881 25.6681 5.65449L26.2249 5.09776C27.5733 3.74769 29.7332 3.78729 31.0425 5.09826L32.6837 6.73941C33.9952 8.04952 34.0329 10.2087 32.6832 11.557L32.1269 12.1133C32.5126 12.8586 32.8346 13.6342 33.0897 14.4328H33.8753C35.7534 14.4328 37.2814 15.9608 37.2814 17.8389V20.1611C37.2814 22.0392 35.7534 23.5672 33.8753 23.5672H33.0897C32.8346 24.3657 32.5126 25.1414 32.1269 25.8867L32.6837 26.4434C34.0326 27.7909 33.9954 29.9503 32.6832 31.261L31.0419 32.9023C29.7296 34.2164 27.5702 34.2492 26.2244 32.9019L25.6681 32.3457C24.9229 32.7313 24.1471 33.0533 23.3486 33.3084V34.094C23.3486 35.972 21.8206 37.5 19.9425 37.5ZM12.2571 30.0689C13.2924 30.6812 14.4068 31.1438 15.5691 31.4438C16.0478 31.5673 16.3822 31.999 16.3822 32.4934V34.0939C16.3822 34.7766 16.9377 35.332 17.6204 35.332H19.9425C20.6252 35.332 21.1807 34.7766 21.1807 34.0939V32.4934C21.1807 31.999 21.5152 31.5673 21.9939 31.4438C23.1562 31.1438 24.2705 30.6812 25.3059 30.0689C25.7319 29.817 26.2742 29.8855 26.6242 30.2355L27.7579 31.3693C28.2467 31.8587 29.0317 31.8473 29.5085 31.3698L31.1509 29.7275C31.6265 29.2524 31.6424 28.4673 31.1513 27.9768L30.0171 26.8426C29.6672 26.4927 29.5987 25.9503 29.8505 25.5244C30.4628 24.4891 30.9253 23.3747 31.2253 22.2124C31.3489 21.7337 31.7806 21.3993 32.2749 21.3993H33.8753C34.558 21.3993 35.1135 20.8439 35.1135 20.1612V17.839C35.1135 17.1563 34.558 16.6009 33.8753 16.6009H32.2749C31.7805 16.6009 31.3489 16.2664 31.2253 15.7878C30.9253 14.6254 30.4627 13.5111 29.8505 12.4758C29.5987 12.0499 29.6672 11.5074 30.0171 11.1575L31.1509 10.0237C31.641 9.53421 31.6282 8.74941 31.1513 8.27311L29.509 6.63087C29.033 6.15421 28.2479 6.14026 27.7584 6.63044L26.6243 7.76465C26.2744 8.11463 25.7318 8.18314 25.3059 7.93122C24.2706 7.31891 23.1562 6.85634 21.9939 6.55637C21.5152 6.43286 21.1808 6.00115 21.1808 5.50678V3.9061C21.1808 3.2234 20.6253 2.66797 19.9426 2.66797H17.6205C16.9378 2.66797 16.3823 3.2234 16.3823 3.9061V5.50663C16.3823 6.001 16.0478 6.43272 15.5692 6.55622C14.4068 6.8562 13.2925 7.31877 12.2571 7.93107C11.8311 8.18292 11.2887 8.11441 10.9388 7.7645L9.8051 6.63073C9.3163 6.14134 8.53128 6.15269 8.05454 6.63022L6.41216 8.27253C5.93651 8.7476 5.92061 9.53263 6.41173 10.0232L7.54594 11.1574C7.89585 11.5073 7.96435 12.0497 7.71251 12.4756C7.1002 13.5109 6.6377 14.6253 6.33773 15.7876C6.21415 16.2663 5.78244 16.6007 5.28814 16.6007H3.6876C3.00491 16.6008 2.4494 17.1562 2.4494 17.8389V20.1611C2.4494 20.8438 3.00491 21.3992 3.6876 21.3992H5.28807C5.78244 21.3992 6.21408 21.7337 6.33765 22.2123C6.63763 23.3747 7.1002 24.489 7.71244 25.5243C7.96428 25.9502 7.89577 26.4926 7.54586 26.8426L6.41209 27.9763C5.92198 28.4659 5.93477 29.2507 6.41165 29.727L8.05389 31.3692C8.5299 31.8459 9.315 31.8598 9.80453 31.3696L10.9387 30.2354C11.1965 29.9777 11.7329 29.7589 12.2571 30.0689Z" fill="white"/>
<path d="M18.7814 27.0504C14.3423 27.0504 10.731 23.439 10.731 19C10.731 14.561 14.3423 10.9496 18.7814 10.9496C23.2205 10.9496 26.8318 14.561 26.8318 19C26.8318 23.439 23.2205 27.0504 18.7814 27.0504ZM18.7814 13.1176C15.5378 13.1176 12.899 15.7565 12.899 19C12.899 22.2436 15.5378 24.8825 18.7814 24.8825C22.025 24.8825 24.6638 22.2436 24.6638 19C24.6638 15.7565 22.0251 13.1176 18.7814 13.1176Z" fill="white"/>
</g>
<defs>
<clipPath id="clip0">
<rect x="0.281433" y="0.5" width="37" height="37" fill="white"/>
</clipPath>
</defs>
</svg>
