<svg width="196" height="554" viewBox="0 0 196 554" fill="none" xmlns="http://www.w3.org/2000/svg">
<path d="M48.0575 19.0929C48.0575 19.0929 5.5946 27.0573 5.5946 111.214C5.5946 131.301 21.1491 166.569 27.2003 180.211C33.2724 193.852 35.9133 212.442 27.9489 229.494L35.539 224.191C35.539 224.191 29.467 235.566 30.6107 238.602C31.7544 241.638 35.9133 237.084 35.1647 239.746C34.4161 242.408 36.3085 246.567 38.9494 243.156C41.6111 239.746 46.1443 232.925 46.1443 236.71C46.1443 240.495 49.1804 274.619 39.3237 328.831C29.467 383.042 30.2156 406.166 39.698 415.649C39.698 415.649 35.5182 404.274 39.3237 398.202C39.3237 398.202 41.216 416.397 51.8213 420.203C51.8213 420.203 64.3398 459.629 80.2477 480.112C96.1765 500.595 106.408 511.575 106.408 511.575C106.408 511.575 104.889 501.344 104.141 496.79C104.141 496.79 110.213 500.574 113.623 524.842C113.623 524.842 137.516 503.985 143.568 486.538C143.568 486.538 146.604 500.179 150.388 502.841C150.388 502.841 150.388 486.912 154.568 482.358L159.122 492.984C159.122 492.984 163.302 479.717 165.194 477.825C167.087 475.933 175.051 461.522 174.302 450.916C174.302 450.916 179.979 459.63 186.426 461.148C186.426 461.148 178.087 440.685 179.605 422.469C181.123 404.274 187.569 380.006 187.195 356.883C187.195 356.883 190.98 361.437 191.375 372.437C191.375 372.437 196.677 364.473 195.555 351.975C194.411 339.457 189.108 318.995 188.734 313.297C188.36 307.599 187.59 269.69 186.842 264.762C186.093 259.834 159.933 102.875 140.968 54.7143C129.552 9.98481 95.0536 -19.5853 48.0575 19.0929Z" fill="#231F20"/>
<path d="M48.0575 19.0929C48.0575 19.0929 5.5946 27.0573 5.5946 111.214C5.5946 131.301 21.1491 166.569 27.2003 180.211C33.2724 193.852 35.9133 212.442 27.9489 229.494L35.539 224.191C35.539 224.191 29.467 235.566 30.6107 238.602C31.7544 241.638 35.9133 237.084 35.1647 239.746C34.4161 242.408 36.3085 246.567 38.9494 243.156C41.6111 239.746 46.1443 232.925 46.1443 236.71C46.1443 240.495 49.1804 274.619 39.3237 328.831C29.467 383.042 30.2156 406.166 39.698 415.649C39.698 415.649 35.5182 404.274 39.3237 398.202C39.3237 398.202 41.216 416.397 51.8213 420.203C51.8213 420.203 64.3398 459.629 80.2477 480.112C96.1765 500.595 106.408 511.575 106.408 511.575C106.408 511.575 104.889 501.344 104.141 496.79C104.141 496.79 110.213 500.574 113.623 524.842C113.623 524.842 137.516 503.985 143.568 486.538C143.568 486.538 146.604 500.179 150.388 502.841C150.388 502.841 150.388 486.912 154.568 482.358L159.122 492.984C159.122 492.984 163.302 479.717 165.194 477.825C167.087 475.933 175.051 461.522 174.302 450.916C174.302 450.916 179.979 459.63 186.426 461.148C186.426 461.148 178.087 440.685 179.605 422.469C181.123 404.274 187.569 380.006 187.195 356.883C187.195 356.883 190.98 361.437 191.375 372.437C191.375 372.437 196.677 364.473 195.555 351.975C194.411 339.457 189.108 318.995 188.734 313.297C188.36 307.599 187.59 269.69 186.842 264.762C186.093 259.834 159.933 102.875 140.968 54.7143C129.552 9.98481 95.0536 -19.5853 48.0575 19.0929Z" stroke="#231F20" stroke-width="0.4978" stroke-miterlimit="10" stroke-linecap="round" stroke-linejoin="round"/>
<path d="M85.3009 181.541C85.3009 181.541 83.0343 181.25 81.5995 189.797C80.1854 198.323 77.4198 225.106 75.3403 250.372C73.6351 271.125 67.667 270.563 52.882 271.978C38.0969 273.392 18.9242 278.029 12.7897 276.802C3.68161 275.014 1.12384 280.212 3.6816 281.065C6.23935 281.917 8.52677 282.271 5.38676 284.475C0.271258 288.073 -0.581323 293.854 1.6853 293.292C3.95193 292.731 2.82901 294.997 5.38676 294.706C7.94452 294.415 7.94452 294.145 7.94452 296.12C7.94452 298.117 10.2111 299.239 11.3549 297.534C12.4986 295.829 19.5896 290.422 22.7296 289.57C25.8488 288.717 73.344 279.609 74.758 279.339C76.1721 279.048 83.0135 277.634 85.2802 266.55C87.5468 255.466 92.392 202.003 92.392 202.003L85.3009 181.541Z" fill="#DEF0EA"/>
<path d="M85.3009 181.541C85.3009 181.541 83.0343 181.25 81.5995 189.797C80.1854 198.323 77.4198 225.106 75.3403 250.372C73.6351 271.125 67.667 270.563 52.882 271.978C38.0969 273.392 18.9242 278.029 12.7897 276.802C3.68161 275.014 1.12384 280.212 3.6816 281.065C6.23935 281.917 8.52677 282.271 5.38676 284.475C0.271258 288.073 -0.581323 293.854 1.6853 293.292C3.95193 292.731 2.82901 294.997 5.38676 294.706C7.94452 294.415 7.94452 294.145 7.94452 296.12C7.94452 298.117 10.2111 299.239 11.3549 297.534C12.4986 295.829 19.5896 290.422 22.7296 289.57C25.8488 288.717 73.344 279.609 74.758 279.339C76.1721 279.048 83.0135 277.634 85.2802 266.55C87.5468 255.466 92.392 202.003 92.392 202.003L85.3009 181.541Z" stroke="#231F20" stroke-width="0.7466" stroke-miterlimit="10" stroke-linecap="round" stroke-linejoin="round"/>
<path d="M61.1376 437.442C60.5761 438.294 58.1639 436.443 57.3114 433.74C56.4588 431.037 52.7573 432.035 51.9047 432.326C51.3433 432.513 49.1182 434.863 47.6626 436.423C50.7818 478.657 71.7429 506.771 61.1376 532.411C57.7272 540.667 50.3451 547.758 56.3132 549.193C62.2813 550.607 74.2175 539.523 78.21 532.411C82.2026 525.299 84.5732 527.046 83.0344 532.702C82.1819 535.821 89.2937 532.141 90.7077 525.882C92.1217 519.622 93.2654 517.626 88.441 511.388C83.6167 505.128 80.4559 501.947 63.9864 436.028C63.7785 435.237 63.6121 434.406 63.425 433.574C61.5119 434.385 61.5743 436.776 61.1376 437.442Z" fill="#CB2027"/>
<path d="M61.1376 437.442C60.5761 438.294 58.1639 436.443 57.3114 433.74C56.4588 431.037 52.7573 432.035 51.9047 432.326C51.3433 432.513 49.1182 434.863 47.6626 436.423C50.7818 478.657 71.7429 506.771 61.1376 532.411C57.7272 540.667 50.3451 547.758 56.3132 549.193C62.2813 550.607 74.2175 539.523 78.21 532.411C82.2026 525.299 84.5732 527.046 83.0344 532.702C82.1819 535.821 89.2937 532.141 90.7077 525.882C92.1217 519.622 93.2654 517.626 88.441 511.388C83.6167 505.128 80.4559 501.947 63.9864 436.028C63.7785 435.237 63.6121 434.406 63.425 433.574C61.5119 434.385 61.5743 436.776 61.1376 437.442Z" stroke="#231F20" stroke-width="0.7466" stroke-miterlimit="10" stroke-linecap="round" stroke-linejoin="round"/>
<path d="M152.967 256.028C157.23 217.641 141.322 187.78 134.21 180.959C127.098 174.139 88.4201 172.434 88.4201 172.434C88.4201 172.434 86.1535 171.02 85.8624 173.848C85.5712 176.697 81.2459 200.132 92.3919 207.41C98.9423 211.673 104.91 212.526 102.623 215.666C100.356 218.785 102.332 219.367 104.619 220.22C106.886 221.072 108.612 221.072 108.612 225.918C108.612 230.43 112.313 247.794 95.7607 284.247L146.354 290.298C148.954 282.126 151.303 271.084 152.967 256.028Z" fill="#898B8D"/>
<path d="M152.967 256.028C157.23 217.641 141.322 187.78 134.21 180.959C127.098 174.139 88.4201 172.434 88.4201 172.434C88.4201 172.434 86.1535 171.02 85.8624 173.848C85.5712 176.697 81.2459 200.132 92.3919 207.41C98.9423 211.673 104.91 212.526 102.623 215.666C100.356 218.785 102.332 219.367 104.619 220.22C106.886 221.072 108.612 221.072 108.612 225.918C108.612 230.43 112.313 247.794 95.7607 284.247L146.354 290.298C148.954 282.126 151.303 271.084 152.967 256.028Z" stroke="#231F20" stroke-width="0.7466" stroke-miterlimit="10" stroke-linecap="round" stroke-linejoin="round"/>
<path d="M94.2634 443.285C96.8212 445.697 98.9631 446.841 98.9631 446.841L99.8156 438.315L100.814 436.61H101.646C93.598 421.326 89.9797 408.474 96.4053 389.988C106.075 362.123 124.832 320.887 125.684 319.182C126.537 317.477 126.537 313.775 129.386 313.214C131.444 312.798 139.679 311.321 146.375 290.277L95.7815 284.226C94.5754 286.867 93.2861 289.591 91.8721 292.44C70.8278 334.528 46.1652 395.914 47.3713 430.912C47.4337 432.783 47.5377 434.613 47.6832 436.443C49.1389 434.863 51.3639 432.534 51.9253 432.347C52.7779 432.056 56.4794 431.057 57.332 433.761C58.1846 436.464 60.5968 438.315 61.1582 437.462C61.5949 436.797 61.5325 434.405 63.4456 433.594C60.3056 418.789 60.4096 397.224 67.4175 379.466C74.8204 360.709 97.8401 311.509 98.1313 310.656C98.4224 309.803 97.8401 308.66 95.2824 308.098C92.7246 307.537 92.4335 304.958 95.8439 306.102C99.2542 307.246 111.19 309.221 112.043 309.512C112.896 309.803 116.306 309.221 114.039 312.923C111.773 316.624 87.8794 374.35 85.0306 380.318C82.2233 386.224 73.3024 408.558 87.1309 442.328C89.4599 441.975 92.7038 441.829 94.2634 443.285Z" fill="#201B57"/>
<path d="M94.2634 443.285C96.8212 445.697 98.9631 446.841 98.9631 446.841L99.8156 438.315L100.814 436.61H101.646C93.598 421.326 89.9797 408.474 96.4053 389.988C106.075 362.123 124.832 320.887 125.684 319.182C126.537 317.477 126.537 313.775 129.386 313.214C131.444 312.798 139.679 311.321 146.375 290.277L95.7815 284.226C94.5754 286.867 93.2861 289.591 91.8721 292.44C70.8278 334.528 46.1652 395.914 47.3713 430.912C47.4337 432.783 47.5377 434.613 47.6832 436.443C49.1389 434.863 51.3639 432.534 51.9253 432.347C52.7779 432.056 56.4794 431.057 57.332 433.761C58.1846 436.464 60.5968 438.315 61.1582 437.462C61.5949 436.797 61.5325 434.405 63.4456 433.594C60.3056 418.789 60.4096 397.224 67.4175 379.466C74.8204 360.709 97.8401 311.509 98.1313 310.656C98.4224 309.803 97.8401 308.66 95.2824 308.098C92.7246 307.537 92.4335 304.958 95.8439 306.102C99.2542 307.246 111.19 309.221 112.043 309.512C112.896 309.803 116.306 309.221 114.039 312.923C111.773 316.624 87.8794 374.35 85.0306 380.318C82.2233 386.224 73.3024 408.558 87.1309 442.328C89.4599 441.975 92.7038 441.829 94.2634 443.285Z" stroke="#231F20" stroke-width="0.7466" stroke-miterlimit="10" stroke-linecap="round" stroke-linejoin="round"/>
<path d="M156.377 529.583C152.406 524.176 133.337 492.61 116.576 462.77C110.941 452.726 105.701 444.366 101.625 436.61H100.793L99.7949 438.315L98.9423 446.841C98.9423 446.841 96.8005 445.697 94.2427 443.285C92.7039 441.829 89.4391 441.975 87.1101 442.328C87.2557 442.703 87.4012 443.056 87.5676 443.431C102.062 477.846 122.544 500.304 125.664 517.065C128.783 533.846 132.484 533.846 114.289 545.491C105.95 550.835 111.731 552.603 115.994 553.164C120.257 553.726 133.337 553.456 138.743 548.901C144.15 544.347 148.122 540.084 148.122 542.642C148.122 545.2 150.971 552.021 156.086 546.053C161.223 540.105 160.37 534.99 156.377 529.583Z" fill="#CB2027"/>
<path d="M156.377 529.583C152.406 524.176 133.337 492.61 116.576 462.77C110.941 452.726 105.701 444.366 101.625 436.61H100.793L99.7949 438.315L98.9423 446.841C98.9423 446.841 96.8005 445.697 94.2427 443.285C92.7039 441.829 89.4391 441.975 87.1101 442.328C87.2557 442.703 87.4012 443.056 87.5676 443.431C102.062 477.846 122.544 500.304 125.664 517.065C128.783 533.846 132.484 533.846 114.289 545.491C105.95 550.835 111.731 552.603 115.994 553.164C120.257 553.726 133.337 553.456 138.743 548.901C144.15 544.347 148.122 540.084 148.122 542.642C148.122 545.2 150.971 552.021 156.086 546.053C161.223 540.105 160.37 534.99 156.377 529.583Z" stroke="#231F20" stroke-width="0.7466" stroke-miterlimit="10" stroke-linecap="round" stroke-linejoin="round"/>
<path d="M102.644 158.979C102.644 158.979 95.0538 187.426 102.228 200.735C104.141 204.291 104.931 207.992 105.638 209.261C106.345 210.529 107.635 210.821 107.635 208.554C107.635 206.287 108.487 198.884 109.34 201.588C110.192 204.291 114.31 211.819 114.746 218.639C115.162 225.46 115.599 237.396 114.746 243.094C114.746 243.094 118.448 240.536 120.299 236.273C122.149 232.01 123.002 225.46 123.293 224.192C123.584 222.923 124 224.483 124.146 226.313C124.291 228.163 123.293 234.423 123.293 237.687C123.293 240.952 131.798 234.298 131.964 227.727C132.63 201.047 150.867 179.379 150.867 179.379L116.888 168.004L102.644 158.979Z" fill="#231F20"/>
<path d="M2.82898 293.002C2.82898 293.002 8.38118 287.304 9.37933 287.033" stroke="#231F20" stroke-width="0.7466" stroke-miterlimit="10" stroke-linecap="round" stroke-linejoin="round"/>
<path d="M7.52869 294.852C7.52869 294.852 13.0809 288.739 14.2038 288.593" stroke="#231F20" stroke-width="0.7466" stroke-miterlimit="10" stroke-linecap="round" stroke-linejoin="round"/>
<path d="M16.7822 284.891C16.7822 284.891 19.9014 281.335 21.1907 280.919" stroke="#231F20" stroke-width="0.7466" stroke-miterlimit="10" stroke-linecap="round" stroke-linejoin="round"/>
<path d="M104.64 220.199H112.604" stroke="#231F20" stroke-width="0.7466" stroke-miterlimit="10" stroke-linecap="round" stroke-linejoin="round"/>
<path d="M39.5109 188.362C39.2405 188.362 38.991 188.155 38.9494 187.863C38.2008 182.103 30.9018 159.957 30.8187 159.728C30.7355 159.458 30.8603 159.167 31.1098 159.042C31.3593 158.917 31.6712 158.979 31.8168 159.208L39.0534 169.148C33.0021 151.618 30.3612 113.917 30.2364 112.171C30.2156 111.859 30.4444 111.588 30.7563 111.567C31.0682 111.547 31.3385 111.775 31.3593 112.087C31.3801 112.566 34.6657 158.959 41.9023 173.099C42.0478 173.369 41.9438 173.681 41.6943 173.848C41.4448 173.993 41.1121 173.931 40.9457 173.702L33.0229 162.785C35.1232 169.314 39.4901 183.185 40.0723 187.697C40.1139 188.009 39.8852 188.3 39.5941 188.342C39.5733 188.362 39.5524 188.362 39.5109 188.362Z" fill="#201B57"/>
<path d="M108.716 144.756C108.425 144.756 108.175 144.527 108.154 144.215C108.134 143.945 106.512 117.66 94.3466 114.208C94.0555 114.125 93.8683 113.813 93.9515 113.501C94.0347 113.21 94.3466 113.023 94.6585 113.106C107.593 116.787 109.236 143.03 109.298 144.132C109.319 144.444 109.069 144.714 108.757 144.735H108.716V144.756Z" fill="#201B57"/>
<path d="M147.56 176.426C147.456 176.426 147.353 176.405 147.269 176.343C147.061 176.218 146.957 175.969 147.02 175.74C148.434 169.273 147.456 155.819 146.541 146.752C145.585 155.652 142.133 165.01 136.498 173.827C136.31 174.118 136.207 174.305 136.144 174.367C136.04 174.659 135.749 174.804 135.437 174.7C135.146 174.596 134.98 174.263 135.084 173.952C135.125 173.827 135.188 173.723 135.52 173.203C143.027 161.454 146.562 148.811 145.481 137.602C145.46 137.29 145.668 137.02 145.98 136.979C146.271 136.937 146.562 137.166 146.604 137.457C146.749 138.538 150.014 162.743 148.434 174.16C149.682 172.766 151.47 170.25 151.927 167.027C151.969 166.715 152.26 166.486 152.572 166.549C152.884 166.59 153.092 166.881 153.05 167.193C152.26 172.662 148.101 176.135 147.914 176.281C147.831 176.385 147.706 176.426 147.56 176.426Z" fill="#201B57"/>
<path d="M136.768 179.254C136.768 179.254 132.796 182.103 131.944 191.481C131.091 200.86 131.382 228.163 133.087 244.654C134.792 261.144 141.613 313.172 141.052 325.129C140.49 337.065 137.205 370.004 136.498 376.887C135.791 383.854 140.053 397.079 142.05 400.053C144.046 403.047 151.574 410.991 151.719 409.161C151.865 407.31 152.01 406.894 153.133 407.31C154.277 407.726 155.13 407.456 155.13 406.457C155.13 405.459 157.979 407.31 157.271 405.168C156.564 403.026 150.077 388.116 148.642 381.421C147.228 374.745 148.6 365.076 151.158 358.671C153.716 352.266 153.3 317.29 151.719 293.563C150.16 269.815 141.488 206.412 139.929 203.563C139.929 203.563 144.379 204.852 148.039 201.858C148.662 201.317 136.768 179.254 136.768 179.254Z" fill="#DEF0EA"/>
<path d="M136.768 179.254C136.768 179.254 132.796 182.103 131.944 191.481C131.091 200.86 131.382 228.163 133.087 244.654C134.792 261.144 141.613 313.172 141.052 325.129C140.49 337.065 137.205 370.004 136.498 376.887C135.791 383.854 140.053 397.079 142.05 400.053C144.046 403.047 151.574 410.991 151.719 409.161C151.865 407.31 152.01 406.894 153.133 407.31C154.277 407.726 155.13 407.456 155.13 406.457C155.13 405.459 157.979 407.31 157.271 405.168C156.564 403.026 150.077 388.116 148.642 381.421C147.228 374.745 148.6 365.076 151.158 358.671C153.716 352.266 153.3 317.29 151.719 293.563C150.16 269.815 141.488 206.412 139.929 203.563C139.929 203.563 144.379 204.852 148.039 201.858C148.662 201.317 136.768 179.254 136.768 179.254Z" stroke="#231F20" stroke-width="0.7466" stroke-miterlimit="10" stroke-linecap="round" stroke-linejoin="round"/>
<path d="M51.7383 56.1494C51.7383 56.1494 33.8132 84.3055 33.8132 107.908C33.8132 122.693 49.742 139.744 69.3514 139.744C78.1684 139.744 86.4031 161.08 88.6905 170.167C90.9572 179.275 91.2483 197.179 102.062 195.765C102.062 195.765 94.2011 186.865 102.166 160.414C102.166 160.414 104.619 159.083 101.23 156.526C97.8194 153.968 84.1781 137.187 89.2936 131.78C94.4091 126.373 100.377 116.995 95.5528 111.027C90.7284 105.059 79.1666 81.6437 69.393 75.7588C63.4249 72.1821 54.8783 62.1175 51.7383 56.1494Z" fill="#DEF0EA"/>
<path d="M51.7383 56.1494C51.7383 56.1494 33.8132 84.3055 33.8132 107.908C33.8132 122.693 49.742 139.744 69.3514 139.744C78.1684 139.744 86.4031 161.08 88.6905 170.167C90.9572 179.275 91.2483 197.179 102.062 195.765C102.062 195.765 94.2011 186.865 102.166 160.414C102.166 160.414 104.619 159.083 101.23 156.526C97.8194 153.968 84.1781 137.187 89.2936 131.78C94.4091 126.373 100.377 116.995 95.5528 111.027C90.7284 105.059 79.1666 81.6437 69.393 75.7588C63.4249 72.1821 54.8783 62.1175 51.7383 56.1494Z" stroke="#231F20" stroke-width="0.7466" stroke-miterlimit="10"/>
<path d="M139.846 203.001L136.997 192.479" stroke="#231F20" stroke-width="0.7466" stroke-miterlimit="10" stroke-linecap="round" stroke-linejoin="round"/>
<path d="M46.2068 90.7932C46.2068 92.2904 45.0007 93.4965 43.5035 93.4965C42.0063 93.4965 40.8002 92.2904 40.8002 90.7932C40.8002 89.2959 42.0063 88.0898 43.5035 88.0898C45.0007 88.0898 46.2068 89.2959 46.2068 90.7932Z" fill="#231F20"/>
<path d="M74.2589 90.7932C74.2589 92.2904 73.0528 93.4965 71.5556 93.4965C70.0584 93.4965 68.8523 92.2904 68.8523 90.7932C68.8523 89.2959 70.0584 88.0898 71.5556 88.0898C73.0528 88.0898 74.2589 89.2959 74.2589 90.7932Z" fill="#231F20"/>
<path d="M88.0249 146.502C88.0249 147.23 87.4427 147.812 86.7149 147.812C85.987 147.812 85.4048 147.23 85.4048 146.502C85.4048 145.774 85.987 145.192 86.7149 145.192C87.4427 145.171 88.0249 145.774 88.0249 146.502Z" fill="#430925"/>
<path d="M91.4353 152.72C91.4353 153.448 90.8531 154.03 90.1253 154.03C89.3974 154.03 88.8152 153.448 88.8152 152.72C88.8152 151.992 89.3974 151.41 90.1253 151.41C90.8531 151.41 91.4353 151.992 91.4353 152.72Z" fill="#430925"/>
<path d="M49.5547 98.1339C46.7059 98.0092 44.8135 100.213 47.2881 103.624C49.7627 107.034 53.5473 106.66 58.2885 107.034C63.0297 107.408 64.7349 106.265 66.6272 105.329C68.5196 104.393 73.0736 100.213 71.3684 97.5517C69.6633 94.89 63.9655 94.1414 62.0732 95.6594C60.1809 97.1774 61.5117 98.6954 49.5547 98.1339Z" fill="#430925"/>
<path d="M49.5547 98.1339C46.7059 98.0092 44.8135 100.213 47.2881 103.624C49.7627 107.034 53.5473 106.66 58.2885 107.034C63.0297 107.408 64.7349 106.265 66.6272 105.329C68.5196 104.393 73.0736 100.213 71.3684 97.5517C69.6633 94.89 63.9655 94.1414 62.0732 95.6594C60.1809 97.1774 61.5117 98.6954 49.5547 98.1339Z" stroke="#231F20" stroke-width="0.7466" stroke-miterlimit="10"/>
<path d="M55.814 106.473C55.814 106.473 59.9937 97.7596 66.8144 104.393C66.8144 104.393 63.0297 108.178 55.814 106.473Z" fill="#C55BA1"/>
<path d="M55.814 106.473C55.814 106.473 59.9937 97.7596 66.8144 104.393C66.8144 104.393 63.0297 108.178 55.814 106.473Z" stroke="#231F20" stroke-width="0.4978" stroke-miterlimit="10"/>
<path d="M50.6569 98.092C50.6569 98.6535 51.655 101.939 51.655 101.939L53.173 98.1544L50.6569 98.092Z" fill="#898B8D"/>
<path d="M50.6569 98.092C50.6569 98.6535 51.655 101.939 51.655 101.939L53.173 98.1544L50.6569 98.092Z" stroke="#231F20" stroke-width="0.2489" stroke-miterlimit="10" stroke-linecap="round" stroke-linejoin="round"/>
<path d="M61.595 96.2412L62.5515 100.774L63.7784 95.2847L61.595 96.2412Z" fill="#898B8D"/>
<path d="M61.595 96.2412L62.5515 100.774L63.7784 95.2847L61.595 96.2412Z" stroke="#231F20" stroke-width="0.2489" stroke-miterlimit="10" stroke-linecap="round" stroke-linejoin="round"/>
<path d="M152.114 407.164C151.407 405.314 147.997 402.901 146.001 397.64" stroke="#231F20" stroke-width="0.7466" stroke-miterlimit="10" stroke-linecap="round" stroke-linejoin="round"/>
<path d="M155.109 406.457C155.109 406.457 151.137 400.489 149.286 397.079" stroke="#231F20" stroke-width="0.7466" stroke-miterlimit="10" stroke-linecap="round" stroke-linejoin="round"/>
<path d="M102.103 160.455C101.895 160.455 101.708 160.351 101.604 160.164C101.458 159.894 101.542 159.541 101.833 159.395C114.767 152.158 109.651 128.681 107.198 117.39C104.785 106.306 96.7587 92.9142 91.4561 84.0556C90.5619 82.5584 89.7509 81.2067 89.0647 80.0214C84.3443 71.9115 79.7694 55.7956 79.7278 55.6292C79.6447 55.3173 79.811 55.0054 80.1229 54.9222C80.414 54.839 80.7468 55.0054 80.83 55.3173C80.8716 55.4836 85.4048 71.454 90.0628 79.46C90.7491 80.6453 91.56 81.9969 92.4542 83.4941C97.7985 92.4151 105.867 105.89 108.321 117.161C110.837 128.702 116.056 152.741 102.394 160.393C102.311 160.435 102.207 160.455 102.103 160.455Z" fill="#201B57"/>
<path d="M54.8575 37.2883C53.2147 56.9185 95.636 72.3482 135.541 37.2259C124.853 12.7505 105.95 -3.30306 81.2876 1.45894C71.1398 9.34014 56.0012 23.5637 54.8575 37.2883Z" fill="#201B57"/>
</svg>
