<svg width="101" height="101" viewBox="0 0 101 101" fill="none" xmlns="http://www.w3.org/2000/svg">
<circle cx="50.572" cy="50.2725" r="50" fill="#5B97AC"/>
<path d="M14.0501 45.9544L32.1038 60.0046L32.443 59.8748C32.0215 51.474 31.6027 43.0732 31.1867 34.6724L31.438 34.5552C35.6551 42.6586 39.8764 50.7621 44.282 59.2215C46.3759 48.6221 48.4112 38.3912 50.4423 28.1646H50.681C52.7023 38.3633 54.7237 48.5537 56.745 58.7357L57.0423 58.8111L69.6393 34.6808L69.9115 34.7352C69.5304 43.1109 69.1493 51.4865 68.7515 60.2056L87.1779 45.967L87.3957 46.1471C86.8764 47.2359 86.3864 48.3331 85.8378 49.4052C82.6272 55.7065 79.4081 62.005 76.1807 68.3007C74.8434 70.9278 73.5298 73.5662 72.24 76.2157C72.1358 76.5063 71.9374 76.7537 71.6763 76.9184C71.4152 77.0831 71.1065 77.1556 70.7993 77.1244C57.2434 77.0951 43.6873 77.1244 30.1355 77.07C29.9058 77.0388 29.6859 76.9568 29.4918 76.83C29.2977 76.7033 29.1342 76.5349 29.0132 76.3371C25.032 68.5366 21.0773 60.7193 17.1491 52.8853C16.144 50.8975 15.1515 48.8999 14.1716 46.8925C14.059 46.6344 13.9611 46.3702 13.8784 46.101L14.0501 45.9544Z" fill="white"/>
<path d="M11.6296 44.4557C10.0926 44.4557 9.04987 43.4883 9.05406 42.0141C9.0485 41.6807 9.10939 41.3494 9.23317 41.0397C9.35696 40.73 9.54116 40.4481 9.77504 40.2103C10.0089 39.9725 10.2878 39.7837 10.5954 39.6548C10.903 39.5259 11.2332 39.4595 11.5668 39.4596C11.914 39.4413 12.2614 39.4942 12.5875 39.6149C12.9137 39.7356 13.2117 39.9216 13.4634 40.1616C13.7151 40.4015 13.9152 40.6904 14.0514 41.0104C14.1876 41.3303 14.257 41.6748 14.2553 42.0225C14.2637 43.4715 13.2126 44.4389 11.6296 44.4557Z" fill="white"/>
<path d="M50.5386 25.3966C50.2018 25.3968 49.8685 25.3293 49.5583 25.1981C49.2481 25.0668 48.9675 24.8746 48.7331 24.6328C48.4987 24.391 48.3153 24.1045 48.1939 23.7904C48.0724 23.4763 48.0153 23.141 48.0259 22.8044C48.0259 22.468 48.0922 22.1349 48.2211 21.8242C48.3499 21.5135 48.5388 21.2312 48.7768 20.9936C49.0149 20.7559 49.2974 20.5675 49.6084 20.4392C49.9193 20.3108 50.2525 20.2451 50.5889 20.2456C51.264 20.2706 51.9031 20.5564 52.3718 21.043C52.8404 21.5296 53.102 22.179 53.1016 22.8546C53.0949 23.5304 52.8221 24.1763 52.3423 24.6522C51.8625 25.1281 51.2144 25.3956 50.5386 25.3966Z" fill="white"/>
<path d="M29.3901 32.0344C29.056 32.0499 28.7223 31.9955 28.4105 31.8747C28.0986 31.7539 27.8154 31.5694 27.5789 31.3329C27.3424 31.0964 27.1578 30.8132 27.0371 30.5013C26.9163 30.1894 26.8619 29.8558 26.8774 29.5217C26.8702 29.1968 26.9275 28.8736 27.0459 28.571C27.1644 28.2683 27.3417 27.9922 27.5676 27.7585C27.7935 27.5249 28.0635 27.3383 28.3619 27.2096C28.6604 27.081 28.9814 27.0128 29.3063 27.009C29.9895 27.0007 30.6491 27.2581 31.1461 27.7269C31.643 28.1957 31.9383 28.8392 31.9698 29.5217C31.9523 30.1942 31.6728 30.8332 31.1909 31.3026C30.709 31.772 30.0628 32.0346 29.3901 32.0344Z" fill="white"/>
<path d="M89.5817 44.4549C88.0029 44.4549 87.0187 43.5042 87.0313 41.9799C87.0134 41.6423 87.0673 41.3048 87.1894 40.9895C87.3114 40.6743 87.499 40.3886 87.7396 40.1511C87.9802 39.9137 88.2684 39.73 88.5852 39.6121C88.902 39.4942 89.2402 39.4448 89.5775 39.4672C90.2518 39.4793 90.894 39.7571 91.3645 40.2401C91.835 40.7232 92.0958 41.3725 92.0902 42.0469C92.0748 42.6982 91.8024 43.3169 91.3324 43.7681C90.8624 44.2192 90.2331 44.4661 89.5817 44.4549Z" fill="white"/>
<path d="M71.7793 32.0259C71.4513 32.0321 71.1255 31.9707 70.8223 31.8455C70.519 31.7204 70.2447 31.5342 70.0165 31.2985C69.7883 31.0628 69.611 30.7827 69.4957 30.4756C69.3803 30.1684 69.3295 29.8408 69.3462 29.5132C69.3462 28.8468 69.6109 28.2077 70.0821 27.7364C70.5534 27.2652 71.1925 27.0005 71.8589 27.0005C72.5253 27.0005 73.1644 27.2652 73.6356 27.7364C74.1069 28.2077 74.3716 28.8468 74.3716 29.5132C74.3834 29.8532 74.3239 30.1919 74.1967 30.5074C74.0696 30.823 73.8777 31.1084 73.6334 31.3451C73.3891 31.5819 73.0979 31.7648 72.7785 31.8821C72.4592 31.9994 72.1188 32.0483 71.7793 32.0259Z" fill="white"/>
</svg>
