<svg width="101" height="101" viewBox="0 0 101 101" fill="none" xmlns="http://www.w3.org/2000/svg">
<circle cx="50.6304" cy="50.2725" r="50" fill="#9DA97B"/>
<path d="M83.8751 43.4215C81.1115 51.6247 78.4268 59.5955 75.7114 67.6495H64.4286C52.0931 67.6495 39.7576 67.6496 27.422 67.6759C26.106 67.6759 25.4524 67.4171 25.0005 66.0221C22.5834 58.5163 20.0172 51.0632 17.4465 43.4259C19.6794 43.4259 21.8333 43.4259 23.974 43.4566C24.2065 43.4566 24.5136 43.8207 24.654 44.0883C26.6499 47.8477 29.6724 50.2298 33.8661 51.1861C37.3755 51.9669 40.3059 50.8658 42.802 48.4268C44.833 46.4264 46.0043 43.9304 46.6184 41.1623C46.7106 40.7807 47.1843 40.206 47.4958 40.1973C49.7901 40.1139 52.0843 40.1534 54.4312 40.1534C55.0717 42.9083 55.971 45.4175 57.752 47.6109C59.1428 49.3778 61.0884 50.6245 63.2747 51.1498C65.4611 51.6751 67.7608 51.4484 69.8024 50.5061C72.7073 49.2547 75.0983 47.0495 76.58 44.255C76.682 44.0581 76.8247 43.885 76.9986 43.7474C77.1726 43.6098 77.3738 43.5107 77.5889 43.4566C79.6287 43.382 81.6598 43.4215 83.8751 43.4215Z" fill="white"/>
<path d="M75.6542 71.6235V78.9713H25.7155V71.6235H75.6542Z" fill="white"/>
<path d="M50.6937 37.1043C49.8885 37.1213 49.088 36.9765 48.3398 36.6783C47.5915 36.3801 46.9108 35.9347 46.338 35.3685C45.7652 34.8022 45.312 34.1267 45.0053 33.3819C44.6985 32.6372 44.5445 31.8384 44.5523 31.033C44.5591 29.4035 45.2074 27.8422 46.3568 26.687C47.5062 25.5319 49.0642 24.8758 50.6937 24.8608C52.2921 24.8905 53.816 25.5422 54.9415 26.6775C56.067 27.8128 56.7054 29.3423 56.7211 30.9409C56.7548 31.7477 56.623 32.553 56.3338 33.307C56.0446 34.061 55.6041 34.7478 55.0394 35.3252C54.4748 35.9026 53.798 36.3582 53.0506 36.6642C52.3032 36.9702 51.5012 37.1199 50.6937 37.1043Z" fill="white"/>
<path d="M19.2757 41.0353C18.098 41.0458 16.9639 40.5908 16.1201 39.7692C15.2763 38.9476 14.7912 37.826 14.7705 36.6485C14.7549 35.7638 15.0024 34.8943 15.4818 34.1505C15.9612 33.4067 16.6507 32.8221 17.4629 32.4709C18.2751 32.1196 19.1733 32.0176 20.0436 32.1777C20.9138 32.3378 21.7169 32.7529 22.3509 33.3702C22.9849 33.9875 23.4212 34.7793 23.6044 35.645C23.7876 36.5107 23.7096 37.4113 23.3801 38.2325C23.0506 39.0538 22.4846 39.7586 21.7538 40.2576C21.023 40.7566 20.1605 41.0273 19.2757 41.0353Z" fill="white"/>
<path d="M77.6722 36.5122C77.6886 35.9336 77.8188 35.3638 78.0555 34.8355C78.2921 34.3071 78.6304 33.8306 79.0512 33.433C79.472 33.0354 79.967 32.7246 80.5079 32.5184C81.0488 32.3121 81.625 32.2144 82.2037 32.2308C82.7824 32.2472 83.3521 32.3774 83.8805 32.614C84.4088 32.8507 84.8854 33.189 85.2829 33.6098C85.6805 34.0306 85.9913 34.5256 86.1976 35.0665C86.4039 35.6074 86.5016 36.1836 86.4852 36.7623C86.452 37.931 85.956 39.0386 85.1061 39.8415C84.2563 40.6445 83.1223 41.0769 81.9537 41.0438C80.785 41.0106 79.6773 40.5145 78.8744 39.6647C78.0715 38.8149 77.639 37.6809 77.6722 36.5122Z" fill="white"/>
</svg>
