<svg height="512" viewBox="0 0 58 46" width="512" xmlns="http://www.w3.org/2000/svg"><g id="016---Information-Point" fill="none"><path id="Shape" d="m50.323 36.176c1.498 3.316 4.088 8.135 6.677 8.824 0 0-9.823.82-16.881-4.212-.2385193-.1731057-.5426968-.2286448-.827-.151-3.3544067.911899-6.8158598 1.3703095-10.292 1.363-16.02 0-29-9.4-29-21s12.98-21 29-21 29 9.4 29 21c0 5.376-2.791 10.283-7.38 13.992-.3563374.2814592-.4783024.7676767-.297 1.184z" fill="#ff5364"/><path id="Shape" d="m57 45s-9.82.82-16.88-4.21c-.2397817-.1728623-.5448816-.2280008-.83-.15-3.3537912.9112408-6.8146294 1.36865-10.29 1.36v-42c16.02 0 29 9.4 29 21 0 5.38-2.79 10.28-7.38 13.99-.353539.2857945-.4757989.770759-.3 1.19 1.5 3.31 4.09 8.13 6.68 8.82z" fill="#df4d60"/><circle id="Oval" cx="29" cy="9" fill="#fff" r="4"/><path id="Shape" d="m36 33v2c-.0032948 1.1032019-.8967981 1.9967052-2 2h-8c-1.1032019-.0032948-1.9967052-.8967981-2-2v-2c.0032948-1.1032019.8967981-1.9967052 2-2h1v-8h-1c-1.1032019-.0032948-1.9967052-.8967981-2-2v-2c.0032948-1.1032019.8967981-1.9967052 2-2h5c1.1032019.0032948 1.9967052.8967981 2 2v12h1c1.1032019.0032948 1.9967052.8967981 2 2z" fill="#fff"/><g fill="#fb7b76"><path id="Shape" d="m5 21c-.55228475 0-1-.4477153-1-1 0-6.461 6.183-10.657 6.445-10.832.4591257-.30325786 1.0769896-.17862366 1.382651.27890547.3056613.45752912.1842689 1.07603803-.271651 1.38409453-.056.038-5.556 3.789-5.556 9.169 0 .5522847-.44771525 1-1 1z"/><circle id="Oval" cx="14" cy="8" r="1"/></g></g></svg>