<svg width="101" height="101" viewBox="0 0 101 101" fill="none" xmlns="http://www.w3.org/2000/svg">
<circle cx="50.2551" cy="50.2978" r="50" transform="rotate(-180 50.2551 50.2978)" fill="#0BCD92"/>
<path d="M86.7868 36.135C86.1172 39.4466 85.4886 42.5349 84.8646 45.6187H84.5958C84.4865 44.4389 84.3818 43.2637 84.2679 42.0065C80.9336 46.3202 79.9998 51.0301 81.3481 56.2593C81.9175 55.1935 82.4959 54.1093 83.079 53.0252L83.3113 53.1027C82.6417 56.3322 81.9676 59.5572 81.2843 62.8551C81.0189 62.899 80.7513 62.9278 80.4826 62.9416C67.2547 62.9416 54.0282 62.9249 40.8033 62.8915C34.0937 62.8915 27.3886 62.8915 20.679 62.9599C19.6222 62.9599 19.1394 62.723 18.9389 61.6161C18.4516 58.9195 17.8184 56.2457 17.2445 53.5673L17.5588 53.4397L19.2806 56.4415C19.4719 53.7404 19.6541 51.3808 19.7953 49.0259C19.7774 48.7043 19.6821 48.3917 19.5174 48.1149C18.5289 46.0088 17.4061 43.9685 16.1558 42.0065L15.9098 45.728L15.6821 45.7736C15.0398 42.6169 14.4021 39.4602 13.7234 36.1213C16.9393 36.1213 19.9593 36.0895 22.9793 36.1623C23.33 36.1623 23.781 36.7044 24.0042 37.1007C26.4002 41.3733 28.8007 45.646 31.1101 49.9642C31.7296 51.1212 32.4356 51.6769 33.7839 51.5312C34.973 51.4582 36.1651 51.449 37.3551 51.5038C39.1544 44.9217 40.9218 38.4854 42.6755 32.04C43.0262 30.76 43.336 29.4664 43.6594 28.1773C43.6756 28.0205 43.7232 27.8687 43.7995 27.7308C43.8758 27.5929 43.9791 27.4719 44.1033 27.3749C44.2275 27.2779 44.37 27.207 44.5223 27.1664C44.6746 27.1259 44.8334 27.1164 44.9894 27.1387C48.4786 27.1888 51.9724 27.1934 55.4661 27.1387C56.4773 27.1387 56.6595 27.6717 56.8645 28.4369C58.6319 35.0296 60.4114 41.6178 62.2031 48.2014C63.1141 51.5084 63.1141 51.431 66.4575 51.5448C67.9151 51.5949 68.7351 51.2032 69.432 49.8412C71.5774 45.687 73.937 41.6421 76.1462 37.5425C76.7155 36.4857 77.376 36.0439 78.6196 36.094C81.2706 36.2079 83.9308 36.135 86.7868 36.135ZM50.1048 56.3003L50.4373 56.2138C51.239 53.2257 52.0498 50.2375 52.8333 47.2448C52.9889 46.8151 53.0374 46.3538 52.9745 45.9011C52.15 42.7125 51.2709 39.524 50.4054 36.3354C49.9635 36.9903 49.654 37.7253 49.4944 38.4991C48.6563 42.2935 46.6338 45.9284 48.3556 50.0371C49.171 52.0186 49.5172 54.2096 50.1048 56.3003Z" fill="white"/>
<path d="M81.0839 65.7246V73.4682H19.4537V65.7246H81.0839Z" fill="white"/>
</svg>
