<svg width="101" height="101" viewBox="0 0 101 101" fill="none" xmlns="http://www.w3.org/2000/svg">
<circle cx="50.8931" cy="50.2725" r="50" fill="#ED933A"/>
<path d="M75.9593 66.6204H63.8029C51.59 66.6204 39.3815 66.6204 27.1686 66.6465C26.1179 66.6465 25.6403 66.3165 25.2453 65.3657C22.4927 58.7101 19.6793 52.0805 16.879 45.4422C16.51 44.5739 16.1106 43.8488 15.0599 43.4277C13.3623 42.7461 12.6807 40.4667 13.4405 38.8517C13.8295 37.9569 14.5544 37.2508 15.4591 36.8853C16.3637 36.5199 17.3757 36.5244 18.277 36.8979C19.9225 37.5883 20.9688 39.8459 20.2047 41.4957C19.8096 42.364 20.0484 42.8589 20.4782 43.5058C24.3292 49.2671 31.6187 50.9516 37.6969 49.3583C42.9502 47.982 46.8142 44.9646 48.5161 39.6983C49.0502 38.0398 48.9503 36.1729 49.0632 34.3972C49.0632 34.0629 48.6985 33.6504 48.412 33.3682C46.6753 31.6837 46.6102 29.1135 48.2774 27.5505C50.014 25.9094 52.3107 26.0744 53.9214 27.9586C54.5086 28.7242 54.7918 29.6799 54.7165 30.6418C54.6411 31.6037 54.2126 32.5037 53.5133 33.1685C52.8273 33.7546 52.7058 34.3581 52.645 35.1874C52.1153 41.9298 57.5857 47.6781 63.5901 49.2584C68.5656 50.5609 73.3457 50.1702 77.6265 47.1745C79.1243 46.1238 80.2879 44.5695 81.4992 43.1628C81.7683 42.8459 81.7293 42.0861 81.5773 41.6129C80.9608 39.6635 81.8769 37.4884 83.6743 36.8372C84.5851 36.4998 85.5919 36.5338 86.4779 36.9317C87.3639 37.3296 88.0581 38.0597 88.411 38.9645C89.1273 40.8618 88.2156 42.8286 86.2793 43.6969C85.8628 43.8832 85.5226 44.2064 85.3154 44.6129C82.5715 51.0341 79.8667 57.4771 77.1489 63.9113C76.7929 64.7926 76.3848 65.6653 75.9593 66.6204Z" fill="white"/>
<path d="M74.8478 69.3299C73.9795 71.3531 73.2067 73.2808 72.3384 75.1694C72.2298 75.4038 71.6958 75.5601 71.3615 75.5601C60.7594 75.5601 50.1601 75.5601 39.5638 75.5601C36.6332 75.5601 33.6983 75.534 30.7677 75.5905C29.8994 75.5905 29.4088 75.3734 29.0919 74.5268C28.4493 72.8162 27.7069 71.1404 26.9558 69.3169L74.8478 69.3299Z" fill="white"/>
</svg>
