<svg width="24" height="22" viewBox="0 0 24 22" fill="none" xmlns="http://www.w3.org/2000/svg">
<g clip-path="url(#clip0)">
<path d="M5.01805 16.8183C6.568 18.3956 8.35161 19.7595 10.2754 20.872C10.6103 21.0701 10.953 21.253 11.3035 21.4283C11.358 21.4587 11.4126 21.4816 11.4671 21.5121C11.5372 21.5426 11.6229 21.474 11.693 21.4435C11.9266 21.3292 12.1603 21.2073 12.3861 21.0778C13.3208 20.5596 14.2243 19.9729 15.0888 19.3405C16.9503 17.9689 18.6327 16.3459 19.9957 14.4943C21.3431 12.6656 22.4569 10.5549 22.8619 8.32231C23.0644 7.18697 23.0722 6.01353 22.784 4.90105C22.5037 3.83429 21.9818 2.90468 21.1406 2.15794C20.3228 1.43407 19.3025 0.885447 18.2277 0.656854C17.1528 0.428262 15.9456 0.534939 14.9019 0.847348C14.1074 1.09118 13.3597 1.48741 12.7133 2.01317C12.4329 2.24176 12.1681 2.49321 11.9344 2.77514C11.8176 2.90468 11.7085 3.04945 11.6073 3.19423C11.6073 3.18661 11.5294 3.339 11.5138 3.339C10.8985 2.30272 9.79251 1.49503 8.67873 1.03784C7.76745 0.664474 6.79387 0.512079 5.81249 0.534939C4.74544 0.557798 3.7407 0.893066 2.83721 1.44169C1.95709 1.98269 1.17822 2.71418 0.703111 3.62855C0.181269 4.63436 -0.0134482 5.8078 0.00991784 6.9279C0.0644387 9.22144 1.04581 11.4388 2.26085 13.3666C3.04751 14.6086 3.98215 15.7668 5.01805 16.8183C5.68787 17.5041 4.33264 16.1173 5.01805 16.8183Z" fill="url(#paint0_radial)"/>
</g>
<defs>
<radialGradient id="paint0_radial" cx="0" cy="0" r="1" gradientUnits="userSpaceOnUse" gradientTransform="translate(4.12596 3.7804) rotate(43.2057) scale(52.1328 52.1587)">
<stop stop-color="#D95988"/>
<stop offset="0.4996" stop-color="#B3355F"/>
<stop offset="1" stop-color="#B3355F"/>
</radialGradient>
<clipPath id="clip0">
<rect x="0.0100098" y="0.519531" width="23" height="21" fill="white"/>
</clipPath>
</defs>
</svg>
