<svg width="69" height="69" viewBox="0 0 69 69" fill="none" xmlns="http://www.w3.org/2000/svg">
<circle cx="34.5385" cy="34.9033" r="32.5" transform="rotate(-180 34.5385 34.9033)" fill="#4F3B62" stroke="white" stroke-width="3"/>
<path d="M48.1637 53.4145C39.1592 53.4145 30.1539 53.4145 21.1493 53.4145C21.1493 52.6091 21.1493 51.8044 21.1493 50.963C22.0323 50.963 22.8162 50.963 23.6223 50.963C23.6302 50.7856 23.6424 50.644 23.6424 50.5025C23.6431 48.3011 23.6525 46.099 23.6388 43.8976C23.6173 40.4009 24.9055 37.4982 27.5394 35.1941C27.5983 35.1424 27.6457 35.0777 27.6946 35.0246C27.668 34.9829 27.6586 34.9599 27.6421 34.9441C27.581 34.8873 27.5171 34.8327 27.4546 34.7774C25.0901 32.6644 23.7595 30.0398 23.6719 26.8585C23.605 24.443 23.6496 22.0246 23.6424 19.6077C23.6417 19.4338 23.6244 19.2599 23.6137 19.0545C22.791 19.0545 22.0065 19.0545 21.15 19.0545C21.15 18.2239 21.15 17.4264 21.15 16.6289C30.1546 16.6289 39.1599 16.6289 48.1644 16.6289C48.1644 17.4343 48.1644 18.239 48.1644 19.0782C47.2793 19.0782 46.4954 19.0782 45.6692 19.0782C45.6692 19.2664 45.6692 19.4194 45.6692 19.5725C45.6685 21.8579 45.6814 24.1441 45.6649 26.4295C45.6397 29.8049 44.3285 32.5961 41.8002 34.8234C41.7327 34.883 41.6752 34.9541 41.6178 35.0152C41.6458 35.059 41.6544 35.0828 41.6716 35.0978C41.7428 35.1618 41.8168 35.2229 41.8879 35.2868C44.1848 37.351 45.5183 39.9101 45.6326 43.0053C45.7252 45.5149 45.6642 48.031 45.6728 50.5435C45.6735 50.6814 45.6879 50.8194 45.6979 50.9889C46.522 50.9889 47.3073 50.9889 48.1328 50.9889C48.1328 51.1635 48.1307 51.3043 48.1328 51.4451C48.1422 52.1011 48.1529 52.7578 48.1637 53.4145ZM34.6544 50.9652C34.6544 50.9659 34.6544 50.9666 34.6544 50.9674C37.3601 50.9674 40.0659 50.9616 42.7716 50.9745C43.1172 50.976 43.2487 50.9106 43.2458 50.5277C43.2271 48.253 43.2602 45.9783 43.2235 43.7036C43.2113 42.9327 43.1194 42.1467 42.9369 41.3988C42.4964 39.599 41.4978 38.1305 40.0759 36.9457C39.3136 36.3106 38.9946 35.5016 39.1886 34.5166C39.3093 33.9023 39.665 33.4382 40.1363 33.0366C42.0805 31.3812 43.1625 29.2797 43.2192 26.7198C43.2731 24.2784 43.2307 21.8356 43.2422 19.3936C43.2437 19.0961 43.1021 19.0731 42.8665 19.0731C37.3953 19.0774 31.9242 19.0789 26.4523 19.0703C26.1455 19.0695 26.0708 19.1716 26.0723 19.4618C26.0816 21.7365 26.078 24.0112 26.0766 26.2858C26.0751 29.0254 27.1205 31.2799 29.199 33.0624C30.5318 34.2055 30.5203 35.858 29.1883 36.9932C27.1579 38.7225 26.1039 40.9232 26.0816 43.5937C26.0622 45.9158 26.0838 48.2386 26.0701 50.5614C26.068 50.902 26.1836 50.9745 26.5033 50.9731C29.2192 50.9602 31.9364 50.9652 34.6544 50.9652Z" fill="white"/>
<path d="M34.6543 50.9657C31.9364 50.9657 29.2191 50.9607 26.5012 50.9722C26.1814 50.9736 26.0658 50.9011 26.0679 50.5605C26.0816 48.2377 26.0607 45.9156 26.0794 43.5928C26.1017 40.9223 27.155 38.7223 29.1861 36.9922C30.5181 35.8578 30.5296 34.2046 29.1969 33.0615C27.119 31.2797 26.073 29.0244 26.0744 26.2849C26.0758 24.0102 26.0794 21.7356 26.0701 19.4609C26.0686 19.1706 26.1434 19.0693 26.4501 19.0693C31.9213 19.078 37.3924 19.0765 42.8643 19.0722C43.0999 19.0722 43.2415 19.0952 43.24 19.3926C43.2285 21.8347 43.2709 24.2782 43.217 26.7189C43.1603 29.278 42.0783 31.3803 40.1341 33.0356C39.6628 33.4373 39.3071 33.9014 39.1864 34.5157C38.9924 35.5014 39.3122 36.3097 40.0737 36.9448C41.4956 38.1303 42.4943 39.5981 42.9347 41.3979C43.1179 42.1458 43.2091 42.9325 43.2213 43.7027C43.258 45.9767 43.2249 48.2521 43.2436 50.5267C43.2465 50.9097 43.115 50.9758 42.7694 50.9736C40.0637 50.9607 37.3579 50.9664 34.6522 50.9664C34.6543 50.9672 34.6543 50.9664 34.6543 50.9657ZM33.4646 36.2687C33.4646 37.0842 33.4646 37.8752 33.4646 38.6655C34.2814 38.6655 35.0646 38.6655 35.8542 38.6655C35.8542 37.8522 35.8542 37.0691 35.8542 36.2687C35.0452 36.2687 34.2621 36.2687 33.4646 36.2687ZM30.9887 41.173C30.9887 41.9382 30.9815 42.676 31.0009 43.4132C31.0024 43.4771 31.1748 43.5871 31.2696 43.5892C31.8782 43.6057 32.4882 43.5856 33.0974 43.6029C33.374 43.6108 33.461 43.503 33.4329 43.2451C33.4186 43.115 33.4308 42.9828 33.4308 42.8513C33.4308 42.2952 33.4308 41.7392 33.4308 41.173C32.5909 41.173 31.8092 41.173 30.9887 41.173ZM35.8836 41.173C35.8836 41.9353 35.8779 42.6631 35.8937 43.3902C35.8951 43.4599 36.0316 43.5842 36.1085 43.5863C36.7652 43.6029 37.4226 43.6043 38.0793 43.5906C38.1626 43.5892 38.3128 43.4771 38.3142 43.4139C38.3307 42.6768 38.325 41.9382 38.325 41.173C37.5038 41.173 36.7221 41.173 35.8836 41.173ZM30.9808 47.2915C30.9815 47.2915 30.9822 47.2915 30.983 47.2915C30.983 46.9689 31.0009 46.6449 30.9715 46.3259C30.9628 46.2332 30.8192 46.0816 30.7337 46.0787C30.0899 46.0579 29.4447 46.0715 28.8003 46.0643C28.5976 46.0622 28.5294 46.1455 28.5315 46.3417C28.5387 46.9739 28.538 47.6069 28.5323 48.2399C28.5301 48.4338 28.5955 48.5215 28.8003 48.5193C29.4447 48.5114 30.0892 48.5114 30.7337 48.5165C30.9205 48.5179 30.9873 48.4403 30.983 48.2593C30.9751 47.9359 30.9808 47.6141 30.9808 47.2915ZM35.8513 48.4913C35.8513 47.6665 35.8513 46.8841 35.8513 46.0686C35.0948 46.0686 34.3677 46.0636 33.6413 46.0765C33.5723 46.078 33.4473 46.1915 33.4459 46.2547C33.4322 46.9919 33.4372 47.7297 33.4372 48.4913C34.2599 48.4913 35.0423 48.4913 35.8513 48.4913ZM38.3293 47.3066C38.33 47.3066 38.3307 47.3066 38.3322 47.3066C38.3322 47.6292 38.3171 47.9525 38.3422 48.2729C38.3494 48.3584 38.4802 48.4999 38.5578 48.5021C39.2137 48.5215 39.8711 48.5107 40.5271 48.5172C40.7117 48.5186 40.7821 48.4403 40.7807 48.2607C40.7757 47.6162 40.7728 46.971 40.78 46.3266C40.7821 46.1153 40.6823 46.0636 40.4948 46.0651C39.8618 46.0701 39.2288 46.0694 38.5966 46.0629C38.3954 46.0607 38.3207 46.1426 38.3264 46.3402C38.3358 46.6614 38.3293 46.984 38.3293 47.3066Z" fill="#ACE824"/>
<path d="M33.4646 36.2686C34.2614 36.2686 35.0445 36.2686 35.8542 36.2686C35.8542 37.0689 35.8542 37.8521 35.8542 38.6654C35.0646 38.6654 34.2815 38.6654 33.4646 38.6654C33.4646 37.875 33.4646 37.0833 33.4646 36.2686Z" fill="#4F3B62"/>
<path d="M30.9888 41.1724C31.8092 41.1724 32.5909 41.1724 33.4308 41.1724C33.4308 41.7385 33.4308 42.2946 33.4308 42.8507C33.4308 42.9822 33.4186 43.1151 33.433 43.2444C33.461 43.5016 33.3741 43.6094 33.0975 43.6022C32.4889 43.585 31.8789 43.6051 31.2697 43.5886C31.1741 43.5857 31.0024 43.4758 31.001 43.4125C30.9816 42.6747 30.9888 41.9368 30.9888 41.1724Z" fill="#4F3B62"/>
<path d="M35.8837 41.1724C36.7221 41.1724 37.5038 41.1724 38.3243 41.1724C38.3243 41.9375 38.3301 42.6754 38.3135 43.4133C38.3121 43.4765 38.1612 43.5886 38.0786 43.59C37.4219 43.6037 36.7645 43.6022 36.1078 43.5857C36.0317 43.5835 35.8952 43.4592 35.893 43.3896C35.8779 42.6625 35.8837 41.9347 35.8837 41.1724Z" fill="#4F3B62"/>
<path d="M30.9808 47.2914C30.9808 47.614 30.9751 47.9358 30.983 48.2584C30.9873 48.4395 30.9205 48.5171 30.7337 48.5156C30.0892 48.5106 29.4448 48.5106 28.8003 48.5185C28.5955 48.5214 28.5302 48.433 28.5323 48.239C28.5388 47.6068 28.5388 46.9738 28.5316 46.3408C28.5294 46.1447 28.5977 46.0614 28.8003 46.0635C29.4448 46.0707 30.0899 46.0571 30.7337 46.0779C30.8192 46.0808 30.9629 46.2324 30.9715 46.325C31.001 46.6448 30.983 46.9688 30.983 47.2907C30.9823 47.2914 30.9816 47.2914 30.9808 47.2914Z" fill="#4F3B62"/>
<path d="M35.8513 48.491C35.0423 48.491 34.2606 48.491 33.4373 48.491C33.4373 47.7287 33.4322 46.9916 33.4459 46.2544C33.4473 46.1912 33.5723 46.0777 33.6413 46.0762C34.3684 46.0633 35.0955 46.0683 35.8513 46.0683C35.8513 46.8838 35.8513 47.6669 35.8513 48.491Z" fill="#4F3B62"/>
<path d="M38.3293 47.306C38.3293 46.9834 38.3365 46.6608 38.3264 46.3389C38.3207 46.1406 38.3954 46.0594 38.5966 46.0616C39.2295 46.0687 39.8625 46.0687 40.4948 46.0637C40.6823 46.0623 40.7822 46.114 40.78 46.3252C40.7728 46.9697 40.7764 47.6149 40.7807 48.2594C40.7822 48.439 40.7117 48.5173 40.5271 48.5159C39.8704 48.5101 39.2137 48.5202 38.5578 48.5008C38.4802 48.4986 38.3487 48.3564 38.3422 48.2716C38.3164 47.9511 38.3322 47.6278 38.3322 47.3052C38.3307 47.306 38.33 47.306 38.3293 47.306Z" fill="#4F3B62"/>
</svg>
