<?xml version="1.0" encoding="utf-8"?>
<!-- Generator: Adobe Illustrator 23.0.3, SVG Export Plug-In . SVG Version: 6.00 Build 0)  -->
<svg version="1.1" id="Layer_1" xmlns="http://www.w3.org/2000/svg" xmlns:xlink="http://www.w3.org/1999/xlink" x="0px" y="0px"
	 viewBox="0 0 320 440" style="enable-background:new 0 0 320 440;" xml:space="preserve">
<style type="text/css">
	.st0{fill:#FFFFFF;}
	.st1{fill:url(#SVGID_1_);}
	.st2{clip-path:url(#SVGID_3_);}
	.st3{clip-path:url(#SVGID_7_);}
	.st4{clip-path:url(#SVGID_14_);}
	.st5{fill:#57426C;}
	.st6{fill:#CCCCCC;}
	.st7{fill:url(#SVGID_15_);}
	.st8{fill:#EE5DA1;}
	.st9{fill:none;stroke:#231F20;stroke-width:0.7466;stroke-linecap:round;stroke-linejoin:round;stroke-miterlimit:10;}
	.st10{fill:#FFCC02;}
	.st11{fill:#00B1D6;}
	.st12{fill:#F8CADE;}
	.st13{fill:#EC268F;}
	.st14{fill:#9B2A8F;}
	.st15{fill:#231F20;}
	.st16{fill:url(#SVGID_16_);}
	.st17{fill:url(#SVGID_17_);}
	.st18{fill:none;stroke:#231F20;stroke-width:0.4978;stroke-linecap:round;stroke-linejoin:round;stroke-miterlimit:10;}
	.st19{fill:#DEF0EA;}
	.st20{fill:#CB2027;}
	.st21{fill:#898B8D;}
	.st22{fill:#201B57;}
	.st23{fill:none;stroke:#231F20;stroke-width:0.7466;stroke-miterlimit:10;}
	.st24{fill:#430925;}
	.st25{fill:#C55BA1;}
	.st26{fill:none;stroke:#231F20;stroke-width:0.4978;stroke-miterlimit:10;}
	.st27{fill:none;stroke:#231F20;stroke-width:0.2489;stroke-linecap:round;stroke-linejoin:round;stroke-miterlimit:10;}
	.st28{fill:url(#SVGID_18_);}
	.st29{fill:url(#SVGID_19_);}
	.st30{fill:#94D8F1;}
	.st31{fill:#004891;}
	.st32{fill:none;stroke:#231F20;stroke-width:1.2444;stroke-linecap:round;stroke-linejoin:round;stroke-miterlimit:10;}
	.st33{fill:none;stroke:#231F20;stroke-width:0.8711;stroke-linecap:round;stroke-linejoin:round;stroke-miterlimit:10;}
	.st34{fill:none;stroke:#231F20;stroke-width:0.9955;stroke-linecap:round;stroke-linejoin:round;stroke-miterlimit:10;}
	.st35{fill:#CA1F8D;}
	.st36{fill:none;stroke:#231F20;stroke-width:0.6934;stroke-linecap:round;stroke-linejoin:round;stroke-miterlimit:10;}
	.st37{fill:#FFCE01;}
	.st38{fill:#ED2433;}
	.st39{fill:#E27588;}
	.st40{fill:url(#SVGID_20_);}
	.st41{fill:url(#SVGID_21_);}
	.st42{fill:url(#SVGID_22_);}
	.st43{fill:#FCB614;}
	.st44{fill:none;stroke:#231F20;stroke-width:1.439;stroke-linecap:round;stroke-linejoin:round;stroke-miterlimit:10;}
	.st45{fill:none;stroke:#231F20;stroke-width:0.9955;stroke-miterlimit:10;}
	.st46{fill:url(#SVGID_23_);}
	.st47{fill:#FBCEC0;}
	.st48{fill:#0093CD;}
	.st49{fill:#7FC579;}
	.st50{fill:#00A551;}
	.st51{fill:#0061AE;}
	.st52{fill:url(#SVGID_24_);}
	.st53{fill:url(#SVGID_25_);}
	.st54{fill:#5F958A;}
	.st55{fill:#84E2CE;}
	.st56{fill:#6FBFA4;}
	.st57{fill:#E2FFEE;}
	.st58{fill:#660029;}
	.st59{fill:#E80042;}
	.st60{fill:#63ECFF;}
	.st61{fill:#4D99AA;}
	.st62{fill:#416B60;}
	.st63{fill:#7E7841;}
	.st64{fill:#66F82C;}
	.st65{fill:#F6E400;}
	.st66{fill:url(#SVGID_26_);}
	.st67{fill:url(#SVGID_27_);}
	.st68{fill:#B18DC4;}
	.st69{fill:url(#SVGID_28_);}
	.st70{fill:url(#SVGID_29_);}
	.st71{fill:url(#SVGID_30_);}
	.st72{fill:#F3D94A;stroke:#000000;stroke-width:0.5;stroke-miterlimit:10;}
	.st73{fill:#D0FF47;}
	.st74{fill:#FF5DC1;}
	.st75{fill:#CB0002;}
	.st76{clip-path:url(#SVGID_32_);}
	.st77{clip-path:url(#SVGID_34_);}
	.st78{fill:#A0A0A0;stroke:#FFFFFF;stroke-width:10;stroke-miterlimit:10;}
	.st79{clip-path:url(#SVGID_38_);}
	.st80{clip-path:url(#SVGID_40_);}
	.st81{fill:none;stroke:#FFFFFF;stroke-width:10;stroke-linejoin:bevel;stroke-miterlimit:10;}
	.st82{fill:none;stroke:#FFFFFF;stroke-width:10;stroke-miterlimit:10;}
	.st83{clip-path:url(#SVGID_44_);}
	.st84{clip-path:url(#SVGID_46_);}
	.st85{fill:url(#SVGID_49_);}
	.st86{fill:url(#SVGID_50_);}
	.st87{fill:#EE72A1;}
	.st88{fill:url(#SVGID_51_);}
	.st89{fill:url(#SVGID_52_);}
	.st90{fill:#828168;}
	.st91{fill:url(#SVGID_53_);}
	.st92{fill:url(#SVGID_54_);}
	.st93{fill:#4172A1;}
	.st94{fill:url(#SVGID_55_);}
	.st95{fill:url(#SVGID_56_);}
	.st96{fill:#EE730C;}
	.st97{fill:url(#SVGID_57_);}
	.st98{fill:url(#SVGID_58_);}
	.st99{fill:#027A8E;}
	.st100{fill:url(#SVGID_59_);}
	.st101{fill:url(#SVGID_60_);}
	.st102{fill:#08B778;}
	.st103{fill:url(#SVGID_61_);}
	.st104{fill:url(#SVGID_62_);}
	.st105{fill:#6A498E;}
	.st106{fill:url(#SVGID_63_);}
	.st107{fill:url(#SVGID_64_);}
	.st108{fill:#89C408;}
	.st109{clip-path:url(#SVGID_68_);}
	.st110{clip-path:url(#SVGID_70_);}
	.st111{clip-path:url(#SVGID_72_);}
	.st112{clip-path:url(#SVGID_76_);}
	.st113{clip-path:url(#SVGID_78_);}
	.st114{fill:none;stroke:#FFFFFF;stroke-miterlimit:10;}
</style>
<path class="st0" d="M42,440c-23.16,0-42-18.84-42-42V42C0,18.84,18.84,0,42,0h236c23.16,0,42,18.84,42,42v356
	c0,23.16-18.84,42-42,42H42z"/>
<linearGradient id="SVGID_1_" gradientUnits="userSpaceOnUse" x1="160" y1="410" x2="160" y2="30">
	<stop  offset="0" style="stop-color:#FFFFFF"/>
	<stop  offset="1" style="stop-color:#FF9BAC"/>
</linearGradient>
<path class="st1" d="M278,410H42c-6.6,0-12-5.4-12-12V42c0-6.6,5.4-12,12-12h236c6.6,0,12,5.4,12,12v356
	C290,404.6,284.6,410,278,410z"/>
<g>
	<path class="st8" d="M195.54,116.74c0.55-0.05,1.35-0.13,2.22-0.2c-1.58-4.7-4.67-9.04-9.77-12.11
		C188.75,114.25,193.73,116.92,195.54,116.74"/>
	<path class="st9" d="M195.54,116.74c0.55-0.05,1.35-0.13,2.22-0.2c-1.58-4.7-4.67-9.04-9.77-12.11
		C188.75,114.25,193.73,116.92,195.54,116.74z"/>
	<path class="st8" d="M184.95,104.19v-1.33c-4.26-1.87-9.62-2.99-16.28-2.99c-18.29,0-26.65,11.04-30.31,19.01
		c8.19-2.01,24.54-3,33.44-3.53C181.81,114.77,184.95,106.74,184.95,104.19"/>
	<path class="st9" d="M184.95,104.19v-1.33c-4.26-1.87-9.62-2.99-16.28-2.99c-18.29,0-26.65,11.04-30.31,19.01
		c8.19-2.01,24.54-3,33.44-3.53C181.81,114.77,184.95,106.74,184.95,104.19z"/>
	<path class="st8" d="M199.07,124.78c0-1.56-0.13-3.14-0.41-4.71c-13.16-0.5-42.04-0.26-49.39,0.39c-5.39,0.48-9.76,1.4-12.34,2.04
		c-0.91,2.65-1.19,4.43-1.19,4.43s-6.67,18.63-12.16,80c-5.49,61.38-7.84,105.88-7.84,110.39s5.88,12.35,13.14,6.67h50.78l1.57-5.88
		c0,0,2.35,4.9,6.27,4.9c3.92,0,5.69-4.71,5.69-4.71s1.18,4.12,6.47,4.12c5.29,0,5.49-5.69,5.49-8.63
		C205.15,310.86,199.07,134.98,199.07,124.78"/>
	<path class="st9" d="M199.07,124.78c0-1.56-0.13-3.14-0.41-4.71c-13.16-0.5-42.04-0.26-49.39,0.39c-5.39,0.48-9.76,1.4-12.34,2.04
		c-0.91,2.65-1.19,4.43-1.19,4.43s-6.67,18.63-12.16,80c-5.49,61.38-7.84,105.88-7.84,110.39s5.88,12.35,13.14,6.67h50.78l1.57-5.88
		c0,0,2.35,4.9,6.27,4.9c3.92,0,5.69-4.71,5.69-4.71s1.18,4.12,6.47,4.12c5.29,0,5.49-5.69,5.49-8.63
		C205.15,310.86,199.07,134.98,199.07,124.78z"/>
	<path class="st10" d="M197.76,116.54c-0.87,0.07-1.67,0.14-2.22,0.2c-1.81,0.18-6.79-2.49-7.55-12.31c-0.06-0.82-0.1-1.68-0.1-2.59
		c0-8.77,0.21-12.37,0.32-13.67c1.59-0.67,2.72-2.24,2.72-4.07c0-2.44-1.98-4.41-4.41-4.41c-2.44,0-4.41,1.97-4.41,4.41
		c0,1.88,1.18,3.49,2.84,4.12v14.65v1.33c0,2.55-3.14,10.59-13.14,11.18c-8.9,0.52-25.26,1.52-33.44,3.53
		c-0.6,1.31-1.07,2.53-1.44,3.61c2.58-0.64,6.95-1.56,12.34-2.04c7.35-0.65,36.23-0.9,49.39-0.39
		C198.45,118.88,198.15,117.7,197.76,116.54"/>
	<path class="st9" d="M197.76,116.54c-0.87,0.07-1.67,0.14-2.22,0.2c-1.81,0.18-6.79-2.49-7.55-12.31c-0.06-0.82-0.1-1.68-0.1-2.59
		c0-8.77,0.21-12.37,0.32-13.67c1.59-0.67,2.72-2.24,2.72-4.07c0-2.44-1.98-4.41-4.41-4.41c-2.44,0-4.41,1.97-4.41,4.41
		c0,1.88,1.18,3.49,2.84,4.12v14.65v1.33c0,2.55-3.14,10.59-13.14,11.18c-8.9,0.52-25.26,1.52-33.44,3.53
		c-0.6,1.31-1.07,2.53-1.44,3.61c2.58-0.64,6.95-1.56,12.34-2.04c7.35-0.65,36.23-0.9,49.39-0.39
		C198.45,118.88,198.15,117.7,197.76,116.54z"/>
	<path class="st11" d="M190.64,83.99c0,1.52-1.23,2.75-2.75,2.75c-1.52,0-2.75-1.23-2.75-2.75c0-1.52,1.23-2.74,2.75-2.74
		C189.41,81.25,190.64,82.47,190.64,83.99"/>
	<path class="st9" d="M190.64,83.99c0,1.52-1.23,2.75-2.75,2.75c-1.52,0-2.75-1.23-2.75-2.75c0-1.52,1.23-2.74,2.75-2.74
		C189.41,81.25,190.64,82.47,190.64,83.99z"/>
	<path class="st12" d="M185.25,205.32c-0.79-1.55-8.75-15.88-8.75-15.88l1.77-3.01h3.6c0,0,7.43,14.12,10.66,22.06
		c3.23,7.94-5.72,21.56-5.72,21.56c-1.75,2.25-2.99,4.11-2.91,5.04c0.05,0.52,6.38,4.62,5.19,6.04c-0.21,0.26-0.77,0.22-1.6-0.07
		c0.6,0.83,0.85,1.46,0.63,1.74c-0.2,0.25-0.74,0.22-1.52-0.05c0.54,0.77,0.75,1.35,0.54,1.62c-0.69,1.07-16.5-4.5-9.24-12.65
		C178.49,230.9,191.42,217.44,185.25,205.32"/>
	<path class="st9" d="M185.25,205.32c-0.79-1.55-8.75-15.88-8.75-15.88l1.77-3.01h3.6c0,0,7.43,14.12,10.66,22.06
		c3.23,7.94-5.72,21.56-5.72,21.56c-1.75,2.25-2.99,4.11-2.91,5.04c0.05,0.52,6.38,4.62,5.19,6.04c-0.21,0.26-0.77,0.22-1.6-0.07
		c0.6,0.83,0.85,1.46,0.63,1.74c-0.2,0.25-0.74,0.22-1.52-0.05c0.54,0.77,0.75,1.35,0.54,1.62c-0.69,1.07-16.5-4.5-9.24-12.65
		C178.49,230.9,191.42,217.44,185.25,205.32z"/>
	<path class="st12" d="M188.15,241.35c0,0-4.14-2.13-4.76-2.79"/>
	<path class="st9" d="M188.15,241.35c0,0-4.14-2.13-4.76-2.79"/>
	<path class="st12" d="M187.02,242.94c-4.16-1.72-4.09-2.02-3.84-1.79"/>
	<path class="st9" d="M187.02,242.94c-4.16-1.72-4.09-2.02-3.84-1.79"/>
	<path class="st13" d="M170.08,166.25c0.98-0.32,2.02-0.49,3.1-0.49c5.52,0,10,4.48,10,10c0,3.91-2.25,7.3-5.52,8.95"/>
	<path class="st9" d="M170.08,166.25c0.98-0.32,2.02-0.49,3.1-0.49c5.52,0,10,4.48,10,10c0,3.91-2.25,7.3-5.52,8.95"/>
	<path class="st13" d="M183.87,185.22c0,1.49-1.6,2.7-3.58,2.7c-1.98,0-3.58-1.21-3.58-2.7s1.6-2.7,3.58-2.7
		C182.27,182.52,183.87,183.73,183.87,185.22"/>
	<path class="st9" d="M183.87,185.22c0,1.49-1.6,2.7-3.58,2.7c-1.98,0-3.58-1.21-3.58-2.7s1.6-2.7,3.58-2.7
		C182.27,182.52,183.87,183.73,183.87,185.22z"/>
	<path class="st13" d="M180.64,248.11c0-6.47-1.17-16.08-4.9-24.71c-1.8-4.17-2.04-10.61-1.55-16.62c-1.84,0.88-5.32,1.6-11.79,0.54
		l-0.39-7.45c0,0,2.79,2.44,12.99,0.58c0.65-3.71,1.51-6.7,2.31-8.03c2.35-3.92,2.16-10-0.2-12.75c-2.35-2.74-4.51-9.8-5.49-14.9
		h-21.77l-11.18,62.75c0,0-10.39-0.78-11.18,22.55c-0.78,23.33-4.9,107.85-4.9,107.85s27.06,16.67,61.37,0
		C183.97,357.92,180.64,254.58,180.64,248.11"/>
	<path class="st9" d="M180.64,248.11c0-6.47-1.17-16.08-4.9-24.71c-1.8-4.17-2.04-10.61-1.55-16.62c-1.84,0.88-5.32,1.6-11.79,0.54
		l-0.39-7.45c0,0,2.79,2.44,12.99,0.58c0.65-3.71,1.51-6.7,2.31-8.03c2.35-3.92,2.16-10-0.2-12.75c-2.35-2.74-4.51-9.8-5.49-14.9
		h-21.77l-11.18,62.75c0,0-10.39-0.78-11.18,22.55c-0.78,23.33-4.9,107.85-4.9,107.85s27.06,16.67,61.37,0
		C183.97,357.92,180.64,254.58,180.64,248.11z"/>
	<path class="st14" d="M162.01,199.87l0.39,7.45c6.46,1.06,9.95,0.34,11.79-0.54c0.18-2.22,0.46-4.38,0.81-6.33
		C164.8,202.32,162.01,199.87,162.01,199.87"/>
	<path class="st9" d="M162.01,199.87l0.39,7.45c6.46,1.06,9.95,0.34,11.79-0.54c0.18-2.22,0.46-4.38,0.81-6.33
		C164.8,202.32,162.01,199.87,162.01,199.87z"/>
	<path class="st12" d="M130.53,234.71c-2.29-2.58-10.5-10.33-11.65-13.07c-1.57-3.73-2.35-9.41,1.96-14.31
		c4.31-4.9,17.06-19.8,17.06-19.8l-6.27-1.57c0,0-13.73,15.29-17.84,21.37c-4.12,6.08-3.73,12.94,1.76,18.82
		c4.38,4.69,10.46,10.05,10.46,12c0,0.52-5.91,5.21-4.59,6.51c0.24,0.23,0.79,0.14,1.58-0.23c-0.52,0.89-0.71,1.53-0.46,1.8
		c0.22,0.23,0.75,0.15,1.51-0.19c-0.46,0.82-0.62,1.41-0.38,1.66C124.46,248.7,138.53,242.13,130.53,234.71"/>
	<path class="st9" d="M130.53,234.71c-2.29-2.58-10.5-10.33-11.65-13.07c-1.57-3.73-2.35-9.41,1.96-14.31
		c4.31-4.9,17.06-19.8,17.06-19.8l-6.27-1.57c0,0-13.73,15.29-17.84,21.37c-4.12,6.08-3.73,12.94,1.76,18.82
		c4.38,4.69,10.46,10.05,10.46,12c0,0.52-5.91,5.21-4.59,6.51c0.24,0.23,0.79,0.14,1.58-0.23c-0.52,0.89-0.71,1.53-0.46,1.8
		c0.22,0.23,0.75,0.15,1.51-0.19c-0.46,0.82-0.62,1.41-0.38,1.66C124.46,248.7,138.53,242.13,130.53,234.71z"/>
	<path class="st9" d="M122.37,244.8c0,0,3.92-2.52,4.48-3.23"/>
	<path class="st9" d="M123.65,246.27c3.98-2.11,3.88-2.4,3.65-2.15"/>
	<path class="st13" d="M133.38,182.42c0,0-4.31-0.59-5.49,2.35c-1.18,2.94,4.9,2.74,5.69,2.74c0.78,0-0.59,3.53,4.31,3.53
		c3.73,0,0.59-9.02,0.59-9.02L133.38,182.42z"/>
	<path class="st9" d="M133.38,182.42c0,0-4.31-0.59-5.49,2.35c-1.18,2.94,4.9,2.74,5.69,2.74c0.78,0-0.59,3.53,4.31,3.53
		c3.73,0,0.59-9.02,0.59-9.02L133.38,182.42z"/>
	<path class="st13" d="M144.57,186.17c-1.04,0.37-2.17,0.57-3.34,0.57c-5.52,0-10-4.48-10-10c0-5.52,4.48-10,10-10
		c0.87,0,1.71,0.11,2.51,0.32"/>
	<path class="st9" d="M144.57,186.17c-1.04,0.37-2.17,0.57-3.34,0.57c-5.52,0-10-4.48-10-10c0-5.52,4.48-10,10-10
		c0.87,0,1.71,0.11,2.51,0.32"/>
	<path class="st8" d="M141.62,162.81c0,0,0.98,23.14-1.57,38.63c0,0-6.86,49.41-7.06,51.57c-0.2,2.16-3.14,44.71-1.57,54.32
		c1.57,9.61,9.61,26.86,22.55,11.57c0,0,3.92,6.08,9.41,6.08c5.49,0,10.79-5.1,10.79-15.29c0-10.2-5.49-57.65-7.25-70.2
		c-1.76-12.55-5.69-62.35-3.14-76.47"/>
	<path class="st9" d="M141.62,162.81c0,0,0.98,23.14-1.57,38.63c0,0-6.86,49.41-7.06,51.57c-0.2,2.16-3.14,44.71-1.57,54.32
		c1.57,9.61,9.61,26.86,22.55,11.57c0,0,3.92,6.08,9.41,6.08c5.49,0,10.79-5.1,10.79-15.29c0-10.2-5.49-57.65-7.25-70.2
		c-1.76-12.55-5.69-62.35-3.14-76.47"/>
	<path class="st14" d="M163.78,162.8l-0.39,3.64c-0.11,1.05,0.95,1.74,2.06,1.74c1.19,0,1.88-1.52,2.21-2.43
		c0.33,0.91,0.68,2.43,2.21,2.43c1.12,0,2.06-0.79,2.29-1.84l0.17-3.68h0c-0.01,0.03-0.01,0.05-0.01,0.05L163.78,162.8z"/>
	<path class="st9" d="M163.78,162.8l-0.39,3.64c-0.11,1.05,0.95,1.74,2.06,1.74c1.19,0,1.88-1.52,2.21-2.43
		c0.33,0.91,0.68,2.43,2.21,2.43c1.12,0,2.06-0.79,2.29-1.84l0.17-3.68h0c-0.01,0.03-0.01,0.05-0.01,0.05L163.78,162.8z"/>
	<path class="st12" d="M192.8,132.81c0,0-7.65-0.78-14.12-0.78c-6.47,0-9.02,0.2-10.98,5.49c-1.87,5.04-3.73,23.4-3.91,25.15h8.53
		c0.15-0.49,1.6-5,4-5.93c3.88-1.49,9.02-3.33,13.53-7.65C194.36,144.78,192.8,132.81,192.8,132.81"/>
	<path class="st9" d="M192.8,132.81c0,0-7.65-0.78-14.12-0.78c-6.47,0-9.02,0.2-10.98,5.49c-1.87,5.04-3.73,23.4-3.91,25.15h8.53
		c0.15-0.49,1.6-5,4-5.93c3.88-1.49,9.02-3.33,13.53-7.65C194.36,144.78,192.8,132.81,192.8,132.81z"/>
	<path class="st15" d="M175.84,140.71c0,0.84-0.68,1.52-1.52,1.52c-0.84,0-1.52-0.68-1.52-1.52c0-0.84,0.68-1.52,1.52-1.52
		C175.15,139.19,175.84,139.87,175.84,140.71"/>
	<path class="st15" d="M190.64,140.71c0,0.84-0.68,1.52-1.52,1.52c-0.84,0-1.52-0.68-1.52-1.52c0-0.84,0.68-1.52,1.52-1.52
		C189.96,139.19,190.64,139.87,190.64,140.71"/>
	<path class="st15" d="M182.4,143.88c-2.06,0-3.71-1.01-3.81-1.07c-0.15-0.09-0.2-0.3-0.13-0.48c0.08-0.17,0.25-0.24,0.4-0.15
		c0.04,0.02,3.57,2.18,6.63,0.01c0.14-0.1,0.32-0.04,0.4,0.12c0.08,0.17,0.04,0.39-0.1,0.49
		C184.65,143.61,183.47,143.88,182.4,143.88"/>
</g>
<linearGradient id="SVGID_3_" gradientUnits="userSpaceOnUse" x1="159.5" y1="411.5" x2="159.5" y2="330.5">
	<stop  offset="0" style="stop-color:#FFFFFF"/>
	<stop  offset="0.8587" style="stop-color:#FFFFFF;stop-opacity:0.1413"/>
	<stop  offset="1" style="stop-color:#FFFFFF;stop-opacity:0"/>
</linearGradient>
<path style="fill:url(#SVGID_3_);" d="M29.58,330.5h259.84c0.04,0,0.08,0.04,0.08,0.08v80.84c0,0.04-0.04,0.08-0.08,0.08H29.58
	c-0.04,0-0.08-0.04-0.08-0.08v-80.84C29.5,330.54,29.54,330.5,29.58,330.5z"/>
<g>
	<path class="st0" d="M55.14,91.52c-0.38-1.51-0.58-3.11-0.58-4.79c0-1.34,0.12-2.77,0.36-4.28c0.24-1.51,0.55-3.03,0.94-4.54
		c0.38-1.51,0.84-3.01,1.37-4.5c0.53-1.49,1.08-2.9,1.66-4.25c-0.1-0.29-0.24-0.62-0.43-1.01c-0.19-0.38-0.41-0.77-0.65-1.15h0.07
		c-0.48-0.67-0.9-1.49-1.26-2.45c-0.36-0.96-0.65-1.96-0.86-2.99c-0.22-1.03-0.37-2.09-0.47-3.17s-0.14-2.1-0.14-3.06
		c0-1.1,0.13-2.26,0.4-3.46c0.26-1.2,0.7-2.29,1.3-3.28s1.37-1.79,2.3-2.41c0.94-0.62,2.08-0.94,3.42-0.94
		c0.91,0,1.69,0.29,2.34,0.86s1.15,1.3,1.51,2.16c0.36,0.87,0.62,1.8,0.79,2.81s0.25,1.94,0.25,2.81c0,2.54-0.47,5.08-1.4,7.6
		s-1.98,5.08-3.13,7.67c0.91,2.3,1.67,4.57,2.27,6.8c0.6,2.23,1.07,4.22,1.4,5.98c0.34,1.75,0.58,3.17,0.72,4.25l0.22,1.62
		c0,0.58-0.08,1.27-0.25,2.09s-0.25,1.49-0.25,2.02c-0.14,0.77-0.41,1.51-0.79,2.23c-0.38,0.72-0.85,1.37-1.4,1.94
		c-0.55,0.58-1.16,1.03-1.84,1.37c-0.67,0.34-1.37,0.5-2.09,0.5c-1.49,0-2.74-0.72-3.74-2.16C56.2,94.46,55.52,93.03,55.14,91.52z
		 M58.74,80.43c-0.58,2.23-0.86,4.31-0.86,6.23c0,0.96,0.1,1.94,0.29,2.95s0.53,1.92,1.01,2.74l0.72,1.58v-0.14
		c0.34,0.62,0.62,0.94,0.86,0.94c0.43,0,0.85-0.24,1.26-0.72c0.41-0.48,0.76-1.08,1.04-1.8c0.29-0.72,0.52-1.48,0.68-2.27
		S64,88.46,64,87.88c0-1.92-0.23-3.88-0.68-5.87s-1-3.83-1.62-5.51l-0.86-2.45C60.01,76.07,59.32,78.19,58.74,80.43z M61.87,62.1
		c0.31-0.72,0.59-1.42,0.83-2.09l0.5-1.3c0.14-0.38,0.28-0.77,0.4-1.15c0.12-0.38,0.2-0.82,0.25-1.3s0.07-1.06,0.07-1.73
		c0-0.77-0.02-1.51-0.07-2.23c-0.05-0.72-0.14-1.37-0.29-1.94c-0.14-0.58-0.34-1.03-0.58-1.37c-0.24-0.34-0.55-0.5-0.94-0.5
		c-0.72,0-1.32,0.32-1.8,0.97c-0.48,0.65-0.84,1.38-1.08,2.2c-0.24,0.82-0.41,1.64-0.5,2.48s-0.14,1.43-0.14,1.76
		c0,2.69,0.67,5.74,2.02,9.14L61.87,62.1z"/>
</g>
<g>
	<path class="st0" d="M79.99,83.38V59.84c-0.48-0.14-0.72-0.42-0.72-0.83c0-0.26,0.1-0.46,0.29-0.59c0.19-0.13,0.43-0.23,0.72-0.29
		c0.29-0.06,0.61-0.1,0.95-0.11c0.35-0.01,0.67-0.02,0.95-0.02c0.7,0,1.39,0.16,2.09,0.49c0.7,0.32,1.31,0.8,1.85,1.42
		s0.98,1.4,1.31,2.32s0.5,1.99,0.5,3.19c0,0.77-0.04,1.52-0.13,2.25c-0.08,0.73-0.22,1.42-0.4,2.07c-0.18,0.65-0.42,1.24-0.72,1.78
		c-0.3,0.54-0.65,0.98-1.06,1.31c-0.62,0.5-1.26,0.82-1.91,0.94c-0.65,0.12-1.33,0.18-2.05,0.18v9.14c0,0.43-0.23,0.73-0.68,0.9
		C80.57,84,80.23,83.79,79.99,83.38z M82.83,59.75c-0.26-0.04-0.54-0.05-0.83-0.05h-0.32v12.56c0.5-0.02,1.04-0.08,1.6-0.16
		c0.56-0.08,0.94-0.23,1.13-0.45c0.62-0.77,1.09-1.61,1.39-2.54c0.3-0.92,0.45-2,0.45-3.22c0-1.18-0.24-2.32-0.72-3.44
		c-0.48-1.12-1.16-1.95-2.05-2.5C83.31,59.86,83.1,59.79,82.83,59.75z"/>
	<path class="st0" d="M89.85,59.02c0-0.24,0.09-0.44,0.27-0.59s0.41-0.27,0.68-0.34c0.28-0.07,0.58-0.12,0.9-0.14
		s0.63-0.04,0.92-0.04c0.84,0,1.62,0.14,2.34,0.41c0.72,0.28,1.35,0.68,1.89,1.21c0.54,0.53,0.96,1.18,1.26,1.94
		s0.45,1.64,0.45,2.63c0,0.82-0.03,1.6-0.09,2.36c-0.06,0.76-0.17,1.44-0.32,2.05c-0.16,0.61-0.38,1.15-0.68,1.62
		c-0.3,0.47-0.69,0.82-1.17,1.06c0.38,0.48,0.68,1.1,0.88,1.87c0.2,0.77,0.35,1.55,0.45,2.36c0.1,0.8,0.16,1.57,0.18,2.3
		c0.02,0.73,0.04,1.3,0.04,1.71c0.02,0.48,0.07,0.97,0.14,1.48s0.22,0.91,0.43,1.22c0.31-0.19,0.59-0.29,0.83-0.29
		c0.26,0,0.49,0.11,0.68,0.32c0.19,0.22,0.29,0.56,0.29,1.04c0,0.31-0.12,0.55-0.36,0.72c-0.24,0.17-0.56,0.25-0.97,0.25
		c-0.62,0-1.12-0.19-1.48-0.58c-0.36-0.38-0.64-0.85-0.83-1.38c-0.19-0.54-0.31-1.1-0.36-1.69s-0.08-1.1-0.11-1.53
		c0-0.14-0.01-0.57-0.04-1.28c-0.02-0.71-0.08-1.48-0.18-2.3c-0.1-0.83-0.24-1.59-0.43-2.29c-0.19-0.7-0.44-1.09-0.76-1.19
		c-0.38,0.1-0.78,0.16-1.19,0.2c-0.41,0.04-0.82,0.05-1.22,0.05V83.1c0,0.24-0.08,0.45-0.23,0.63C91.91,83.91,91.69,84,91.4,84
		c-0.22,0-0.4-0.09-0.54-0.27c-0.14-0.18-0.24-0.38-0.29-0.59L90.5,59.81C90.07,59.66,89.85,59.4,89.85,59.02z M95.54,60.81
		c-0.86-0.82-1.94-1.22-3.24-1.22V70.5c1.01-0.02,1.81-0.17,2.39-0.43s1.04-0.65,1.37-1.17s0.53-1.16,0.63-1.94s0.14-1.7,0.14-2.75
		C96.84,62.76,96.4,61.63,95.54,60.81z"/>
	<path class="st0" d="M100.46,83.87c-0.13-0.16-0.2-0.33-0.2-0.52c0-0.19,0.07-0.38,0.22-0.56c0.14-0.18,0.36-0.29,0.65-0.34
		c0.19,0,0.38,0.01,0.58,0.02c0.19,0.01,0.41,0.01,0.65-0.02c-0.02-2.54-0.04-5.1-0.05-7.68c-0.01-2.58-0.04-5.13-0.09-7.65
		l-0.14-7.27h-1.01c-0.26-0.05-0.46-0.15-0.59-0.31s-0.2-0.33-0.2-0.52c0-0.19,0.07-0.38,0.22-0.56c0.14-0.18,0.36-0.29,0.65-0.34
		h3.92c0.26,0.1,0.46,0.23,0.59,0.4c0.13,0.17,0.2,0.35,0.2,0.54c0,0.38-0.25,0.65-0.76,0.79h-1.33l0.14,7.27
		c0.05,2.47,0.09,5.01,0.13,7.61c0.04,2.6,0.05,5.15,0.05,7.65c0.19-0.02,0.39-0.04,0.59-0.04h0.59c0.53,0.19,0.79,0.49,0.79,0.9
		c0,0.38-0.25,0.65-0.76,0.79c-0.74,0-1.45,0.02-2.12,0.07c-0.67,0.05-1.36,0.07-2.05,0.07h-0.07
		C100.79,84.13,100.59,84.03,100.46,83.87z"/>
	<path class="st0" d="M115.38,58.48c0.41,0,0.71,0.26,0.9,0.79c0.02,1.63,0.04,3.01,0.04,4.14c0,1.13,0.01,2.21,0.02,3.26
		c0.01,1.04,0.02,2.13,0.02,3.26s0.01,2.51,0.04,4.14c0,0.46,0.01,1.12,0.04,2c0.02,0.88,0.05,1.79,0.09,2.74s0.07,1.85,0.09,2.7
		c0.02,0.85,0.04,1.48,0.04,1.89c-0.05,0.26-0.16,0.46-0.34,0.59c-0.18,0.13-0.37,0.2-0.56,0.2c-0.17,0-0.37-0.06-0.59-0.18
		c-0.23-0.12-0.41-0.31-0.56-0.58l-5.08-18.86V83.1c-0.05,0.29-0.16,0.5-0.34,0.65s-0.37,0.22-0.56,0.22c-0.19,0-0.37-0.07-0.52-0.2
		c-0.16-0.13-0.26-0.33-0.31-0.59V59.16c0.14-0.46,0.43-0.68,0.86-0.68c0.38,0,0.76,0.18,1.12,0.54l4.97,18.5
		c-0.02-1.1-0.05-2.11-0.07-3.02c-0.02-0.91-0.04-1.75-0.05-2.5c-0.01-0.76-0.02-1.46-0.02-2.12v-1.93c0-0.62,0.01-1.24,0.02-1.85
		c0.01-0.61,0.02-1.27,0.02-1.96c0-0.7-0.01-1.44-0.02-2.23c-0.01-0.79-0.02-1.68-0.02-2.66C114.73,58.73,114.99,58.48,115.38,58.48
		z"/>
	<path class="st0" d="M128.17,65.04c-0.16,0.16-0.34,0.23-0.56,0.23c-0.14,0-0.29-0.05-0.43-0.14c-0.14-0.1-0.28-0.25-0.4-0.47
		l-0.22-1.37c-0.05-0.31-0.11-0.67-0.2-1.08s-0.19-0.79-0.31-1.15c-0.12-0.36-0.28-0.67-0.47-0.92c-0.19-0.25-0.43-0.38-0.72-0.38
		s-0.58,0.12-0.86,0.36s-0.54,0.52-0.76,0.85c-0.22,0.32-0.4,0.67-0.56,1.03c-0.16,0.36-0.25,0.66-0.27,0.9
		c-0.22,1.34-0.37,2.83-0.47,4.46c-0.1,1.63-0.14,3.16-0.14,4.57c0,0.96,0.02,1.91,0.05,2.84c0.04,0.94,0.08,1.87,0.13,2.81
		c0.05,0.84,0.22,1.6,0.5,2.27c0.29,0.67,0.53,1.19,0.72,1.55c0.17,0.24,0.36,0.49,0.58,0.76c0.22,0.26,0.46,0.4,0.72,0.4
		c0.46,0,0.79-0.16,1.01-0.47c0.22-0.31,0.37-0.7,0.45-1.15s0.14-0.95,0.16-1.49c0.02-0.54,0.07-1.03,0.14-1.46
		c0.07-0.41,0.18-0.74,0.32-0.99c0.14-0.25,0.38-0.38,0.72-0.38c0.22,0,0.4,0.09,0.56,0.27s0.23,0.4,0.23,0.67
		c0,0.19-0.02,0.43-0.05,0.72c-0.04,0.29-0.08,0.49-0.13,0.61c-0.05,0.48-0.13,1.02-0.23,1.62c-0.11,0.6-0.28,1.18-0.52,1.73
		c-0.24,0.55-0.57,1.01-0.99,1.39s-0.97,0.56-1.64,0.56c-0.7,0-1.3-0.24-1.82-0.72c-0.52-0.48-0.95-1.06-1.31-1.75
		c-0.36-0.68-0.64-1.39-0.83-2.12s-0.3-1.36-0.32-1.89c-0.05-0.46-0.07-0.91-0.07-1.37v-1.4c0-0.72,0.01-1.47,0.02-2.25
		c0.01-0.78,0.02-1.63,0.02-2.54c0-1.37,0.03-2.82,0.09-4.36c0.06-1.54,0.31-2.99,0.74-4.36c0.12-0.38,0.31-0.77,0.58-1.17
		c0.26-0.4,0.58-0.76,0.94-1.08c0.36-0.32,0.74-0.59,1.15-0.79c0.41-0.2,0.83-0.3,1.26-0.3c0.55,0,1.03,0.16,1.42,0.49
		c0.4,0.32,0.72,0.74,0.97,1.24s0.45,1.05,0.59,1.64c0.14,0.59,0.25,1.15,0.32,1.67l0.14,1.26
		C128.42,64.67,128.33,64.89,128.17,65.04z"/>
	<path class="st0" d="M131.68,71.85c0.02-3.92,0.04-8.04,0.04-12.36c-0.17-0.14-0.25-0.34-0.25-0.58c0-0.19,0.07-0.38,0.22-0.56
		c0.14-0.18,0.35-0.29,0.61-0.34h1.3c0.26,0,0.51-0.01,0.74-0.02c0.23-0.01,0.47-0.02,0.74-0.02c0.31,0,0.68,0.01,1.1,0.02
		c0.42,0.01,0.82,0.05,1.21,0.11c0.38,0.06,0.7,0.17,0.95,0.32s0.38,0.38,0.38,0.67c0,0.12-0.07,0.3-0.2,0.54
		c-0.13,0.24-0.34,0.36-0.63,0.36c-0.67,0-1.37-0.04-2.11-0.11c-0.73-0.07-1.52-0.12-2.36-0.14c0,0.82-0.01,1.63-0.02,2.45
		c-0.01,0.82-0.02,1.62-0.02,2.41v4.86c0.41-0.02,0.87-0.04,1.39-0.04h2.03c0.29,0.05,0.52,0.15,0.68,0.31
		c0.17,0.16,0.25,0.33,0.25,0.52c0,0.22-0.09,0.42-0.27,0.61c-0.18,0.19-0.52,0.29-1.03,0.29c-0.53,0-1.03-0.01-1.51-0.04
		c-0.48-0.02-1-0.04-1.55-0.04c-0.02,1.8-0.04,3.66-0.04,5.58v5.69c0.34,0,0.81-0.04,1.42-0.11c0.61-0.07,1.19-0.11,1.75-0.11
		c0.7,0,1.28,0.07,1.76,0.2c0.48,0.13,0.72,0.43,0.72,0.88c0,0.24-0.08,0.44-0.25,0.59c-0.17,0.16-0.36,0.23-0.58,0.23
		c-0.19,0-0.44-0.03-0.74-0.09s-0.62-0.09-0.95-0.09c-0.58,0-1.15,0.03-1.71,0.09c-0.56,0.06-1.13,0.09-1.71,0.09
		c-0.14,0.14-0.26,0.23-0.34,0.25s-0.15,0.04-0.2,0.04c-0.17,0-0.34-0.06-0.5-0.18c-0.17-0.12-0.29-0.34-0.36-0.65
		C131.65,79.65,131.66,75.77,131.68,71.85z"/>
	<path class="st0" d="M146.05,63.66c0-0.48,0.22-0.72,0.65-0.72c-0.07-0.94-0.27-1.67-0.59-2.21c-0.32-0.54-0.69-0.81-1.1-0.81
		c-0.34,0-0.64,0.1-0.92,0.29c-0.28,0.19-0.5,0.44-0.68,0.74c-0.18,0.3-0.32,0.63-0.41,0.99c-0.1,0.36-0.14,0.71-0.14,1.04
		c0,1.15,0.19,2.32,0.58,3.51s0.89,2.26,1.51,3.22c0.43,0.7,0.87,1.33,1.31,1.89c0.44,0.56,0.85,1.14,1.21,1.73
		c0.36,0.59,0.65,1.22,0.86,1.91c0.22,0.68,0.32,1.48,0.32,2.39c0,0.86-0.1,1.7-0.31,2.5c-0.2,0.8-0.47,1.51-0.81,2.12
		c-0.34,0.61-0.74,1.1-1.21,1.48c-0.47,0.37-0.97,0.56-1.49,0.56c-0.55,0-1.07-0.14-1.57-0.43c-0.49-0.29-0.92-0.67-1.3-1.13
		c-0.37-0.47-0.67-0.99-0.9-1.57c-0.23-0.58-0.34-1.15-0.34-1.73c0-0.1,0.01-0.24,0.04-0.43c0.02-0.19,0.07-0.39,0.13-0.59
		c0.06-0.2,0.13-0.38,0.22-0.54s0.2-0.23,0.34-0.23c0.22,0,0.44,0.13,0.68,0.4c0.24,0.26,0.36,0.52,0.36,0.76
		c0,0.1-0.02,0.19-0.05,0.29s-0.05,0.21-0.05,0.32c0,0.31,0.07,0.65,0.2,1.01c0.13,0.36,0.31,0.7,0.54,1.03
		c0.23,0.32,0.49,0.59,0.77,0.81s0.58,0.34,0.86,0.36c0.31,0,0.61-0.16,0.88-0.47c0.28-0.31,0.51-0.71,0.7-1.19
		c0.19-0.48,0.34-1.01,0.45-1.58c0.11-0.58,0.16-1.13,0.16-1.66c0-0.72-0.11-1.38-0.32-1.98c-0.22-0.6-0.49-1.18-0.81-1.73
		s-0.68-1.09-1.08-1.62l-1.17-1.62c-0.74-1.15-1.32-2.38-1.73-3.69c-0.41-1.31-0.61-2.63-0.61-3.98c0-0.67,0.1-1.31,0.31-1.91
		c0.2-0.6,0.47-1.13,0.81-1.6s0.71-0.84,1.13-1.12c0.42-0.28,0.86-0.41,1.31-0.41c0.82,0,1.58,0.43,2.3,1.3
		c0.38,0.48,0.7,1.06,0.95,1.75c0.25,0.68,0.38,1.41,0.38,2.18c0,0.43-0.16,0.82-0.47,1.15c-0.31,0.34-0.64,0.5-0.97,0.5
		c-0.46,0-0.76-0.32-0.9-0.97C146.06,63.88,146.05,63.78,146.05,63.66z"/>
	<path class="st0" d="M156.16,63.66c0-0.48,0.22-0.72,0.65-0.72c-0.07-0.94-0.27-1.67-0.59-2.21c-0.32-0.54-0.69-0.81-1.1-0.81
		c-0.34,0-0.64,0.1-0.92,0.29c-0.28,0.19-0.5,0.44-0.68,0.74c-0.18,0.3-0.32,0.63-0.41,0.99c-0.1,0.36-0.14,0.71-0.14,1.04
		c0,1.15,0.19,2.32,0.58,3.51c0.38,1.19,0.89,2.26,1.51,3.22c0.43,0.7,0.87,1.33,1.31,1.89c0.44,0.56,0.85,1.14,1.21,1.73
		c0.36,0.59,0.65,1.22,0.86,1.91c0.22,0.68,0.32,1.48,0.32,2.39c0,0.86-0.1,1.7-0.31,2.5c-0.2,0.8-0.47,1.51-0.81,2.12
		c-0.34,0.61-0.74,1.1-1.21,1.48c-0.47,0.37-0.97,0.56-1.49,0.56c-0.55,0-1.07-0.14-1.57-0.43c-0.49-0.29-0.92-0.67-1.3-1.13
		c-0.37-0.47-0.67-0.99-0.9-1.57c-0.23-0.58-0.34-1.15-0.34-1.73c0-0.1,0.01-0.24,0.04-0.43c0.02-0.19,0.07-0.39,0.13-0.59
		c0.06-0.2,0.13-0.38,0.22-0.54s0.2-0.23,0.34-0.23c0.22,0,0.44,0.13,0.68,0.4c0.24,0.26,0.36,0.52,0.36,0.76
		c0,0.1-0.02,0.19-0.05,0.29s-0.05,0.21-0.05,0.32c0,0.31,0.07,0.65,0.2,1.01c0.13,0.36,0.31,0.7,0.54,1.03
		c0.23,0.32,0.49,0.59,0.77,0.81c0.29,0.22,0.58,0.34,0.86,0.36c0.31,0,0.61-0.16,0.88-0.47c0.28-0.31,0.51-0.71,0.7-1.19
		s0.34-1.01,0.45-1.58c0.11-0.58,0.16-1.13,0.16-1.66c0-0.72-0.11-1.38-0.32-1.98c-0.22-0.6-0.49-1.18-0.81-1.73
		c-0.32-0.55-0.68-1.09-1.08-1.62l-1.17-1.62c-0.74-1.15-1.32-2.38-1.73-3.69c-0.41-1.31-0.61-2.63-0.61-3.98
		c0-0.67,0.1-1.31,0.31-1.91c0.2-0.6,0.47-1.13,0.81-1.6s0.71-0.84,1.13-1.12c0.42-0.28,0.86-0.41,1.31-0.41
		c0.82,0,1.58,0.43,2.3,1.3c0.38,0.48,0.7,1.06,0.95,1.75c0.25,0.68,0.38,1.41,0.38,2.18c0,0.43-0.16,0.82-0.47,1.15
		c-0.31,0.34-0.64,0.5-0.97,0.5c-0.46,0-0.76-0.32-0.9-0.97C156.17,63.88,156.16,63.78,156.16,63.66z"/>
	<path class="st0" d="M167.02,59.72c-0.13-0.16-0.2-0.33-0.2-0.52c0-0.36,0.25-0.65,0.74-0.88c0.49-0.23,1.24-0.34,2.25-0.34
		c0.89,0.12,1.65,0.39,2.29,0.81s1.16,0.94,1.57,1.55s0.71,1.31,0.9,2.09c0.19,0.78,0.29,1.58,0.29,2.39c0,0.89-0.07,1.77-0.2,2.65
		s-0.51,1.69-1.13,2.43c0.36,0.34,0.67,0.79,0.94,1.37s0.48,1.19,0.65,1.85s0.29,1.33,0.36,2s0.11,1.26,0.11,1.76
		c0,1.22-0.23,2.44-0.7,3.64s-1.23,2.18-2.29,2.95c-0.22,0.14-0.62,0.28-1.21,0.4c-0.59,0.12-1.17,0.18-1.75,0.18
		c-0.65,0-1.21-0.1-1.69-0.29c-0.48-0.19-0.72-0.53-0.72-1.01c0-0.14,0.08-0.34,0.23-0.58s0.31-0.41,0.45-0.5
		c0.1-0.55,0.14-1.16,0.14-1.84c0-0.77-0.05-1.62-0.14-2.57c-0.1-0.95-0.14-1.81-0.14-2.57c0-1.54,0.07-3.05,0.2-4.55
		c0.13-1.5,0.2-3.03,0.2-4.59c0-0.79-0.08-1.64-0.23-2.54c-0.16-0.9-0.23-1.89-0.23-2.97C167.37,59.97,167.15,59.87,167.02,59.72z
		 M169.91,67.71c-0.02,0.63-0.06,1.25-0.11,1.85c0.24,0.12,0.4,0.18,0.47,0.18c0.36,0,0.71-0.09,1.06-0.27
		c0.35-0.18,0.66-0.47,0.94-0.88s0.5-0.93,0.67-1.57s0.25-1.42,0.25-2.36c0-1.66-0.32-2.88-0.97-3.67
		c-0.65-0.79-1.37-1.19-2.16-1.19h-0.32c-0.12,0-0.24,0.01-0.36,0.04c0.05,0.91,0.16,1.86,0.32,2.84c0.17,0.98,0.25,2.02,0.25,3.1
		C169.95,66.43,169.94,67.07,169.91,67.71z M173.84,75.3c-0.1-0.56-0.22-1.13-0.38-1.71c-0.16-0.58-0.34-1.11-0.56-1.6
		s-0.44-0.82-0.68-0.99c-0.38,0.19-0.81,0.33-1.28,0.41s-0.92,0.07-1.35-0.05c-0.05,0.55-0.08,1.1-0.11,1.66
		c-0.02,0.55-0.04,1.09-0.04,1.62c0,0.77,0.04,1.64,0.13,2.63c0.08,0.98,0.13,1.87,0.13,2.66c0,0.41-0.01,0.79-0.04,1.15
		c-0.02,0.36-0.07,0.73-0.14,1.12c0.17,0,0.34,0.01,0.52,0.04c0.18,0.02,0.34,0.04,0.49,0.04c0.24,0,0.46-0.02,0.65-0.07
		c0.19-0.05,0.38-0.14,0.58-0.29c0.19-0.14,0.39-0.34,0.59-0.59s0.41-0.58,0.63-0.99c0.31-0.58,0.56-1.18,0.74-1.8
		c0.18-0.62,0.27-1.26,0.27-1.91C173.98,76.3,173.93,75.87,173.84,75.3z"/>
	<path class="st0" d="M186.11,58.55c0.24,0,0.43,0.09,0.58,0.27c0.14,0.18,0.25,0.41,0.32,0.68c0.07,0.28,0.12,0.58,0.14,0.92
		c0.02,0.34,0.04,0.67,0.04,1.01v3.31c0,1.15,0.01,2.17,0.02,3.04c0.01,0.88,0.02,1.7,0.04,2.47l0.04,2.25
		c0.01,0.73,0.02,1.53,0.02,2.39c0,0.7-0.01,1.41-0.02,2.14s-0.03,1.47-0.05,2.21c0,0.48-0.04,1-0.13,1.57s-0.24,1.09-0.47,1.58
		c-0.23,0.49-0.55,0.9-0.95,1.22c-0.41,0.32-0.94,0.49-1.58,0.49c-0.72,0-1.28-0.02-1.69-0.07c-0.41-0.05-0.74-0.16-1.01-0.32
		c-0.26-0.17-0.51-0.42-0.74-0.76c-0.23-0.34-0.52-0.8-0.88-1.4c-0.17-0.26-0.31-0.63-0.41-1.1c-0.11-0.47-0.19-0.97-0.25-1.49
		c-0.06-0.53-0.11-1.05-0.14-1.57l-0.09-1.31c0-0.94-0.02-1.95-0.07-3.04s-0.07-2.14-0.07-3.15v-3.11c0-1.02,0.02-2.06,0.07-3.11
		l0.11-4.5c0.14-0.5,0.41-0.76,0.79-0.76c0.19,0,0.37,0.07,0.54,0.2c0.17,0.13,0.3,0.33,0.4,0.59l-0.11,4.43
		c-0.07,1.7-0.11,3.4-0.11,5.08v1.15c0,0.94,0.01,1.87,0.04,2.81c0.02,0.94,0.06,1.86,0.11,2.77c0,0.7,0.01,1.43,0.04,2.21
		c0.02,0.78,0.13,1.51,0.32,2.18c0.19,0.67,0.49,1.25,0.88,1.73c0.4,0.48,0.98,0.77,1.75,0.86c0.43,0.05,0.78-0.03,1.04-0.23
		c0.26-0.2,0.46-0.49,0.59-0.85c0.13-0.36,0.22-0.76,0.27-1.19s0.07-0.86,0.07-1.3c0-0.55-0.01-1.13-0.04-1.75
		c-0.02-0.61-0.04-1.45-0.04-2.5c0-1.37,0.01-2.78,0.04-4.23c0.02-1.45,0.04-2.92,0.04-4.41V63.7c0-0.55-0.01-1.15-0.04-1.8
		c-0.02-0.65-0.08-1.51-0.18-2.59C185.47,58.8,185.73,58.55,186.11,58.55z"/>
	<path class="st0" d="M190.42,59.72c-0.13-0.16-0.2-0.33-0.2-0.52c0-0.36,0.25-0.65,0.74-0.88s1.24-0.34,2.25-0.34
		c0.89,0.12,1.65,0.39,2.29,0.81s1.16,0.94,1.57,1.55c0.41,0.61,0.71,1.31,0.9,2.09c0.19,0.78,0.29,1.58,0.29,2.39
		c0,0.89-0.07,1.77-0.2,2.65s-0.51,1.69-1.13,2.43c0.36,0.34,0.67,0.79,0.94,1.37c0.26,0.58,0.48,1.19,0.65,1.85s0.29,1.33,0.36,2
		c0.07,0.67,0.11,1.26,0.11,1.76c0,1.22-0.23,2.44-0.7,3.64c-0.47,1.2-1.23,2.18-2.29,2.95c-0.22,0.14-0.62,0.28-1.21,0.4
		c-0.59,0.12-1.17,0.18-1.75,0.18c-0.65,0-1.21-0.1-1.69-0.29s-0.72-0.53-0.72-1.01c0-0.14,0.08-0.34,0.23-0.58
		c0.16-0.24,0.31-0.41,0.45-0.5c0.1-0.55,0.14-1.16,0.14-1.84c0-0.77-0.05-1.62-0.14-2.57s-0.14-1.81-0.14-2.57
		c0-1.54,0.07-3.05,0.2-4.55c0.13-1.5,0.2-3.03,0.2-4.59c0-0.79-0.08-1.64-0.23-2.54c-0.16-0.9-0.23-1.89-0.23-2.97
		C190.77,59.97,190.55,59.87,190.42,59.72z M193.31,67.71c-0.02,0.63-0.06,1.25-0.11,1.85c0.24,0.12,0.4,0.18,0.47,0.18
		c0.36,0,0.71-0.09,1.06-0.27c0.35-0.18,0.66-0.47,0.94-0.88c0.28-0.41,0.5-0.93,0.67-1.57s0.25-1.42,0.25-2.36
		c0-1.66-0.32-2.88-0.97-3.67c-0.65-0.79-1.37-1.19-2.16-1.19h-0.32c-0.12,0-0.24,0.01-0.36,0.04c0.05,0.91,0.16,1.86,0.32,2.84
		c0.17,0.98,0.25,2.02,0.25,3.1C193.35,66.43,193.34,67.07,193.31,67.71z M197.24,75.3c-0.1-0.56-0.22-1.13-0.38-1.71
		s-0.34-1.11-0.56-1.6c-0.22-0.49-0.44-0.82-0.68-0.99c-0.38,0.19-0.81,0.33-1.28,0.41s-0.92,0.07-1.35-0.05
		c-0.05,0.55-0.08,1.1-0.11,1.66s-0.04,1.09-0.04,1.62c0,0.77,0.04,1.64,0.13,2.63c0.08,0.98,0.13,1.87,0.13,2.66
		c0,0.41-0.01,0.79-0.04,1.15c-0.02,0.36-0.07,0.73-0.14,1.12c0.17,0,0.34,0.01,0.52,0.04c0.18,0.02,0.34,0.04,0.49,0.04
		c0.24,0,0.46-0.02,0.65-0.07c0.19-0.05,0.38-0.14,0.58-0.29c0.19-0.14,0.39-0.34,0.59-0.59s0.41-0.58,0.63-0.99
		c0.31-0.58,0.56-1.18,0.74-1.8c0.18-0.62,0.27-1.26,0.27-1.91C197.38,76.3,197.33,75.87,197.24,75.3z"/>
	<path class="st0" d="M201.97,59.72c-0.13-0.16-0.2-0.33-0.2-0.52c0-0.36,0.25-0.65,0.74-0.88c0.49-0.23,1.24-0.34,2.25-0.34
		c0.89,0.12,1.65,0.39,2.29,0.81s1.16,0.94,1.57,1.55s0.71,1.31,0.9,2.09c0.19,0.78,0.29,1.58,0.29,2.39c0,0.89-0.07,1.77-0.2,2.65
		s-0.51,1.69-1.13,2.43c0.36,0.34,0.67,0.79,0.94,1.37s0.48,1.19,0.65,1.85s0.29,1.33,0.36,2s0.11,1.26,0.11,1.76
		c0,1.22-0.23,2.44-0.7,3.64s-1.23,2.18-2.29,2.95c-0.22,0.14-0.62,0.28-1.21,0.4c-0.59,0.12-1.17,0.18-1.75,0.18
		c-0.65,0-1.21-0.1-1.69-0.29c-0.48-0.19-0.72-0.53-0.72-1.01c0-0.14,0.08-0.34,0.23-0.58s0.31-0.41,0.45-0.5
		c0.1-0.55,0.14-1.16,0.14-1.84c0-0.77-0.05-1.62-0.14-2.57c-0.1-0.95-0.14-1.81-0.14-2.57c0-1.54,0.07-3.05,0.2-4.55
		c0.13-1.5,0.2-3.03,0.2-4.59c0-0.79-0.08-1.64-0.23-2.54c-0.16-0.9-0.23-1.89-0.23-2.97C202.33,59.97,202.1,59.87,201.97,59.72z
		 M204.87,67.71c-0.02,0.63-0.06,1.25-0.11,1.85c0.24,0.12,0.4,0.18,0.47,0.18c0.36,0,0.71-0.09,1.06-0.27
		c0.35-0.18,0.66-0.47,0.94-0.88s0.5-0.93,0.67-1.57s0.25-1.42,0.25-2.36c0-1.66-0.32-2.88-0.97-3.67
		c-0.65-0.79-1.37-1.19-2.16-1.19h-0.32c-0.12,0-0.24,0.01-0.36,0.04c0.05,0.91,0.16,1.86,0.32,2.84c0.17,0.98,0.25,2.02,0.25,3.1
		C204.91,66.43,204.89,67.07,204.87,67.71z M208.79,75.3c-0.1-0.56-0.22-1.13-0.38-1.71c-0.16-0.58-0.34-1.11-0.56-1.6
		s-0.44-0.82-0.68-0.99c-0.38,0.19-0.81,0.33-1.28,0.41s-0.92,0.07-1.35-0.05c-0.05,0.55-0.08,1.1-0.11,1.66
		c-0.02,0.55-0.04,1.09-0.04,1.62c0,0.77,0.04,1.64,0.13,2.63c0.08,0.98,0.13,1.87,0.13,2.66c0,0.41-0.01,0.79-0.04,1.15
		c-0.02,0.36-0.07,0.73-0.14,1.12c0.17,0,0.34,0.01,0.52,0.04c0.18,0.02,0.34,0.04,0.49,0.04c0.24,0,0.46-0.02,0.65-0.07
		c0.19-0.05,0.38-0.14,0.58-0.29c0.19-0.14,0.39-0.34,0.59-0.59s0.41-0.58,0.63-0.99c0.31-0.58,0.56-1.18,0.74-1.8
		c0.18-0.62,0.27-1.26,0.27-1.91C208.94,76.3,208.89,75.87,208.79,75.3z"/>
	<path class="st0" d="M215.13,58.04c0.41,0,0.71,0.26,0.9,0.79c0.05,3.86,0.13,7.71,0.23,11.55c0.11,3.84,0.19,7.63,0.23,11.37
		c0.12-0.02,0.22-0.04,0.29-0.05s0.16-0.02,0.25-0.02c0.17,0,0.35,0.04,0.54,0.11c0.19,0.07,0.4,0.16,0.61,0.25
		c0.22,0.1,0.43,0.18,0.63,0.25c0.2,0.07,0.4,0.11,0.59,0.11c0.07,0,0.14-0.02,0.2-0.05c0.06-0.04,0.14-0.14,0.23-0.31
		c-0.26-0.24-0.44-0.43-0.52-0.56c-0.08-0.13-0.13-0.26-0.13-0.38c0-0.19,0.08-0.37,0.25-0.54s0.4-0.26,0.68-0.29
		c0.46,0.07,0.8,0.26,1.03,0.56c0.23,0.3,0.34,0.65,0.34,1.06c0,0.74-0.2,1.3-0.61,1.66c-0.41,0.36-0.84,0.54-1.3,0.54
		c-0.48,0-0.91-0.11-1.28-0.32c-0.37-0.22-0.69-0.32-0.95-0.32c-0.34,0-0.64,0.09-0.9,0.27s-0.53,0.29-0.79,0.34
		c-0.31,0.05-0.56-0.06-0.76-0.32c-0.19-0.26-0.24-0.55-0.14-0.86c0-3.94-0.06-7.93-0.18-11.99c-0.12-4.06-0.2-8.09-0.25-12.1
		C214.48,58.29,214.75,58.04,215.13,58.04z"/>
	<path class="st0" d="M223.84,71.85c0.02-3.92,0.04-8.04,0.04-12.36c-0.17-0.14-0.25-0.34-0.25-0.58c0-0.19,0.07-0.38,0.22-0.56
		c0.14-0.18,0.35-0.29,0.61-0.34h1.3c0.26,0,0.51-0.01,0.74-0.02c0.23-0.01,0.47-0.02,0.74-0.02c0.31,0,0.68,0.01,1.1,0.02
		c0.42,0.01,0.82,0.05,1.21,0.11c0.38,0.06,0.7,0.17,0.95,0.32s0.38,0.38,0.38,0.67c0,0.12-0.07,0.3-0.2,0.54s-0.34,0.36-0.63,0.36
		c-0.67,0-1.37-0.04-2.11-0.11c-0.73-0.07-1.52-0.12-2.36-0.14c0,0.82-0.01,1.63-0.02,2.45c-0.01,0.82-0.02,1.62-0.02,2.41v4.86
		c0.41-0.02,0.87-0.04,1.39-0.04h2.03c0.29,0.05,0.52,0.15,0.68,0.31c0.17,0.16,0.25,0.33,0.25,0.52c0,0.22-0.09,0.42-0.27,0.61
		c-0.18,0.19-0.52,0.29-1.03,0.29c-0.53,0-1.03-0.01-1.51-0.04c-0.48-0.02-1-0.04-1.55-0.04c-0.02,1.8-0.04,3.66-0.04,5.58v5.69
		c0.34,0,0.81-0.04,1.42-0.11c0.61-0.07,1.19-0.11,1.75-0.11c0.7,0,1.28,0.07,1.76,0.2c0.48,0.13,0.72,0.43,0.72,0.88
		c0,0.24-0.08,0.44-0.25,0.59c-0.17,0.16-0.36,0.23-0.58,0.23c-0.19,0-0.44-0.03-0.74-0.09s-0.62-0.09-0.95-0.09
		c-0.58,0-1.15,0.03-1.71,0.09c-0.56,0.06-1.13,0.09-1.71,0.09c-0.14,0.14-0.26,0.23-0.34,0.25s-0.15,0.04-0.2,0.04
		c-0.17,0-0.34-0.06-0.5-0.18c-0.17-0.12-0.29-0.34-0.36-0.65C223.81,79.65,223.82,75.77,223.84,71.85z"/>
	<path class="st0" d="M236.53,75.52c-0.13-0.16-0.2-0.33-0.2-0.52c0-0.19,0.07-0.38,0.22-0.56c0.14-0.18,0.36-0.29,0.65-0.34h3.28
		c0.19,0,0.37,0.06,0.54,0.18s0.3,0.29,0.4,0.5c0.05,2.04,0.08,3.62,0.11,4.75c0.02,1.13,0.05,1.96,0.07,2.5
		c0.02,0.54,0.04,0.87,0.04,0.99v0.25c0,0.05-0.01,0.14-0.04,0.27c-0.02,0.13-0.07,0.27-0.14,0.41c-0.07,0.14-0.18,0.27-0.32,0.38
		c-0.14,0.11-0.32,0.16-0.54,0.16c-0.34,0-0.57-0.12-0.7-0.36s-0.15-0.5-0.05-0.79c-0.22,0.26-0.5,0.47-0.86,0.61
		c-0.36,0.14-0.71,0.21-1.04,0.21c-0.67,0-1.27-0.24-1.8-0.72c-0.53-0.48-0.97-1.06-1.33-1.75c-0.36-0.68-0.64-1.39-0.83-2.12
		c-0.19-0.73-0.3-1.36-0.32-1.89c-0.05-0.55-0.07-1.09-0.07-1.62v-1.62c0-0.55,0.01-1.14,0.02-1.76c0.01-0.62,0.02-1.48,0.02-2.55
		c0.05-0.67,0.08-1.38,0.09-2.12c0.01-0.74,0.04-1.49,0.07-2.23c0.04-0.74,0.11-1.48,0.22-2.21c0.11-0.73,0.27-1.45,0.49-2.14
		c0.12-0.38,0.31-0.77,0.58-1.17c0.26-0.4,0.57-0.76,0.92-1.08c0.35-0.32,0.73-0.59,1.13-0.79c0.41-0.2,0.83-0.3,1.26-0.3
		c0.58,0,1.06,0.16,1.44,0.49c0.38,0.32,0.7,0.74,0.95,1.24s0.45,1.05,0.59,1.64c0.14,0.59,0.25,1.15,0.32,1.67l0.18,1.22
		c-0.02,0.29-0.12,0.51-0.29,0.67c-0.17,0.16-0.36,0.23-0.58,0.23c-0.34,0-0.61-0.19-0.83-0.58l-0.22-1.37
		c-0.05-0.31-0.11-0.67-0.18-1.08s-0.17-0.79-0.31-1.15c-0.13-0.36-0.29-0.67-0.49-0.92c-0.19-0.25-0.43-0.38-0.72-0.38
		s-0.58,0.12-0.86,0.36s-0.54,0.52-0.76,0.85c-0.22,0.32-0.4,0.67-0.56,1.03s-0.25,0.66-0.27,0.9c-0.22,1.34-0.37,2.83-0.47,4.46
		c-0.1,1.63-0.14,3.16-0.14,4.57c0,0.96,0.02,1.91,0.05,2.84s0.08,1.87,0.13,2.81c0.05,0.84,0.22,1.6,0.5,2.27s0.54,1.19,0.76,1.55
		c0.14,0.24,0.33,0.49,0.56,0.76c0.23,0.26,0.46,0.4,0.7,0.4c0.17,0,0.33-0.07,0.49-0.2s0.3-0.29,0.43-0.47s0.23-0.38,0.31-0.59
		c0.07-0.22,0.13-0.41,0.18-0.58c0.07-0.34,0.11-0.68,0.13-1.03c0.01-0.35,0.02-0.68,0.04-0.99c0.01-0.31,0.04-0.6,0.07-0.86
		c0.04-0.26,0.11-0.47,0.23-0.61c0-0.26-0.01-0.49-0.02-0.68c-0.01-0.19-0.02-0.43-0.02-0.72h-2.59
		C236.86,75.78,236.66,75.68,236.53,75.52z"/>
	<path class="st0" d="M252.25,58.55c0.24,0,0.43,0.09,0.58,0.27c0.14,0.18,0.25,0.41,0.32,0.68c0.07,0.28,0.12,0.58,0.14,0.92
		c0.02,0.34,0.04,0.67,0.04,1.01v3.31c0,1.15,0.01,2.17,0.02,3.04s0.02,1.7,0.04,2.47l0.04,2.25c0.01,0.73,0.02,1.53,0.02,2.39
		c0,0.7-0.01,1.41-0.02,2.14c-0.01,0.73-0.03,1.47-0.05,2.21c0,0.48-0.04,1-0.13,1.57s-0.24,1.09-0.47,1.58
		c-0.23,0.49-0.55,0.9-0.95,1.22c-0.41,0.32-0.94,0.49-1.58,0.49c-0.72,0-1.28-0.02-1.69-0.07s-0.74-0.16-1.01-0.32
		c-0.26-0.17-0.51-0.42-0.74-0.76c-0.23-0.34-0.52-0.8-0.88-1.4c-0.17-0.26-0.31-0.63-0.41-1.1c-0.11-0.47-0.19-0.97-0.25-1.49
		c-0.06-0.53-0.11-1.05-0.14-1.57l-0.09-1.31c0-0.94-0.02-1.95-0.07-3.04s-0.07-2.14-0.07-3.15v-3.11c0-1.02,0.02-2.06,0.07-3.11
		l0.11-4.5c0.14-0.5,0.41-0.76,0.79-0.76c0.19,0,0.37,0.07,0.54,0.2c0.17,0.13,0.3,0.33,0.4,0.59l-0.11,4.43
		c-0.07,1.7-0.11,3.4-0.11,5.08v1.15c0,0.94,0.01,1.87,0.04,2.81c0.02,0.94,0.06,1.86,0.11,2.77c0,0.7,0.01,1.43,0.04,2.21
		c0.02,0.78,0.13,1.51,0.32,2.18c0.19,0.67,0.49,1.25,0.88,1.73c0.4,0.48,0.98,0.77,1.75,0.86c0.43,0.05,0.78-0.03,1.04-0.23
		c0.26-0.2,0.46-0.49,0.59-0.85c0.13-0.36,0.22-0.76,0.27-1.19s0.07-0.86,0.07-1.3c0-0.55-0.01-1.13-0.04-1.75
		c-0.02-0.61-0.04-1.45-0.04-2.5c0-1.37,0.01-2.78,0.04-4.23s0.04-2.92,0.04-4.41V63.7c0-0.55-0.01-1.15-0.04-1.8
		c-0.02-0.65-0.08-1.51-0.18-2.59C251.6,58.8,251.86,58.55,252.25,58.55z"/>
	<path class="st0" d="M265.56,83.56c-0.02-0.12-0.06-0.28-0.11-0.47c-0.07-0.41-0.12-0.92-0.14-1.53l-0.07-1.93
		c-0.02-0.67-0.04-1.34-0.05-2.02s-0.03-1.28-0.05-1.84l-0.11-2.12c-0.07-1.37-0.14-2.9-0.2-4.59c-0.06-1.69-0.23-3.56-0.52-5.6
		c-0.34,1.94-0.64,3.96-0.9,6.05c-0.26,2.09-0.42,4.04-0.47,5.87c0,0.38-0.09,0.67-0.27,0.85c-0.18,0.18-0.38,0.27-0.59,0.27
		c-0.19,0-0.37-0.06-0.52-0.18s-0.26-0.29-0.31-0.5c0-0.62-0.02-1.2-0.05-1.73c-0.04-0.53-0.08-1.07-0.13-1.62
		c-0.12-1.49-0.21-2.68-0.27-3.58c-0.06-0.9-0.12-1.69-0.18-2.36c-0.06-0.67-0.13-1.32-0.2-1.94s-0.18-1.4-0.32-2.34
		c-0.26,1.15-0.46,2.38-0.59,3.67c-0.13,1.3-0.23,2.61-0.29,3.94c-0.06,1.33-0.1,2.67-0.11,4.01c-0.01,1.34-0.02,2.64-0.02,3.89
		c0,0.29,0.01,0.58,0.02,0.86c0.01,0.29,0.02,0.62,0.04,0.99c0.01,0.37,0.02,0.81,0.04,1.31c0.01,0.5,0.02,1.13,0.02,1.87
		c0.12,0.26,0.11,0.58-0.04,0.94c-0.14,0.36-0.4,0.54-0.76,0.54c-0.41,0-0.68-0.22-0.83-0.65c-0.14-0.43-0.22-1-0.22-1.69v-1.98
		v-1.71c0-0.52,0.01-1.07,0.02-1.66c0.01-0.59,0.02-1.25,0.04-1.98c0.01-0.73,0.04-1.62,0.09-2.68c0-0.36,0.01-0.86,0.04-1.51
		c0.02-0.65,0.06-1.37,0.11-2.18c0.05-0.8,0.11-1.65,0.2-2.54c0.08-0.89,0.19-1.75,0.31-2.57s0.27-1.6,0.45-2.32
		c0.18-0.72,0.4-1.31,0.67-1.76c0.34-0.65,0.74-0.97,1.22-0.97c0.34,0,0.55,0.1,0.63,0.3c0.08,0.21,0.13,0.44,0.13,0.7
		c0.22,1.03,0.41,2.04,0.59,3.02c0.18,0.98,0.33,1.98,0.45,2.99c0.14-0.98,0.31-1.96,0.49-2.92c0.18-0.96,0.44-1.9,0.77-2.81
		c0.1-0.22,0.19-0.44,0.27-0.68s0.22-0.41,0.41-0.5c0.24-0.12,0.49-0.09,0.74,0.09s0.39,0.5,0.41,0.95
		c0.12,0.36,0.23,0.77,0.32,1.24c0.1,0.47,0.17,0.96,0.23,1.48l0.18,1.57c0.06,0.53,0.11,1.04,0.16,1.55l0.11,1.08
		c0.02,0.38,0.06,0.88,0.11,1.49c0.05,0.61,0.09,1.29,0.13,2.05s0.08,1.56,0.13,2.41l0.14,2.57c0.07,1.44,0.11,2.83,0.13,4.16
		c0.01,1.33,0.03,2.72,0.05,4.16c0.12,0.24,0.14,0.52,0.07,0.83c-0.07,0.31-0.29,0.47-0.65,0.47c-0.26,0-0.52-0.12-0.76-0.36
		C265.65,83.8,265.59,83.68,265.56,83.56z"/>
</g>
<g>
	<path class="st87" d="M71.88,364.91c-0.1-0.12-0.15-0.26-0.15-0.41c0-0.15,0.06-0.29,0.17-0.43c0.11-0.14,0.28-0.23,0.5-0.27
		c0.15,0,0.3,0,0.45,0.01s0.32,0,0.5-0.01c-0.02-1.98-0.03-3.97-0.04-5.98s-0.03-3.99-0.07-5.95l-0.11-5.66h-0.78
		c-0.21-0.04-0.36-0.12-0.46-0.24c-0.1-0.12-0.15-0.26-0.15-0.41s0.06-0.29,0.17-0.43c0.11-0.14,0.28-0.23,0.5-0.27h3.05
		c0.21,0.08,0.36,0.18,0.46,0.31c0.1,0.13,0.15,0.27,0.15,0.42c0,0.3-0.2,0.5-0.59,0.62h-1.04l0.11,5.66
		c0.04,1.92,0.07,3.9,0.1,5.92c0.03,2.02,0.04,4.01,0.04,5.95c0.15-0.02,0.3-0.03,0.46-0.03h0.46c0.41,0.15,0.62,0.38,0.62,0.7
		c0,0.3-0.2,0.5-0.59,0.62c-0.58,0-1.13,0.02-1.65,0.06c-0.52,0.04-1.05,0.06-1.6,0.06h-0.06
		C72.13,365.11,71.98,365.03,71.88,364.91z"/>
	<path class="st87" d="M77.99,345.26c0.15-0.11,0.34-0.13,0.56-0.05c0.35-0.02,0.7-0.02,1.04-0.01c0.34,0.01,0.71,0.01,1.12,0.01
		c0.26,0,0.53-0.01,0.8-0.03c0.27-0.02,0.56-0.03,0.85-0.03c0.21,0,0.36,0.07,0.48,0.21c0.11,0.14,0.17,0.29,0.17,0.46
		c0,0.22-0.07,0.39-0.22,0.5c-0.19,0.15-0.45,0.23-0.78,0.25c-0.34,0.02-0.66,0.03-0.98,0.03s-0.62-0.02-0.9-0.07
		c-0.28-0.05-0.66-0.07-1.15-0.07c-0.02,0.26-0.03,0.52-0.03,0.77v0.8c0,0.99,0.03,1.97,0.08,2.95c0.06,0.98,0.08,1.96,0.08,2.95
		c0.21-0.02,0.42-0.03,0.63-0.03h0.63c0.49,0,0.86,0.04,1.13,0.11c0.27,0.08,0.41,0.27,0.41,0.59c0,0.26-0.12,0.43-0.35,0.52
		s-0.6,0.12-1.11,0.12h-0.94c-0.16,0-0.29,0.01-0.41,0.03v0.73c0,0.73-0.01,1.42-0.03,2.07c-0.02,0.65-0.03,1.31-0.04,1.97
		c-0.01,0.66-0.02,1.35-0.04,2.06c-0.02,0.71-0.03,1.48-0.03,2.32c0,0.09-0.07,0.21-0.22,0.36c-0.15,0.15-0.31,0.22-0.48,0.22
		c-0.15,0-0.29-0.07-0.42-0.21c-0.13-0.14-0.2-0.26-0.2-0.35c0-1.29,0.03-2.56,0.08-3.82s0.08-2.53,0.08-3.82
		c0-1.64-0.03-3.13-0.1-4.45c-0.07-1.33-0.1-2.61-0.1-3.87c0-0.45,0-0.9,0.01-1.37s0.03-0.92,0.07-1.37
		C77.75,345.54,77.84,345.38,77.99,345.26z"/>
	<path class="st87" d="M93.87,344.79c0.32,0,0.55,0.21,0.7,0.62c0,0.78-0.06,1.59-0.18,2.42c-0.12,0.83-0.27,1.66-0.45,2.49
		s-0.39,1.65-0.63,2.46l-0.73,2.34c-0.04,0.13-0.08,0.26-0.14,0.38c-0.06,0.12-0.14,0.29-0.25,0.49c0,0.21-0.02,0.39-0.06,0.55
		c-0.04,0.16-0.06,0.33-0.06,0.52c0,0.99,0.04,1.97,0.11,2.95c0.07,0.98,0.11,2.02,0.11,3.12v0.69c0,0.25-0.02,0.49-0.06,0.7
		c-0.04,0.21-0.11,0.4-0.21,0.55c-0.1,0.15-0.27,0.22-0.49,0.22c-0.21,0-0.36-0.08-0.48-0.25c-0.11-0.17-0.17-0.36-0.17-0.59
		c0-0.28,0.02-0.51,0.06-0.7s0.06-0.38,0.06-0.59c0-0.3-0.01-0.57-0.03-0.83c-0.02-0.25-0.04-0.54-0.06-0.85l-0.06-0.92
		c0-0.54-0.02-1.14-0.06-1.79c-0.04-0.65-0.06-1.3-0.06-1.93v-0.64c-0.26-0.35-0.49-0.81-0.7-1.37c-0.21-0.56-0.39-1.18-0.56-1.85
		s-0.31-1.37-0.43-2.09c-0.12-0.72-0.23-1.42-0.32-2.1s-0.17-1.32-0.22-1.9c-0.06-0.59-0.09-1.08-0.11-1.47
		c0.11-0.39,0.32-0.59,0.62-0.59c0.32,0,0.55,0.2,0.7,0.59c0.04,0.47,0.09,1.1,0.17,1.89c0.07,0.79,0.18,1.64,0.31,2.53
		c0.13,0.9,0.29,1.77,0.48,2.63c0.19,0.86,0.41,1.58,0.67,2.16c0.43-1.46,0.85-2.97,1.26-4.54s0.63-3.14,0.64-4.7
		C93.36,344.98,93.57,344.79,93.87,344.79z"/>
	<path class="st87" d="M97.89,345.42c0.31-0.21,0.69-0.4,1.13-0.55c0.22,0.02,0.46,0.05,0.7,0.1c0.24,0.05,0.46,0.12,0.64,0.21
		c0.28,0.15,0.54,0.45,0.78,0.9c0.24,0.45,0.45,0.94,0.63,1.47c0.18,0.53,0.32,1.05,0.42,1.55c0.1,0.5,0.15,0.89,0.15,1.15
		c0,0.5,0.04,1.11,0.11,1.81c0.07,0.7,0.11,1.35,0.11,1.95v1.41c0,0.51-0.01,1.04-0.04,1.6c-0.03,0.55-0.07,1.1-0.13,1.65
		c-0.06,0.55-0.14,1.07-0.25,1.55c0,0.41-0.05,0.9-0.15,1.47c-0.1,0.57-0.27,1.12-0.49,1.64c-0.22,0.52-0.52,0.97-0.9,1.33
		c-0.37,0.36-0.83,0.55-1.37,0.55c-0.43,0-0.79-0.12-1.08-0.36c-0.29-0.24-0.54-0.55-0.76-0.91c-0.21-0.36-0.39-0.76-0.52-1.18
		l-0.36-1.19c-0.17-0.56-0.29-1.06-0.38-1.5c-0.08-0.44-0.15-0.87-0.21-1.3c-0.09-0.56-0.15-1.19-0.17-1.9
		c-0.02-0.71-0.03-1.41-0.03-2.1v-0.98c0-0.9,0.05-1.82,0.14-2.77c0.09-0.95,0.28-1.87,0.56-2.74c0.04-0.06,0.09-0.18,0.17-0.36
		c0.07-0.19,0.15-0.4,0.24-0.64l0.25-0.71c0.08-0.23,0.16-0.42,0.24-0.57C97.4,345.81,97.58,345.63,97.89,345.42z M100.88,349.28
		c-0.05-0.46-0.13-0.92-0.25-1.37c-0.12-0.46-0.29-0.85-0.52-1.19c-0.22-0.34-0.53-0.5-0.92-0.5c-0.34,0.06-0.61,0.22-0.81,0.49
		s-0.38,0.6-0.52,0.99s-0.25,0.82-0.34,1.27l-0.24,1.33c-0.09,0.5-0.17,1.06-0.24,1.67c-0.07,0.61-0.09,1.18-0.07,1.72
		c0,0.6,0.04,1.19,0.11,1.78s0.11,1.22,0.11,1.89c0,0.26,0.01,0.5,0.03,0.71s0.05,0.45,0.1,0.7c0.05,0.25,0.1,0.55,0.15,0.9
		s0.13,0.77,0.22,1.27c0.07,0.26,0.17,0.55,0.29,0.87c0.12,0.32,0.26,0.62,0.41,0.92c0.15,0.3,0.32,0.55,0.52,0.74
		c0.2,0.2,0.42,0.29,0.66,0.29c0.19,0,0.35-0.13,0.49-0.39c0.14-0.26,0.26-0.57,0.35-0.92s0.16-0.71,0.21-1.08
		c0.05-0.37,0.09-0.64,0.13-0.83c0.09-0.6,0.16-1.07,0.2-1.41c0.04-0.35,0.07-0.67,0.11-0.97c0-0.65,0.03-1.33,0.1-2.04
		c0.07-0.71,0.1-1.41,0.1-2.1c0-0.5-0.02-1.1-0.07-1.78s-0.11-1.32-0.18-1.92C100.97,350.09,100.93,349.74,100.88,349.28z"/>
	<path class="st87" d="M110.22,345.21c0.19,0,0.34,0.07,0.45,0.21c0.11,0.14,0.2,0.32,0.25,0.53c0.06,0.21,0.09,0.45,0.11,0.71
		s0.03,0.52,0.03,0.78v2.58c0,0.9,0,1.68,0.01,2.37s0.02,1.32,0.03,1.92l0.03,1.75c0.01,0.57,0.01,1.19,0.01,1.86
		c0,0.54,0,1.1-0.01,1.67c-0.01,0.57-0.02,1.14-0.04,1.72c0,0.37-0.03,0.78-0.1,1.22s-0.19,0.85-0.36,1.23
		c-0.18,0.38-0.42,0.7-0.74,0.95c-0.32,0.25-0.73,0.38-1.23,0.38c-0.56,0-1-0.02-1.32-0.06s-0.58-0.12-0.78-0.25
		c-0.21-0.13-0.4-0.33-0.57-0.59c-0.18-0.26-0.41-0.63-0.69-1.09c-0.13-0.21-0.24-0.49-0.32-0.85c-0.08-0.36-0.15-0.75-0.2-1.16
		c-0.05-0.41-0.08-0.82-0.11-1.22l-0.07-1.02c0-0.73-0.02-1.52-0.06-2.37c-0.04-0.85-0.06-1.67-0.06-2.45v-2.42
		c0-0.79,0.02-1.6,0.06-2.42l0.08-3.5c0.11-0.39,0.32-0.59,0.62-0.59c0.15,0,0.29,0.05,0.42,0.15c0.13,0.1,0.23,0.26,0.31,0.46
		l-0.08,3.44c-0.06,1.33-0.08,2.64-0.08,3.95v0.9c0,0.73,0.01,1.46,0.03,2.18c0.02,0.73,0.05,1.45,0.08,2.16
		c0,0.54,0.01,1.12,0.03,1.72c0.02,0.61,0.1,1.17,0.25,1.69c0.15,0.52,0.38,0.97,0.69,1.34c0.31,0.37,0.76,0.6,1.36,0.67
		c0.34,0.04,0.61-0.02,0.81-0.18c0.21-0.16,0.36-0.38,0.46-0.66c0.1-0.28,0.17-0.59,0.21-0.92s0.06-0.67,0.06-1.01
		c0-0.43-0.01-0.88-0.03-1.36c-0.02-0.48-0.03-1.12-0.03-1.95c0-1.06,0.01-2.16,0.03-3.29c0.02-1.13,0.03-2.27,0.03-3.43v-1.76
		c0-0.43-0.01-0.9-0.03-1.4c-0.02-0.5-0.06-1.18-0.14-2.02C109.72,345.4,109.92,345.21,110.22,345.21z"/>
	<path class="st87" d="M117.72,346.01c-0.11-0.12-0.17-0.26-0.17-0.41c0-0.15,0.06-0.29,0.17-0.43c0.11-0.14,0.28-0.23,0.5-0.27
		c0.69,0,1.32,0.05,1.88,0.15c0.56,0.1,1.05,0.28,1.48,0.54c0.43,0.26,0.79,0.62,1.09,1.06c0.3,0.45,0.54,1.02,0.73,1.71
		c0.19,0.63,0.35,1.3,0.49,2c0.14,0.7,0.26,1.39,0.36,2.07c0.1,0.68,0.18,1.34,0.24,1.99c0.06,0.64,0.08,1.24,0.08,1.78
		c0,0.52-0.03,1.02-0.08,1.5c-0.06,0.47-0.13,0.96-0.22,1.44c-0.19,0.84-0.37,1.57-0.55,2.18c-0.18,0.62-0.41,1.13-0.69,1.54
		c-0.21,0.35-0.5,0.68-0.88,0.96c-0.38,0.29-0.79,0.54-1.23,0.74c-0.44,0.21-0.88,0.36-1.32,0.48c-0.44,0.11-0.83,0.17-1.16,0.17
		c-0.3,0-0.5-0.09-0.62-0.27c-0.11-0.18-0.16-0.37-0.14-0.57c0.02-0.24,0.09-0.45,0.22-0.63c0.13-0.18,0.3-0.22,0.5-0.12
		c-0.04-0.26-0.06-0.52-0.06-0.77v-0.74c0-1.57,0.03-3.3,0.1-5.19s0.1-3.78,0.1-5.67v-2.38c0-0.43-0.01-0.85-0.04-1.27
		c-0.03-0.42-0.1-0.87-0.21-1.36C118.03,346.21,117.84,346.13,117.72,346.01z M120.94,363.14c0.34-0.21,0.58-0.4,0.73-0.55
		c0.04-0.04,0.14-0.18,0.31-0.42c0.17-0.24,0.33-0.57,0.48-0.98c0.07-0.22,0.14-0.46,0.21-0.7l0.18-0.7
		c0.06-0.22,0.1-0.42,0.14-0.59c0.04-0.17,0.06-0.27,0.06-0.31c0.09-0.41,0.15-0.82,0.18-1.22c0.03-0.4,0.04-0.82,0.04-1.25
		c0-1.32-0.11-2.65-0.32-3.99c-0.21-1.33-0.53-2.71-0.94-4.13c-0.19-0.65-0.48-1.12-0.87-1.39c-0.39-0.27-0.88-0.45-1.46-0.54
		c0.07,0.41,0.13,0.83,0.15,1.26s0.04,0.87,0.04,1.32v2.27c0,1.79-0.03,3.62-0.1,5.47c-0.06,1.86-0.1,3.67-0.1,5.45
		c0,0.11,0,0.22,0.01,0.34c0.01,0.11,0.01,0.22,0.01,0.34l0.17,0.87C120.25,363.54,120.61,363.36,120.94,363.14z"/>
	<path class="st87" d="M126.19,364.91c-0.1-0.12-0.15-0.26-0.15-0.41c0-0.15,0.06-0.29,0.17-0.43c0.11-0.14,0.28-0.23,0.5-0.27
		c0.15,0,0.3,0,0.45,0.01s0.32,0,0.5-0.01c-0.02-1.98-0.03-3.97-0.04-5.98s-0.03-3.99-0.07-5.95l-0.11-5.66h-0.78
		c-0.21-0.04-0.36-0.12-0.46-0.24c-0.1-0.12-0.15-0.26-0.15-0.41s0.06-0.29,0.17-0.43c0.11-0.14,0.28-0.23,0.5-0.27h3.05
		c0.21,0.08,0.36,0.18,0.46,0.31c0.1,0.13,0.15,0.27,0.15,0.42c0,0.3-0.2,0.5-0.59,0.62h-1.04l0.11,5.66
		c0.04,1.92,0.07,3.9,0.1,5.92c0.03,2.02,0.04,4.01,0.04,5.95c0.15-0.02,0.3-0.03,0.46-0.03h0.46c0.41,0.15,0.62,0.38,0.62,0.7
		c0,0.3-0.2,0.5-0.59,0.62c-0.58,0-1.13,0.02-1.65,0.06c-0.52,0.04-1.05,0.06-1.6,0.06h-0.06
		C126.45,365.11,126.3,365.03,126.19,364.91z"/>
	<path class="st87" d="M134.97,349.18c0-0.37,0.17-0.56,0.5-0.56c-0.06-0.73-0.21-1.3-0.46-1.72s-0.54-0.63-0.85-0.63
		c-0.26,0-0.5,0.08-0.71,0.22c-0.21,0.15-0.39,0.34-0.53,0.57c-0.14,0.23-0.25,0.49-0.32,0.77c-0.07,0.28-0.11,0.55-0.11,0.81
		c0,0.9,0.15,1.81,0.45,2.73c0.3,0.92,0.69,1.76,1.18,2.51c0.34,0.54,0.68,1.03,1.02,1.47c0.35,0.44,0.66,0.89,0.94,1.34
		c0.28,0.46,0.5,0.95,0.67,1.48c0.17,0.53,0.25,1.15,0.25,1.86c0,0.67-0.08,1.32-0.24,1.95s-0.37,1.18-0.63,1.65
		c-0.26,0.48-0.57,0.86-0.94,1.15c-0.36,0.29-0.75,0.43-1.16,0.43c-0.43,0-0.84-0.11-1.22-0.34c-0.38-0.22-0.72-0.52-1.01-0.88
		c-0.29-0.36-0.52-0.77-0.7-1.22s-0.27-0.9-0.27-1.34c0-0.08,0.01-0.19,0.03-0.34s0.05-0.3,0.1-0.46c0.05-0.16,0.1-0.3,0.17-0.42
		c0.06-0.12,0.15-0.18,0.27-0.18c0.17,0,0.35,0.1,0.53,0.31c0.19,0.21,0.28,0.4,0.28,0.59c0,0.08-0.01,0.15-0.04,0.22
		c-0.03,0.07-0.04,0.16-0.04,0.25c0,0.24,0.05,0.5,0.15,0.78c0.1,0.28,0.24,0.55,0.42,0.8s0.38,0.46,0.6,0.63
		c0.22,0.17,0.45,0.26,0.67,0.28c0.24,0,0.47-0.12,0.69-0.36c0.21-0.24,0.4-0.55,0.55-0.92c0.15-0.37,0.27-0.78,0.35-1.23
		c0.08-0.45,0.13-0.88,0.13-1.29c0-0.56-0.08-1.07-0.25-1.54s-0.38-0.92-0.63-1.34c-0.25-0.43-0.53-0.85-0.84-1.26l-0.91-1.26
		c-0.58-0.9-1.03-1.85-1.34-2.87s-0.48-2.05-0.48-3.09c0-0.52,0.08-1.02,0.24-1.48s0.37-0.88,0.63-1.25
		c0.26-0.36,0.56-0.65,0.88-0.87s0.67-0.32,1.02-0.32c0.63,0,1.23,0.34,1.79,1.01c0.3,0.37,0.55,0.83,0.74,1.36
		c0.2,0.53,0.29,1.1,0.29,1.7c0,0.34-0.12,0.63-0.36,0.9c-0.24,0.26-0.5,0.39-0.76,0.39c-0.35,0-0.59-0.25-0.7-0.76
		C134.98,349.35,134.97,349.28,134.97,349.18z"/>
	<path class="st87" d="M145.71,350.26c-0.12,0.12-0.27,0.18-0.43,0.18c-0.11,0-0.22-0.04-0.34-0.11c-0.11-0.07-0.21-0.2-0.31-0.36
		l-0.17-1.06c-0.04-0.24-0.09-0.52-0.15-0.84s-0.14-0.62-0.24-0.9c-0.09-0.28-0.21-0.52-0.36-0.71s-0.34-0.29-0.56-0.29
		c-0.22,0-0.45,0.09-0.67,0.28s-0.42,0.41-0.59,0.66s-0.31,0.52-0.43,0.8c-0.12,0.28-0.19,0.51-0.21,0.7
		c-0.17,1.05-0.29,2.2-0.36,3.47c-0.07,1.27-0.11,2.46-0.11,3.56c0,0.75,0.01,1.48,0.04,2.21c0.03,0.73,0.06,1.46,0.1,2.18
		c0.04,0.65,0.17,1.24,0.39,1.76c0.22,0.52,0.41,0.92,0.56,1.2c0.13,0.19,0.28,0.38,0.45,0.59s0.35,0.31,0.56,0.31
		c0.35,0,0.62-0.12,0.78-0.37c0.17-0.24,0.28-0.54,0.35-0.9c0.07-0.35,0.11-0.74,0.13-1.16c0.02-0.42,0.06-0.8,0.11-1.13
		c0.06-0.32,0.14-0.57,0.25-0.77c0.11-0.2,0.3-0.29,0.56-0.29c0.17,0,0.31,0.07,0.43,0.21c0.12,0.14,0.18,0.31,0.18,0.52
		c0,0.15-0.01,0.34-0.04,0.56c-0.03,0.22-0.06,0.38-0.1,0.48c-0.04,0.37-0.1,0.79-0.18,1.26c-0.08,0.47-0.22,0.92-0.41,1.34
		c-0.19,0.43-0.44,0.79-0.77,1.08c-0.33,0.29-0.75,0.43-1.27,0.43c-0.54,0-1.01-0.19-1.41-0.56c-0.4-0.37-0.74-0.83-1.02-1.36
		c-0.28-0.53-0.49-1.08-0.64-1.65c-0.15-0.57-0.23-1.06-0.25-1.47c-0.04-0.35-0.06-0.71-0.06-1.06v-1.09c0-0.56,0-1.14,0.01-1.75
		c0.01-0.61,0.01-1.26,0.01-1.97c0-1.06,0.02-2.19,0.07-3.39c0.05-1.19,0.24-2.32,0.57-3.39c0.09-0.3,0.24-0.6,0.45-0.91
		c0.21-0.31,0.45-0.59,0.73-0.84c0.28-0.25,0.58-0.46,0.9-0.62c0.32-0.16,0.64-0.24,0.98-0.24c0.43,0,0.8,0.13,1.11,0.38
		c0.31,0.25,0.56,0.57,0.76,0.97c0.2,0.39,0.35,0.82,0.46,1.27c0.11,0.46,0.2,0.89,0.25,1.3l0.11,0.98
		C145.9,349.97,145.83,350.14,145.71,350.26z"/>
	<path class="st87" d="M150.43,344.87c0.11,0,0.22,0.03,0.34,0.1c0.11,0.06,0.19,0.16,0.22,0.29c0.54,0.93,0.94,1.86,1.19,2.77
		s0.43,1.81,0.53,2.69s0.16,1.73,0.18,2.55c0.02,0.82,0.07,1.6,0.17,2.32v-0.03c0.04,0.21,0.06,0.43,0.08,0.69l0.06,0.74
		c0.13,1.16,0.24,2.16,0.32,3.01s0.13,1.68,0.13,2.48c0,0.26,0,0.56-0.01,0.9s-0.04,0.66-0.08,0.96c-0.05,0.31-0.13,0.57-0.24,0.77
		c-0.11,0.21-0.27,0.31-0.48,0.31c-0.3,0-0.51-0.12-0.64-0.38s-0.2-0.51-0.2-0.77c0-0.21,0.08-0.35,0.25-0.45
		c0.02-0.17,0.03-0.35,0.03-0.55v-0.57c0-0.67-0.03-1.35-0.1-2.04c-0.07-0.69-0.12-1.3-0.15-1.82l-0.06-0.59
		c-0.49,0-0.97,0.01-1.46,0.04c-0.49,0.03-0.97,0.04-1.46,0.04l-0.06,0.9c-0.02,0.19-0.03,0.38-0.04,0.59s-0.02,0.44-0.03,0.71
		c-0.01,0.27-0.01,0.59-0.01,0.97v1.34v1.68c0,0.13-0.06,0.27-0.18,0.42c-0.12,0.15-0.29,0.22-0.52,0.22
		c-0.28,0-0.49-0.16-0.64-0.48v-1.51c0-0.26,0-0.53-0.01-0.8c-0.01-0.27-0.01-0.55-0.01-0.83c0-0.77,0.03-1.5,0.1-2.2
		c0.06-0.7,0.12-1.4,0.15-2.09l0.08-1.34c0.06-0.95,0.14-1.94,0.27-2.97c0.12-1.03,0.26-2.01,0.41-2.94l0.08-0.48
		c0.13-0.75,0.28-1.48,0.46-2.2c0.18-0.72,0.42-1.43,0.74-2.14C150.01,344.98,150.2,344.87,150.43,344.87z M150.48,356.98
		c0.47-0.03,0.92-0.04,1.37-0.04l-0.14-1.32c0-0.15-0.01-0.34-0.03-0.56c-0.02-0.22-0.03-0.46-0.04-0.7s-0.02-0.49-0.04-0.73
		c-0.02-0.24-0.03-0.47-0.03-0.67v-0.62c0-0.88-0.08-1.8-0.24-2.76c-0.16-0.96-0.42-1.85-0.8-2.67c-0.15,0.41-0.26,0.77-0.32,1.08
		c-0.07,0.31-0.13,0.68-0.18,1.11c-0.09,1.12-0.23,2.27-0.42,3.46c-0.19,1.19-0.33,2.32-0.42,3.4l-0.08,1.06
		C149.56,357.02,150.02,357.01,150.48,356.98z"/>
	<path class="st87" d="M155.75,345.57c0-0.19,0.07-0.34,0.21-0.46c0.14-0.12,0.32-0.21,0.53-0.27c0.21-0.06,0.45-0.09,0.7-0.11
		s0.49-0.03,0.71-0.03c0.65,0,1.26,0.11,1.82,0.32s1.05,0.53,1.47,0.94c0.42,0.41,0.75,0.91,0.98,1.51s0.35,1.28,0.35,2.04
		c0,0.63-0.02,1.25-0.07,1.83c-0.05,0.59-0.13,1.12-0.25,1.6c-0.12,0.48-0.3,0.9-0.53,1.26c-0.23,0.36-0.54,0.64-0.91,0.83
		c0.3,0.37,0.53,0.86,0.69,1.46s0.28,1.21,0.35,1.83s0.12,1.22,0.14,1.79s0.03,1.01,0.03,1.33c0.02,0.37,0.06,0.76,0.11,1.15
		c0.06,0.39,0.17,0.71,0.34,0.95c0.24-0.15,0.46-0.22,0.64-0.22c0.21,0,0.38,0.08,0.53,0.25s0.22,0.44,0.22,0.81
		c0,0.24-0.09,0.43-0.28,0.56c-0.19,0.13-0.44,0.2-0.76,0.2c-0.49,0-0.87-0.15-1.15-0.45c-0.28-0.3-0.49-0.66-0.64-1.08
		s-0.24-0.86-0.28-1.32c-0.04-0.46-0.07-0.85-0.08-1.19c0-0.11-0.01-0.44-0.03-0.99c-0.02-0.55-0.06-1.15-0.14-1.79
		s-0.19-1.24-0.34-1.78c-0.15-0.54-0.35-0.85-0.59-0.92c-0.3,0.08-0.61,0.13-0.92,0.15s-0.63,0.04-0.95,0.04v8.48
		c0,0.19-0.06,0.35-0.18,0.49c-0.12,0.14-0.29,0.21-0.52,0.21c-0.17,0-0.31-0.07-0.42-0.21c-0.11-0.14-0.19-0.29-0.22-0.46
		l-0.06-18.14C155.92,346.08,155.75,345.87,155.75,345.57z M160.17,346.97c-0.67-0.63-1.51-0.95-2.52-0.95v8.48
		c0.78-0.02,1.4-0.13,1.86-0.34c0.46-0.21,0.81-0.51,1.06-0.91c0.25-0.4,0.42-0.9,0.49-1.51c0.07-0.61,0.11-1.32,0.11-2.14
		C161.18,348.48,160.84,347.61,160.17,346.97z"/>
	<path class="st87" d="M164.6,346.01c-0.11-0.12-0.17-0.26-0.17-0.41c0-0.15,0.06-0.29,0.17-0.43c0.11-0.14,0.28-0.23,0.5-0.27
		c0.69,0,1.32,0.05,1.88,0.15c0.56,0.1,1.05,0.28,1.48,0.54c0.43,0.26,0.79,0.62,1.09,1.06c0.3,0.45,0.54,1.02,0.73,1.71
		c0.19,0.63,0.35,1.3,0.49,2c0.14,0.7,0.26,1.39,0.36,2.07c0.1,0.68,0.18,1.34,0.24,1.99c0.06,0.64,0.08,1.24,0.08,1.78
		c0,0.52-0.03,1.02-0.08,1.5c-0.06,0.47-0.13,0.96-0.22,1.44c-0.19,0.84-0.37,1.57-0.55,2.18c-0.18,0.62-0.41,1.13-0.69,1.54
		c-0.21,0.35-0.5,0.68-0.88,0.96c-0.38,0.29-0.79,0.54-1.23,0.74c-0.44,0.21-0.88,0.36-1.32,0.48c-0.44,0.11-0.83,0.17-1.16,0.17
		c-0.3,0-0.5-0.09-0.62-0.27c-0.11-0.18-0.16-0.37-0.14-0.57c0.02-0.24,0.09-0.45,0.22-0.63c0.13-0.18,0.3-0.22,0.5-0.12
		c-0.04-0.26-0.06-0.52-0.06-0.77v-0.74c0-1.57,0.03-3.3,0.1-5.19s0.1-3.78,0.1-5.67v-2.38c0-0.43-0.01-0.85-0.04-1.27
		c-0.03-0.42-0.1-0.87-0.21-1.36C164.9,346.21,164.71,346.13,164.6,346.01z M167.82,363.14c0.34-0.21,0.58-0.4,0.73-0.55
		c0.04-0.04,0.14-0.18,0.31-0.42c0.17-0.24,0.33-0.57,0.48-0.98c0.07-0.22,0.14-0.46,0.21-0.7l0.18-0.7
		c0.06-0.22,0.1-0.42,0.14-0.59c0.04-0.17,0.06-0.27,0.06-0.31c0.09-0.41,0.15-0.82,0.18-1.22c0.03-0.4,0.04-0.82,0.04-1.25
		c0-1.32-0.11-2.65-0.32-3.99c-0.21-1.33-0.53-2.71-0.94-4.13c-0.19-0.65-0.48-1.12-0.87-1.39c-0.39-0.27-0.88-0.45-1.46-0.54
		c0.07,0.41,0.13,0.83,0.15,1.26s0.04,0.87,0.04,1.32v2.27c0,1.79-0.03,3.62-0.1,5.47c-0.06,1.86-0.1,3.67-0.1,5.45
		c0,0.11,0,0.22,0.01,0.34c0.01,0.11,0.01,0.22,0.01,0.34l0.17,0.87C167.12,363.54,167.48,363.36,167.82,363.14z"/>
	<path class="st87" d="M177.27,345.91c-0.1-0.11-0.15-0.24-0.15-0.39c0-0.15,0.06-0.29,0.17-0.43c0.11-0.14,0.28-0.23,0.5-0.27h5.57
		c0.21,0.07,0.36,0.18,0.46,0.31c0.1,0.13,0.15,0.27,0.15,0.42c0,0.13-0.05,0.25-0.14,0.36c-0.09,0.11-0.24,0.19-0.45,0.22h-2.18
		c0,2.97,0.01,6.01,0.03,9.14c0.02,3.13,0.03,6.19,0.03,9.2c-0.04,0.22-0.13,0.39-0.27,0.5c-0.14,0.11-0.28,0.17-0.43,0.17
		c-0.15,0-0.28-0.05-0.39-0.15c-0.11-0.1-0.19-0.26-0.22-0.46c0-3.06-0.01-6.16-0.03-9.28s-0.03-6.16-0.03-9.11h-2.16
		C177.52,346.09,177.37,346.02,177.27,345.91z"/>
	<path class="st87" d="M191,345.1c0.32,0,0.55,0.21,0.7,0.62c0,3,0.01,6.05,0.03,9.14s0.03,6.2,0.03,9.34
		c0,0.17-0.05,0.31-0.15,0.42s-0.23,0.21-0.38,0.28c-0.17-0.02-0.34-0.08-0.52-0.2s-0.27-0.27-0.27-0.48c0-1.57,0-3.12-0.01-4.66
		c-0.01-1.54-0.02-3.1-0.04-4.69c-0.6,0-1.2-0.01-1.81-0.03c-0.61-0.02-1.2-0.03-1.78-0.03c0,0.9,0,1.8-0.01,2.72
		s-0.02,1.8-0.04,2.66c-0.02,0.86-0.05,1.67-0.08,2.42c-0.04,0.76-0.08,1.41-0.14,1.97c-0.04,0.22-0.12,0.39-0.24,0.5
		c-0.12,0.11-0.26,0.17-0.41,0.17c-0.09,0-0.19-0.02-0.29-0.07c-0.1-0.05-0.19-0.11-0.27-0.18c-0.07-0.07-0.13-0.16-0.15-0.25
		c-0.03-0.09-0.02-0.2,0.01-0.31c0.13-1.34,0.22-2.72,0.27-4.13c0.05-1.41,0.07-2.81,0.07-4.21c0-1.75-0.02-3.53-0.06-5.33
		c-0.04-1.8-0.06-3.52-0.06-5.17c0.11-0.39,0.32-0.59,0.62-0.59c0.32,0,0.55,0.21,0.7,0.62c0,0.95,0.01,2.11,0.04,3.49
		c0.03,1.37,0.04,2.83,0.04,4.38c0.6,0,1.18,0.01,1.74,0.03s1.18,0.03,1.85,0.03v-7.87C190.5,345.29,190.7,345.1,191,345.1z"/>
	<path class="st87" d="M193.5,364.91c-0.1-0.12-0.15-0.26-0.15-0.41c0-0.15,0.06-0.29,0.17-0.43c0.11-0.14,0.28-0.23,0.5-0.27
		c0.15,0,0.3,0,0.45,0.01s0.32,0,0.5-0.01c-0.02-1.98-0.03-3.97-0.04-5.98s-0.03-3.99-0.07-5.95l-0.11-5.66h-0.78
		c-0.21-0.04-0.36-0.12-0.46-0.24c-0.1-0.12-0.15-0.26-0.15-0.41s0.06-0.29,0.17-0.43c0.11-0.14,0.28-0.23,0.5-0.27h3.05
		c0.21,0.08,0.36,0.18,0.46,0.31c0.1,0.13,0.15,0.27,0.15,0.42c0,0.3-0.2,0.5-0.59,0.62h-1.04l0.11,5.66
		c0.04,1.92,0.07,3.9,0.1,5.92c0.03,2.02,0.04,4.01,0.04,5.95c0.15-0.02,0.3-0.03,0.46-0.03h0.46c0.41,0.15,0.62,0.38,0.62,0.7
		c0,0.3-0.2,0.5-0.59,0.62c-0.58,0-1.13,0.02-1.65,0.06c-0.52,0.04-1.05,0.06-1.6,0.06h-0.06
		C193.76,365.11,193.61,365.03,193.5,364.91z"/>
	<path class="st87" d="M202.28,349.18c0-0.37,0.17-0.56,0.5-0.56c-0.06-0.73-0.21-1.3-0.46-1.72s-0.54-0.63-0.85-0.63
		c-0.26,0-0.5,0.08-0.71,0.22c-0.21,0.15-0.39,0.34-0.53,0.57c-0.14,0.23-0.25,0.49-0.32,0.77c-0.07,0.28-0.11,0.55-0.11,0.81
		c0,0.9,0.15,1.81,0.45,2.73c0.3,0.92,0.69,1.76,1.18,2.51c0.34,0.54,0.68,1.03,1.02,1.47s0.66,0.89,0.94,1.34
		c0.28,0.46,0.5,0.95,0.67,1.48c0.17,0.53,0.25,1.15,0.25,1.86c0,0.67-0.08,1.32-0.24,1.95s-0.37,1.18-0.63,1.65
		c-0.26,0.48-0.57,0.86-0.94,1.15c-0.36,0.29-0.75,0.43-1.16,0.43c-0.43,0-0.84-0.11-1.22-0.34c-0.38-0.22-0.72-0.52-1.01-0.88
		c-0.29-0.36-0.52-0.77-0.7-1.22s-0.27-0.9-0.27-1.34c0-0.08,0.01-0.19,0.03-0.34s0.05-0.3,0.1-0.46c0.05-0.16,0.1-0.3,0.17-0.42
		c0.06-0.12,0.15-0.18,0.27-0.18c0.17,0,0.35,0.1,0.53,0.31c0.19,0.21,0.28,0.4,0.28,0.59c0,0.08-0.01,0.15-0.04,0.22
		c-0.03,0.07-0.04,0.16-0.04,0.25c0,0.24,0.05,0.5,0.15,0.78c0.1,0.28,0.24,0.55,0.42,0.8s0.38,0.46,0.6,0.63
		c0.22,0.17,0.45,0.26,0.67,0.28c0.24,0,0.47-0.12,0.69-0.36c0.21-0.24,0.4-0.55,0.55-0.92c0.15-0.37,0.27-0.78,0.35-1.23
		c0.08-0.45,0.13-0.88,0.13-1.29c0-0.56-0.08-1.07-0.25-1.54s-0.38-0.92-0.63-1.34c-0.25-0.43-0.53-0.85-0.84-1.26l-0.91-1.26
		c-0.58-0.9-1.03-1.85-1.34-2.87s-0.48-2.05-0.48-3.09c0-0.52,0.08-1.02,0.24-1.48s0.37-0.88,0.63-1.25
		c0.26-0.36,0.56-0.65,0.88-0.87s0.67-0.32,1.02-0.32c0.63,0,1.23,0.34,1.79,1.01c0.3,0.37,0.55,0.83,0.74,1.36
		c0.2,0.53,0.29,1.1,0.29,1.7c0,0.34-0.12,0.63-0.36,0.9c-0.24,0.26-0.49,0.39-0.76,0.39c-0.35,0-0.59-0.25-0.7-0.76
		C202.29,349.35,202.28,349.28,202.28,349.18z"/>
	<path class="st87" d="M217.22,350.26c-0.12,0.12-0.27,0.18-0.43,0.18c-0.11,0-0.22-0.04-0.34-0.11c-0.11-0.07-0.21-0.2-0.31-0.36
		l-0.17-1.06c-0.04-0.24-0.09-0.52-0.15-0.84s-0.14-0.62-0.24-0.9c-0.09-0.28-0.21-0.52-0.36-0.71s-0.34-0.29-0.56-0.29
		c-0.22,0-0.45,0.09-0.67,0.28s-0.42,0.41-0.59,0.66s-0.31,0.52-0.43,0.8c-0.12,0.28-0.19,0.51-0.21,0.7
		c-0.17,1.05-0.29,2.2-0.36,3.47c-0.07,1.27-0.11,2.46-0.11,3.56c0,0.75,0.01,1.48,0.04,2.21c0.03,0.73,0.06,1.46,0.1,2.18
		c0.04,0.65,0.17,1.24,0.39,1.76c0.22,0.52,0.41,0.92,0.56,1.2c0.13,0.19,0.28,0.38,0.45,0.59s0.35,0.31,0.56,0.31
		c0.35,0,0.62-0.12,0.78-0.37c0.17-0.24,0.28-0.54,0.35-0.9c0.07-0.35,0.11-0.74,0.13-1.16c0.02-0.42,0.06-0.8,0.11-1.13
		c0.06-0.32,0.14-0.57,0.25-0.77c0.11-0.2,0.3-0.29,0.56-0.29c0.17,0,0.31,0.07,0.43,0.21c0.12,0.14,0.18,0.31,0.18,0.52
		c0,0.15-0.01,0.34-0.04,0.56c-0.03,0.22-0.06,0.38-0.1,0.48c-0.04,0.37-0.1,0.79-0.18,1.26c-0.08,0.47-0.22,0.92-0.41,1.34
		c-0.19,0.43-0.44,0.79-0.77,1.08c-0.33,0.29-0.75,0.43-1.27,0.43c-0.54,0-1.01-0.19-1.41-0.56c-0.4-0.37-0.74-0.83-1.02-1.36
		c-0.28-0.53-0.49-1.08-0.64-1.65c-0.15-0.57-0.23-1.06-0.25-1.47c-0.04-0.35-0.06-0.71-0.06-1.06v-1.09c0-0.56,0-1.14,0.01-1.75
		c0.01-0.61,0.01-1.26,0.01-1.97c0-1.06,0.02-2.19,0.07-3.39c0.05-1.19,0.24-2.32,0.57-3.39c0.09-0.3,0.24-0.6,0.45-0.91
		c0.21-0.31,0.45-0.59,0.73-0.84c0.28-0.25,0.58-0.46,0.9-0.62c0.32-0.16,0.64-0.24,0.98-0.24c0.43,0,0.8,0.13,1.11,0.38
		c0.31,0.25,0.56,0.57,0.76,0.97c0.2,0.39,0.35,0.82,0.46,1.27c0.11,0.46,0.2,0.89,0.25,1.3l0.11,0.98
		C217.41,349.97,217.34,350.14,217.22,350.26z"/>
	<path class="st87" d="M221.94,344.87c0.11,0,0.22,0.03,0.34,0.1c0.11,0.06,0.19,0.16,0.22,0.29c0.54,0.93,0.94,1.86,1.19,2.77
		s0.43,1.81,0.53,2.69s0.16,1.73,0.18,2.55c0.02,0.82,0.07,1.6,0.17,2.32v-0.03c0.04,0.21,0.06,0.43,0.08,0.69l0.06,0.74
		c0.13,1.16,0.24,2.16,0.32,3.01s0.13,1.68,0.13,2.48c0,0.26,0,0.56-0.01,0.9s-0.04,0.66-0.08,0.96c-0.05,0.31-0.13,0.57-0.24,0.77
		c-0.11,0.21-0.27,0.31-0.48,0.31c-0.3,0-0.51-0.12-0.64-0.38s-0.2-0.51-0.2-0.77c0-0.21,0.08-0.35,0.25-0.45
		c0.02-0.17,0.03-0.35,0.03-0.55v-0.57c0-0.67-0.03-1.35-0.1-2.04c-0.07-0.69-0.12-1.3-0.15-1.82l-0.06-0.59
		c-0.49,0-0.97,0.01-1.46,0.04c-0.49,0.03-0.97,0.04-1.46,0.04l-0.06,0.9c-0.02,0.19-0.03,0.38-0.04,0.59s-0.02,0.44-0.03,0.71
		c-0.01,0.27-0.01,0.59-0.01,0.97v1.34v1.68c0,0.13-0.06,0.27-0.18,0.42c-0.12,0.15-0.29,0.22-0.52,0.22
		c-0.28,0-0.49-0.16-0.64-0.48v-1.51c0-0.26,0-0.53-0.01-0.8c-0.01-0.27-0.01-0.55-0.01-0.83c0-0.77,0.03-1.5,0.1-2.2
		c0.06-0.7,0.12-1.4,0.15-2.09l0.08-1.34c0.06-0.95,0.14-1.94,0.27-2.97c0.12-1.03,0.26-2.01,0.41-2.94l0.08-0.48
		c0.13-0.75,0.28-1.48,0.46-2.2c0.18-0.72,0.42-1.43,0.74-2.14C221.52,344.98,221.71,344.87,221.94,344.87z M221.99,356.98
		c0.47-0.03,0.92-0.04,1.37-0.04l-0.14-1.32c0-0.15-0.01-0.34-0.03-0.56c-0.02-0.22-0.03-0.46-0.04-0.7s-0.02-0.49-0.04-0.73
		c-0.02-0.24-0.03-0.47-0.03-0.67v-0.62c0-0.88-0.08-1.8-0.24-2.76c-0.16-0.96-0.42-1.85-0.8-2.67c-0.15,0.41-0.26,0.77-0.32,1.08
		c-0.07,0.31-0.13,0.68-0.18,1.11c-0.09,1.12-0.23,2.27-0.42,3.46c-0.19,1.19-0.33,2.32-0.42,3.4l-0.08,1.06
		C221.07,357.02,221.53,357.01,221.99,356.98z"/>
	<path class="st87" d="M227.26,345.57c0-0.19,0.07-0.34,0.21-0.46c0.14-0.12,0.32-0.21,0.53-0.27c0.21-0.06,0.45-0.09,0.7-0.11
		s0.49-0.03,0.71-0.03c0.65,0,1.26,0.11,1.82,0.32s1.05,0.53,1.47,0.94c0.42,0.41,0.75,0.91,0.98,1.51s0.35,1.28,0.35,2.04
		c0,0.63-0.02,1.25-0.07,1.83c-0.05,0.59-0.13,1.12-0.25,1.6c-0.12,0.48-0.3,0.9-0.53,1.26c-0.23,0.36-0.54,0.64-0.91,0.83
		c0.3,0.37,0.53,0.86,0.69,1.46s0.28,1.21,0.35,1.83s0.12,1.22,0.14,1.79s0.03,1.01,0.03,1.33c0.02,0.37,0.06,0.76,0.11,1.15
		c0.06,0.39,0.17,0.71,0.34,0.95c0.24-0.15,0.46-0.22,0.64-0.22c0.21,0,0.38,0.08,0.53,0.25s0.22,0.44,0.22,0.81
		c0,0.24-0.09,0.43-0.28,0.56c-0.19,0.13-0.44,0.2-0.76,0.2c-0.49,0-0.87-0.15-1.15-0.45c-0.28-0.3-0.49-0.66-0.64-1.08
		s-0.24-0.86-0.28-1.32c-0.04-0.46-0.07-0.85-0.08-1.19c0-0.11-0.01-0.44-0.03-0.99c-0.02-0.55-0.06-1.15-0.14-1.79
		s-0.19-1.24-0.34-1.78c-0.15-0.54-0.35-0.85-0.59-0.92c-0.3,0.08-0.61,0.13-0.92,0.15s-0.63,0.04-0.95,0.04v8.48
		c0,0.19-0.06,0.35-0.18,0.49c-0.12,0.14-0.29,0.21-0.52,0.21c-0.17,0-0.31-0.07-0.42-0.21c-0.11-0.14-0.19-0.29-0.22-0.46
		l-0.06-18.14C227.43,346.08,227.26,345.87,227.26,345.57z M231.68,346.97c-0.67-0.63-1.51-0.95-2.52-0.95v8.48
		c0.78-0.02,1.4-0.13,1.86-0.34c0.46-0.21,0.81-0.51,1.06-0.91c0.25-0.4,0.42-0.9,0.49-1.51c0.07-0.61,0.11-1.32,0.11-2.14
		C232.69,348.48,232.35,347.61,231.68,346.97z"/>
	<path class="st87" d="M236.11,346.01c-0.11-0.12-0.17-0.26-0.17-0.41c0-0.15,0.06-0.29,0.17-0.43c0.11-0.14,0.28-0.23,0.5-0.27
		c0.69,0,1.32,0.05,1.88,0.15c0.56,0.1,1.05,0.28,1.48,0.54c0.43,0.26,0.79,0.62,1.09,1.06c0.3,0.45,0.54,1.02,0.73,1.71
		c0.19,0.63,0.35,1.3,0.49,2c0.14,0.7,0.26,1.39,0.36,2.07c0.1,0.68,0.18,1.34,0.24,1.99c0.06,0.64,0.08,1.24,0.08,1.78
		c0,0.52-0.03,1.02-0.08,1.5c-0.06,0.47-0.13,0.96-0.22,1.44c-0.19,0.84-0.37,1.57-0.55,2.18c-0.18,0.62-0.41,1.13-0.69,1.54
		c-0.21,0.35-0.5,0.68-0.88,0.96c-0.38,0.29-0.79,0.54-1.23,0.74c-0.44,0.21-0.88,0.36-1.32,0.48c-0.44,0.11-0.83,0.17-1.16,0.17
		c-0.3,0-0.5-0.09-0.62-0.27c-0.11-0.18-0.16-0.37-0.14-0.57c0.02-0.24,0.09-0.45,0.22-0.63c0.13-0.18,0.3-0.22,0.5-0.12
		c-0.04-0.26-0.06-0.52-0.06-0.77v-0.74c0-1.57,0.03-3.3,0.1-5.19s0.1-3.78,0.1-5.67v-2.38c0-0.43-0.01-0.85-0.04-1.27
		c-0.03-0.42-0.1-0.87-0.21-1.36C236.41,346.21,236.22,346.13,236.11,346.01z M239.33,363.14c0.34-0.21,0.58-0.4,0.73-0.55
		c0.04-0.04,0.14-0.18,0.31-0.42c0.17-0.24,0.33-0.57,0.48-0.98c0.07-0.22,0.14-0.46,0.21-0.7l0.18-0.7
		c0.06-0.22,0.1-0.42,0.14-0.59c0.04-0.17,0.06-0.27,0.06-0.31c0.09-0.41,0.15-0.82,0.18-1.22c0.03-0.4,0.04-0.82,0.04-1.25
		c0-1.32-0.11-2.65-0.32-3.99c-0.21-1.33-0.53-2.71-0.94-4.13c-0.19-0.65-0.48-1.12-0.87-1.39c-0.39-0.27-0.88-0.45-1.46-0.54
		c0.07,0.41,0.13,0.83,0.15,1.26s0.04,0.87,0.04,1.32v2.27c0,1.79-0.03,3.62-0.1,5.47c-0.06,1.86-0.1,3.67-0.1,5.45
		c0,0.11,0,0.22,0.01,0.34c0.01,0.11,0.01,0.22,0.01,0.34l0.17,0.87C238.64,363.54,238.99,363.36,239.33,363.14z"/>
	<path class="st87" d="M77.57,378.39c0.32,0,0.55,0.21,0.7,0.62c0,0.79-0.06,1.59-0.18,2.42c-0.12,0.83-0.27,1.66-0.45,2.49
		c-0.18,0.83-0.39,1.65-0.63,2.46l-0.73,2.34c-0.04,0.13-0.08,0.26-0.14,0.38c-0.06,0.12-0.14,0.29-0.25,0.49
		c0,0.21-0.02,0.39-0.06,0.55c-0.04,0.16-0.06,0.33-0.06,0.52c0,0.99,0.04,1.97,0.11,2.95s0.11,2.02,0.11,3.12v0.69
		c0,0.25-0.02,0.49-0.06,0.7c-0.04,0.21-0.11,0.4-0.21,0.55c-0.1,0.15-0.27,0.22-0.49,0.22c-0.21,0-0.36-0.08-0.48-0.25
		c-0.11-0.17-0.17-0.36-0.17-0.59c0-0.28,0.02-0.51,0.06-0.7c0.04-0.19,0.06-0.38,0.06-0.59c0-0.3-0.01-0.57-0.03-0.83
		c-0.02-0.25-0.04-0.54-0.06-0.85l-0.06-0.92c0-0.54-0.02-1.14-0.06-1.79c-0.04-0.65-0.06-1.3-0.06-1.93v-0.64
		c-0.26-0.35-0.49-0.81-0.7-1.37c-0.21-0.56-0.39-1.18-0.56-1.85s-0.31-1.37-0.43-2.09c-0.12-0.72-0.23-1.42-0.32-2.1
		c-0.09-0.68-0.17-1.32-0.22-1.9s-0.09-1.08-0.11-1.47c0.11-0.39,0.32-0.59,0.62-0.59c0.32,0,0.55,0.2,0.7,0.59
		c0.04,0.47,0.09,1.1,0.17,1.89s0.18,1.64,0.31,2.53c0.13,0.9,0.29,1.77,0.48,2.63c0.19,0.86,0.41,1.58,0.67,2.16
		c0.43-1.46,0.85-2.97,1.26-4.54c0.41-1.57,0.63-3.13,0.64-4.7C77.07,378.58,77.27,378.39,77.57,378.39z"/>
	<path class="st87" d="M81.59,379.02c0.31-0.21,0.69-0.4,1.13-0.55c0.22,0.02,0.46,0.05,0.7,0.1c0.24,0.05,0.46,0.12,0.64,0.21
		c0.28,0.15,0.54,0.45,0.78,0.9c0.24,0.45,0.45,0.94,0.63,1.47c0.18,0.53,0.32,1.05,0.42,1.55c0.1,0.5,0.15,0.89,0.15,1.15
		c0,0.5,0.04,1.11,0.11,1.81c0.07,0.7,0.11,1.35,0.11,1.95v1.41c0,0.51-0.01,1.05-0.04,1.6c-0.03,0.55-0.07,1.1-0.13,1.65
		c-0.06,0.55-0.14,1.07-0.25,1.55c0,0.41-0.05,0.9-0.15,1.47s-0.27,1.12-0.49,1.64c-0.22,0.52-0.52,0.97-0.9,1.33
		c-0.37,0.36-0.83,0.55-1.37,0.55c-0.43,0-0.79-0.12-1.08-0.36c-0.29-0.24-0.54-0.55-0.76-0.91c-0.21-0.36-0.39-0.76-0.52-1.18
		l-0.36-1.19c-0.17-0.56-0.29-1.06-0.38-1.5c-0.08-0.44-0.15-0.87-0.21-1.3c-0.09-0.56-0.15-1.19-0.17-1.9
		c-0.02-0.71-0.03-1.41-0.03-2.1v-0.98c0-0.9,0.05-1.82,0.14-2.77c0.09-0.95,0.28-1.87,0.56-2.74c0.04-0.06,0.09-0.18,0.17-0.36
		c0.07-0.19,0.15-0.4,0.24-0.64l0.25-0.71c0.08-0.23,0.16-0.42,0.24-0.57C81.1,379.42,81.28,379.23,81.59,379.02z M84.59,382.88
		c-0.05-0.46-0.13-0.92-0.25-1.37c-0.12-0.46-0.29-0.85-0.52-1.19c-0.22-0.34-0.53-0.5-0.92-0.5c-0.34,0.06-0.61,0.22-0.81,0.49
		c-0.21,0.27-0.38,0.6-0.52,0.99c-0.14,0.39-0.25,0.82-0.34,1.27l-0.24,1.33c-0.09,0.5-0.17,1.06-0.24,1.67
		c-0.07,0.61-0.09,1.18-0.07,1.72c0,0.6,0.04,1.19,0.11,1.78s0.11,1.22,0.11,1.89c0,0.26,0.01,0.5,0.03,0.71s0.05,0.45,0.1,0.7
		c0.05,0.25,0.1,0.55,0.15,0.9c0.06,0.34,0.13,0.77,0.22,1.27c0.07,0.26,0.17,0.55,0.29,0.87c0.12,0.32,0.26,0.62,0.41,0.92
		c0.15,0.3,0.32,0.55,0.52,0.74c0.2,0.2,0.42,0.29,0.66,0.29c0.19,0,0.35-0.13,0.49-0.39c0.14-0.26,0.26-0.57,0.35-0.92
		c0.09-0.36,0.16-0.71,0.21-1.08c0.05-0.36,0.09-0.64,0.13-0.83c0.09-0.6,0.16-1.07,0.2-1.41c0.04-0.35,0.07-0.67,0.11-0.97
		c0-0.65,0.03-1.33,0.1-2.04s0.1-1.41,0.1-2.1c0-0.5-0.02-1.1-0.07-1.78c-0.05-0.68-0.11-1.32-0.18-1.92
		C84.68,383.69,84.63,383.34,84.59,382.88z"/>
	<path class="st87" d="M93.92,378.81c0.19,0,0.34,0.07,0.45,0.21c0.11,0.14,0.2,0.32,0.25,0.53c0.06,0.21,0.09,0.45,0.11,0.71
		c0.02,0.26,0.03,0.52,0.03,0.78v2.58c0,0.9,0,1.68,0.01,2.37s0.02,1.32,0.03,1.92l0.03,1.75c0.01,0.57,0.01,1.19,0.01,1.86
		c0,0.54,0,1.1-0.01,1.67s-0.02,1.14-0.04,1.72c0,0.37-0.03,0.78-0.1,1.22c-0.07,0.44-0.19,0.85-0.36,1.23
		c-0.18,0.38-0.42,0.7-0.74,0.95s-0.73,0.38-1.23,0.38c-0.56,0-1-0.02-1.32-0.06s-0.58-0.12-0.78-0.25
		c-0.21-0.13-0.4-0.33-0.57-0.59c-0.18-0.26-0.41-0.63-0.69-1.09c-0.13-0.21-0.24-0.49-0.32-0.85c-0.08-0.36-0.15-0.75-0.2-1.16
		c-0.05-0.41-0.08-0.82-0.11-1.22l-0.07-1.02c0-0.73-0.02-1.52-0.06-2.37c-0.04-0.85-0.06-1.67-0.06-2.45v-2.42
		c0-0.79,0.02-1.6,0.06-2.42l0.08-3.5c0.11-0.39,0.32-0.59,0.62-0.59c0.15,0,0.29,0.05,0.42,0.15c0.13,0.1,0.23,0.26,0.31,0.46
		l-0.08,3.44c-0.06,1.33-0.08,2.64-0.08,3.95v0.9c0,0.73,0.01,1.46,0.03,2.18s0.05,1.45,0.08,2.16c0,0.54,0.01,1.12,0.03,1.72
		c0.02,0.61,0.1,1.17,0.25,1.69c0.15,0.52,0.38,0.97,0.69,1.34c0.31,0.37,0.76,0.6,1.36,0.67c0.34,0.04,0.61-0.02,0.81-0.18
		c0.21-0.16,0.36-0.38,0.46-0.66s0.17-0.59,0.21-0.92s0.06-0.67,0.06-1.01c0-0.43-0.01-0.88-0.03-1.36
		c-0.02-0.48-0.03-1.12-0.03-1.95c0-1.06,0.01-2.16,0.03-3.29c0.02-1.13,0.03-2.27,0.03-3.43v-1.76c0-0.43-0.01-0.9-0.03-1.4
		c-0.02-0.5-0.06-1.18-0.14-2.02C93.42,379,93.63,378.81,93.92,378.81z"/>
	<path class="st87" d="M104.17,378.47c0.11,0,0.22,0.03,0.34,0.1c0.11,0.07,0.19,0.16,0.22,0.29c0.54,0.93,0.94,1.86,1.19,2.77
		c0.25,0.91,0.43,1.81,0.53,2.69s0.16,1.73,0.18,2.55c0.02,0.82,0.07,1.6,0.17,2.32v-0.03c0.04,0.21,0.06,0.43,0.08,0.69l0.06,0.74
		c0.13,1.16,0.24,2.16,0.32,3.01c0.08,0.85,0.13,1.67,0.13,2.48c0,0.26,0,0.56-0.01,0.9s-0.04,0.66-0.08,0.97
		c-0.05,0.31-0.13,0.56-0.24,0.77c-0.11,0.21-0.27,0.31-0.48,0.31c-0.3,0-0.51-0.13-0.64-0.38s-0.2-0.51-0.2-0.77
		c0-0.21,0.08-0.36,0.25-0.45c0.02-0.17,0.03-0.35,0.03-0.54v-0.57c0-0.67-0.03-1.35-0.1-2.04c-0.06-0.69-0.12-1.3-0.15-1.82
		l-0.06-0.59c-0.49,0-0.97,0.01-1.46,0.04c-0.49,0.03-0.97,0.04-1.46,0.04l-0.06,0.9c-0.02,0.19-0.03,0.38-0.04,0.59
		c-0.01,0.21-0.02,0.44-0.03,0.71c-0.01,0.27-0.01,0.59-0.01,0.97v1.34v1.68c0,0.13-0.06,0.27-0.18,0.42
		c-0.12,0.15-0.29,0.22-0.52,0.22c-0.28,0-0.49-0.16-0.64-0.48v-1.51c0-0.26,0-0.53-0.01-0.8c-0.01-0.27-0.01-0.55-0.01-0.83
		c0-0.77,0.03-1.5,0.1-2.2c0.06-0.7,0.12-1.4,0.15-2.09l0.08-1.34c0.06-0.95,0.14-1.94,0.27-2.97c0.12-1.03,0.26-2.01,0.41-2.94
		l0.08-0.48c0.13-0.75,0.28-1.48,0.46-2.2c0.18-0.72,0.42-1.43,0.74-2.14C103.75,378.58,103.95,378.47,104.17,378.47z
		 M104.23,390.58c0.47-0.03,0.92-0.04,1.37-0.04l-0.14-1.32c0-0.15-0.01-0.34-0.03-0.56c-0.02-0.22-0.03-0.46-0.04-0.7
		c-0.01-0.24-0.02-0.49-0.04-0.73s-0.03-0.47-0.03-0.67v-0.62c0-0.88-0.08-1.8-0.24-2.76s-0.42-1.85-0.8-2.67
		c-0.15,0.41-0.26,0.77-0.32,1.08c-0.07,0.31-0.13,0.68-0.18,1.11c-0.09,1.12-0.23,2.27-0.42,3.46c-0.19,1.19-0.33,2.32-0.42,3.4
		l-0.08,1.06C103.3,390.62,103.76,390.61,104.23,390.58z"/>
	<path class="st87" d="M109.49,379.17c0-0.19,0.07-0.34,0.21-0.46c0.14-0.12,0.32-0.21,0.53-0.27c0.21-0.06,0.45-0.09,0.7-0.11
		c0.25-0.02,0.49-0.03,0.71-0.03c0.65,0,1.26,0.11,1.82,0.32s1.05,0.53,1.47,0.94s0.75,0.91,0.98,1.51s0.35,1.28,0.35,2.04
		c0,0.63-0.02,1.25-0.07,1.83c-0.05,0.59-0.13,1.12-0.25,1.6c-0.12,0.48-0.3,0.9-0.53,1.26c-0.23,0.36-0.54,0.64-0.91,0.83
		c0.3,0.37,0.53,0.86,0.69,1.46c0.16,0.6,0.28,1.21,0.35,1.83c0.07,0.63,0.12,1.22,0.14,1.79c0.02,0.57,0.03,1.01,0.03,1.33
		c0.02,0.37,0.06,0.76,0.11,1.15c0.06,0.39,0.17,0.71,0.34,0.95c0.24-0.15,0.46-0.22,0.64-0.22c0.21,0,0.38,0.08,0.53,0.25
		s0.22,0.44,0.22,0.81c0,0.24-0.09,0.43-0.28,0.56c-0.19,0.13-0.44,0.2-0.76,0.2c-0.49,0-0.87-0.15-1.15-0.45
		c-0.28-0.3-0.49-0.66-0.64-1.08s-0.24-0.86-0.28-1.32c-0.04-0.46-0.07-0.85-0.08-1.19c0-0.11-0.01-0.44-0.03-0.99
		c-0.02-0.55-0.06-1.15-0.14-1.79c-0.07-0.64-0.19-1.24-0.34-1.78c-0.15-0.54-0.35-0.85-0.59-0.92c-0.3,0.07-0.61,0.13-0.92,0.15
		c-0.32,0.03-0.63,0.04-0.95,0.04v8.48c0,0.19-0.06,0.35-0.18,0.49c-0.12,0.14-0.29,0.21-0.52,0.21c-0.17,0-0.31-0.07-0.42-0.21
		c-0.11-0.14-0.19-0.29-0.22-0.46L110,379.79C109.66,379.68,109.49,379.47,109.49,379.17z M113.92,380.57
		c-0.67-0.63-1.51-0.95-2.52-0.95v8.48c0.78-0.02,1.4-0.13,1.86-0.34c0.46-0.21,0.81-0.51,1.06-0.91s0.42-0.91,0.49-1.51
		c0.07-0.61,0.11-1.32,0.11-2.14C114.92,382.08,114.59,381.21,113.92,380.57z"/>
	<path class="st87" d="M118.96,389.15c0.02-3.05,0.03-6.26,0.03-9.62c-0.13-0.11-0.2-0.26-0.2-0.45c0-0.15,0.06-0.29,0.17-0.43
		c0.11-0.14,0.27-0.23,0.48-0.27h1.01c0.21,0,0.4,0,0.57-0.01c0.18-0.01,0.37-0.01,0.57-0.01c0.24,0,0.53,0,0.85,0.01
		c0.33,0.01,0.64,0.04,0.94,0.08c0.3,0.05,0.55,0.13,0.74,0.25c0.2,0.12,0.29,0.29,0.29,0.52c0,0.09-0.05,0.23-0.15,0.42
		s-0.27,0.28-0.49,0.28c-0.52,0-1.07-0.03-1.64-0.08c-0.57-0.05-1.18-0.09-1.83-0.11c0,0.63,0,1.27-0.01,1.9s-0.01,1.26-0.01,1.88
		v3.78c0.32-0.02,0.68-0.03,1.08-0.03h1.58c0.22,0.04,0.4,0.12,0.53,0.24c0.13,0.12,0.2,0.26,0.2,0.41c0,0.17-0.07,0.33-0.21,0.48
		c-0.14,0.15-0.41,0.22-0.8,0.22c-0.41,0-0.8-0.01-1.18-0.03c-0.37-0.02-0.77-0.03-1.2-0.03c-0.02,1.4-0.03,2.85-0.03,4.34v4.42
		c0.26,0,0.63-0.03,1.11-0.08c0.48-0.06,0.93-0.08,1.36-0.08c0.54,0,1,0.05,1.37,0.15c0.37,0.1,0.56,0.33,0.56,0.69
		c0,0.19-0.07,0.34-0.2,0.46c-0.13,0.12-0.28,0.18-0.45,0.18c-0.15,0-0.34-0.02-0.57-0.07c-0.23-0.05-0.48-0.07-0.74-0.07
		c-0.45,0-0.89,0.02-1.33,0.07s-0.88,0.07-1.33,0.07c-0.11,0.11-0.2,0.18-0.27,0.2c-0.06,0.02-0.12,0.03-0.15,0.03
		c-0.13,0-0.26-0.05-0.39-0.14c-0.13-0.09-0.22-0.26-0.28-0.5C118.93,395.23,118.94,392.21,118.96,389.15z"/>
	<path class="st87" d="M132.91,379.02c0.31-0.21,0.69-0.4,1.13-0.55c0.22,0.02,0.46,0.05,0.7,0.1c0.24,0.05,0.46,0.12,0.64,0.21
		c0.28,0.15,0.54,0.45,0.78,0.9c0.24,0.45,0.45,0.94,0.63,1.47c0.18,0.53,0.32,1.05,0.42,1.55c0.1,0.5,0.15,0.89,0.15,1.15
		c0,0.5,0.04,1.11,0.11,1.81c0.07,0.7,0.11,1.35,0.11,1.95v1.41c0,0.51-0.01,1.05-0.04,1.6c-0.03,0.55-0.07,1.1-0.13,1.65
		c-0.06,0.55-0.14,1.07-0.25,1.55c0,0.41-0.05,0.9-0.15,1.47s-0.27,1.12-0.49,1.64c-0.22,0.52-0.52,0.97-0.9,1.33
		c-0.37,0.36-0.83,0.55-1.37,0.55c-0.43,0-0.79-0.12-1.08-0.36c-0.29-0.24-0.54-0.55-0.76-0.91c-0.21-0.36-0.39-0.76-0.52-1.18
		l-0.36-1.19c-0.17-0.56-0.29-1.06-0.38-1.5c-0.08-0.44-0.15-0.87-0.21-1.3c-0.09-0.56-0.15-1.19-0.17-1.9
		c-0.02-0.71-0.03-1.41-0.03-2.1v-0.98c0-0.9,0.05-1.82,0.14-2.77c0.09-0.95,0.28-1.87,0.56-2.74c0.04-0.06,0.09-0.18,0.17-0.36
		c0.07-0.19,0.15-0.4,0.24-0.64l0.25-0.71c0.08-0.23,0.16-0.42,0.24-0.57C132.42,379.42,132.61,379.23,132.91,379.02z
		 M135.91,382.88c-0.05-0.46-0.13-0.92-0.25-1.37c-0.12-0.46-0.29-0.85-0.52-1.19c-0.22-0.34-0.53-0.5-0.92-0.5
		c-0.34,0.06-0.61,0.22-0.81,0.49c-0.21,0.27-0.38,0.6-0.52,0.99c-0.14,0.39-0.25,0.82-0.34,1.27l-0.24,1.33
		c-0.09,0.5-0.17,1.06-0.24,1.67c-0.07,0.61-0.09,1.18-0.07,1.72c0,0.6,0.04,1.19,0.11,1.78s0.11,1.22,0.11,1.89
		c0,0.26,0.01,0.5,0.03,0.71s0.05,0.45,0.1,0.7c0.05,0.25,0.1,0.55,0.15,0.9c0.06,0.34,0.13,0.77,0.22,1.27
		c0.07,0.26,0.17,0.55,0.29,0.87c0.12,0.32,0.26,0.62,0.41,0.92s0.32,0.55,0.52,0.74c0.2,0.2,0.42,0.29,0.66,0.29
		c0.19,0,0.35-0.13,0.49-0.39c0.14-0.26,0.26-0.57,0.35-0.92c0.09-0.36,0.16-0.71,0.21-1.08c0.05-0.36,0.09-0.64,0.13-0.83
		c0.09-0.6,0.16-1.07,0.2-1.41c0.04-0.35,0.07-0.67,0.11-0.97c0-0.65,0.03-1.33,0.1-2.04c0.06-0.71,0.1-1.41,0.1-2.1
		c0-0.5-0.02-1.1-0.07-1.78c-0.05-0.68-0.11-1.32-0.18-1.92C136,383.69,135.96,383.34,135.91,382.88z"/>
	<path class="st87" d="M145.25,378.81c0.19,0,0.34,0.07,0.45,0.21c0.11,0.14,0.2,0.32,0.25,0.53c0.06,0.21,0.09,0.45,0.11,0.71
		c0.02,0.26,0.03,0.52,0.03,0.78v2.58c0,0.9,0,1.68,0.01,2.37s0.02,1.32,0.03,1.92l0.03,1.75c0.01,0.57,0.01,1.19,0.01,1.86
		c0,0.54,0,1.1-0.01,1.67s-0.02,1.14-0.04,1.72c0,0.37-0.03,0.78-0.1,1.22c-0.07,0.44-0.19,0.85-0.36,1.23
		c-0.18,0.38-0.42,0.7-0.74,0.95s-0.73,0.38-1.23,0.38c-0.56,0-1-0.02-1.32-0.06s-0.58-0.12-0.78-0.25
		c-0.21-0.13-0.4-0.33-0.57-0.59c-0.18-0.26-0.41-0.63-0.69-1.09c-0.13-0.21-0.24-0.49-0.32-0.85c-0.08-0.36-0.15-0.75-0.2-1.16
		c-0.05-0.41-0.08-0.82-0.11-1.22l-0.07-1.02c0-0.73-0.02-1.52-0.06-2.37c-0.04-0.85-0.06-1.67-0.06-2.45v-2.42
		c0-0.79,0.02-1.6,0.06-2.42l0.08-3.5c0.11-0.39,0.32-0.59,0.62-0.59c0.15,0,0.29,0.05,0.42,0.15c0.13,0.1,0.23,0.26,0.31,0.46
		l-0.08,3.44c-0.06,1.33-0.08,2.64-0.08,3.95v0.9c0,0.73,0.01,1.46,0.03,2.18s0.05,1.45,0.08,2.16c0,0.54,0.01,1.12,0.03,1.72
		c0.02,0.61,0.1,1.17,0.25,1.69s0.38,0.97,0.69,1.34c0.31,0.37,0.76,0.6,1.36,0.67c0.34,0.04,0.61-0.02,0.81-0.18
		c0.21-0.16,0.36-0.38,0.46-0.66s0.17-0.59,0.21-0.92c0.04-0.34,0.06-0.67,0.06-1.01c0-0.43-0.01-0.88-0.03-1.36
		c-0.02-0.48-0.03-1.12-0.03-1.95c0-1.06,0.01-2.16,0.03-3.29c0.02-1.13,0.03-2.27,0.03-3.43v-1.76c0-0.43-0.01-0.9-0.03-1.4
		c-0.02-0.5-0.07-1.18-0.14-2.02C144.74,379,144.95,378.81,145.25,378.81z"/>
	<path class="st87" d="M147.95,379.51c-0.1-0.11-0.15-0.24-0.15-0.39s0.06-0.29,0.17-0.43c0.11-0.14,0.28-0.23,0.5-0.27h5.57
		c0.21,0.08,0.36,0.18,0.46,0.31s0.15,0.27,0.15,0.42c0,0.13-0.05,0.25-0.14,0.36c-0.09,0.11-0.24,0.19-0.45,0.22h-2.18
		c0,2.97,0.01,6.02,0.03,9.14c0.02,3.13,0.03,6.19,0.03,9.2c-0.04,0.22-0.13,0.39-0.27,0.5c-0.14,0.11-0.28,0.17-0.43,0.17
		c-0.15,0-0.28-0.05-0.39-0.15c-0.11-0.1-0.19-0.26-0.22-0.46c0-3.06-0.01-6.16-0.03-9.28c-0.02-3.13-0.03-6.16-0.03-9.11h-2.16
		C148.21,379.7,148.05,379.62,147.95,379.51z"/>
	<path class="st87" d="M162.4,379.02c0.31-0.21,0.69-0.4,1.13-0.55c0.22,0.02,0.46,0.05,0.7,0.1c0.24,0.05,0.46,0.12,0.64,0.21
		c0.28,0.15,0.54,0.45,0.78,0.9c0.24,0.45,0.45,0.94,0.63,1.47c0.18,0.53,0.32,1.05,0.42,1.55c0.1,0.5,0.15,0.89,0.15,1.15
		c0,0.5,0.04,1.11,0.11,1.81c0.07,0.7,0.11,1.35,0.11,1.95v1.41c0,0.51-0.01,1.05-0.04,1.6c-0.03,0.55-0.07,1.1-0.13,1.65
		c-0.06,0.55-0.14,1.07-0.25,1.55c0,0.41-0.05,0.9-0.15,1.47s-0.27,1.12-0.49,1.64c-0.22,0.52-0.52,0.97-0.9,1.33
		c-0.37,0.36-0.83,0.55-1.37,0.55c-0.43,0-0.79-0.12-1.08-0.36c-0.29-0.24-0.54-0.55-0.76-0.91c-0.21-0.36-0.39-0.76-0.52-1.18
		l-0.36-1.19c-0.17-0.56-0.29-1.06-0.38-1.5c-0.08-0.44-0.15-0.87-0.21-1.3c-0.09-0.56-0.15-1.19-0.17-1.9
		c-0.02-0.71-0.03-1.41-0.03-2.1v-0.98c0-0.9,0.05-1.82,0.14-2.77c0.09-0.95,0.28-1.87,0.56-2.74c0.04-0.06,0.09-0.18,0.17-0.36
		c0.07-0.19,0.15-0.4,0.24-0.64l0.25-0.71c0.08-0.23,0.16-0.42,0.24-0.57C161.91,379.42,162.09,379.23,162.4,379.02z M165.39,382.88
		c-0.05-0.46-0.13-0.92-0.25-1.37c-0.12-0.46-0.29-0.85-0.52-1.19c-0.22-0.34-0.53-0.5-0.92-0.5c-0.34,0.06-0.61,0.22-0.81,0.49
		c-0.21,0.27-0.38,0.6-0.52,0.99c-0.14,0.39-0.25,0.82-0.34,1.27l-0.24,1.33c-0.09,0.5-0.17,1.06-0.24,1.67
		c-0.07,0.61-0.09,1.18-0.07,1.72c0,0.6,0.04,1.19,0.11,1.78s0.11,1.22,0.11,1.89c0,0.26,0.01,0.5,0.03,0.71s0.05,0.45,0.1,0.7
		c0.05,0.25,0.1,0.55,0.15,0.9c0.06,0.34,0.13,0.77,0.22,1.27c0.07,0.26,0.17,0.55,0.29,0.87c0.12,0.32,0.26,0.62,0.41,0.92
		s0.32,0.55,0.52,0.74c0.2,0.2,0.42,0.29,0.66,0.29c0.19,0,0.35-0.13,0.49-0.39c0.14-0.26,0.26-0.57,0.35-0.92
		c0.09-0.36,0.16-0.71,0.21-1.08c0.05-0.36,0.09-0.64,0.13-0.83c0.09-0.6,0.16-1.07,0.2-1.41c0.04-0.35,0.07-0.67,0.11-0.97
		c0-0.65,0.03-1.33,0.1-2.04c0.06-0.71,0.1-1.41,0.1-2.1c0-0.5-0.02-1.1-0.07-1.78c-0.05-0.68-0.11-1.32-0.18-1.92
		C165.48,383.69,165.44,383.34,165.39,382.88z"/>
	<path class="st87" d="M169.75,378.86c0.15-0.11,0.34-0.13,0.56-0.06c0.35-0.02,0.7-0.02,1.04-0.01c0.34,0.01,0.71,0.01,1.12,0.01
		c0.26,0,0.53-0.01,0.8-0.03c0.27-0.02,0.56-0.03,0.85-0.03c0.21,0,0.36,0.07,0.48,0.21c0.11,0.14,0.17,0.29,0.17,0.46
		c0,0.22-0.07,0.39-0.22,0.5c-0.19,0.15-0.45,0.23-0.78,0.25c-0.34,0.02-0.66,0.03-0.98,0.03s-0.62-0.02-0.9-0.07
		c-0.28-0.05-0.66-0.07-1.15-0.07c-0.02,0.26-0.03,0.52-0.03,0.77v0.8c0,0.99,0.03,1.97,0.08,2.95c0.06,0.98,0.08,1.96,0.08,2.96
		c0.21-0.02,0.42-0.03,0.63-0.03h0.63c0.49,0,0.86,0.04,1.13,0.11c0.27,0.07,0.41,0.27,0.41,0.59c0,0.26-0.12,0.43-0.35,0.52
		s-0.6,0.13-1.11,0.13h-0.94c-0.16,0-0.29,0.01-0.41,0.03v0.73c0,0.73-0.01,1.42-0.03,2.07c-0.02,0.65-0.03,1.31-0.04,1.97
		c-0.01,0.66-0.02,1.35-0.04,2.06c-0.02,0.71-0.03,1.48-0.03,2.32c0,0.09-0.07,0.21-0.22,0.36s-0.31,0.22-0.48,0.22
		c-0.15,0-0.29-0.07-0.42-0.21c-0.13-0.14-0.2-0.26-0.2-0.35c0-1.29,0.03-2.56,0.08-3.82s0.08-2.53,0.08-3.82
		c0-1.64-0.03-3.13-0.1-4.45c-0.07-1.33-0.1-2.61-0.1-3.86c0-0.45,0-0.91,0.01-1.37s0.03-0.92,0.07-1.37
		C169.5,379.14,169.6,378.98,169.75,378.86z"/>
	<path class="st87" d="M180.21,379.51c-0.1-0.11-0.15-0.24-0.15-0.39s0.06-0.29,0.17-0.43c0.11-0.14,0.28-0.23,0.5-0.27h5.57
		c0.21,0.08,0.36,0.18,0.46,0.31s0.15,0.27,0.15,0.42c0,0.13-0.05,0.25-0.14,0.36c-0.09,0.11-0.24,0.19-0.45,0.22h-2.18
		c0,2.97,0.01,6.02,0.03,9.14c0.02,3.13,0.03,6.19,0.03,9.2c-0.04,0.22-0.13,0.39-0.27,0.5c-0.14,0.11-0.28,0.17-0.43,0.17
		c-0.15,0-0.28-0.05-0.39-0.15c-0.11-0.1-0.19-0.26-0.22-0.46c0-3.06-0.01-6.16-0.03-9.28c-0.02-3.13-0.03-6.16-0.03-9.11h-2.16
		C180.46,379.7,180.31,379.62,180.21,379.51z"/>
	<path class="st87" d="M193.94,378.7c0.32,0,0.55,0.21,0.7,0.62c0,3.01,0.01,6.05,0.03,9.14c0.02,3.09,0.03,6.2,0.03,9.34
		c0,0.17-0.05,0.31-0.15,0.42c-0.1,0.11-0.23,0.21-0.38,0.28c-0.17-0.02-0.34-0.08-0.52-0.2c-0.18-0.11-0.27-0.27-0.27-0.48
		c0-1.57,0-3.12-0.01-4.66c-0.01-1.54-0.02-3.1-0.04-4.69c-0.6,0-1.2-0.01-1.81-0.03c-0.61-0.02-1.2-0.03-1.78-0.03
		c0,0.9,0,1.8-0.01,2.72c-0.01,0.91-0.02,1.8-0.04,2.66c-0.02,0.86-0.05,1.67-0.08,2.42c-0.04,0.76-0.08,1.41-0.14,1.97
		c-0.04,0.22-0.12,0.39-0.24,0.5c-0.12,0.11-0.26,0.17-0.41,0.17c-0.09,0-0.19-0.02-0.29-0.07c-0.1-0.05-0.19-0.11-0.27-0.18
		s-0.13-0.16-0.15-0.25c-0.03-0.09-0.02-0.2,0.01-0.31c0.13-1.34,0.22-2.72,0.27-4.13c0.05-1.41,0.07-2.81,0.07-4.21
		c0-1.75-0.02-3.53-0.06-5.33c-0.04-1.8-0.06-3.52-0.06-5.17c0.11-0.39,0.32-0.59,0.62-0.59c0.32,0,0.55,0.21,0.7,0.62
		c0,0.95,0.01,2.11,0.04,3.49c0.03,1.37,0.04,2.83,0.04,4.38c0.6,0,1.18,0.01,1.74,0.03c0.56,0.02,1.18,0.03,1.85,0.03v-7.87
		C193.43,378.89,193.64,378.7,193.94,378.7z"/>
	<path class="st87" d="M197.66,389.15c0.02-3.05,0.03-6.26,0.03-9.62c-0.13-0.11-0.2-0.26-0.2-0.45c0-0.15,0.06-0.29,0.17-0.43
		c0.11-0.14,0.27-0.23,0.48-0.27h1.01c0.21,0,0.4,0,0.57-0.01c0.18-0.01,0.37-0.01,0.57-0.01c0.24,0,0.53,0,0.85,0.01
		c0.33,0.01,0.64,0.04,0.94,0.08c0.3,0.05,0.55,0.13,0.74,0.25c0.2,0.12,0.29,0.29,0.29,0.52c0,0.09-0.05,0.23-0.15,0.42
		s-0.27,0.28-0.49,0.28c-0.52,0-1.07-0.03-1.64-0.08c-0.57-0.05-1.18-0.09-1.83-0.11c0,0.63,0,1.27-0.01,1.9s-0.01,1.26-0.01,1.88
		v3.78c0.32-0.02,0.68-0.03,1.08-0.03h1.58c0.22,0.04,0.4,0.12,0.53,0.24c0.13,0.12,0.2,0.26,0.2,0.41c0,0.17-0.07,0.33-0.21,0.48
		c-0.14,0.15-0.41,0.22-0.8,0.22c-0.41,0-0.8-0.01-1.18-0.03c-0.37-0.02-0.77-0.03-1.2-0.03c-0.02,1.4-0.03,2.85-0.03,4.34v4.42
		c0.26,0,0.63-0.03,1.11-0.08c0.48-0.06,0.93-0.08,1.36-0.08c0.54,0,1,0.05,1.37,0.15c0.37,0.1,0.56,0.33,0.56,0.69
		c0,0.19-0.07,0.34-0.2,0.46c-0.13,0.12-0.28,0.18-0.45,0.18c-0.15,0-0.34-0.02-0.57-0.07c-0.23-0.05-0.48-0.07-0.74-0.07
		c-0.45,0-0.89,0.02-1.33,0.07s-0.88,0.07-1.33,0.07c-0.11,0.11-0.2,0.18-0.27,0.2c-0.07,0.02-0.12,0.03-0.15,0.03
		c-0.13,0-0.26-0.05-0.39-0.14c-0.13-0.09-0.22-0.26-0.28-0.5C197.63,395.23,197.64,392.21,197.66,389.15z"/>
	<path class="st87" d="M211.73,392.01c-0.1-0.12-0.15-0.26-0.15-0.41s0.06-0.29,0.17-0.43c0.11-0.14,0.28-0.23,0.5-0.27h2.55
		c0.15,0,0.29,0.05,0.42,0.14c0.13,0.09,0.23,0.22,0.31,0.39c0.04,1.59,0.07,2.82,0.08,3.7c0.02,0.88,0.04,1.53,0.06,1.95
		c0.02,0.42,0.03,0.68,0.03,0.77v0.2c0,0.04-0.01,0.11-0.03,0.21c-0.02,0.1-0.06,0.21-0.11,0.32c-0.06,0.11-0.14,0.21-0.25,0.29
		c-0.11,0.08-0.25,0.13-0.42,0.13c-0.26,0-0.44-0.09-0.55-0.28c-0.1-0.19-0.12-0.39-0.04-0.62c-0.17,0.21-0.39,0.37-0.67,0.48
		c-0.28,0.11-0.55,0.17-0.81,0.17c-0.52,0-0.99-0.19-1.4-0.56c-0.41-0.37-0.76-0.83-1.04-1.36c-0.28-0.53-0.49-1.08-0.64-1.65
		c-0.15-0.57-0.23-1.06-0.25-1.47c-0.04-0.43-0.06-0.85-0.06-1.26v-1.26c0-0.43,0-0.89,0.01-1.37s0.01-1.15,0.01-1.99
		c0.04-0.52,0.06-1.07,0.07-1.65c0.01-0.58,0.03-1.16,0.06-1.74c0.03-0.58,0.08-1.15,0.17-1.72c0.08-0.57,0.21-1.12,0.38-1.67
		c0.09-0.3,0.24-0.6,0.45-0.91c0.21-0.31,0.44-0.59,0.71-0.84c0.27-0.25,0.56-0.46,0.88-0.62s0.64-0.24,0.98-0.24
		c0.45,0,0.82,0.13,1.12,0.38c0.3,0.25,0.55,0.57,0.74,0.97c0.2,0.39,0.35,0.82,0.46,1.27c0.11,0.46,0.2,0.89,0.25,1.3l0.14,0.95
		c-0.02,0.22-0.09,0.4-0.22,0.52c-0.13,0.12-0.28,0.18-0.45,0.18c-0.26,0-0.48-0.15-0.64-0.45l-0.17-1.06
		c-0.04-0.24-0.08-0.52-0.14-0.84c-0.06-0.32-0.14-0.62-0.24-0.9c-0.1-0.28-0.23-0.52-0.38-0.71c-0.15-0.2-0.34-0.29-0.56-0.29
		c-0.22,0-0.45,0.09-0.67,0.28c-0.22,0.19-0.42,0.41-0.59,0.66s-0.31,0.52-0.43,0.8c-0.12,0.28-0.19,0.51-0.21,0.7
		c-0.17,1.05-0.29,2.2-0.36,3.47s-0.11,2.46-0.11,3.56c0,0.75,0.01,1.48,0.04,2.21c0.03,0.73,0.06,1.46,0.1,2.18
		c0.04,0.65,0.17,1.24,0.39,1.76c0.22,0.52,0.42,0.92,0.59,1.2c0.11,0.19,0.26,0.38,0.43,0.59c0.18,0.21,0.36,0.31,0.55,0.31
		c0.13,0,0.26-0.05,0.38-0.15c0.12-0.1,0.23-0.22,0.34-0.36c0.1-0.14,0.18-0.29,0.24-0.46s0.1-0.32,0.14-0.45
		c0.06-0.26,0.09-0.53,0.1-0.8c0.01-0.27,0.02-0.53,0.03-0.77s0.03-0.47,0.06-0.67c0.03-0.21,0.09-0.36,0.18-0.48
		c0-0.21,0-0.38-0.01-0.53c-0.01-0.15-0.01-0.34-0.01-0.56h-2.02C211.99,392.21,211.83,392.13,211.73,392.01z"/>
	<path class="st87" d="M220.65,378.47c0.11,0,0.22,0.03,0.34,0.1c0.11,0.07,0.19,0.16,0.22,0.29c0.54,0.93,0.94,1.86,1.19,2.77
		c0.25,0.91,0.43,1.81,0.53,2.69s0.16,1.73,0.18,2.55c0.02,0.82,0.07,1.6,0.17,2.32v-0.03c0.04,0.21,0.06,0.43,0.08,0.69l0.06,0.74
		c0.13,1.16,0.24,2.16,0.32,3.01c0.08,0.85,0.13,1.67,0.13,2.48c0,0.26,0,0.56-0.01,0.9s-0.04,0.66-0.08,0.97
		c-0.05,0.31-0.13,0.56-0.24,0.77c-0.11,0.21-0.27,0.31-0.48,0.31c-0.3,0-0.51-0.13-0.64-0.38s-0.2-0.51-0.2-0.77
		c0-0.21,0.08-0.36,0.25-0.45c0.02-0.17,0.03-0.35,0.03-0.54v-0.57c0-0.67-0.03-1.35-0.1-2.04c-0.06-0.69-0.12-1.3-0.15-1.82
		l-0.06-0.59c-0.49,0-0.97,0.01-1.46,0.04c-0.49,0.03-0.97,0.04-1.46,0.04l-0.06,0.9c-0.02,0.19-0.03,0.38-0.04,0.59
		c-0.01,0.21-0.02,0.44-0.03,0.71c-0.01,0.27-0.01,0.59-0.01,0.97v1.34v1.68c0,0.13-0.06,0.27-0.18,0.42
		c-0.12,0.15-0.29,0.22-0.52,0.22c-0.28,0-0.49-0.16-0.64-0.48v-1.51c0-0.26,0-0.53-0.01-0.8c-0.01-0.27-0.01-0.55-0.01-0.83
		c0-0.77,0.03-1.5,0.1-2.2c0.06-0.7,0.12-1.4,0.15-2.09l0.08-1.34c0.06-0.95,0.14-1.94,0.27-2.97c0.12-1.03,0.26-2.01,0.41-2.94
		l0.08-0.48c0.13-0.75,0.28-1.48,0.46-2.2c0.18-0.72,0.42-1.43,0.74-2.14C220.23,378.58,220.43,378.47,220.65,378.47z
		 M220.71,390.58c0.47-0.03,0.92-0.04,1.37-0.04l-0.14-1.32c0-0.15-0.01-0.34-0.03-0.56c-0.02-0.22-0.03-0.46-0.04-0.7
		c-0.01-0.24-0.02-0.49-0.04-0.73s-0.03-0.47-0.03-0.67v-0.62c0-0.88-0.08-1.8-0.24-2.76s-0.42-1.85-0.8-2.67
		c-0.15,0.41-0.26,0.77-0.32,1.08c-0.07,0.31-0.13,0.68-0.18,1.11c-0.09,1.12-0.23,2.27-0.42,3.46c-0.19,1.19-0.33,2.32-0.42,3.4
		l-0.08,1.06C219.78,390.62,220.24,390.61,220.71,390.58z"/>
	<path class="st87" d="M233.08,398.27c-0.02-0.09-0.05-0.21-0.08-0.36c-0.06-0.32-0.09-0.71-0.11-1.19l-0.06-1.5
		c-0.02-0.52-0.03-1.05-0.04-1.57c-0.01-0.52-0.02-1-0.04-1.43l-0.08-1.65c-0.06-1.06-0.11-2.25-0.15-3.57
		c-0.05-1.32-0.18-2.77-0.41-4.35c-0.26,1.51-0.49,3.08-0.7,4.7c-0.21,1.62-0.33,3.15-0.36,4.56c0,0.3-0.07,0.52-0.21,0.66
		s-0.29,0.21-0.46,0.21c-0.15,0-0.28-0.05-0.41-0.14c-0.12-0.09-0.2-0.22-0.24-0.39c0-0.48-0.01-0.93-0.04-1.34s-0.06-0.83-0.1-1.26
		c-0.09-1.16-0.16-2.09-0.21-2.79c-0.05-0.7-0.09-1.31-0.14-1.83c-0.05-0.52-0.1-1.03-0.15-1.51c-0.06-0.48-0.14-1.09-0.25-1.82
		c-0.21,0.9-0.36,1.85-0.46,2.86s-0.18,2.03-0.22,3.07s-0.07,2.08-0.08,3.12s-0.01,2.05-0.01,3.02c0,0.22,0,0.45,0.01,0.67
		c0.01,0.22,0.02,0.48,0.03,0.77c0.01,0.29,0.02,0.63,0.03,1.02c0.01,0.39,0.01,0.88,0.01,1.46c0.09,0.21,0.08,0.45-0.03,0.73
		c-0.11,0.28-0.31,0.42-0.59,0.42c-0.32,0-0.53-0.17-0.64-0.5s-0.17-0.77-0.17-1.32v-1.54v-1.33c0-0.4,0-0.83,0.01-1.29
		c0.01-0.46,0.02-0.97,0.03-1.54s0.03-1.26,0.07-2.09c0-0.28,0.01-0.67,0.03-1.18c0.02-0.5,0.05-1.07,0.08-1.69
		c0.04-0.63,0.09-1.28,0.15-1.97c0.07-0.69,0.14-1.36,0.24-2c0.09-0.64,0.21-1.25,0.35-1.81c0.14-0.56,0.31-1.02,0.52-1.37
		c0.26-0.5,0.58-0.76,0.95-0.76c0.26,0,0.42,0.08,0.49,0.24c0.07,0.16,0.1,0.34,0.1,0.55c0.17,0.8,0.32,1.59,0.46,2.35
		s0.26,1.54,0.35,2.32c0.11-0.77,0.24-1.52,0.38-2.27c0.14-0.75,0.34-1.47,0.6-2.18c0.07-0.17,0.14-0.35,0.21-0.53
		c0.07-0.19,0.17-0.32,0.32-0.39c0.19-0.09,0.38-0.07,0.57,0.07s0.3,0.39,0.32,0.74c0.09,0.28,0.18,0.6,0.25,0.97
		c0.07,0.36,0.14,0.75,0.18,1.15l0.14,1.22c0.05,0.41,0.09,0.81,0.13,1.21l0.08,0.84c0.02,0.3,0.05,0.69,0.08,1.16
		c0.04,0.48,0.07,1.01,0.1,1.6s0.06,1.21,0.1,1.88l0.11,2c0.06,1.12,0.09,2.2,0.1,3.23c0.01,1.04,0.02,2.11,0.04,3.23
		c0.09,0.19,0.11,0.4,0.06,0.64c-0.06,0.24-0.22,0.36-0.5,0.36c-0.21,0-0.4-0.09-0.59-0.28
		C233.15,398.46,233.1,398.36,233.08,398.27z"/>
	<path class="st87" d="M237.45,389.15c0.02-3.05,0.03-6.26,0.03-9.62c-0.13-0.11-0.2-0.26-0.2-0.45c0-0.15,0.06-0.29,0.17-0.43
		c0.11-0.14,0.27-0.23,0.48-0.27h1.01c0.21,0,0.4,0,0.57-0.01c0.18-0.01,0.37-0.01,0.57-0.01c0.24,0,0.53,0,0.85,0.01
		c0.33,0.01,0.64,0.04,0.94,0.08c0.3,0.05,0.55,0.13,0.74,0.25c0.2,0.12,0.29,0.29,0.29,0.52c0,0.09-0.05,0.23-0.15,0.42
		s-0.27,0.28-0.49,0.28c-0.52,0-1.07-0.03-1.64-0.08c-0.57-0.05-1.18-0.09-1.83-0.11c0,0.63,0,1.27-0.01,1.9s-0.01,1.26-0.01,1.88
		v3.78c0.32-0.02,0.68-0.03,1.08-0.03h1.58c0.22,0.04,0.4,0.12,0.53,0.24c0.13,0.12,0.2,0.26,0.2,0.41c0,0.17-0.07,0.33-0.21,0.48
		c-0.14,0.15-0.41,0.22-0.8,0.22c-0.41,0-0.8-0.01-1.18-0.03c-0.37-0.02-0.77-0.03-1.2-0.03c-0.02,1.4-0.03,2.85-0.03,4.34v4.42
		c0.26,0,0.63-0.03,1.11-0.08c0.48-0.06,0.93-0.08,1.36-0.08c0.54,0,1,0.05,1.37,0.15c0.37,0.1,0.56,0.33,0.56,0.69
		c0,0.19-0.07,0.34-0.2,0.46c-0.13,0.12-0.28,0.18-0.45,0.18c-0.15,0-0.34-0.02-0.57-0.07c-0.23-0.05-0.48-0.07-0.74-0.07
		c-0.45,0-0.89,0.02-1.33,0.07s-0.88,0.07-1.33,0.07c-0.11,0.11-0.2,0.18-0.27,0.2c-0.06,0.02-0.12,0.03-0.15,0.03
		c-0.13,0-0.26-0.05-0.39-0.14c-0.13-0.09-0.22-0.26-0.28-0.5C237.42,395.23,237.43,392.21,237.45,389.15z"/>
</g>
</svg>
