<?xml version="1.0" encoding="utf-8"?>
<!-- Generator: Adobe Illustrator 23.0.3, SVG Export Plug-In . SVG Version: 6.00 Build 0)  -->
<svg version="1.1" id="Layer_1" xmlns="http://www.w3.org/2000/svg" xmlns:xlink="http://www.w3.org/1999/xlink" x="0px" y="0px"
	 viewBox="0 0 320 440" style="enable-background:new 0 0 320 440;" xml:space="preserve">
<style type="text/css">
	.st0{fill:#FFFFFF;}
	.st1{fill:url(#SVGID_1_);}
	.st2{clip-path:url(#SVGID_3_);}
	.st3{clip-path:url(#SVGID_7_);}
	.st4{clip-path:url(#SVGID_14_);}
	.st5{fill:#57426C;}
	.st6{fill:#CCCCCC;}
	.st7{fill:url(#SVGID_15_);}
	.st8{fill:#EE5DA1;}
	.st9{fill:none;stroke:#231F20;stroke-width:0.7466;stroke-linecap:round;stroke-linejoin:round;stroke-miterlimit:10;}
	.st10{fill:#FFCC02;}
	.st11{fill:#00B1D6;}
	.st12{fill:#F8CADE;}
	.st13{fill:#EC268F;}
	.st14{fill:#9B2A8F;}
	.st15{fill:#231F20;}
	.st16{fill:url(#SVGID_16_);}
	.st17{fill:url(#SVGID_17_);}
	.st18{fill:none;stroke:#231F20;stroke-width:0.4978;stroke-linecap:round;stroke-linejoin:round;stroke-miterlimit:10;}
	.st19{fill:#DEF0EA;}
	.st20{fill:#CB2027;}
	.st21{fill:#898B8D;}
	.st22{fill:#201B57;}
	.st23{fill:none;stroke:#231F20;stroke-width:0.7466;stroke-miterlimit:10;}
	.st24{fill:#430925;}
	.st25{fill:#C55BA1;}
	.st26{fill:none;stroke:#231F20;stroke-width:0.4978;stroke-miterlimit:10;}
	.st27{fill:none;stroke:#231F20;stroke-width:0.2489;stroke-linecap:round;stroke-linejoin:round;stroke-miterlimit:10;}
	.st28{fill:url(#SVGID_18_);}
	.st29{fill:url(#SVGID_19_);}
	.st30{fill:#94D8F1;}
	.st31{fill:#004891;}
	.st32{fill:none;stroke:#231F20;stroke-width:1.2444;stroke-linecap:round;stroke-linejoin:round;stroke-miterlimit:10;}
	.st33{fill:none;stroke:#231F20;stroke-width:0.8711;stroke-linecap:round;stroke-linejoin:round;stroke-miterlimit:10;}
	.st34{fill:none;stroke:#231F20;stroke-width:0.9955;stroke-linecap:round;stroke-linejoin:round;stroke-miterlimit:10;}
	.st35{fill:#CA1F8D;}
	.st36{fill:none;stroke:#231F20;stroke-width:0.6934;stroke-linecap:round;stroke-linejoin:round;stroke-miterlimit:10;}
	.st37{fill:#FFCE01;}
	.st38{fill:#ED2433;}
	.st39{fill:#E27588;}
	.st40{fill:url(#SVGID_20_);}
	.st41{fill:url(#SVGID_21_);}
	.st42{fill:url(#SVGID_22_);}
	.st43{fill:#FCB614;}
	.st44{fill:none;stroke:#231F20;stroke-width:1.439;stroke-linecap:round;stroke-linejoin:round;stroke-miterlimit:10;}
	.st45{fill:none;stroke:#231F20;stroke-width:0.9955;stroke-miterlimit:10;}
	.st46{fill:url(#SVGID_23_);}
	.st47{fill:#FBCEC0;}
	.st48{fill:#0093CD;}
	.st49{fill:#7FC579;}
	.st50{fill:#00A551;}
	.st51{fill:#0061AE;}
	.st52{fill:url(#SVGID_24_);}
	.st53{fill:url(#SVGID_25_);}
	.st54{fill:#5F958A;}
	.st55{fill:#84E2CE;}
	.st56{fill:#6FBFA4;}
	.st57{fill:#E2FFEE;}
	.st58{fill:#660029;}
	.st59{fill:#E80042;}
	.st60{fill:#63ECFF;}
	.st61{fill:#4D99AA;}
	.st62{fill:#416B60;}
	.st63{fill:#7E7841;}
	.st64{fill:#66F82C;}
	.st65{fill:#F6E400;}
	.st66{fill:url(#SVGID_26_);}
	.st67{fill:url(#SVGID_27_);}
	.st68{fill:#B18DC4;}
	.st69{fill:url(#SVGID_28_);}
	.st70{fill:url(#SVGID_29_);}
	.st71{fill:url(#SVGID_30_);}
	.st72{fill:#F3D94A;stroke:#000000;stroke-width:0.5;stroke-miterlimit:10;}
	.st73{fill:#D0FF47;}
	.st74{fill:#FF5DC1;}
	.st75{fill:#CB0002;}
	.st76{clip-path:url(#SVGID_32_);}
	.st77{clip-path:url(#SVGID_34_);}
	.st78{fill:#A0A0A0;stroke:#FFFFFF;stroke-width:10;stroke-miterlimit:10;}
	.st79{clip-path:url(#SVGID_38_);}
	.st80{clip-path:url(#SVGID_40_);}
	.st81{fill:none;stroke:#FFFFFF;stroke-width:10;stroke-linejoin:bevel;stroke-miterlimit:10;}
	.st82{fill:none;stroke:#FFFFFF;stroke-width:10;stroke-miterlimit:10;}
	.st83{clip-path:url(#SVGID_44_);}
	.st84{clip-path:url(#SVGID_46_);}
	.st85{fill:url(#SVGID_49_);}
	.st86{fill:url(#SVGID_50_);}
	.st87{fill:#EE72A1;}
	.st88{fill:url(#SVGID_51_);}
	.st89{fill:url(#SVGID_52_);}
	.st90{fill:#828168;}
	.st91{fill:url(#SVGID_53_);}
	.st92{fill:url(#SVGID_54_);}
	.st93{fill:#4172A1;}
	.st94{fill:url(#SVGID_55_);}
	.st95{fill:url(#SVGID_56_);}
	.st96{fill:#EE730C;}
	.st97{fill:url(#SVGID_57_);}
	.st98{fill:url(#SVGID_58_);}
	.st99{fill:#027A8E;}
	.st100{fill:url(#SVGID_59_);}
	.st101{fill:url(#SVGID_60_);}
	.st102{fill:#08B778;}
	.st103{fill:url(#SVGID_61_);}
	.st104{fill:url(#SVGID_62_);}
	.st105{fill:#6A498E;}
	.st106{fill:url(#SVGID_63_);}
	.st107{fill:url(#SVGID_64_);}
	.st108{fill:#89C408;}
	.st109{clip-path:url(#SVGID_68_);}
	.st110{clip-path:url(#SVGID_70_);}
	.st111{clip-path:url(#SVGID_72_);}
	.st112{clip-path:url(#SVGID_76_);}
	.st113{clip-path:url(#SVGID_78_);}
	.st114{fill:none;stroke:#FFFFFF;stroke-miterlimit:10;}
</style>
<path class="st0" d="M42,440c-23.16,0-42-18.84-42-42V42C0,18.84,18.84,0,42,0h236c23.16,0,42,18.84,42,42v356
	c0,23.16-18.84,42-42,42H42z"/>
<linearGradient id="SVGID_1_" gradientUnits="userSpaceOnUse" x1="160" y1="410" x2="160" y2="30">
	<stop  offset="0" style="stop-color:#FFFFFF"/>
	<stop  offset="1" style="stop-color:#8F9C68"/>
</linearGradient>
<path class="st1" d="M278,410H42c-6.6,0-12-5.4-12-12V42c0-6.6,5.4-12,12-12h236c6.6,0,12,5.4,12,12v356
	C290,404.6,284.6,410,278,410z"/>
<g>
	<path class="st15" d="M139.76,105.34c0,0-20.42,3.83-20.42,44.3c0,9.66,7.48,26.62,10.39,33.18c2.92,6.56,4.19,15.5,0.36,23.7
		l3.65-2.55c0,0-2.92,5.47-2.37,6.93c0.55,1.46,2.55-0.73,2.19,0.55c-0.36,1.28,0.55,3.28,1.82,1.64c1.28-1.64,3.46-4.92,3.46-3.1
		c0,1.82,1.46,18.23-3.28,44.3c-4.74,26.07-4.38,37.19,0.18,41.75c0,0-2.01-5.47-0.18-8.39c0,0,0.91,8.75,6.01,10.58
		c0,0,6.02,18.96,13.67,28.81c7.66,9.85,12.58,15.13,12.58,15.13s-0.73-4.92-1.09-7.11c0,0,2.92,1.82,4.56,13.49
		c0,0,11.49-10.03,14.4-18.42c0,0,1.46,6.56,3.28,7.84c0,0,0-7.66,2.01-9.85l2.19,5.11c0,0,2.01-6.38,2.92-7.29
		c0.91-0.91,4.74-7.84,4.38-12.94c0,0,2.73,4.19,5.83,4.92c0,0-4.01-9.84-3.28-18.6c0.73-8.75,3.83-20.42,3.65-31.54
		c0,0,1.82,2.19,2.01,7.48c0,0,2.55-3.83,2.01-9.84c-0.55-6.02-3.1-15.86-3.28-18.6c-0.18-2.74-0.55-20.97-0.91-23.34
		c-0.36-2.37-12.94-77.85-22.06-101.01C178.95,100.96,162.36,86.74,139.76,105.34"/>
	<path class="st18" d="M139.76,105.34c0,0-20.42,3.83-20.42,44.3c0,9.66,7.48,26.62,10.39,33.18c2.92,6.56,4.19,15.5,0.36,23.7
		l3.65-2.55c0,0-2.92,5.47-2.37,6.93c0.55,1.46,2.55-0.73,2.19,0.55c-0.36,1.28,0.55,3.28,1.82,1.64c1.28-1.64,3.46-4.92,3.46-3.1
		c0,1.82,1.46,18.23-3.28,44.3c-4.74,26.07-4.38,37.19,0.18,41.75c0,0-2.01-5.47-0.18-8.39c0,0,0.91,8.75,6.01,10.58
		c0,0,6.02,18.96,13.67,28.81c7.66,9.85,12.58,15.13,12.58,15.13s-0.73-4.92-1.09-7.11c0,0,2.92,1.82,4.56,13.49
		c0,0,11.49-10.03,14.4-18.42c0,0,1.46,6.56,3.28,7.84c0,0,0-7.66,2.01-9.85l2.19,5.11c0,0,2.01-6.38,2.92-7.29
		c0.91-0.91,4.74-7.84,4.38-12.94c0,0,2.73,4.19,5.83,4.92c0,0-4.01-9.84-3.28-18.6c0.73-8.75,3.83-20.42,3.65-31.54
		c0,0,1.82,2.19,2.01,7.48c0,0,2.55-3.83,2.01-9.84c-0.55-6.02-3.1-15.86-3.28-18.6c-0.18-2.74-0.55-20.97-0.91-23.34
		c-0.36-2.37-12.94-77.85-22.06-101.01C178.95,100.96,162.36,86.74,139.76,105.34z"/>
	<path class="st19" d="M157.67,183.46c0,0-1.09-0.14-1.78,3.97c-0.68,4.1-2.01,16.98-3.01,29.13c-0.82,9.98-3.69,9.71-10.8,10.39
		c-7.11,0.68-16.33,2.91-19.28,2.32c-4.38-0.86-5.61,1.64-4.38,2.05c1.23,0.41,2.33,0.58,0.82,1.64c-2.46,1.73-2.87,4.51-1.78,4.24
		c1.09-0.27,0.55,0.82,1.78,0.68c1.23-0.14,1.23-0.27,1.23,0.68c0,0.96,1.09,1.5,1.64,0.68c0.55-0.82,3.96-3.42,5.47-3.83
		c1.5-0.41,24.34-4.79,25.02-4.92c0.68-0.14,3.97-0.82,5.06-6.15c1.09-5.33,3.42-31.04,3.42-31.04L157.67,183.46z"/>
	<path class="st9" d="M157.67,183.46c0,0-1.09-0.14-1.78,3.97c-0.68,4.1-2.01,16.98-3.01,29.13c-0.82,9.98-3.69,9.71-10.8,10.39
		c-7.11,0.68-16.33,2.91-19.28,2.32c-4.38-0.86-5.61,1.64-4.38,2.05c1.23,0.41,2.33,0.58,0.82,1.64c-2.46,1.73-2.87,4.51-1.78,4.24
		c1.09-0.27,0.55,0.82,1.78,0.68c1.23-0.14,1.23-0.27,1.23,0.68c0,0.96,1.09,1.5,1.64,0.68c0.55-0.82,3.96-3.42,5.47-3.83
		c1.5-0.41,24.34-4.79,25.02-4.92c0.68-0.14,3.97-0.82,5.06-6.15c1.09-5.33,3.42-31.04,3.42-31.04L157.67,183.46z"/>
	<path class="st20" d="M146.05,306.52c-0.27,0.41-1.43-0.48-1.84-1.78c-0.41-1.3-2.19-0.82-2.6-0.68c-0.27,0.09-1.34,1.22-2.04,1.97
		c1.5,20.31,11.58,33.83,6.48,46.16c-1.64,3.97-5.19,7.38-2.32,8.07c2.87,0.68,8.61-4.65,10.53-8.07c1.92-3.42,3.06-2.58,2.32,0.14
		c-0.41,1.5,3.01-0.27,3.69-3.28c0.68-3.01,1.23-3.97-1.09-6.97c-2.32-3.01-3.84-4.54-11.76-36.24c-0.1-0.38-0.18-0.78-0.27-1.18
		C146.23,305.05,146.26,306.2,146.05,306.52"/>
	<path class="st9" d="M146.05,306.52c-0.27,0.41-1.43-0.48-1.84-1.78c-0.41-1.3-2.19-0.82-2.6-0.68c-0.27,0.09-1.34,1.22-2.04,1.97
		c1.5,20.31,11.58,33.83,6.48,46.16c-1.64,3.97-5.19,7.38-2.32,8.07c2.87,0.68,8.61-4.65,10.53-8.07c1.92-3.42,3.06-2.58,2.32,0.14
		c-0.41,1.5,3.01-0.27,3.69-3.28c0.68-3.01,1.23-3.97-1.09-6.97c-2.32-3.01-3.84-4.54-11.76-36.24c-0.1-0.38-0.18-0.78-0.27-1.18
		C146.23,305.05,146.26,306.2,146.05,306.52z"/>
	<path class="st21" d="M190.21,219.28c2.05-18.46-5.6-32.82-9.02-36.1c-3.42-3.28-22.02-4.1-22.02-4.1s-1.09-0.68-1.23,0.68
		c-0.14,1.37-2.22,12.64,3.14,16.14c3.15,2.05,6.02,2.46,4.92,3.97c-1.09,1.5-0.14,1.78,0.96,2.19c1.09,0.41,1.92,0.41,1.92,2.74
		c0,2.17,1.78,10.52-6.18,28.05l24.33,2.91C188.28,231.83,189.41,226.52,190.21,219.28"/>
	<path class="st9" d="M190.21,219.28c2.05-18.46-5.6-32.82-9.02-36.1c-3.42-3.28-22.02-4.1-22.02-4.1s-1.09-0.68-1.23,0.68
		c-0.14,1.37-2.22,12.64,3.14,16.14c3.15,2.05,6.02,2.46,4.92,3.97c-1.09,1.5-0.14,1.78,0.96,2.19c1.09,0.41,1.92,0.41,1.92,2.74
		c0,2.17,1.78,10.52-6.18,28.05l24.33,2.91C188.28,231.83,189.41,226.52,190.21,219.28z"/>
	<path class="st22" d="M161.98,309.33c1.23,1.16,2.26,1.71,2.26,1.71l0.41-4.1l0.48-0.82h0.4c-3.87-7.35-5.61-13.53-2.52-22.42
		c4.65-13.4,13.67-33.23,14.08-34.05c0.41-0.82,0.41-2.6,1.78-2.87c0.99-0.2,4.95-0.91,8.17-11.03l-24.33-2.91
		c-0.58,1.27-1.2,2.58-1.88,3.95c-10.12,20.24-21.98,49.76-21.4,66.59c0.03,0.9,0.08,1.78,0.15,2.66c0.7-0.76,1.77-1.88,2.04-1.97
		c0.41-0.14,2.19-0.62,2.6,0.68c0.41,1.3,1.57,2.19,1.84,1.78c0.21-0.32,0.18-1.47,1.1-1.86c-1.51-7.12-1.46-17.49,1.91-26.03
		c3.56-9.02,14.63-32.68,14.77-33.09c0.14-0.41-0.14-0.96-1.37-1.23c-1.23-0.27-1.37-1.51,0.27-0.96c1.64,0.55,7.38,1.5,7.79,1.64
		c0.41,0.14,2.05-0.14,0.96,1.64c-1.09,1.78-12.58,29.54-13.95,32.41c-1.35,2.84-5.64,13.58,1.01,29.82
		C159.67,308.7,161.23,308.63,161.98,309.33"/>
	<path class="st9" d="M161.98,309.33c1.23,1.16,2.26,1.71,2.26,1.71l0.41-4.1l0.48-0.82h0.4c-3.87-7.35-5.61-13.53-2.52-22.42
		c4.65-13.4,13.67-33.23,14.08-34.05c0.41-0.82,0.41-2.6,1.78-2.87c0.99-0.2,4.95-0.91,8.17-11.03l-24.33-2.91
		c-0.58,1.27-1.2,2.58-1.88,3.95c-10.12,20.24-21.98,49.76-21.4,66.59c0.03,0.9,0.08,1.78,0.15,2.66c0.7-0.76,1.77-1.88,2.04-1.97
		c0.41-0.14,2.19-0.62,2.6,0.68c0.41,1.3,1.57,2.19,1.84,1.78c0.21-0.32,0.18-1.47,1.1-1.86c-1.51-7.12-1.46-17.49,1.91-26.03
		c3.56-9.02,14.63-32.68,14.77-33.09c0.14-0.41-0.14-0.96-1.37-1.23c-1.23-0.27-1.37-1.51,0.27-0.96c1.64,0.55,7.38,1.5,7.79,1.64
		c0.41,0.14,2.05-0.14,0.96,1.64c-1.09,1.78-12.58,29.54-13.95,32.41c-1.35,2.84-5.64,13.58,1.01,29.82
		C159.67,308.7,161.23,308.63,161.98,309.33z"/>
	<path class="st20" d="M191.85,350.83c-1.91-2.6-11.08-17.78-19.14-32.13c-2.71-4.83-5.23-8.85-7.19-12.58h-0.4l-0.48,0.82
		l-0.41,4.1c0,0-1.03-0.55-2.26-1.71c-0.74-0.7-2.31-0.63-3.43-0.46c0.07,0.18,0.14,0.35,0.22,0.53
		c6.97,16.55,16.82,27.35,18.32,35.41c1.5,8.07,3.28,8.07-5.47,13.67c-4.01,2.57-1.23,3.42,0.82,3.69
		c2.05,0.27,8.34,0.14,10.94-2.05c2.6-2.19,4.51-4.24,4.51-3.01s1.37,4.51,3.83,1.64C194.18,355.89,193.77,353.43,191.85,350.83"/>
	<path class="st9" d="M191.85,350.83c-1.91-2.6-11.08-17.78-19.14-32.13c-2.71-4.83-5.23-8.85-7.19-12.58h-0.4l-0.48,0.82l-0.41,4.1
		c0,0-1.03-0.55-2.26-1.71c-0.74-0.7-2.31-0.63-3.43-0.46c0.07,0.18,0.14,0.35,0.22,0.53c6.97,16.55,16.82,27.35,18.32,35.41
		c1.5,8.07,3.28,8.07-5.47,13.67c-4.01,2.57-1.23,3.42,0.82,3.69c2.05,0.27,8.34,0.14,10.94-2.05c2.6-2.19,4.51-4.24,4.51-3.01
		s1.37,4.51,3.83,1.64C194.18,355.89,193.77,353.43,191.85,350.83z"/>
	<path class="st15" d="M166.01,172.61c0,0-3.65,13.68-0.2,20.08c0.92,1.71,1.3,3.49,1.64,4.1c0.34,0.61,0.96,0.75,0.96-0.34
		c0-1.09,0.41-4.65,0.82-3.35c0.41,1.3,2.39,4.92,2.6,8.2c0.2,3.28,0.41,9.02,0,11.76c0,0,1.78-1.23,2.67-3.28
		c0.89-2.05,1.3-5.2,1.44-5.81c0.14-0.61,0.34,0.14,0.41,1.02c0.07,0.89-0.41,3.9-0.41,5.47s4.09-1.63,4.17-4.79
		c0.32-12.83,9.09-23.25,9.09-23.25l-16.34-5.47L166.01,172.61z"/>
	<path class="st9" d="M118.01,237.06c0,0,2.67-2.74,3.15-2.87"/>
	<path class="st9" d="M120.27,237.95c0,0,2.67-2.94,3.21-3.01"/>
	<path class="st9" d="M124.72,233.16c0,0,1.5-1.71,2.12-1.91"/>
	<line class="st9" x1="166.97" y1="202.05" x2="170.8" y2="202.05"/>
	<path class="st22" d="M135.65,186.74c-0.13,0-0.25-0.1-0.27-0.24c-0.36-2.77-3.87-13.42-3.91-13.53c-0.04-0.13,0.02-0.27,0.14-0.33
		c0.12-0.06,0.27-0.03,0.34,0.08l3.48,4.78c-2.91-8.43-4.18-26.56-4.24-27.4c-0.01-0.15,0.1-0.28,0.25-0.29
		c0.15-0.01,0.28,0.1,0.29,0.25c0.01,0.23,1.59,22.54,5.07,29.34c0.07,0.13,0.02,0.28-0.1,0.36c-0.12,0.07-0.28,0.04-0.36-0.07
		l-3.81-5.25c1.01,3.14,3.11,9.81,3.39,11.98c0.02,0.15-0.09,0.29-0.23,0.31C135.68,186.74,135.67,186.74,135.65,186.74"/>
	<path class="st22" d="M168.93,165.77c-0.14,0-0.26-0.11-0.27-0.26c-0.01-0.13-0.79-12.77-6.64-14.43
		c-0.14-0.04-0.23-0.19-0.19-0.34c0.04-0.14,0.19-0.23,0.34-0.19c6.22,1.77,7.01,14.39,7.04,14.92c0.01,0.15-0.11,0.28-0.26,0.29
		H168.93z"/>
	<path class="st22" d="M187.61,181c-0.05,0-0.1-0.01-0.14-0.04c-0.1-0.06-0.15-0.18-0.12-0.29c0.68-3.11,0.21-9.58-0.23-13.94
		c-0.46,4.28-2.12,8.78-4.83,13.02c-0.09,0.14-0.14,0.23-0.17,0.26c-0.05,0.14-0.19,0.21-0.34,0.16c-0.14-0.05-0.22-0.21-0.17-0.36
		c0.02-0.06,0.05-0.11,0.21-0.36c3.61-5.65,5.31-11.73,4.79-17.12c-0.01-0.15,0.09-0.28,0.24-0.3c0.14-0.02,0.28,0.09,0.3,0.23
		c0.07,0.52,1.64,12.16,0.88,17.65c0.6-0.67,1.46-1.88,1.68-3.43c0.02-0.15,0.16-0.26,0.31-0.23c0.15,0.02,0.25,0.16,0.23,0.31
		c-0.38,2.63-2.38,4.3-2.47,4.37C187.74,180.98,187.68,181,187.61,181"/>
	<path class="st19" d="M182.42,182.36c0,0-1.91,1.37-2.32,5.88c-0.41,4.51-0.27,17.64,0.55,25.57c0.82,7.93,4.1,32.95,3.83,38.7
		c-0.27,5.74-1.85,21.58-2.19,24.89c-0.34,3.35,1.71,9.71,2.67,11.14c0.96,1.44,4.58,5.26,4.65,4.38c0.07-0.89,0.14-1.09,0.68-0.89
		c0.55,0.2,0.96,0.07,0.96-0.41c0-0.48,1.37,0.41,1.03-0.62c-0.34-1.03-3.46-8.2-4.15-11.42c-0.68-3.21-0.02-7.86,1.21-10.94
		c1.23-3.08,1.03-19.9,0.27-31.31c-0.75-11.42-4.92-41.91-5.67-43.28c0,0,2.14,0.62,3.9-0.82
		C188.14,192.97,182.42,182.36,182.42,182.36"/>
	<path class="st9" d="M182.42,182.36c0,0-1.91,1.37-2.32,5.88c-0.41,4.51-0.27,17.64,0.55,25.57c0.82,7.93,4.1,32.95,3.83,38.7
		c-0.27,5.74-1.85,21.58-2.19,24.89c-0.34,3.35,1.71,9.71,2.67,11.14c0.96,1.44,4.58,5.26,4.65,4.38c0.07-0.89,0.14-1.09,0.68-0.89
		c0.55,0.2,0.96,0.07,0.96-0.41c0-0.48,1.37,0.41,1.03-0.62c-0.34-1.03-3.46-8.2-4.15-11.42c-0.68-3.21-0.02-7.86,1.21-10.94
		c1.23-3.08,1.03-19.9,0.27-31.31c-0.75-11.42-4.92-41.91-5.67-43.28c0,0,2.14,0.62,3.9-0.82
		C188.14,192.97,182.42,182.36,182.42,182.36z"/>
	<path class="st19" d="M141.53,123.16c0,0-8.62,13.54-8.62,24.89c0,7.11,7.66,15.31,17.09,15.31c4.24,0,8.2,10.26,9.3,14.63
		c1.09,4.38,1.23,12.99,6.43,12.31c0,0-3.78-4.28,0.05-17c0,0,1.18-0.64-0.45-1.87c-1.64-1.23-8.2-9.3-5.74-11.9
		c2.46-2.6,5.33-7.11,3.01-9.98c-2.32-2.87-7.88-14.13-12.58-16.96C147.15,130.87,143.04,126.03,141.53,123.16"/>
	<path class="st23" d="M141.53,123.16c0,0-8.62,13.54-8.62,24.89c0,7.11,7.66,15.31,17.09,15.31c4.24,0,8.2,10.26,9.3,14.63
		c1.09,4.38,1.23,12.99,6.43,12.31c0,0-3.78-4.28,0.05-17c0,0,1.18-0.64-0.45-1.87c-1.64-1.23-8.2-9.3-5.74-11.9
		c2.46-2.6,5.33-7.11,3.01-9.98c-2.32-2.87-7.88-14.13-12.58-16.96C147.15,130.87,143.04,126.03,141.53,123.16z"/>
	<line class="st9" x1="183.9" y1="193.78" x2="182.53" y2="188.72"/>
	<path class="st15" d="M138.87,139.82c0,0.72-0.58,1.3-1.3,1.3c-0.72,0-1.3-0.58-1.3-1.3c0-0.72,0.58-1.3,1.3-1.3
		C138.29,138.52,138.87,139.1,138.87,139.82"/>
	<path class="st15" d="M152.36,139.82c0,0.72-0.58,1.3-1.3,1.3c-0.72,0-1.3-0.58-1.3-1.3c0-0.72,0.58-1.3,1.3-1.3
		C151.78,138.52,152.36,139.1,152.36,139.82"/>
	<path class="st24" d="M158.98,166.61c0,0.35-0.28,0.63-0.63,0.63c-0.35,0-0.63-0.28-0.63-0.63c0-0.35,0.28-0.63,0.63-0.63
		C158.7,165.97,158.98,166.26,158.98,166.61"/>
	<path class="st24" d="M160.62,169.6c0,0.35-0.28,0.63-0.63,0.63s-0.63-0.28-0.63-0.63c0-0.35,0.28-0.63,0.63-0.63
		S160.62,169.25,160.62,169.6"/>
	<path class="st24" d="M140.48,143.35c-1.37-0.06-2.28,1-1.09,2.64c1.19,1.64,3.01,1.46,5.29,1.64c2.28,0.18,3.1-0.37,4.01-0.82
		c0.91-0.45,3.1-2.46,2.28-3.74c-0.82-1.28-3.56-1.64-4.47-0.91C145.59,142.89,146.23,143.62,140.48,143.35"/>
	<path class="st23" d="M140.48,143.35c-1.37-0.06-2.28,1-1.09,2.64c1.19,1.64,3.01,1.46,5.29,1.64c2.28,0.18,3.1-0.37,4.01-0.82
		c0.91-0.45,3.1-2.46,2.28-3.74c-0.82-1.28-3.56-1.64-4.47-0.91C145.59,142.89,146.23,143.62,140.48,143.35z"/>
	<path class="st25" d="M143.49,147.36c0,0,2.01-4.19,5.29-1C148.78,146.36,146.96,148.18,143.49,147.36"/>
	<path class="st26" d="M143.49,147.36c0,0,2.01-4.19,5.29-1C148.78,146.36,146.96,148.18,143.49,147.36z"/>
	<path class="st21" d="M141.01,143.33c0,0.27,0.48,1.85,0.48,1.85l0.73-1.82L141.01,143.33z"/>
	<path class="st27" d="M141.01,143.33c0,0.27,0.48,1.85,0.48,1.85l0.73-1.82L141.01,143.33z"/>
	<polygon class="st21" points="146.27,142.44 146.73,144.62 147.32,141.98 	"/>
	<polygon class="st27" points="146.27,142.44 146.73,144.62 147.32,141.98 	"/>
	<path class="st9" d="M189.8,291.96c-0.34-0.89-1.98-2.05-2.94-4.58"/>
	<path class="st9" d="M191.24,291.62c0,0-1.91-2.87-2.8-4.51"/>
	<path class="st22" d="M165.75,173.32c-0.1,0-0.19-0.05-0.24-0.14c-0.07-0.13-0.03-0.3,0.11-0.37c6.22-3.48,3.76-14.77,2.58-20.2
		c-1.16-5.33-5.02-11.77-7.57-16.03c-0.43-0.72-0.82-1.37-1.15-1.94c-2.27-3.9-4.47-11.65-4.49-11.73c-0.04-0.15,0.04-0.3,0.19-0.34
		c0.14-0.04,0.3,0.04,0.34,0.19c0.02,0.08,2.2,7.76,4.44,11.61c0.33,0.57,0.72,1.22,1.15,1.94c2.57,4.29,6.45,10.77,7.63,16.19
		c1.21,5.55,3.72,17.11-2.85,20.79C165.85,173.31,165.8,173.32,165.75,173.32"/>
	<path class="st22" d="M143.03,114.09c-0.79,9.44,19.61,16.86,38.8-0.03c-5.14-11.77-14.23-19.49-26.09-17.2
		C150.86,100.65,143.58,107.49,143.03,114.09"/>
</g>
<linearGradient id="SVGID_3_" gradientUnits="userSpaceOnUse" x1="159.5" y1="409.5" x2="159.5" y2="333.5">
	<stop  offset="0" style="stop-color:#FFFFFF"/>
	<stop  offset="0.8587" style="stop-color:#FFFFFF;stop-opacity:0.1413"/>
	<stop  offset="1" style="stop-color:#FFFFFF;stop-opacity:0"/>
</linearGradient>
<polygon style="fill:url(#SVGID_3_);" points="29.5,333.5 289.5,333.5 289.5,409.5 29.5,409.5 "/>
<g>
	<path class="st0" d="M63.31,51.41c0.02-0.17,0.08-0.3,0.18-0.4c-0.1-0.1-0.23-0.3-0.4-0.61c-0.17-0.31-0.3-0.47-0.4-0.47
		c-0.29,0-0.64,0.38-1.04,1.15s-0.8,1.62-1.19,2.56c-0.38,0.94-0.72,1.84-1.01,2.7l-0.5,1.51c-0.24,1.39-0.48,2.87-0.72,4.43
		c-0.24,1.56-0.43,3.28-0.58,5.15c0.53-0.53,1.13-0.96,1.8-1.3c0.67-0.34,1.42-0.5,2.23-0.5c1.54,0,2.76,0.58,3.67,1.73
		s1.6,2.48,2.05,4c0.46,1.51,0.76,3.01,0.9,4.5c0.14,1.49,0.22,2.59,0.22,3.31c0,0.91-0.05,2.04-0.14,3.38
		c-0.1,1.34-0.25,2.75-0.47,4.21c-0.22,1.46-0.52,2.93-0.9,4.39c-0.38,1.46-0.86,2.78-1.44,3.96c-0.58,1.18-1.27,2.12-2.09,2.84
		c-0.82,0.72-1.75,1.08-2.81,1.08c-1.01,0-1.87-0.38-2.59-1.15c-0.72-0.77-1.33-1.79-1.84-3.06c-0.5-1.27-0.92-2.72-1.26-4.36
		s-0.59-3.31-0.76-5.04c-0.17-1.73-0.29-3.43-0.36-5.11c-0.07-1.68-0.11-3.22-0.11-4.61c0-3.17,0.14-5.95,0.43-8.35
		s0.62-4.68,1.01-6.84l0.43-2.38c0.19-1.06,0.52-2.27,0.97-3.64c0.46-1.37,1-2.66,1.62-3.89s1.33-2.24,2.12-3.06
		c0.79-0.82,1.62-1.22,2.48-1.22c0.72,0,1.34,0.22,1.87,0.65c0.53,0.43,0.96,0.96,1.3,1.58c0.34,0.62,0.59,1.31,0.76,2.05
		s0.28,1.43,0.32,2.05c-0.29,1.06-0.86,1.58-1.73,1.58c-0.38,0-0.82-0.14-1.3-0.43s-0.77-0.79-0.86-1.51
		C63.25,51.88,63.29,51.58,63.31,51.41z M57.52,81.76c0.14,2.26,0.36,4.39,0.65,6.41c0.29,2.02,0.65,3.72,1.08,5.11
		c0.43,1.39,0.91,2.09,1.44,2.09c0.77,0,1.43-0.68,1.98-2.05c0.55-1.37,1.01-2.98,1.37-4.83c0.36-1.85,0.61-3.7,0.76-5.54
		C64.93,81.1,65,79.67,65,78.66c0-2.69-0.36-4.9-1.08-6.62c-0.72-1.73-1.51-2.59-2.38-2.59c-0.53,0-1.01,0.24-1.44,0.72
		c-0.43,0.48-0.84,0.98-1.22,1.51v-0.07l-0.4,0.79c-0.17,0.34-0.32,0.7-0.47,1.08c-0.14,0.38-0.28,0.76-0.4,1.12
		c-0.12,0.36-0.2,0.68-0.25,0.97l-0.14,0.22C57.28,77.51,57.37,79.5,57.52,81.76z"/>
</g>
<g>
	<path class="st0" d="M124.41,83.56c-0.02-0.12-0.06-0.28-0.11-0.47c-0.07-0.41-0.12-0.92-0.14-1.53l-0.07-1.93
		c-0.02-0.67-0.04-1.34-0.05-2.02s-0.03-1.28-0.05-1.84l-0.11-2.12c-0.07-1.37-0.14-2.9-0.2-4.59c-0.06-1.69-0.23-3.56-0.52-5.6
		c-0.34,1.94-0.64,3.96-0.9,6.05c-0.26,2.09-0.42,4.04-0.47,5.87c0,0.38-0.09,0.67-0.27,0.85c-0.18,0.18-0.38,0.27-0.59,0.27
		c-0.19,0-0.37-0.06-0.52-0.18s-0.26-0.29-0.31-0.5c0-0.62-0.02-1.2-0.05-1.73c-0.04-0.53-0.08-1.07-0.13-1.62
		c-0.12-1.49-0.21-2.68-0.27-3.58c-0.06-0.9-0.12-1.69-0.18-2.36c-0.06-0.67-0.13-1.32-0.2-1.94s-0.18-1.4-0.32-2.34
		c-0.26,1.15-0.46,2.38-0.59,3.67c-0.13,1.3-0.23,2.61-0.29,3.94c-0.06,1.33-0.1,2.67-0.11,4.01c-0.01,1.34-0.02,2.64-0.02,3.89
		c0,0.29,0.01,0.58,0.02,0.86c0.01,0.29,0.02,0.62,0.04,0.99c0.01,0.37,0.02,0.81,0.04,1.31c0.01,0.5,0.02,1.13,0.02,1.87
		c0.12,0.26,0.11,0.58-0.04,0.94c-0.14,0.36-0.4,0.54-0.76,0.54c-0.41,0-0.68-0.22-0.83-0.65c-0.14-0.43-0.22-1-0.22-1.69v-1.98
		v-1.71c0-0.52,0.01-1.07,0.02-1.66c0.01-0.59,0.02-1.25,0.04-1.98c0.01-0.73,0.04-1.62,0.09-2.68c0-0.36,0.01-0.86,0.04-1.51
		c0.02-0.65,0.06-1.37,0.11-2.18c0.05-0.8,0.11-1.65,0.2-2.54c0.08-0.89,0.19-1.75,0.31-2.57s0.27-1.6,0.45-2.32
		c0.18-0.72,0.4-1.31,0.67-1.76c0.34-0.65,0.74-0.97,1.22-0.97c0.34,0,0.55,0.1,0.63,0.3c0.08,0.21,0.13,0.44,0.13,0.7
		c0.22,1.03,0.41,2.04,0.59,3.02c0.18,0.98,0.33,1.98,0.45,2.99c0.14-0.98,0.31-1.96,0.49-2.92c0.18-0.96,0.44-1.9,0.77-2.81
		c0.1-0.22,0.19-0.44,0.27-0.68s0.22-0.41,0.41-0.5c0.24-0.12,0.49-0.09,0.74,0.09s0.39,0.5,0.41,0.95
		c0.12,0.36,0.23,0.77,0.32,1.24c0.1,0.47,0.17,0.96,0.23,1.48l0.18,1.57c0.06,0.53,0.11,1.04,0.16,1.55l0.11,1.08
		c0.02,0.38,0.06,0.88,0.11,1.49c0.05,0.61,0.09,1.29,0.13,2.05s0.08,1.56,0.13,2.41l0.14,2.57c0.07,1.44,0.11,2.83,0.13,4.16
		c0.01,1.33,0.03,2.72,0.05,4.16c0.12,0.24,0.14,0.52,0.07,0.83c-0.07,0.31-0.29,0.47-0.65,0.47c-0.26,0-0.52-0.12-0.76-0.36
		C124.5,83.8,124.44,83.68,124.41,83.56z"/>
	<path class="st0" d="M132.76,58.12c0.14,0,0.29,0.04,0.43,0.13c0.14,0.08,0.24,0.21,0.29,0.38c0.7,1.2,1.21,2.39,1.53,3.56
		c0.32,1.18,0.55,2.33,0.68,3.46c0.13,1.13,0.21,2.22,0.23,3.28c0.02,1.06,0.1,2.05,0.22,2.99v-0.04c0.05,0.26,0.08,0.56,0.11,0.88
		l0.07,0.95c0.17,1.49,0.31,2.78,0.41,3.87c0.11,1.09,0.16,2.15,0.16,3.19c0,0.34-0.01,0.72-0.02,1.15s-0.05,0.85-0.11,1.24
		c-0.06,0.4-0.16,0.73-0.31,0.99s-0.35,0.4-0.61,0.4c-0.38,0-0.66-0.16-0.83-0.49c-0.17-0.32-0.25-0.65-0.25-0.99
		c0-0.26,0.11-0.46,0.32-0.58c0.02-0.22,0.04-0.45,0.04-0.7v-0.74c0-0.86-0.04-1.74-0.13-2.63s-0.15-1.67-0.2-2.34l-0.07-0.76
		c-0.62,0-1.25,0.02-1.87,0.05c-0.62,0.04-1.25,0.05-1.87,0.05l-0.07,1.15c-0.02,0.24-0.04,0.49-0.05,0.76
		c-0.01,0.26-0.02,0.57-0.04,0.92c-0.01,0.35-0.02,0.76-0.02,1.24v1.73v2.16c0,0.17-0.08,0.35-0.23,0.54
		c-0.16,0.19-0.38,0.29-0.67,0.29c-0.36,0-0.64-0.21-0.83-0.61v-1.94c0-0.34-0.01-0.68-0.02-1.03c-0.01-0.35-0.02-0.7-0.02-1.06
		c0-0.98,0.04-1.93,0.13-2.83s0.15-1.79,0.2-2.68l0.11-1.73c0.07-1.22,0.19-2.5,0.34-3.82c0.16-1.32,0.33-2.58,0.52-3.78l0.11-0.61
		c0.17-0.96,0.37-1.9,0.59-2.83c0.23-0.92,0.55-1.84,0.95-2.75C132.22,58.26,132.48,58.12,132.76,58.12z M132.84,73.68
		c0.6-0.04,1.19-0.05,1.76-0.05l-0.18-1.69c0-0.19-0.01-0.43-0.04-0.72c-0.02-0.29-0.04-0.59-0.05-0.9
		c-0.01-0.31-0.03-0.62-0.05-0.94c-0.02-0.31-0.04-0.6-0.04-0.86v-0.79c0-1.13-0.1-2.31-0.31-3.55c-0.2-1.24-0.55-2.38-1.03-3.44
		c-0.19,0.53-0.33,0.99-0.41,1.39s-0.16,0.87-0.23,1.42c-0.12,1.44-0.3,2.92-0.54,4.45c-0.24,1.52-0.42,2.98-0.54,4.37l-0.11,1.37
		C131.65,73.74,132.24,73.72,132.84,73.68z"/>
	<path class="st0" d="M139.6,59.02c0-0.24,0.09-0.44,0.27-0.59c0.18-0.16,0.41-0.27,0.68-0.34c0.28-0.07,0.58-0.12,0.9-0.14
		c0.32-0.02,0.63-0.04,0.92-0.04c0.84,0,1.62,0.14,2.34,0.41s1.35,0.68,1.89,1.21c0.54,0.53,0.96,1.18,1.26,1.94
		s0.45,1.64,0.45,2.63c0,0.82-0.03,1.6-0.09,2.36c-0.06,0.76-0.17,1.44-0.32,2.05c-0.16,0.61-0.38,1.15-0.68,1.62
		s-0.69,0.82-1.17,1.06c0.38,0.48,0.68,1.1,0.88,1.87c0.2,0.77,0.35,1.55,0.45,2.36c0.1,0.8,0.16,1.57,0.18,2.3s0.04,1.3,0.04,1.71
		c0.02,0.48,0.07,0.97,0.14,1.48c0.07,0.5,0.22,0.91,0.43,1.22c0.31-0.19,0.59-0.29,0.83-0.29c0.26,0,0.49,0.11,0.68,0.32
		c0.19,0.22,0.29,0.56,0.29,1.04c0,0.31-0.12,0.55-0.36,0.72s-0.56,0.25-0.97,0.25c-0.62,0-1.12-0.19-1.48-0.58
		c-0.36-0.38-0.64-0.85-0.83-1.38c-0.19-0.54-0.31-1.1-0.36-1.69s-0.08-1.1-0.11-1.53c0-0.14-0.01-0.57-0.04-1.28
		c-0.02-0.71-0.08-1.48-0.18-2.3c-0.1-0.83-0.24-1.59-0.43-2.29c-0.19-0.7-0.44-1.09-0.76-1.19c-0.38,0.1-0.78,0.16-1.19,0.2
		c-0.41,0.04-0.82,0.05-1.22,0.05V83.1c0,0.24-0.08,0.45-0.23,0.63S141.44,84,141.15,84c-0.22,0-0.4-0.09-0.54-0.27
		c-0.14-0.18-0.24-0.38-0.29-0.59l-0.07-23.33C139.82,59.66,139.6,59.4,139.6,59.02z M145.29,60.81c-0.86-0.82-1.94-1.22-3.24-1.22
		V70.5c1.01-0.02,1.81-0.17,2.39-0.43s1.04-0.65,1.37-1.17c0.32-0.52,0.53-1.16,0.63-1.94c0.1-0.78,0.14-1.7,0.14-2.75
		C146.59,62.76,146.16,61.63,145.29,60.81z"/>
	<path class="st0" d="M159.38,65.04c-0.16,0.16-0.34,0.23-0.56,0.23c-0.14,0-0.29-0.05-0.43-0.14c-0.14-0.1-0.28-0.25-0.4-0.47
		l-0.22-1.37c-0.05-0.31-0.11-0.67-0.2-1.08c-0.08-0.41-0.19-0.79-0.31-1.15c-0.12-0.36-0.28-0.67-0.47-0.92s-0.43-0.38-0.72-0.38
		s-0.58,0.12-0.86,0.36s-0.54,0.52-0.76,0.85c-0.22,0.32-0.4,0.67-0.56,1.03s-0.25,0.66-0.27,0.9c-0.22,1.34-0.37,2.83-0.47,4.46
		c-0.1,1.63-0.14,3.16-0.14,4.57c0,0.96,0.02,1.91,0.05,2.84s0.08,1.87,0.13,2.81c0.05,0.84,0.22,1.6,0.5,2.27s0.53,1.19,0.72,1.55
		c0.17,0.24,0.36,0.49,0.58,0.76s0.46,0.4,0.72,0.4c0.46,0,0.79-0.16,1.01-0.47c0.22-0.31,0.37-0.7,0.45-1.15s0.14-0.95,0.16-1.49
		c0.02-0.54,0.07-1.03,0.14-1.46c0.07-0.41,0.18-0.74,0.32-0.99c0.14-0.25,0.38-0.38,0.72-0.38c0.22,0,0.4,0.09,0.56,0.27
		c0.16,0.18,0.23,0.4,0.23,0.67c0,0.19-0.02,0.43-0.05,0.72c-0.04,0.29-0.08,0.49-0.13,0.61c-0.05,0.48-0.13,1.02-0.23,1.62
		c-0.11,0.6-0.28,1.18-0.52,1.73s-0.57,1.01-0.99,1.39s-0.97,0.56-1.64,0.56c-0.7,0-1.3-0.24-1.82-0.72
		c-0.52-0.48-0.95-1.06-1.31-1.75c-0.36-0.68-0.64-1.39-0.83-2.12c-0.19-0.73-0.3-1.36-0.32-1.89c-0.05-0.46-0.07-0.91-0.07-1.37
		v-1.4c0-0.72,0.01-1.47,0.02-2.25c0.01-0.78,0.02-1.63,0.02-2.54c0-1.37,0.03-2.82,0.09-4.36c0.06-1.54,0.31-2.99,0.74-4.36
		c0.12-0.38,0.31-0.77,0.58-1.17c0.26-0.4,0.58-0.76,0.94-1.08c0.36-0.32,0.74-0.59,1.15-0.79c0.41-0.2,0.83-0.3,1.26-0.3
		c0.55,0,1.03,0.16,1.42,0.49c0.4,0.32,0.72,0.74,0.97,1.24s0.45,1.05,0.59,1.64c0.14,0.59,0.25,1.15,0.32,1.67l0.14,1.26
		C159.63,64.67,159.54,64.89,159.38,65.04z"/>
	<path class="st0" d="M162.9,71.85c0.02-3.92,0.04-8.04,0.04-12.36c-0.17-0.14-0.25-0.34-0.25-0.58c0-0.19,0.07-0.38,0.22-0.56
		c0.14-0.18,0.35-0.29,0.61-0.34h1.3c0.26,0,0.51-0.01,0.74-0.02c0.23-0.01,0.47-0.02,0.74-0.02c0.31,0,0.68,0.01,1.1,0.02
		c0.42,0.01,0.82,0.05,1.21,0.11c0.38,0.06,0.7,0.17,0.95,0.32s0.38,0.38,0.38,0.67c0,0.12-0.07,0.3-0.2,0.54s-0.34,0.36-0.63,0.36
		c-0.67,0-1.37-0.04-2.11-0.11c-0.73-0.07-1.52-0.12-2.36-0.14c0,0.82-0.01,1.63-0.02,2.45c-0.01,0.82-0.02,1.62-0.02,2.41v4.86
		c0.41-0.02,0.87-0.04,1.39-0.04h2.03c0.29,0.05,0.52,0.15,0.68,0.31c0.17,0.16,0.25,0.33,0.25,0.52c0,0.22-0.09,0.42-0.27,0.61
		c-0.18,0.19-0.52,0.29-1.03,0.29c-0.53,0-1.03-0.01-1.51-0.04c-0.48-0.02-1-0.04-1.55-0.04c-0.02,1.8-0.04,3.66-0.04,5.58v5.69
		c0.34,0,0.81-0.04,1.42-0.11c0.61-0.07,1.19-0.11,1.75-0.11c0.7,0,1.28,0.07,1.76,0.2c0.48,0.13,0.72,0.43,0.72,0.88
		c0,0.24-0.08,0.44-0.25,0.59c-0.17,0.16-0.36,0.23-0.58,0.23c-0.19,0-0.44-0.03-0.74-0.09s-0.62-0.09-0.95-0.09
		c-0.58,0-1.15,0.03-1.71,0.09c-0.56,0.06-1.13,0.09-1.71,0.09c-0.14,0.14-0.26,0.23-0.34,0.25s-0.15,0.04-0.2,0.04
		c-0.17,0-0.34-0.06-0.5-0.18c-0.17-0.12-0.29-0.34-0.36-0.65C162.86,79.65,162.87,75.77,162.9,71.85z"/>
	<path class="st0" d="M174.13,58.04c0.41,0,0.71,0.26,0.9,0.79c0.05,3.86,0.13,7.71,0.23,11.55c0.11,3.84,0.19,7.63,0.23,11.37
		c0.12-0.02,0.22-0.04,0.29-0.05s0.16-0.02,0.25-0.02c0.17,0,0.35,0.04,0.54,0.11c0.19,0.07,0.4,0.16,0.61,0.25
		c0.22,0.1,0.43,0.18,0.63,0.25c0.2,0.07,0.4,0.11,0.59,0.11c0.07,0,0.14-0.02,0.2-0.05c0.06-0.04,0.14-0.14,0.23-0.31
		c-0.26-0.24-0.44-0.43-0.52-0.56c-0.08-0.13-0.13-0.26-0.13-0.38c0-0.19,0.08-0.37,0.25-0.54s0.4-0.26,0.68-0.29
		c0.46,0.07,0.8,0.26,1.03,0.56c0.23,0.3,0.34,0.65,0.34,1.06c0,0.74-0.2,1.3-0.61,1.66c-0.41,0.36-0.84,0.54-1.3,0.54
		c-0.48,0-0.91-0.11-1.28-0.32c-0.37-0.22-0.69-0.32-0.95-0.32c-0.34,0-0.64,0.09-0.9,0.27s-0.53,0.29-0.79,0.34
		c-0.31,0.05-0.56-0.06-0.76-0.32c-0.19-0.26-0.24-0.55-0.14-0.86c0-3.94-0.06-7.93-0.18-11.99c-0.12-4.06-0.2-8.09-0.25-12.1
		C173.48,58.29,173.74,58.04,174.13,58.04z"/>
	<path class="st0" d="M180.73,83.87c-0.13-0.16-0.2-0.33-0.2-0.52c0-0.19,0.07-0.38,0.22-0.56c0.14-0.18,0.36-0.29,0.65-0.34
		c0.19,0,0.38,0.01,0.58,0.02c0.19,0.01,0.41,0.01,0.65-0.02c-0.02-2.54-0.04-5.1-0.05-7.68c-0.01-2.58-0.04-5.13-0.09-7.65
		l-0.14-7.27h-1.01c-0.26-0.05-0.46-0.15-0.59-0.31s-0.2-0.33-0.2-0.52c0-0.19,0.07-0.38,0.22-0.56c0.14-0.18,0.36-0.29,0.65-0.34
		h3.92c0.26,0.1,0.46,0.23,0.59,0.4c0.13,0.17,0.2,0.35,0.2,0.54c0,0.38-0.25,0.65-0.76,0.79h-1.33l0.14,7.27
		c0.05,2.47,0.09,5.01,0.13,7.61c0.04,2.6,0.05,5.15,0.05,7.65c0.19-0.02,0.39-0.04,0.59-0.04h0.59c0.53,0.19,0.79,0.49,0.79,0.9
		c0,0.38-0.25,0.65-0.76,0.79c-0.74,0-1.45,0.02-2.12,0.07c-0.67,0.05-1.36,0.07-2.05,0.07h-0.07
		C181.06,84.13,180.87,84.03,180.73,83.87z"/>
	<path class="st0" d="M195.65,58.48c0.41,0,0.71,0.26,0.9,0.79c0.02,1.63,0.04,3.01,0.04,4.14c0,1.13,0.01,2.21,0.02,3.26
		c0.01,1.04,0.02,2.13,0.02,3.26s0.01,2.51,0.04,4.14c0,0.46,0.01,1.12,0.04,2c0.02,0.88,0.05,1.79,0.09,2.74s0.07,1.85,0.09,2.7
		c0.02,0.85,0.04,1.48,0.04,1.89c-0.05,0.26-0.16,0.46-0.34,0.59c-0.18,0.13-0.37,0.2-0.56,0.2c-0.17,0-0.37-0.06-0.59-0.18
		c-0.23-0.12-0.41-0.31-0.56-0.58l-5.08-18.86V83.1c-0.05,0.29-0.16,0.5-0.34,0.65s-0.37,0.22-0.56,0.22c-0.19,0-0.37-0.07-0.52-0.2
		c-0.16-0.13-0.26-0.33-0.31-0.59V59.16c0.14-0.46,0.43-0.68,0.86-0.68c0.38,0,0.76,0.18,1.12,0.54l4.97,18.5
		c-0.02-1.1-0.05-2.11-0.07-3.02c-0.02-0.91-0.04-1.75-0.05-2.5c-0.01-0.76-0.02-1.46-0.02-2.12v-1.93c0-0.62,0.01-1.24,0.02-1.85
		c0.01-0.61,0.02-1.27,0.02-1.96c0-0.7-0.01-1.44-0.02-2.23c-0.01-0.79-0.02-1.68-0.02-2.66C195.01,58.73,195.27,58.48,195.65,58.48
		z"/>
	<path class="st0" d="M200.84,71.85c0.02-3.92,0.04-8.04,0.04-12.36c-0.17-0.14-0.25-0.34-0.25-0.58c0-0.19,0.07-0.38,0.22-0.56
		c0.14-0.18,0.35-0.29,0.61-0.34h1.3c0.26,0,0.51-0.01,0.74-0.02c0.23-0.01,0.47-0.02,0.74-0.02c0.31,0,0.68,0.01,1.1,0.02
		c0.42,0.01,0.82,0.05,1.21,0.11c0.38,0.06,0.7,0.17,0.95,0.32s0.38,0.38,0.38,0.67c0,0.12-0.07,0.3-0.2,0.54s-0.34,0.36-0.63,0.36
		c-0.67,0-1.37-0.04-2.11-0.11c-0.73-0.07-1.52-0.12-2.36-0.14c0,0.82-0.01,1.63-0.02,2.45c-0.01,0.82-0.02,1.62-0.02,2.41v4.86
		c0.41-0.02,0.87-0.04,1.39-0.04h2.03c0.29,0.05,0.52,0.15,0.68,0.31c0.17,0.16,0.25,0.33,0.25,0.52c0,0.22-0.09,0.42-0.27,0.61
		c-0.18,0.19-0.52,0.29-1.03,0.29c-0.53,0-1.03-0.01-1.51-0.04c-0.48-0.02-1-0.04-1.55-0.04c-0.02,1.8-0.04,3.66-0.04,5.58v5.69
		c0.34,0,0.81-0.04,1.42-0.11c0.61-0.07,1.19-0.11,1.75-0.11c0.7,0,1.28,0.07,1.76,0.2c0.48,0.13,0.72,0.43,0.72,0.88
		c0,0.24-0.08,0.44-0.25,0.59c-0.17,0.16-0.36,0.23-0.58,0.23c-0.19,0-0.44-0.03-0.74-0.09s-0.62-0.09-0.95-0.09
		c-0.58,0-1.15,0.03-1.71,0.09c-0.56,0.06-1.13,0.09-1.71,0.09c-0.14,0.14-0.26,0.23-0.34,0.25s-0.15,0.04-0.2,0.04
		c-0.17,0-0.34-0.06-0.5-0.18c-0.17-0.12-0.29-0.34-0.36-0.65C200.8,79.65,200.81,75.77,200.84,71.85z"/>
</g>
<g>
	<path class="st90" d="M97.72,347.91c-0.1-0.11-0.15-0.24-0.15-0.39c0-0.15,0.06-0.29,0.17-0.43c0.11-0.14,0.28-0.23,0.5-0.27h5.57
		c0.21,0.07,0.36,0.18,0.46,0.31c0.1,0.13,0.15,0.27,0.15,0.42c0,0.13-0.05,0.25-0.14,0.36c-0.09,0.11-0.24,0.19-0.45,0.22h-2.18
		c0,2.97,0.01,6.01,0.03,9.14c0.02,3.13,0.03,6.19,0.03,9.2c-0.04,0.22-0.13,0.39-0.27,0.5c-0.14,0.11-0.28,0.17-0.43,0.17
		c-0.15,0-0.28-0.05-0.39-0.15c-0.11-0.1-0.19-0.26-0.22-0.46c0-3.06-0.01-6.16-0.03-9.28c-0.02-3.13-0.03-6.16-0.03-9.11h-2.16
		C97.97,348.09,97.82,348.02,97.72,347.91z"/>
	<path class="st90" d="M105.18,347.57c0-0.19,0.07-0.34,0.21-0.46c0.14-0.12,0.32-0.21,0.53-0.27c0.21-0.06,0.45-0.09,0.7-0.11
		s0.49-0.03,0.71-0.03c0.65,0,1.26,0.11,1.82,0.32s1.05,0.53,1.47,0.94c0.42,0.41,0.75,0.91,0.98,1.51s0.35,1.28,0.35,2.04
		c0,0.63-0.02,1.25-0.07,1.83c-0.05,0.59-0.13,1.12-0.25,1.6c-0.12,0.48-0.3,0.9-0.53,1.26c-0.23,0.36-0.54,0.64-0.91,0.83
		c0.3,0.37,0.53,0.86,0.69,1.46s0.28,1.21,0.35,1.83s0.12,1.22,0.14,1.79s0.03,1.01,0.03,1.33c0.02,0.37,0.06,0.76,0.11,1.15
		c0.06,0.39,0.17,0.71,0.34,0.95c0.24-0.15,0.46-0.22,0.64-0.22c0.21,0,0.38,0.08,0.53,0.25s0.22,0.44,0.22,0.81
		c0,0.24-0.09,0.43-0.28,0.56c-0.19,0.13-0.44,0.2-0.76,0.2c-0.49,0-0.87-0.15-1.15-0.45c-0.28-0.3-0.49-0.66-0.64-1.08
		s-0.24-0.86-0.28-1.32c-0.04-0.46-0.07-0.85-0.08-1.19c0-0.11-0.01-0.44-0.03-0.99c-0.02-0.55-0.06-1.15-0.14-1.79
		s-0.19-1.24-0.34-1.78c-0.15-0.54-0.35-0.85-0.59-0.92c-0.3,0.08-0.61,0.13-0.92,0.15s-0.63,0.04-0.95,0.04v8.48
		c0,0.19-0.06,0.35-0.18,0.49c-0.12,0.14-0.29,0.21-0.52,0.21c-0.17,0-0.31-0.07-0.42-0.21c-0.11-0.14-0.19-0.29-0.22-0.46
		l-0.06-18.14C105.35,348.08,105.18,347.87,105.18,347.57z M109.6,348.97c-0.67-0.63-1.51-0.95-2.52-0.95v8.48
		c0.78-0.02,1.4-0.13,1.86-0.34c0.46-0.21,0.81-0.51,1.06-0.91c0.25-0.4,0.42-0.9,0.49-1.51c0.07-0.61,0.11-1.32,0.11-2.14
		C110.61,350.48,110.27,349.61,109.6,348.97z"/>
	<path class="st90" d="M116.77,346.87c0.11,0,0.22,0.03,0.34,0.1c0.11,0.06,0.19,0.16,0.22,0.29c0.54,0.93,0.94,1.86,1.19,2.77
		s0.43,1.81,0.53,2.69s0.16,1.73,0.18,2.55c0.02,0.82,0.07,1.6,0.17,2.32v-0.03c0.04,0.21,0.06,0.43,0.08,0.69l0.06,0.74
		c0.13,1.16,0.24,2.16,0.32,3.01s0.13,1.68,0.13,2.48c0,0.26,0,0.56-0.01,0.9s-0.04,0.66-0.08,0.96c-0.05,0.31-0.13,0.57-0.24,0.77
		c-0.11,0.21-0.27,0.31-0.48,0.31c-0.3,0-0.51-0.12-0.64-0.38s-0.2-0.51-0.2-0.77c0-0.21,0.08-0.35,0.25-0.45
		c0.02-0.17,0.03-0.35,0.03-0.55v-0.57c0-0.67-0.03-1.35-0.1-2.04c-0.07-0.69-0.12-1.3-0.15-1.82l-0.06-0.59
		c-0.49,0-0.97,0.01-1.46,0.04c-0.49,0.03-0.97,0.04-1.46,0.04l-0.06,0.9c-0.02,0.19-0.03,0.38-0.04,0.59s-0.02,0.44-0.03,0.71
		c-0.01,0.27-0.01,0.59-0.01,0.97v1.34v1.68c0,0.13-0.06,0.27-0.18,0.42c-0.12,0.15-0.29,0.22-0.52,0.22
		c-0.28,0-0.49-0.16-0.64-0.48v-1.51c0-0.26,0-0.53-0.01-0.8c-0.01-0.27-0.01-0.55-0.01-0.83c0-0.77,0.03-1.5,0.1-2.2
		c0.06-0.7,0.12-1.4,0.15-2.09l0.08-1.34c0.06-0.95,0.14-1.94,0.27-2.97c0.12-1.03,0.26-2.01,0.41-2.94l0.08-0.48
		c0.13-0.75,0.28-1.48,0.46-2.2c0.18-0.72,0.42-1.43,0.74-2.14C116.35,346.98,116.55,346.87,116.77,346.87z M116.83,358.98
		c0.47-0.03,0.92-0.04,1.37-0.04l-0.14-1.32c0-0.15-0.01-0.34-0.03-0.56c-0.02-0.22-0.03-0.46-0.04-0.7s-0.02-0.49-0.04-0.73
		c-0.02-0.24-0.03-0.47-0.03-0.67v-0.62c0-0.88-0.08-1.8-0.24-2.76c-0.16-0.96-0.42-1.85-0.8-2.67c-0.15,0.41-0.26,0.77-0.32,1.08
		c-0.07,0.31-0.13,0.68-0.18,1.11c-0.09,1.12-0.23,2.27-0.42,3.46c-0.19,1.19-0.33,2.32-0.42,3.4l-0.08,1.06
		C115.9,359.02,116.36,359.01,116.83,358.98z"/>
	<path class="st90" d="M122.15,348.01c-0.11-0.12-0.17-0.26-0.17-0.41c0-0.15,0.06-0.29,0.17-0.43c0.11-0.14,0.28-0.23,0.5-0.27
		c0.69,0,1.32,0.05,1.88,0.15c0.56,0.1,1.05,0.28,1.48,0.54c0.43,0.26,0.79,0.62,1.09,1.06c0.3,0.45,0.54,1.02,0.73,1.71
		c0.19,0.63,0.35,1.3,0.49,2c0.14,0.7,0.26,1.39,0.36,2.07c0.1,0.68,0.18,1.34,0.24,1.99c0.06,0.64,0.08,1.24,0.08,1.78
		c0,0.52-0.03,1.02-0.08,1.5c-0.06,0.47-0.13,0.96-0.22,1.44c-0.19,0.84-0.37,1.57-0.55,2.18c-0.18,0.62-0.41,1.13-0.69,1.54
		c-0.21,0.35-0.5,0.68-0.88,0.96c-0.38,0.29-0.79,0.54-1.23,0.74c-0.44,0.21-0.88,0.36-1.32,0.48c-0.44,0.11-0.83,0.17-1.16,0.17
		c-0.3,0-0.5-0.09-0.62-0.27c-0.11-0.18-0.16-0.37-0.14-0.57c0.02-0.24,0.09-0.45,0.22-0.63c0.13-0.18,0.3-0.22,0.5-0.12
		c-0.04-0.26-0.06-0.52-0.06-0.77v-0.74c0-1.57,0.03-3.3,0.1-5.19s0.1-3.78,0.1-5.67v-2.38c0-0.43-0.01-0.85-0.04-1.27
		c-0.03-0.42-0.1-0.87-0.21-1.36C122.45,348.21,122.26,348.13,122.15,348.01z M125.37,365.14c0.34-0.21,0.58-0.4,0.73-0.55
		c0.04-0.04,0.14-0.18,0.31-0.42c0.17-0.24,0.33-0.57,0.48-0.98c0.07-0.22,0.14-0.46,0.21-0.7l0.18-0.7
		c0.06-0.22,0.1-0.42,0.14-0.59c0.04-0.17,0.06-0.27,0.06-0.31c0.09-0.41,0.15-0.82,0.18-1.22c0.03-0.4,0.04-0.82,0.04-1.25
		c0-1.32-0.11-2.65-0.32-3.99c-0.21-1.33-0.53-2.71-0.94-4.13c-0.19-0.65-0.48-1.12-0.87-1.39c-0.39-0.27-0.88-0.45-1.46-0.54
		c0.07,0.41,0.13,0.83,0.15,1.26s0.04,0.87,0.04,1.32v2.27c0,1.79-0.03,3.62-0.1,5.47c-0.06,1.86-0.1,3.67-0.1,5.45
		c0,0.11,0,0.22,0.01,0.34c0.01,0.11,0.01,0.22,0.01,0.34l0.17,0.87C124.68,365.54,125.03,365.36,125.37,365.14z"/>
	<path class="st90" d="M131.83,357.55c0.02-3.05,0.03-6.26,0.03-9.62c-0.13-0.11-0.2-0.26-0.2-0.45c0-0.15,0.06-0.29,0.17-0.43
		c0.11-0.14,0.27-0.23,0.48-0.27h1.01c0.21,0,0.4,0,0.57-0.01s0.37-0.01,0.57-0.01c0.24,0,0.53,0.01,0.85,0.01
		c0.33,0.01,0.64,0.04,0.94,0.08c0.3,0.05,0.55,0.13,0.74,0.25c0.2,0.12,0.29,0.29,0.29,0.52c0,0.09-0.05,0.23-0.15,0.42
		c-0.1,0.19-0.27,0.28-0.49,0.28c-0.52,0-1.07-0.03-1.64-0.08c-0.57-0.06-1.18-0.09-1.83-0.11c0,0.63,0,1.27-0.01,1.9
		c-0.01,0.63-0.01,1.26-0.01,1.88v3.78c0.32-0.02,0.68-0.03,1.08-0.03h1.58c0.22,0.04,0.4,0.12,0.53,0.24
		c0.13,0.12,0.2,0.26,0.2,0.41c0,0.17-0.07,0.33-0.21,0.48s-0.41,0.22-0.8,0.22c-0.41,0-0.8-0.01-1.18-0.03
		c-0.37-0.02-0.77-0.03-1.2-0.03c-0.02,1.4-0.03,2.85-0.03,4.34v4.42c0.26,0,0.63-0.03,1.11-0.08c0.48-0.06,0.93-0.08,1.36-0.08
		c0.54,0,1,0.05,1.37,0.15c0.37,0.1,0.56,0.33,0.56,0.69c0,0.19-0.07,0.34-0.2,0.46c-0.13,0.12-0.28,0.18-0.45,0.18
		c-0.15,0-0.34-0.02-0.57-0.07c-0.23-0.05-0.48-0.07-0.74-0.07c-0.45,0-0.89,0.02-1.33,0.07c-0.44,0.05-0.88,0.07-1.33,0.07
		c-0.11,0.11-0.2,0.18-0.27,0.2c-0.06,0.02-0.12,0.03-0.15,0.03c-0.13,0-0.26-0.05-0.39-0.14c-0.13-0.09-0.22-0.26-0.28-0.5
		C131.81,363.62,131.82,360.61,131.83,357.55z"/>
	<path class="st90" d="M149.7,347.1c0.32,0,0.55,0.21,0.7,0.62c0,3,0.01,6.05,0.03,9.14s0.03,6.2,0.03,9.34
		c0,0.17-0.05,0.31-0.15,0.42s-0.23,0.21-0.38,0.28c-0.17-0.02-0.34-0.08-0.52-0.2s-0.27-0.27-0.27-0.48c0-1.57,0-3.12-0.01-4.66
		c-0.01-1.54-0.02-3.1-0.04-4.69c-0.6,0-1.2-0.01-1.81-0.03c-0.61-0.02-1.2-0.03-1.78-0.03c0,0.9,0,1.8-0.01,2.72
		s-0.02,1.8-0.04,2.66c-0.02,0.86-0.05,1.67-0.08,2.42c-0.04,0.76-0.08,1.41-0.14,1.97c-0.04,0.22-0.12,0.39-0.24,0.5
		c-0.12,0.11-0.26,0.17-0.41,0.17c-0.09,0-0.19-0.02-0.29-0.07c-0.1-0.05-0.19-0.11-0.27-0.18c-0.07-0.07-0.13-0.16-0.15-0.25
		c-0.03-0.09-0.02-0.2,0.01-0.31c0.13-1.34,0.22-2.72,0.27-4.13c0.05-1.41,0.07-2.81,0.07-4.21c0-1.75-0.02-3.53-0.06-5.33
		c-0.04-1.8-0.06-3.52-0.06-5.17c0.11-0.39,0.32-0.59,0.62-0.59c0.32,0,0.55,0.21,0.7,0.62c0,0.95,0.01,2.11,0.04,3.49
		c0.03,1.37,0.04,2.83,0.04,4.38c0.6,0,1.18,0.01,1.74,0.03s1.18,0.03,1.85,0.03v-7.87C149.19,347.29,149.4,347.1,149.7,347.1z"/>
	<path class="st90" d="M155.55,346.87c0.11,0,0.22,0.03,0.34,0.1c0.11,0.06,0.19,0.16,0.22,0.29c0.54,0.93,0.94,1.86,1.19,2.77
		s0.43,1.81,0.53,2.69s0.16,1.73,0.18,2.55c0.02,0.82,0.07,1.6,0.17,2.32v-0.03c0.04,0.21,0.06,0.43,0.08,0.69l0.06,0.74
		c0.13,1.16,0.24,2.16,0.32,3.01s0.13,1.68,0.13,2.48c0,0.26,0,0.56-0.01,0.9s-0.04,0.66-0.08,0.96c-0.05,0.31-0.13,0.57-0.24,0.77
		c-0.11,0.21-0.27,0.31-0.48,0.31c-0.3,0-0.51-0.12-0.64-0.38s-0.2-0.51-0.2-0.77c0-0.21,0.08-0.35,0.25-0.45
		c0.02-0.17,0.03-0.35,0.03-0.55v-0.57c0-0.67-0.03-1.35-0.1-2.04c-0.06-0.69-0.12-1.3-0.15-1.82l-0.06-0.59
		c-0.49,0-0.97,0.01-1.46,0.04c-0.49,0.03-0.97,0.04-1.46,0.04l-0.06,0.9c-0.02,0.19-0.03,0.38-0.04,0.59s-0.02,0.44-0.03,0.71
		c-0.01,0.27-0.01,0.59-0.01,0.97v1.34v1.68c0,0.13-0.06,0.27-0.18,0.42s-0.29,0.22-0.52,0.22c-0.28,0-0.49-0.16-0.64-0.48v-1.51
		c0-0.26,0-0.53-0.01-0.8c-0.01-0.27-0.01-0.55-0.01-0.83c0-0.77,0.03-1.5,0.1-2.2c0.06-0.7,0.12-1.4,0.15-2.09l0.08-1.34
		c0.06-0.95,0.14-1.94,0.27-2.97c0.12-1.03,0.26-2.01,0.41-2.94l0.08-0.48c0.13-0.75,0.28-1.48,0.46-2.2
		c0.18-0.72,0.42-1.43,0.74-2.14C155.13,346.98,155.33,346.87,155.55,346.87z M155.61,358.98c0.47-0.03,0.92-0.04,1.37-0.04
		l-0.14-1.32c0-0.15-0.01-0.34-0.03-0.56c-0.02-0.22-0.03-0.46-0.04-0.7s-0.02-0.49-0.04-0.73c-0.02-0.24-0.03-0.47-0.03-0.67v-0.62
		c0-0.88-0.08-1.8-0.24-2.76c-0.16-0.96-0.42-1.85-0.8-2.67c-0.15,0.41-0.26,0.77-0.32,1.08c-0.07,0.31-0.13,0.68-0.18,1.11
		c-0.09,1.12-0.23,2.27-0.42,3.46c-0.19,1.19-0.33,2.32-0.42,3.4l-0.08,1.06C154.68,359.02,155.14,359.01,155.61,358.98z"/>
	<path class="st90" d="M167.34,347.15c0.32,0,0.55,0.21,0.7,0.62c0.02,1.27,0.03,2.34,0.03,3.22s0,1.72,0.01,2.53
		s0.01,1.66,0.01,2.53c0,0.88,0.01,1.95,0.03,3.22c0,0.35,0.01,0.87,0.03,1.55c0.02,0.68,0.04,1.39,0.07,2.13
		c0.03,0.74,0.05,1.44,0.07,2.1c0.02,0.66,0.03,1.15,0.03,1.47c-0.04,0.21-0.13,0.36-0.27,0.46c-0.14,0.1-0.28,0.15-0.43,0.15
		c-0.13,0-0.28-0.05-0.46-0.14c-0.18-0.09-0.32-0.24-0.43-0.45l-3.95-14.67v14.42c-0.04,0.22-0.13,0.39-0.27,0.5
		c-0.14,0.11-0.28,0.17-0.43,0.17s-0.28-0.05-0.41-0.15c-0.12-0.1-0.2-0.26-0.24-0.46v-18.68c0.11-0.35,0.34-0.53,0.67-0.53
		c0.3,0,0.59,0.14,0.87,0.42l3.86,14.39c-0.02-0.86-0.04-1.64-0.06-2.35c-0.02-0.71-0.03-1.36-0.04-1.95
		c-0.01-0.59-0.01-1.14-0.01-1.65v-1.5c0-0.48,0-0.96,0.01-1.44c0.01-0.48,0.01-0.98,0.01-1.53c0-0.54,0-1.12-0.01-1.74
		c-0.01-0.62-0.01-1.31-0.01-2.07C166.83,347.35,167.04,347.15,167.34,347.15z"/>
	<path class="st90" d="M170.75,348.01c-0.11-0.12-0.17-0.26-0.17-0.41c0-0.15,0.06-0.29,0.17-0.43c0.11-0.14,0.28-0.23,0.5-0.27
		c0.69,0,1.32,0.05,1.88,0.15c0.56,0.1,1.05,0.28,1.48,0.54c0.43,0.26,0.79,0.62,1.09,1.06c0.3,0.45,0.54,1.02,0.73,1.71
		c0.19,0.63,0.35,1.3,0.49,2c0.14,0.7,0.26,1.39,0.36,2.07c0.1,0.68,0.18,1.34,0.24,1.99c0.06,0.64,0.08,1.24,0.08,1.78
		c0,0.52-0.03,1.02-0.08,1.5c-0.06,0.47-0.13,0.96-0.22,1.44c-0.19,0.84-0.37,1.57-0.55,2.18c-0.18,0.62-0.41,1.13-0.69,1.54
		c-0.21,0.35-0.5,0.68-0.88,0.96c-0.38,0.29-0.79,0.54-1.23,0.74c-0.44,0.21-0.88,0.36-1.32,0.48c-0.44,0.11-0.83,0.17-1.16,0.17
		c-0.3,0-0.5-0.09-0.62-0.27c-0.11-0.18-0.16-0.37-0.14-0.57c0.02-0.24,0.09-0.45,0.22-0.63c0.13-0.18,0.3-0.22,0.5-0.12
		c-0.04-0.26-0.06-0.52-0.06-0.77v-0.74c0-1.57,0.03-3.3,0.1-5.19s0.1-3.78,0.1-5.67v-2.38c0-0.43-0.01-0.85-0.04-1.27
		c-0.03-0.42-0.1-0.87-0.21-1.36C171.06,348.21,170.87,348.13,170.75,348.01z M173.97,365.14c0.34-0.21,0.58-0.4,0.73-0.55
		c0.04-0.04,0.14-0.18,0.31-0.42c0.17-0.24,0.33-0.57,0.48-0.98c0.07-0.22,0.14-0.46,0.21-0.7l0.18-0.7
		c0.06-0.22,0.1-0.42,0.14-0.59c0.04-0.17,0.06-0.27,0.06-0.31c0.09-0.41,0.15-0.82,0.18-1.22c0.03-0.4,0.04-0.82,0.04-1.25
		c0-1.32-0.11-2.65-0.32-3.99c-0.21-1.33-0.53-2.71-0.94-4.13c-0.19-0.65-0.48-1.12-0.87-1.39c-0.39-0.27-0.88-0.45-1.46-0.54
		c0.07,0.41,0.13,0.83,0.15,1.26s0.04,0.87,0.04,1.32v2.27c0,1.79-0.03,3.62-0.1,5.47c-0.06,1.86-0.1,3.67-0.1,5.45
		c0,0.11,0,0.22,0.01,0.34c0.01,0.11,0.01,0.22,0.01,0.34l0.17,0.87C173.28,365.54,173.64,365.36,173.97,365.14z"/>
	<path class="st90" d="M183.55,351.18c0-0.37,0.17-0.56,0.5-0.56c-0.06-0.73-0.21-1.3-0.46-1.72s-0.54-0.63-0.85-0.63
		c-0.26,0-0.5,0.08-0.71,0.22c-0.21,0.15-0.39,0.34-0.53,0.57c-0.14,0.23-0.25,0.49-0.32,0.77c-0.07,0.28-0.11,0.55-0.11,0.81
		c0,0.9,0.15,1.81,0.45,2.73c0.3,0.92,0.69,1.76,1.18,2.51c0.34,0.54,0.68,1.03,1.02,1.47c0.35,0.44,0.66,0.89,0.94,1.34
		c0.28,0.46,0.5,0.95,0.67,1.48c0.17,0.53,0.25,1.15,0.25,1.86c0,0.67-0.08,1.32-0.24,1.95s-0.37,1.18-0.63,1.65
		c-0.26,0.48-0.57,0.86-0.94,1.15c-0.36,0.29-0.75,0.43-1.16,0.43c-0.43,0-0.84-0.11-1.22-0.34c-0.38-0.22-0.72-0.52-1.01-0.88
		c-0.29-0.36-0.52-0.77-0.7-1.22s-0.27-0.9-0.27-1.34c0-0.08,0.01-0.19,0.03-0.34s0.05-0.3,0.1-0.46c0.05-0.16,0.1-0.3,0.17-0.42
		c0.06-0.12,0.15-0.18,0.27-0.18c0.17,0,0.35,0.1,0.53,0.31c0.19,0.21,0.28,0.4,0.28,0.59c0,0.08-0.01,0.15-0.04,0.22
		c-0.03,0.07-0.04,0.16-0.04,0.25c0,0.24,0.05,0.5,0.15,0.78c0.1,0.28,0.24,0.55,0.42,0.8s0.38,0.46,0.6,0.63
		c0.22,0.17,0.45,0.26,0.67,0.28c0.24,0,0.47-0.12,0.69-0.36c0.21-0.24,0.4-0.55,0.55-0.92c0.15-0.37,0.27-0.78,0.35-1.23
		c0.08-0.45,0.13-0.88,0.13-1.29c0-0.56-0.08-1.07-0.25-1.54s-0.38-0.92-0.63-1.34c-0.25-0.43-0.53-0.85-0.84-1.26l-0.91-1.26
		c-0.58-0.9-1.03-1.85-1.34-2.87s-0.48-2.05-0.48-3.09c0-0.52,0.08-1.02,0.24-1.48s0.37-0.88,0.63-1.25
		c0.26-0.36,0.56-0.65,0.88-0.87s0.67-0.32,1.02-0.32c0.63,0,1.23,0.34,1.79,1.01c0.3,0.37,0.55,0.83,0.74,1.36
		c0.2,0.53,0.29,1.1,0.29,1.7c0,0.34-0.12,0.63-0.36,0.9c-0.24,0.26-0.5,0.39-0.76,0.39c-0.35,0-0.59-0.25-0.7-0.76
		C183.56,351.35,183.55,351.28,183.55,351.18z"/>
	<path class="st90" d="M201.58,347.57l0.03,1.48c0,0.21,0,0.42,0.01,0.66c0.01,0.23,0.01,0.45,0.01,0.66c0,0.84-0.03,1.68-0.1,2.52
		s-0.12,1.62-0.15,2.35l-0.08,1.32c-0.06,0.95-0.14,1.89-0.27,2.83c-0.12,0.93-0.26,1.87-0.41,2.8c-0.07,0.45-0.17,0.97-0.28,1.55
		c-0.11,0.59-0.25,1.15-0.41,1.69c-0.16,0.54-0.35,1-0.56,1.37c-0.21,0.37-0.46,0.56-0.74,0.56c-0.32,0-0.51-0.23-0.59-0.7
		c-0.34-1.01-0.61-2.04-0.83-3.11c-0.21-1.06-0.39-2.16-0.52-3.28c-0.11,1.12-0.26,2.2-0.45,3.25c-0.19,1.05-0.44,2.07-0.76,3.08
		c-0.02,0.15-0.09,0.28-0.22,0.39c-0.13,0.11-0.27,0.17-0.42,0.17c-0.09,0-0.2-0.05-0.32-0.15c-0.12-0.1-0.27-0.31-0.43-0.63
		c-0.37-0.63-0.67-1.27-0.88-1.9c-0.21-0.63-0.39-1.27-0.52-1.92c-0.13-0.64-0.23-1.29-0.29-1.93c-0.07-0.64-0.13-1.3-0.18-1.97
		c-0.06-0.52-0.08-0.89-0.08-1.11s-0.01-0.43-0.03-0.66c-0.09-0.95-0.16-1.95-0.2-2.98c-0.04-1.04-0.06-2.06-0.06-3.07
		c0-0.58,0.01-1.16,0.03-1.75c0.02-0.59,0.05-1.19,0.08-1.8c0.13-0.34,0.34-0.5,0.62-0.5c0.17,0,0.32,0.06,0.45,0.17
		c0.13,0.11,0.22,0.24,0.28,0.39c0.06,0.15,0.08,0.32,0.07,0.5s-0.05,0.34-0.13,0.48c-0.04,0.5-0.06,1-0.06,1.48v1.51
		c0,0.88,0.02,1.8,0.06,2.77c0.04,0.97,0.1,1.89,0.2,2.74c0,0.32,0.02,0.71,0.07,1.18c0.05,0.47,0.07,0.97,0.07,1.51
		c0,0.65,0.07,1.28,0.21,1.88s0.3,1.2,0.49,1.79c0.09,0.34,0.16,0.61,0.21,0.81c0.05,0.21,0.08,0.36,0.1,0.46
		c0.02,0.1,0.03,0.18,0.04,0.22c0.01,0.05,0.03,0.08,0.07,0.1c0.26-1.06,0.44-2.31,0.55-3.75c0.1-1.44,0.18-2.92,0.24-4.45
		c0.06-1.53,0.1-3.03,0.14-4.49c0.04-1.46,0.11-2.78,0.22-3.93v-0.28c0-0.15,0.04-0.27,0.13-0.35s0.19-0.14,0.32-0.17
		c0.13-0.03,0.26-0.03,0.38,0c0.12,0.03,0.23,0.1,0.32,0.21c0.07,0.11,0.12,0.21,0.14,0.28c0.02,0.07,0.03,0.19,0.03,0.34l0.25,4.12
		l0.18,3.3c0.07,1.14,0.15,2.26,0.25,3.36s0.23,2.16,0.38,3.18s0.34,1.93,0.56,2.73c0.09-0.28,0.15-0.55,0.18-0.81
		c0.03-0.26,0.07-0.55,0.13-0.87l0.2-1.2c0.21-1.29,0.38-2.55,0.53-3.78c0.15-1.23,0.24-2.49,0.28-3.78l0.06-1.18
		c0.04-0.45,0.06-0.94,0.07-1.48c0.01-0.54,0.01-1.04,0.01-1.48v-2.74c0.19-0.22,0.3-0.36,0.34-0.39c0.04-0.04,0.08-0.07,0.14-0.11
		C201.11,347.04,201.39,347.22,201.58,347.57z"/>
	<path class="st90" d="M202.29,366.91c-0.1-0.12-0.15-0.26-0.15-0.41c0-0.15,0.06-0.29,0.17-0.43c0.11-0.14,0.28-0.23,0.5-0.27
		c0.15,0,0.3,0,0.45,0.01s0.32,0,0.5-0.01c-0.02-1.98-0.03-3.97-0.04-5.98s-0.03-3.99-0.07-5.95l-0.11-5.66h-0.78
		c-0.21-0.04-0.36-0.12-0.46-0.24c-0.1-0.12-0.15-0.26-0.15-0.41s0.06-0.29,0.17-0.43c0.11-0.14,0.28-0.23,0.5-0.27h3.05
		c0.21,0.08,0.36,0.18,0.46,0.31c0.1,0.13,0.15,0.27,0.15,0.42c0,0.3-0.2,0.5-0.59,0.62h-1.04l0.11,5.66
		c0.04,1.92,0.07,3.9,0.1,5.92c0.03,2.02,0.04,4.01,0.04,5.95c0.15-0.02,0.3-0.03,0.46-0.03h0.46c0.41,0.15,0.62,0.38,0.62,0.7
		c0,0.3-0.2,0.5-0.59,0.62c-0.58,0-1.13,0.02-1.65,0.06c-0.52,0.04-1.05,0.06-1.6,0.06h-0.06
		C202.55,367.11,202.4,367.03,202.29,366.91z"/>
	<path class="st90" d="M206.49,347.91c-0.1-0.11-0.15-0.24-0.15-0.39c0-0.15,0.06-0.29,0.17-0.43c0.11-0.14,0.28-0.23,0.5-0.27h5.57
		c0.21,0.07,0.36,0.18,0.46,0.31c0.1,0.13,0.15,0.27,0.15,0.42c0,0.13-0.05,0.25-0.14,0.36c-0.09,0.11-0.24,0.19-0.45,0.22h-2.18
		c0,2.97,0.01,6.01,0.03,9.14c0.02,3.13,0.03,6.19,0.03,9.2c-0.04,0.22-0.13,0.39-0.27,0.5c-0.14,0.11-0.28,0.17-0.43,0.17
		c-0.15,0-0.28-0.05-0.39-0.15c-0.11-0.1-0.19-0.26-0.22-0.46c0-3.06-0.01-6.16-0.03-9.28s-0.03-6.16-0.03-9.11h-2.16
		C206.75,348.09,206.6,348.02,206.49,347.91z"/>
	<path class="st90" d="M220.23,347.1c0.32,0,0.55,0.21,0.7,0.62c0,3,0.01,6.05,0.03,9.14s0.03,6.2,0.03,9.34
		c0,0.17-0.05,0.31-0.15,0.42s-0.23,0.21-0.38,0.28c-0.17-0.02-0.34-0.08-0.52-0.2s-0.27-0.27-0.27-0.48c0-1.57,0-3.12-0.01-4.66
		c-0.01-1.54-0.02-3.1-0.04-4.69c-0.6,0-1.2-0.01-1.81-0.03c-0.61-0.02-1.2-0.03-1.78-0.03c0,0.9,0,1.8-0.01,2.72
		s-0.02,1.8-0.04,2.66c-0.02,0.86-0.05,1.67-0.08,2.42c-0.04,0.76-0.08,1.41-0.14,1.97c-0.04,0.22-0.12,0.39-0.24,0.5
		c-0.12,0.11-0.26,0.17-0.41,0.17c-0.09,0-0.19-0.02-0.29-0.07c-0.1-0.05-0.19-0.11-0.27-0.18c-0.07-0.07-0.13-0.16-0.15-0.25
		c-0.03-0.09-0.02-0.2,0.01-0.31c0.13-1.34,0.22-2.72,0.27-4.13c0.05-1.41,0.07-2.81,0.07-4.21c0-1.75-0.02-3.53-0.06-5.33
		c-0.04-1.8-0.06-3.52-0.06-5.17c0.11-0.39,0.32-0.59,0.62-0.59c0.32,0,0.55,0.21,0.7,0.62c0,0.95,0.01,2.11,0.04,3.49
		c0.03,1.37,0.04,2.83,0.04,4.38c0.6,0,1.18,0.01,1.74,0.03s1.18,0.03,1.85,0.03v-7.87C219.72,347.29,219.93,347.1,220.23,347.1z"/>
	<path class="st90" d="M108.51,380.47c0.11,0,0.22,0.03,0.34,0.1c0.11,0.07,0.19,0.16,0.22,0.29c0.54,0.93,0.94,1.86,1.19,2.77
		c0.25,0.91,0.43,1.81,0.53,2.69s0.16,1.73,0.18,2.55c0.02,0.82,0.07,1.6,0.17,2.32v-0.03c0.04,0.21,0.06,0.43,0.08,0.69l0.06,0.74
		c0.13,1.16,0.24,2.16,0.32,3.01c0.08,0.85,0.13,1.67,0.13,2.48c0,0.26,0,0.56-0.01,0.9s-0.04,0.66-0.08,0.97
		c-0.05,0.31-0.13,0.56-0.24,0.77c-0.11,0.21-0.27,0.31-0.48,0.31c-0.3,0-0.51-0.13-0.64-0.38s-0.2-0.51-0.2-0.77
		c0-0.21,0.08-0.36,0.25-0.45c0.02-0.17,0.03-0.35,0.03-0.54v-0.57c0-0.67-0.03-1.35-0.1-2.04c-0.06-0.69-0.12-1.3-0.15-1.82
		l-0.06-0.59c-0.49,0-0.97,0.01-1.46,0.04c-0.49,0.03-0.97,0.04-1.46,0.04l-0.06,0.9c-0.02,0.19-0.03,0.38-0.04,0.59
		c-0.01,0.21-0.02,0.44-0.03,0.71c-0.01,0.27-0.01,0.59-0.01,0.97v1.34v1.68c0,0.13-0.06,0.27-0.18,0.42
		c-0.12,0.15-0.29,0.22-0.52,0.22c-0.28,0-0.49-0.16-0.64-0.48v-1.51c0-0.26,0-0.53-0.01-0.8c-0.01-0.27-0.01-0.55-0.01-0.83
		c0-0.77,0.03-1.5,0.1-2.2c0.06-0.7,0.12-1.4,0.15-2.09l0.08-1.34c0.06-0.95,0.14-1.94,0.27-2.97c0.12-1.03,0.26-2.01,0.41-2.94
		l0.08-0.48c0.13-0.75,0.28-1.48,0.46-2.2c0.18-0.72,0.42-1.43,0.74-2.14C108.09,380.58,108.29,380.47,108.51,380.47z
		 M108.57,392.58c0.47-0.03,0.92-0.04,1.37-0.04l-0.14-1.32c0-0.15-0.01-0.34-0.03-0.56c-0.02-0.22-0.03-0.46-0.04-0.7
		c-0.01-0.24-0.02-0.49-0.04-0.73s-0.03-0.47-0.03-0.67v-0.62c0-0.88-0.08-1.8-0.24-2.76s-0.42-1.85-0.8-2.67
		c-0.15,0.41-0.26,0.77-0.32,1.08c-0.07,0.31-0.13,0.68-0.18,1.11c-0.09,1.12-0.23,2.27-0.42,3.46c-0.19,1.19-0.33,2.32-0.42,3.4
		l-0.08,1.06C107.64,392.62,108.1,392.61,108.57,392.58z"/>
	<path class="st90" d="M120.3,380.75c0.32,0,0.55,0.21,0.7,0.62c0.02,1.27,0.03,2.34,0.03,3.22c0,0.88,0,1.72,0.01,2.54
		c0.01,0.81,0.01,1.66,0.01,2.53s0.01,1.95,0.03,3.22c0,0.35,0.01,0.87,0.03,1.55c0.02,0.68,0.04,1.39,0.07,2.13
		c0.03,0.74,0.05,1.44,0.07,2.1s0.03,1.15,0.03,1.47c-0.04,0.21-0.13,0.36-0.27,0.46c-0.14,0.1-0.28,0.15-0.43,0.15
		c-0.13,0-0.28-0.05-0.46-0.14c-0.18-0.09-0.32-0.24-0.43-0.45l-3.95-14.67v14.42c-0.04,0.22-0.13,0.39-0.27,0.5
		c-0.14,0.11-0.28,0.17-0.43,0.17s-0.28-0.05-0.41-0.15c-0.12-0.1-0.2-0.26-0.24-0.46v-18.68c0.11-0.35,0.34-0.53,0.67-0.53
		c0.3,0,0.59,0.14,0.87,0.42l3.86,14.39c-0.02-0.86-0.04-1.64-0.06-2.35c-0.02-0.71-0.03-1.36-0.04-1.95
		c-0.01-0.59-0.01-1.14-0.01-1.65v-1.5c0-0.49,0-0.97,0.01-1.44c0.01-0.48,0.01-0.98,0.01-1.53s0-1.12-0.01-1.74
		c-0.01-0.62-0.01-1.31-0.01-2.07C119.79,380.95,120,380.75,120.3,380.75z"/>
	<path class="st90" d="M126.02,381.02c0.31-0.21,0.69-0.4,1.13-0.55c0.22,0.02,0.46,0.05,0.7,0.1c0.24,0.05,0.46,0.12,0.64,0.21
		c0.28,0.15,0.54,0.45,0.78,0.9c0.24,0.45,0.45,0.94,0.63,1.47c0.18,0.53,0.32,1.05,0.42,1.55c0.1,0.5,0.15,0.89,0.15,1.15
		c0,0.5,0.04,1.11,0.11,1.81c0.07,0.7,0.11,1.35,0.11,1.95v1.41c0,0.51-0.01,1.05-0.04,1.6c-0.03,0.55-0.07,1.1-0.13,1.65
		c-0.06,0.55-0.14,1.07-0.25,1.55c0,0.41-0.05,0.9-0.15,1.47s-0.27,1.12-0.49,1.64c-0.22,0.52-0.52,0.97-0.9,1.33
		c-0.37,0.36-0.83,0.55-1.37,0.55c-0.43,0-0.79-0.12-1.08-0.36c-0.29-0.24-0.54-0.55-0.76-0.91c-0.21-0.36-0.39-0.76-0.52-1.18
		l-0.36-1.19c-0.17-0.56-0.29-1.06-0.38-1.5c-0.08-0.44-0.15-0.87-0.21-1.3c-0.09-0.56-0.15-1.19-0.17-1.9
		c-0.02-0.71-0.03-1.41-0.03-2.1v-0.98c0-0.9,0.05-1.82,0.14-2.77c0.09-0.95,0.28-1.87,0.56-2.74c0.04-0.06,0.09-0.18,0.17-0.36
		c0.07-0.19,0.15-0.4,0.24-0.64l0.25-0.71c0.08-0.23,0.16-0.42,0.24-0.57C125.53,381.42,125.72,381.23,126.02,381.02z
		 M129.02,384.88c-0.05-0.46-0.13-0.92-0.25-1.37c-0.12-0.46-0.29-0.85-0.52-1.19c-0.22-0.34-0.53-0.5-0.92-0.5
		c-0.34,0.06-0.61,0.22-0.81,0.49c-0.21,0.27-0.38,0.6-0.52,0.99c-0.14,0.39-0.25,0.82-0.34,1.27l-0.24,1.33
		c-0.09,0.5-0.17,1.06-0.24,1.67c-0.07,0.61-0.09,1.18-0.07,1.72c0,0.6,0.04,1.19,0.11,1.78s0.11,1.22,0.11,1.89
		c0,0.26,0.01,0.5,0.03,0.71s0.05,0.45,0.1,0.7c0.05,0.25,0.1,0.55,0.15,0.9c0.06,0.34,0.13,0.77,0.22,1.27
		c0.07,0.26,0.17,0.55,0.29,0.87c0.12,0.32,0.26,0.62,0.41,0.92s0.32,0.55,0.52,0.74c0.2,0.2,0.42,0.29,0.66,0.29
		c0.19,0,0.35-0.13,0.49-0.39c0.14-0.26,0.26-0.57,0.35-0.92c0.09-0.36,0.16-0.71,0.21-1.08c0.05-0.36,0.09-0.64,0.13-0.83
		c0.09-0.6,0.16-1.07,0.2-1.41c0.04-0.35,0.07-0.67,0.11-0.97c0-0.65,0.03-1.33,0.1-2.04c0.06-0.71,0.1-1.41,0.1-2.1
		c0-0.5-0.02-1.1-0.07-1.78c-0.05-0.68-0.11-1.32-0.18-1.92C129.11,385.69,129.07,385.34,129.02,384.88z"/>
	<path class="st90" d="M131.34,381.51c-0.1-0.11-0.15-0.24-0.15-0.39s0.06-0.29,0.17-0.43c0.11-0.14,0.28-0.23,0.5-0.27h5.57
		c0.21,0.08,0.36,0.18,0.46,0.31s0.15,0.27,0.15,0.42c0,0.13-0.05,0.25-0.14,0.36c-0.09,0.11-0.24,0.19-0.45,0.22h-2.18
		c0,2.97,0.01,6.02,0.03,9.14c0.02,3.13,0.03,6.19,0.03,9.2c-0.04,0.22-0.13,0.39-0.27,0.5c-0.14,0.11-0.28,0.17-0.43,0.17
		c-0.15,0-0.28-0.05-0.39-0.15c-0.11-0.1-0.19-0.26-0.22-0.46c0-3.06-0.01-6.16-0.03-9.28c-0.02-3.13-0.03-6.16-0.03-9.11h-2.16
		C131.6,381.7,131.45,381.62,131.34,381.51z"/>
	<path class="st90" d="M145.08,380.7c0.32,0,0.55,0.21,0.7,0.62c0,3.01,0.01,6.05,0.03,9.14c0.02,3.09,0.03,6.2,0.03,9.34
		c0,0.17-0.05,0.31-0.15,0.42c-0.1,0.11-0.23,0.21-0.38,0.28c-0.17-0.02-0.34-0.08-0.52-0.2c-0.18-0.11-0.27-0.27-0.27-0.48
		c0-1.57,0-3.12-0.01-4.66c-0.01-1.54-0.02-3.1-0.04-4.69c-0.6,0-1.2-0.01-1.81-0.03c-0.61-0.02-1.2-0.03-1.78-0.03
		c0,0.9,0,1.8-0.01,2.72c-0.01,0.91-0.02,1.8-0.04,2.66c-0.02,0.86-0.05,1.67-0.08,2.42c-0.04,0.76-0.08,1.41-0.14,1.97
		c-0.04,0.22-0.12,0.39-0.24,0.5c-0.12,0.11-0.26,0.17-0.41,0.17c-0.09,0-0.19-0.02-0.29-0.07c-0.1-0.05-0.19-0.11-0.27-0.18
		s-0.13-0.16-0.15-0.25c-0.03-0.09-0.02-0.2,0.01-0.31c0.13-1.34,0.22-2.72,0.27-4.13c0.05-1.41,0.07-2.81,0.07-4.21
		c0-1.75-0.02-3.53-0.06-5.33c-0.04-1.8-0.06-3.52-0.06-5.17c0.11-0.39,0.32-0.59,0.62-0.59c0.32,0,0.55,0.21,0.7,0.62
		c0,0.95,0.01,2.11,0.04,3.49c0.03,1.37,0.04,2.83,0.04,4.38c0.6,0,1.18,0.01,1.74,0.03c0.56,0.02,1.18,0.03,1.85,0.03v-7.87
		C144.57,380.89,144.78,380.7,145.08,380.7z"/>
	<path class="st90" d="M148.8,391.15c0.02-3.05,0.03-6.26,0.03-9.62c-0.13-0.11-0.2-0.26-0.2-0.45c0-0.15,0.06-0.29,0.17-0.43
		c0.11-0.14,0.27-0.23,0.48-0.27h1.01c0.21,0,0.4,0,0.57-0.01c0.18-0.01,0.37-0.01,0.57-0.01c0.24,0,0.53,0,0.85,0.01
		c0.33,0.01,0.64,0.04,0.94,0.08c0.3,0.05,0.55,0.13,0.74,0.25c0.2,0.12,0.29,0.29,0.29,0.52c0,0.09-0.05,0.23-0.15,0.42
		s-0.27,0.28-0.49,0.28c-0.52,0-1.07-0.03-1.64-0.08c-0.57-0.05-1.18-0.09-1.83-0.11c0,0.63,0,1.27-0.01,1.9s-0.01,1.26-0.01,1.88
		v3.78c0.32-0.02,0.68-0.03,1.08-0.03h1.58c0.22,0.04,0.4,0.12,0.53,0.24c0.13,0.12,0.2,0.26,0.2,0.41c0,0.17-0.07,0.33-0.21,0.48
		c-0.14,0.15-0.41,0.22-0.8,0.22c-0.41,0-0.8-0.01-1.18-0.03c-0.37-0.02-0.77-0.03-1.2-0.03c-0.02,1.4-0.03,2.85-0.03,4.34v4.42
		c0.26,0,0.63-0.03,1.11-0.08c0.48-0.06,0.93-0.08,1.36-0.08c0.54,0,1,0.05,1.37,0.15c0.37,0.1,0.56,0.33,0.56,0.69
		c0,0.19-0.07,0.34-0.2,0.46c-0.13,0.12-0.28,0.18-0.45,0.18c-0.15,0-0.34-0.02-0.57-0.07c-0.23-0.05-0.48-0.07-0.74-0.07
		c-0.45,0-0.89,0.02-1.33,0.07s-0.88,0.07-1.33,0.07c-0.11,0.11-0.2,0.18-0.27,0.2c-0.06,0.02-0.12,0.03-0.15,0.03
		c-0.13,0-0.26-0.05-0.39-0.14c-0.13-0.09-0.22-0.26-0.28-0.5C148.77,397.23,148.78,394.21,148.8,391.15z"/>
	<path class="st90" d="M156.19,381.17c0-0.19,0.07-0.34,0.21-0.46c0.14-0.12,0.32-0.21,0.53-0.27c0.21-0.06,0.45-0.09,0.7-0.11
		c0.25-0.02,0.49-0.03,0.71-0.03c0.65,0,1.26,0.11,1.82,0.32s1.05,0.53,1.47,0.94s0.75,0.91,0.98,1.51s0.35,1.28,0.35,2.04
		c0,0.63-0.02,1.25-0.07,1.83c-0.05,0.59-0.13,1.12-0.25,1.6c-0.12,0.48-0.3,0.9-0.53,1.26c-0.23,0.36-0.54,0.64-0.91,0.83
		c0.3,0.37,0.53,0.86,0.69,1.46c0.16,0.6,0.28,1.21,0.35,1.83c0.07,0.63,0.12,1.22,0.14,1.79c0.02,0.57,0.03,1.01,0.03,1.33
		c0.02,0.37,0.06,0.76,0.11,1.15c0.06,0.39,0.17,0.71,0.34,0.95c0.24-0.15,0.46-0.22,0.64-0.22c0.21,0,0.38,0.08,0.53,0.25
		s0.22,0.44,0.22,0.81c0,0.24-0.09,0.43-0.28,0.56c-0.19,0.13-0.44,0.2-0.76,0.2c-0.49,0-0.87-0.15-1.15-0.45
		c-0.28-0.3-0.49-0.66-0.64-1.08s-0.24-0.86-0.28-1.32c-0.04-0.46-0.07-0.85-0.08-1.19c0-0.11-0.01-0.44-0.03-0.99
		c-0.02-0.55-0.06-1.15-0.14-1.79c-0.07-0.64-0.19-1.24-0.34-1.78c-0.15-0.54-0.35-0.85-0.59-0.92c-0.3,0.07-0.61,0.13-0.92,0.15
		c-0.32,0.03-0.63,0.04-0.95,0.04v8.48c0,0.19-0.06,0.35-0.18,0.49c-0.12,0.14-0.29,0.21-0.52,0.21c-0.17,0-0.31-0.07-0.42-0.21
		c-0.11-0.14-0.19-0.29-0.22-0.46l-0.06-18.14C156.36,381.68,156.19,381.47,156.19,381.17z M160.62,382.57
		c-0.67-0.63-1.51-0.95-2.52-0.95v8.48c0.78-0.02,1.4-0.13,1.86-0.34c0.46-0.21,0.81-0.51,1.06-0.91s0.42-0.91,0.49-1.51
		c0.07-0.61,0.11-1.32,0.11-2.14C161.62,384.08,161.29,383.21,160.62,382.57z"/>
	<path class="st90" d="M169.74,400.13v-18.31c-0.37-0.11-0.56-0.33-0.56-0.64c0-0.21,0.07-0.36,0.22-0.46
		c0.15-0.1,0.34-0.18,0.56-0.22c0.22-0.05,0.47-0.07,0.74-0.08c0.27-0.01,0.52-0.01,0.74-0.01c0.54,0,1.08,0.13,1.62,0.38
		c0.54,0.25,1.02,0.62,1.44,1.11c0.42,0.48,0.76,1.09,1.02,1.8c0.26,0.72,0.39,1.54,0.39,2.48c0,0.6-0.03,1.18-0.1,1.75
		s-0.17,1.11-0.31,1.61c-0.14,0.5-0.33,0.97-0.56,1.39c-0.23,0.42-0.51,0.76-0.83,1.02c-0.49,0.39-0.98,0.63-1.48,0.73
		c-0.5,0.09-1.04,0.14-1.6,0.14v7.11c0,0.34-0.18,0.57-0.53,0.7C170.19,400.6,169.93,400.45,169.74,400.13z M171.96,381.75
		c-0.21-0.03-0.42-0.04-0.64-0.04h-0.25v9.77c0.39-0.02,0.81-0.06,1.25-0.13c0.44-0.07,0.73-0.18,0.88-0.35
		c0.49-0.6,0.84-1.25,1.08-1.97s0.35-1.55,0.35-2.51c0-0.92-0.19-1.81-0.56-2.67c-0.37-0.87-0.91-1.52-1.6-1.95
		C172.33,381.83,172.16,381.77,171.96,381.75z"/>
	<path class="st90" d="M178.76,380.42c0.32,0,0.55,0.21,0.7,0.62c0.04,3,0.1,6,0.18,8.99c0.08,2.99,0.14,5.94,0.18,8.85
		c0.09-0.02,0.17-0.03,0.22-0.04c0.06-0.01,0.12-0.01,0.2-0.01c0.13,0,0.27,0.03,0.42,0.08c0.15,0.06,0.31,0.12,0.48,0.2
		c0.17,0.08,0.33,0.14,0.49,0.2s0.31,0.08,0.46,0.08c0.06,0,0.11-0.01,0.15-0.04c0.05-0.03,0.11-0.11,0.18-0.24
		c-0.21-0.19-0.34-0.33-0.41-0.43c-0.07-0.1-0.1-0.2-0.1-0.29c0-0.15,0.07-0.29,0.2-0.42c0.13-0.13,0.31-0.21,0.53-0.22
		c0.35,0.06,0.62,0.2,0.8,0.43c0.18,0.23,0.27,0.51,0.27,0.83c0,0.58-0.16,1.01-0.48,1.29c-0.32,0.28-0.65,0.42-1.01,0.42
		c-0.37,0-0.7-0.08-0.99-0.25c-0.29-0.17-0.54-0.25-0.74-0.25c-0.26,0-0.49,0.07-0.7,0.21c-0.21,0.14-0.41,0.23-0.62,0.27
		c-0.24,0.04-0.44-0.05-0.59-0.25c-0.15-0.21-0.19-0.43-0.11-0.67c0-3.06-0.05-6.17-0.14-9.32s-0.16-6.29-0.2-9.41
		C178.26,380.61,178.46,380.42,178.76,380.42z"/>
	<path class="st90" d="M187.66,380.47c0.11,0,0.22,0.03,0.34,0.1c0.11,0.07,0.19,0.16,0.22,0.29c0.54,0.93,0.94,1.86,1.19,2.77
		c0.25,0.91,0.43,1.81,0.53,2.69s0.16,1.73,0.18,2.55c0.02,0.82,0.07,1.6,0.17,2.32v-0.03c0.04,0.21,0.06,0.43,0.08,0.69l0.06,0.74
		c0.13,1.16,0.24,2.16,0.32,3.01c0.08,0.85,0.13,1.67,0.13,2.48c0,0.26,0,0.56-0.01,0.9s-0.04,0.66-0.08,0.97
		c-0.05,0.31-0.13,0.56-0.24,0.77c-0.11,0.21-0.27,0.31-0.48,0.31c-0.3,0-0.51-0.13-0.64-0.38s-0.2-0.51-0.2-0.77
		c0-0.21,0.08-0.36,0.25-0.45c0.02-0.17,0.03-0.35,0.03-0.54v-0.57c0-0.67-0.03-1.35-0.1-2.04c-0.06-0.69-0.12-1.3-0.15-1.82
		l-0.06-0.59c-0.49,0-0.97,0.01-1.46,0.04c-0.49,0.03-0.97,0.04-1.46,0.04l-0.06,0.9c-0.02,0.19-0.03,0.38-0.04,0.59
		c-0.01,0.21-0.02,0.44-0.03,0.71c-0.01,0.27-0.01,0.59-0.01,0.97v1.34v1.68c0,0.13-0.06,0.27-0.18,0.42
		c-0.12,0.15-0.29,0.22-0.52,0.22c-0.28,0-0.49-0.16-0.64-0.48v-1.51c0-0.26,0-0.53-0.01-0.8c-0.01-0.27-0.01-0.55-0.01-0.83
		c0-0.77,0.03-1.5,0.1-2.2c0.06-0.7,0.12-1.4,0.15-2.09l0.08-1.34c0.06-0.95,0.14-1.94,0.27-2.97c0.12-1.03,0.26-2.01,0.41-2.94
		l0.08-0.48c0.13-0.75,0.28-1.48,0.46-2.2c0.18-0.72,0.42-1.43,0.74-2.14C187.24,380.58,187.44,380.47,187.66,380.47z
		 M187.72,392.58c0.47-0.03,0.92-0.04,1.37-0.04l-0.14-1.32c0-0.15-0.01-0.34-0.03-0.56c-0.02-0.22-0.03-0.46-0.04-0.7
		c-0.01-0.24-0.02-0.49-0.04-0.73s-0.03-0.47-0.03-0.67v-0.62c0-0.88-0.08-1.8-0.24-2.76s-0.42-1.85-0.8-2.67
		c-0.15,0.41-0.26,0.77-0.32,1.08c-0.07,0.31-0.13,0.68-0.18,1.11c-0.09,1.12-0.23,2.27-0.42,3.46c-0.19,1.19-0.33,2.32-0.42,3.4
		l-0.08,1.06C186.8,392.62,187.25,392.61,187.72,392.58z"/>
	<path class="st90" d="M197.41,380.39c0.32,0,0.55,0.21,0.7,0.62c0,0.79-0.06,1.59-0.18,2.42c-0.12,0.83-0.27,1.66-0.45,2.49
		c-0.18,0.83-0.39,1.65-0.63,2.46l-0.73,2.34c-0.04,0.13-0.08,0.26-0.14,0.38c-0.06,0.12-0.14,0.29-0.25,0.49
		c0,0.21-0.02,0.39-0.06,0.55c-0.04,0.16-0.06,0.33-0.06,0.52c0,0.99,0.04,1.97,0.11,2.95s0.11,2.02,0.11,3.12v0.69
		c0,0.25-0.02,0.49-0.06,0.7c-0.04,0.21-0.11,0.4-0.21,0.55c-0.1,0.15-0.27,0.22-0.49,0.22c-0.21,0-0.36-0.08-0.48-0.25
		c-0.11-0.17-0.17-0.36-0.17-0.59c0-0.28,0.02-0.51,0.06-0.7c0.04-0.19,0.06-0.38,0.06-0.59c0-0.3-0.01-0.57-0.03-0.83
		c-0.02-0.25-0.04-0.54-0.06-0.85l-0.06-0.92c0-0.54-0.02-1.14-0.06-1.79c-0.04-0.65-0.06-1.3-0.06-1.93v-0.64
		c-0.26-0.35-0.49-0.81-0.7-1.37c-0.21-0.56-0.39-1.18-0.56-1.85s-0.31-1.37-0.43-2.09c-0.12-0.72-0.23-1.42-0.32-2.1
		c-0.09-0.68-0.17-1.32-0.22-1.9s-0.09-1.08-0.11-1.47c0.11-0.39,0.32-0.59,0.62-0.59c0.32,0,0.55,0.2,0.7,0.59
		c0.04,0.47,0.09,1.1,0.17,1.89s0.18,1.64,0.31,2.53c0.13,0.9,0.29,1.77,0.48,2.63c0.19,0.86,0.41,1.58,0.67,2.16
		c0.43-1.46,0.85-2.97,1.26-4.54c0.41-1.57,0.63-3.13,0.64-4.7C196.9,380.58,197.11,380.39,197.41,380.39z"/>
	<path class="st90" d="M199.65,391.15c0.02-3.05,0.03-6.26,0.03-9.62c-0.13-0.11-0.2-0.26-0.2-0.45c0-0.15,0.06-0.29,0.17-0.43
		c0.11-0.14,0.27-0.23,0.48-0.27h1.01c0.21,0,0.4,0,0.57-0.01c0.18-0.01,0.37-0.01,0.57-0.01c0.24,0,0.53,0,0.85,0.01
		c0.33,0.01,0.64,0.04,0.94,0.08c0.3,0.05,0.55,0.13,0.74,0.25c0.2,0.12,0.29,0.29,0.29,0.52c0,0.09-0.05,0.23-0.15,0.42
		s-0.27,0.28-0.49,0.28c-0.52,0-1.07-0.03-1.64-0.08c-0.57-0.05-1.18-0.09-1.83-0.11c0,0.63,0,1.27-0.01,1.9s-0.01,1.26-0.01,1.88
		v3.78c0.32-0.02,0.68-0.03,1.08-0.03h1.58c0.22,0.04,0.4,0.12,0.53,0.24c0.13,0.12,0.2,0.26,0.2,0.41c0,0.17-0.07,0.33-0.21,0.48
		c-0.14,0.15-0.41,0.22-0.8,0.22c-0.41,0-0.8-0.01-1.18-0.03c-0.37-0.02-0.77-0.03-1.2-0.03c-0.02,1.4-0.03,2.85-0.03,4.34v4.42
		c0.26,0,0.63-0.03,1.11-0.08c0.48-0.06,0.93-0.08,1.36-0.08c0.54,0,1,0.05,1.37,0.15c0.37,0.1,0.56,0.33,0.56,0.69
		c0,0.19-0.07,0.34-0.2,0.46c-0.13,0.12-0.28,0.18-0.45,0.18c-0.15,0-0.34-0.02-0.57-0.07c-0.23-0.05-0.48-0.07-0.74-0.07
		c-0.45,0-0.89,0.02-1.33,0.07s-0.88,0.07-1.33,0.07c-0.11,0.11-0.2,0.18-0.27,0.2c-0.06,0.02-0.12,0.03-0.15,0.03
		c-0.13,0-0.26-0.05-0.39-0.14c-0.13-0.09-0.22-0.26-0.28-0.5C199.62,397.23,199.63,394.21,199.65,391.15z"/>
	<path class="st90" d="M207.04,381.17c0-0.19,0.07-0.34,0.21-0.46c0.14-0.12,0.32-0.21,0.53-0.27c0.21-0.06,0.45-0.09,0.7-0.11
		c0.25-0.02,0.49-0.03,0.71-0.03c0.65,0,1.26,0.11,1.82,0.32s1.05,0.53,1.47,0.94s0.75,0.91,0.98,1.51s0.35,1.28,0.35,2.04
		c0,0.63-0.02,1.25-0.07,1.83c-0.05,0.59-0.13,1.12-0.25,1.6c-0.12,0.48-0.3,0.9-0.53,1.26c-0.23,0.36-0.54,0.64-0.91,0.83
		c0.3,0.37,0.53,0.86,0.69,1.46c0.16,0.6,0.28,1.21,0.35,1.83c0.07,0.63,0.12,1.22,0.14,1.79c0.02,0.57,0.03,1.01,0.03,1.33
		c0.02,0.37,0.06,0.76,0.11,1.15c0.06,0.39,0.17,0.71,0.34,0.95c0.24-0.15,0.46-0.22,0.64-0.22c0.21,0,0.38,0.08,0.53,0.25
		s0.22,0.44,0.22,0.81c0,0.24-0.09,0.43-0.28,0.56c-0.19,0.13-0.44,0.2-0.76,0.2c-0.49,0-0.87-0.15-1.15-0.45
		c-0.28-0.3-0.49-0.66-0.64-1.08s-0.24-0.86-0.28-1.32c-0.04-0.46-0.07-0.85-0.08-1.19c0-0.11-0.01-0.44-0.03-0.99
		c-0.02-0.55-0.06-1.15-0.14-1.79c-0.07-0.64-0.19-1.24-0.34-1.78c-0.15-0.54-0.35-0.85-0.59-0.92c-0.3,0.07-0.61,0.13-0.92,0.15
		c-0.32,0.03-0.63,0.04-0.95,0.04v8.48c0,0.19-0.06,0.35-0.18,0.49c-0.12,0.14-0.29,0.21-0.52,0.21c-0.17,0-0.31-0.07-0.42-0.21
		c-0.11-0.14-0.19-0.29-0.22-0.46l-0.06-18.14C207.21,381.68,207.04,381.47,207.04,381.17z M211.46,382.57
		c-0.67-0.63-1.51-0.95-2.52-0.95v8.48c0.78-0.02,1.4-0.13,1.86-0.34c0.46-0.21,0.81-0.51,1.06-0.91s0.42-0.91,0.49-1.51
		c0.07-0.61,0.11-1.32,0.11-2.14C212.47,384.08,212.14,383.21,211.46,382.57z"/>
</g>
<ellipse class="st0" cx="142.5" cy="346.5" rx="2" ry="1"/>
<ellipse class="st0" cx="142.5" cy="346.5" rx="2" ry="1"/>
</svg>
