<?xml version="1.0" encoding="utf-8"?>
<!-- Generator: Adobe Illustrator 23.0.3, SVG Export Plug-In . SVG Version: 6.00 Build 0)  -->
<svg version="1.1" id="Layer_1" xmlns="http://www.w3.org/2000/svg" xmlns:xlink="http://www.w3.org/1999/xlink" x="0px" y="0px"
	 viewBox="0 0 320 440" style="enable-background:new 0 0 320 440;" xml:space="preserve">
<style type="text/css">
	.st0{fill:#FFFFFF;}
	.st1{fill:url(#SVGID_1_);}
	.st2{clip-path:url(#SVGID_3_);}
	.st3{clip-path:url(#SVGID_7_);}
	.st4{clip-path:url(#SVGID_14_);}
	.st5{fill:#57426C;}
	.st6{fill:#CCCCCC;}
	.st7{fill:url(#SVGID_15_);}
	.st8{fill:#EE5DA1;}
	.st9{fill:none;stroke:#231F20;stroke-width:0.7466;stroke-linecap:round;stroke-linejoin:round;stroke-miterlimit:10;}
	.st10{fill:#FFCC02;}
	.st11{fill:#00B1D6;}
	.st12{fill:#F8CADE;}
	.st13{fill:#EC268F;}
	.st14{fill:#9B2A8F;}
	.st15{fill:#231F20;}
	.st16{fill:url(#SVGID_16_);}
	.st17{fill:url(#SVGID_17_);}
	.st18{fill:none;stroke:#231F20;stroke-width:0.4978;stroke-linecap:round;stroke-linejoin:round;stroke-miterlimit:10;}
	.st19{fill:#DEF0EA;}
	.st20{fill:#CB2027;}
	.st21{fill:#898B8D;}
	.st22{fill:#201B57;}
	.st23{fill:none;stroke:#231F20;stroke-width:0.7466;stroke-miterlimit:10;}
	.st24{fill:#430925;}
	.st25{fill:#C55BA1;}
	.st26{fill:none;stroke:#231F20;stroke-width:0.4978;stroke-miterlimit:10;}
	.st27{fill:none;stroke:#231F20;stroke-width:0.2489;stroke-linecap:round;stroke-linejoin:round;stroke-miterlimit:10;}
	.st28{fill:url(#SVGID_18_);}
	.st29{fill:url(#SVGID_19_);}
	.st30{fill:#94D8F1;}
	.st31{fill:#004891;}
	.st32{fill:none;stroke:#231F20;stroke-width:1.2444;stroke-linecap:round;stroke-linejoin:round;stroke-miterlimit:10;}
	.st33{fill:none;stroke:#231F20;stroke-width:0.8711;stroke-linecap:round;stroke-linejoin:round;stroke-miterlimit:10;}
	.st34{fill:none;stroke:#231F20;stroke-width:0.9955;stroke-linecap:round;stroke-linejoin:round;stroke-miterlimit:10;}
	.st35{fill:#CA1F8D;}
	.st36{fill:none;stroke:#231F20;stroke-width:0.6934;stroke-linecap:round;stroke-linejoin:round;stroke-miterlimit:10;}
	.st37{fill:#FFCE01;}
	.st38{fill:#ED2433;}
	.st39{fill:#E27588;}
	.st40{fill:url(#SVGID_20_);}
	.st41{fill:url(#SVGID_21_);}
	.st42{fill:url(#SVGID_22_);}
	.st43{fill:#FCB614;}
	.st44{fill:none;stroke:#231F20;stroke-width:1.439;stroke-linecap:round;stroke-linejoin:round;stroke-miterlimit:10;}
	.st45{fill:none;stroke:#231F20;stroke-width:0.9955;stroke-miterlimit:10;}
	.st46{fill:url(#SVGID_23_);}
	.st47{fill:#FBCEC0;}
	.st48{fill:#0093CD;}
	.st49{fill:#7FC579;}
	.st50{fill:#00A551;}
	.st51{fill:#0061AE;}
	.st52{fill:url(#SVGID_24_);}
	.st53{fill:url(#SVGID_25_);}
	.st54{fill:#5F958A;}
	.st55{fill:#84E2CE;}
	.st56{fill:#6FBFA4;}
	.st57{fill:#E2FFEE;}
	.st58{fill:#660029;}
	.st59{fill:#E80042;}
	.st60{fill:#63ECFF;}
	.st61{fill:#4D99AA;}
	.st62{fill:#416B60;}
	.st63{fill:#7E7841;}
	.st64{fill:#66F82C;}
	.st65{fill:#F6E400;}
	.st66{fill:url(#SVGID_26_);}
	.st67{fill:url(#SVGID_27_);}
	.st68{fill:#B18DC4;}
	.st69{fill:url(#SVGID_28_);}
	.st70{fill:url(#SVGID_29_);}
	.st71{fill:url(#SVGID_30_);}
	.st72{fill:#F3D94A;stroke:#000000;stroke-width:0.5;stroke-miterlimit:10;}
	.st73{fill:#D0FF47;}
	.st74{fill:#FF5DC1;}
	.st75{fill:#CB0002;}
	.st76{clip-path:url(#SVGID_32_);}
	.st77{clip-path:url(#SVGID_34_);}
	.st78{fill:#A0A0A0;stroke:#FFFFFF;stroke-width:10;stroke-miterlimit:10;}
	.st79{clip-path:url(#SVGID_38_);}
	.st80{clip-path:url(#SVGID_40_);}
	.st81{fill:none;stroke:#FFFFFF;stroke-width:10;stroke-linejoin:bevel;stroke-miterlimit:10;}
	.st82{fill:none;stroke:#FFFFFF;stroke-width:10;stroke-miterlimit:10;}
	.st83{clip-path:url(#SVGID_44_);}
	.st84{clip-path:url(#SVGID_46_);}
	.st85{fill:url(#SVGID_49_);}
	.st86{fill:url(#SVGID_50_);}
	.st87{fill:#EE72A1;}
	.st88{fill:url(#SVGID_51_);}
	.st89{fill:url(#SVGID_52_);}
	.st90{fill:#828168;}
	.st91{fill:url(#SVGID_53_);}
	.st92{fill:url(#SVGID_54_);}
	.st93{fill:#4172A1;}
	.st94{fill:url(#SVGID_55_);}
	.st95{fill:url(#SVGID_56_);}
	.st96{fill:#EE730C;}
	.st97{fill:url(#SVGID_57_);}
	.st98{fill:url(#SVGID_58_);}
	.st99{fill:#027A8E;}
	.st100{fill:url(#SVGID_59_);}
	.st101{fill:url(#SVGID_60_);}
	.st102{fill:#08B778;}
	.st103{fill:url(#SVGID_61_);}
	.st104{fill:url(#SVGID_62_);}
	.st105{fill:#6A498E;}
	.st106{fill:url(#SVGID_63_);}
	.st107{fill:url(#SVGID_64_);}
	.st108{fill:#89C408;}
	.st109{clip-path:url(#SVGID_68_);}
	.st110{clip-path:url(#SVGID_70_);}
	.st111{clip-path:url(#SVGID_72_);}
	.st112{clip-path:url(#SVGID_76_);}
	.st113{clip-path:url(#SVGID_78_);}
	.st114{fill:none;stroke:#FFFFFF;stroke-miterlimit:10;}
</style>
<path class="st0" d="M42,440c-23.16,0-42-18.84-42-42V42C0,18.84,18.84,0,42,0h236c23.16,0,42,18.84,42,42v356
	c0,23.16-18.84,42-42,42H42z"/>
<linearGradient id="SVGID_1_" gradientUnits="userSpaceOnUse" x1="160" y1="410" x2="160" y2="30">
	<stop  offset="0" style="stop-color:#FFFFFF"/>
	<stop  offset="0.9986" style="stop-color:#A9E71C"/>
</linearGradient>
<path class="st1" d="M278,410H42c-6.6,0-12-5.4-12-12V42c0-6.6,5.4-12,12-12h236c6.6,0,12,5.4,12,12v356
	C290,404.6,284.6,410,278,410z"/>
<linearGradient id="SVGID_3_" gradientUnits="userSpaceOnUse" x1="159.5" y1="409.5" x2="159.5" y2="328.5">
	<stop  offset="0" style="stop-color:#FFFFFF"/>
	<stop  offset="0.8587" style="stop-color:#FFFFFF;stop-opacity:0.1413"/>
	<stop  offset="1" style="stop-color:#FFFFFF;stop-opacity:0"/>
</linearGradient>
<polygon style="fill:url(#SVGID_3_);" points="29.5,328.5 289.5,328.5 289.5,409.5 29.5,409.5 "/>
<g>
	<path class="st0" d="M57.91,58.86c-0.31,0.34-0.71,0.5-1.19,0.5c-0.53,0-0.95-0.21-1.26-0.61C55.15,58.34,55,57.64,55,56.63
		c0-1.15,0.14-2.35,0.43-3.6s0.71-2.41,1.26-3.49c0.55-1.08,1.24-1.97,2.05-2.67c0.82-0.7,1.75-1.04,2.81-1.04
		c1.15,0,2.1,0.32,2.84,0.97s1.34,1.46,1.8,2.45s0.77,2.04,0.94,3.17c0.17,1.13,0.25,2.17,0.25,3.13c0,1.78-0.05,3.44-0.14,5
		s-0.26,3.07-0.5,4.54c-0.24,1.46-0.54,2.94-0.9,4.43c-0.36,1.49-0.78,3.05-1.26,4.68l-3.38,8.06c-0.62,1.49-1.13,3.13-1.51,4.93
		c-0.38,1.8-0.67,3.56-0.86,5.29c0.1,0,0.2-0.01,0.32-0.04c0.12-0.02,0.23-0.04,0.32-0.04c0.48,0,0.95,0.1,1.4,0.29
		c0.46,0.19,0.89,0.41,1.3,0.65L63.24,94c0.31,0.19,0.59,0.29,0.83,0.29c0.14,0,0.29-0.1,0.43-0.29c0.14-0.19,0.29-0.41,0.43-0.65
		s0.31-0.46,0.5-0.65c0.19-0.19,0.46-0.31,0.79-0.36c0.34,0,0.72,0.16,1.15,0.47c0.43,0.31,0.65,0.66,0.65,1.04
		c0,0.43-0.04,0.9-0.11,1.4c-0.07,0.5-0.22,0.97-0.43,1.4s-0.54,0.79-0.97,1.08s-0.98,0.43-1.66,0.43c-0.48,0-0.95-0.11-1.4-0.32
		c-0.46-0.21-0.9-0.46-1.33-0.72c-0.43-0.26-0.85-0.5-1.26-0.72s-0.8-0.32-1.19-0.32c-0.29,0-0.53,0.08-0.72,0.25
		s-0.37,0.34-0.54,0.5s-0.37,0.34-0.61,0.5c-0.24,0.17-0.53,0.25-0.86,0.25c-0.53,0-0.94-0.19-1.22-0.58
		c-0.29-0.38-0.43-0.91-0.43-1.58c0.05-2.4,0.29-4.87,0.72-7.42c0.43-2.54,1.13-4.94,2.09-7.2l0.83-1.94
		c0.22-0.53,0.42-0.94,0.61-1.22c0.82-1.87,1.51-3.64,2.09-5.29c0.58-1.66,1.04-3.35,1.4-5.08c0.36-1.73,0.61-3.54,0.76-5.44
		c0.14-1.9,0.22-3.97,0.22-6.23c0-0.14-0.01-0.55-0.04-1.22s-0.11-1.39-0.25-2.16s-0.38-1.46-0.72-2.09
		c-0.34-0.62-0.79-0.94-1.37-0.94c-0.38,0-0.77,0.26-1.15,0.79c-0.38,0.53-0.74,1.15-1.08,1.87c-0.34,0.72-0.6,1.48-0.79,2.27
		c-0.19,0.79-0.29,1.48-0.29,2.05v0.58c0,0.19,0.02,0.41,0.07,0.65C58.38,58.04,58.22,58.53,57.91,58.86z"/>
</g>
<g>
	<path class="st0" d="M110.57,59.45c-0.13-0.14-0.2-0.31-0.2-0.5s0.07-0.38,0.22-0.56c0.14-0.18,0.36-0.29,0.65-0.34h7.16
		c0.26,0.1,0.46,0.23,0.59,0.4s0.2,0.35,0.2,0.54c0,0.17-0.06,0.32-0.18,0.47s-0.31,0.24-0.58,0.29h-2.81
		c0,3.82,0.01,7.73,0.04,11.75c0.02,4.02,0.04,7.96,0.04,11.82c-0.05,0.29-0.16,0.5-0.34,0.65c-0.18,0.14-0.37,0.21-0.56,0.21
		c-0.19,0-0.36-0.07-0.5-0.2c-0.14-0.13-0.24-0.33-0.29-0.59c0-3.94-0.01-7.91-0.04-11.93s-0.04-7.92-0.04-11.72h-2.77
		C110.9,59.69,110.7,59.59,110.57,59.45z"/>
	<path class="st0" d="M120.16,59.02c0-0.24,0.09-0.44,0.27-0.59s0.41-0.27,0.68-0.34c0.28-0.07,0.58-0.12,0.9-0.14
		s0.63-0.04,0.92-0.04c0.84,0,1.62,0.14,2.34,0.41c0.72,0.28,1.35,0.68,1.89,1.21c0.54,0.53,0.96,1.18,1.26,1.94
		s0.45,1.64,0.45,2.63c0,0.82-0.03,1.6-0.09,2.36c-0.06,0.76-0.17,1.44-0.32,2.05c-0.16,0.61-0.38,1.15-0.68,1.62
		c-0.3,0.47-0.69,0.82-1.17,1.06c0.38,0.48,0.68,1.1,0.88,1.87c0.2,0.77,0.35,1.55,0.45,2.36c0.1,0.8,0.16,1.57,0.18,2.3
		c0.02,0.73,0.04,1.3,0.04,1.71c0.02,0.48,0.07,0.97,0.14,1.48s0.22,0.91,0.43,1.22c0.31-0.19,0.59-0.29,0.83-0.29
		c0.26,0,0.49,0.11,0.68,0.32c0.19,0.22,0.29,0.56,0.29,1.04c0,0.31-0.12,0.55-0.36,0.72c-0.24,0.17-0.56,0.25-0.97,0.25
		c-0.62,0-1.12-0.19-1.48-0.58c-0.36-0.38-0.64-0.85-0.83-1.38c-0.19-0.54-0.31-1.1-0.36-1.69s-0.08-1.1-0.11-1.53
		c0-0.14-0.01-0.57-0.04-1.28c-0.02-0.71-0.08-1.48-0.18-2.3c-0.1-0.83-0.24-1.59-0.43-2.29c-0.19-0.7-0.44-1.09-0.76-1.19
		c-0.38,0.1-0.78,0.16-1.19,0.2c-0.41,0.04-0.82,0.05-1.22,0.05V83.1c0,0.24-0.08,0.45-0.23,0.63C122.22,83.91,122,84,121.71,84
		c-0.22,0-0.4-0.09-0.54-0.27c-0.14-0.18-0.24-0.38-0.29-0.59l-0.07-23.33C120.38,59.66,120.16,59.4,120.16,59.02z M125.85,60.81
		c-0.86-0.82-1.94-1.22-3.24-1.22V70.5c1.01-0.02,1.81-0.17,2.39-0.43s1.04-0.65,1.37-1.17s0.53-1.16,0.63-1.94s0.14-1.7,0.14-2.75
		C127.14,62.76,126.71,61.63,125.85,60.81z"/>
	<path class="st0" d="M132.33,71.85c0.02-3.92,0.04-8.04,0.04-12.36c-0.17-0.14-0.25-0.34-0.25-0.58c0-0.19,0.07-0.38,0.22-0.56
		c0.14-0.18,0.35-0.29,0.61-0.34h1.3c0.26,0,0.51-0.01,0.74-0.02c0.23-0.01,0.47-0.02,0.74-0.02c0.31,0,0.68,0.01,1.1,0.02
		c0.42,0.01,0.82,0.05,1.21,0.11c0.38,0.06,0.7,0.17,0.95,0.32s0.38,0.38,0.38,0.67c0,0.12-0.07,0.3-0.2,0.54s-0.34,0.36-0.63,0.36
		c-0.67,0-1.37-0.04-2.11-0.11c-0.73-0.07-1.52-0.12-2.36-0.14c0,0.82-0.01,1.63-0.02,2.45c-0.01,0.82-0.02,1.62-0.02,2.41v4.86
		c0.41-0.02,0.87-0.04,1.39-0.04h2.03c0.29,0.05,0.52,0.15,0.68,0.31c0.17,0.16,0.25,0.33,0.25,0.52c0,0.22-0.09,0.42-0.27,0.61
		c-0.18,0.19-0.52,0.29-1.03,0.29c-0.53,0-1.03-0.01-1.51-0.04c-0.48-0.02-1-0.04-1.55-0.04c-0.02,1.8-0.04,3.66-0.04,5.58v5.69
		c0.34,0,0.81-0.04,1.42-0.11c0.61-0.07,1.19-0.11,1.75-0.11c0.7,0,1.28,0.07,1.76,0.2c0.48,0.13,0.72,0.43,0.72,0.88
		c0,0.24-0.08,0.44-0.25,0.59c-0.17,0.16-0.36,0.23-0.58,0.23c-0.19,0-0.44-0.03-0.74-0.09s-0.62-0.09-0.95-0.09
		c-0.58,0-1.15,0.03-1.71,0.09c-0.56,0.06-1.13,0.09-1.71,0.09c-0.14,0.14-0.26,0.23-0.34,0.25s-0.15,0.04-0.2,0.04
		c-0.17,0-0.34-0.06-0.5-0.18c-0.17-0.12-0.29-0.34-0.36-0.65C132.29,79.65,132.3,75.77,132.33,71.85z"/>
	<path class="st0" d="M142.7,71.85c0.02-3.92,0.04-8.04,0.04-12.36c-0.17-0.14-0.25-0.34-0.25-0.58c0-0.19,0.07-0.38,0.22-0.56
		c0.14-0.18,0.35-0.29,0.61-0.34h1.3c0.26,0,0.51-0.01,0.74-0.02c0.23-0.01,0.47-0.02,0.74-0.02c0.31,0,0.68,0.01,1.1,0.02
		c0.42,0.01,0.82,0.05,1.21,0.11c0.38,0.06,0.7,0.17,0.95,0.32s0.38,0.38,0.38,0.67c0,0.12-0.07,0.3-0.2,0.54
		c-0.13,0.24-0.34,0.36-0.63,0.36c-0.67,0-1.37-0.04-2.11-0.11c-0.73-0.07-1.52-0.12-2.36-0.14c0,0.82-0.01,1.63-0.02,2.45
		c-0.01,0.82-0.02,1.62-0.02,2.41v4.86c0.41-0.02,0.87-0.04,1.39-0.04h2.03c0.29,0.05,0.52,0.15,0.68,0.31
		c0.17,0.16,0.25,0.33,0.25,0.52c0,0.22-0.09,0.42-0.27,0.61c-0.18,0.19-0.52,0.29-1.03,0.29c-0.53,0-1.03-0.01-1.51-0.04
		c-0.48-0.02-1-0.04-1.55-0.04c-0.02,1.8-0.04,3.66-0.04,5.58v5.69c0.34,0,0.81-0.04,1.42-0.11c0.61-0.07,1.19-0.11,1.75-0.11
		c0.7,0,1.28,0.07,1.76,0.2c0.48,0.13,0.72,0.43,0.72,0.88c0,0.24-0.08,0.44-0.25,0.59c-0.17,0.16-0.36,0.23-0.58,0.23
		c-0.19,0-0.44-0.03-0.74-0.09s-0.62-0.09-0.95-0.09c-0.58,0-1.15,0.03-1.71,0.09c-0.56,0.06-1.13,0.09-1.71,0.09
		c-0.14,0.14-0.26,0.23-0.34,0.25s-0.15,0.04-0.2,0.04c-0.17,0-0.34-0.06-0.5-0.18c-0.17-0.12-0.29-0.34-0.36-0.65
		C142.66,79.65,142.67,75.77,142.7,71.85z"/>
	<path class="st0" d="M156.9,59.45c-0.13-0.14-0.2-0.31-0.2-0.5s0.07-0.38,0.22-0.56c0.14-0.18,0.36-0.29,0.65-0.34h7.16
		c0.26,0.1,0.46,0.23,0.59,0.4c0.13,0.17,0.2,0.35,0.2,0.54c0,0.17-0.06,0.32-0.18,0.47s-0.31,0.24-0.58,0.29h-2.81
		c0,3.82,0.01,7.73,0.04,11.75s0.04,7.96,0.04,11.82c-0.05,0.29-0.16,0.5-0.34,0.65c-0.18,0.14-0.37,0.21-0.56,0.21
		c-0.19,0-0.36-0.07-0.5-0.2c-0.14-0.13-0.24-0.33-0.29-0.59c0-3.94-0.01-7.91-0.04-11.93c-0.02-4.02-0.04-7.92-0.04-11.72h-2.77
		C157.23,59.69,157.03,59.59,156.9,59.45z"/>
	<path class="st0" d="M166.49,59.02c0-0.24,0.09-0.44,0.27-0.59c0.18-0.16,0.41-0.27,0.68-0.34c0.28-0.07,0.58-0.12,0.9-0.14
		c0.32-0.02,0.63-0.04,0.92-0.04c0.84,0,1.62,0.14,2.34,0.41s1.35,0.68,1.89,1.21c0.54,0.53,0.96,1.18,1.26,1.94
		s0.45,1.64,0.45,2.63c0,0.82-0.03,1.6-0.09,2.36c-0.06,0.76-0.17,1.44-0.32,2.05c-0.16,0.61-0.38,1.15-0.68,1.62
		s-0.69,0.82-1.17,1.06c0.38,0.48,0.68,1.1,0.88,1.87c0.2,0.77,0.35,1.55,0.45,2.36c0.1,0.8,0.16,1.57,0.18,2.3s0.04,1.3,0.04,1.71
		c0.02,0.48,0.07,0.97,0.14,1.48c0.07,0.5,0.22,0.91,0.43,1.22c0.31-0.19,0.59-0.29,0.83-0.29c0.26,0,0.49,0.11,0.68,0.32
		c0.19,0.22,0.29,0.56,0.29,1.04c0,0.31-0.12,0.55-0.36,0.72s-0.56,0.25-0.97,0.25c-0.62,0-1.12-0.19-1.48-0.58
		c-0.36-0.38-0.64-0.85-0.83-1.38c-0.19-0.54-0.31-1.1-0.36-1.69s-0.08-1.1-0.11-1.53c0-0.14-0.01-0.57-0.04-1.28
		c-0.02-0.71-0.08-1.48-0.18-2.3c-0.1-0.83-0.24-1.59-0.43-2.29c-0.19-0.7-0.44-1.09-0.76-1.19c-0.38,0.1-0.78,0.16-1.19,0.2
		c-0.41,0.04-0.82,0.05-1.22,0.05V83.1c0,0.24-0.08,0.45-0.23,0.63S168.33,84,168.04,84c-0.22,0-0.4-0.09-0.54-0.27
		c-0.14-0.18-0.24-0.38-0.29-0.59l-0.07-23.33C166.71,59.66,166.49,59.4,166.49,59.02z M172.18,60.81
		c-0.86-0.82-1.94-1.22-3.24-1.22V70.5c1.01-0.02,1.81-0.17,2.39-0.43s1.04-0.65,1.37-1.17c0.32-0.52,0.53-1.16,0.63-1.94
		c0.1-0.78,0.14-1.7,0.14-2.75C173.47,62.76,173.04,61.63,172.18,60.81z"/>
	<path class="st0" d="M185.35,58.55c0.24,0,0.43,0.09,0.58,0.27c0.14,0.18,0.25,0.41,0.32,0.68c0.07,0.28,0.12,0.58,0.14,0.92
		c0.02,0.34,0.04,0.67,0.04,1.01v3.31c0,1.15,0.01,2.17,0.02,3.04c0.01,0.88,0.02,1.7,0.04,2.47l0.04,2.25
		c0.01,0.73,0.02,1.53,0.02,2.39c0,0.7-0.01,1.41-0.02,2.14s-0.03,1.47-0.05,2.21c0,0.48-0.04,1-0.13,1.57s-0.24,1.09-0.47,1.58
		c-0.23,0.49-0.55,0.9-0.95,1.22c-0.41,0.32-0.94,0.49-1.58,0.49c-0.72,0-1.28-0.02-1.69-0.07c-0.41-0.05-0.74-0.16-1.01-0.32
		c-0.26-0.17-0.51-0.42-0.74-0.76c-0.23-0.34-0.52-0.8-0.88-1.4c-0.17-0.26-0.31-0.63-0.41-1.1c-0.11-0.47-0.19-0.97-0.25-1.49
		c-0.06-0.53-0.11-1.05-0.14-1.57l-0.09-1.31c0-0.94-0.02-1.95-0.07-3.04s-0.07-2.14-0.07-3.15v-3.11c0-1.02,0.02-2.06,0.07-3.11
		l0.11-4.5c0.14-0.5,0.41-0.76,0.79-0.76c0.19,0,0.37,0.07,0.54,0.2c0.17,0.13,0.3,0.33,0.4,0.59l-0.11,4.43
		c-0.07,1.7-0.11,3.4-0.11,5.08v1.15c0,0.94,0.01,1.87,0.04,2.81c0.02,0.94,0.06,1.86,0.11,2.77c0,0.7,0.01,1.43,0.04,2.21
		c0.02,0.78,0.13,1.51,0.32,2.18c0.19,0.67,0.49,1.25,0.88,1.73c0.4,0.48,0.98,0.77,1.75,0.86c0.43,0.05,0.78-0.03,1.04-0.23
		c0.26-0.2,0.46-0.49,0.59-0.85c0.13-0.36,0.22-0.76,0.27-1.19s0.07-0.86,0.07-1.3c0-0.55-0.01-1.13-0.04-1.75
		c-0.02-0.61-0.04-1.45-0.04-2.5c0-1.37,0.01-2.78,0.04-4.23c0.02-1.45,0.04-2.92,0.04-4.41V63.7c0-0.55-0.01-1.15-0.04-1.8
		c-0.02-0.65-0.08-1.51-0.18-2.59C184.71,58.8,184.97,58.55,185.35,58.55z"/>
	<path class="st0" d="M197.85,58.48c0.41,0,0.71,0.26,0.9,0.79c0.02,1.63,0.04,3.01,0.04,4.14c0,1.13,0.01,2.21,0.02,3.26
		c0.01,1.04,0.02,2.13,0.02,3.26s0.01,2.51,0.04,4.14c0,0.46,0.01,1.12,0.04,2c0.02,0.88,0.05,1.79,0.09,2.74s0.07,1.85,0.09,2.7
		c0.02,0.85,0.04,1.48,0.04,1.89c-0.05,0.26-0.16,0.46-0.34,0.59c-0.18,0.13-0.37,0.2-0.56,0.2c-0.17,0-0.37-0.06-0.59-0.18
		c-0.23-0.12-0.41-0.31-0.56-0.58l-5.08-18.86V83.1c-0.05,0.29-0.16,0.5-0.34,0.65c-0.18,0.14-0.37,0.22-0.56,0.22
		s-0.37-0.07-0.52-0.2c-0.16-0.13-0.26-0.33-0.31-0.59V59.16c0.14-0.46,0.43-0.68,0.86-0.68c0.38,0,0.76,0.18,1.12,0.54l4.97,18.5
		c-0.02-1.1-0.05-2.11-0.07-3.02c-0.02-0.91-0.04-1.75-0.05-2.5s-0.02-1.46-0.02-2.12v-1.93c0-0.62,0.01-1.24,0.02-1.85
		c0.01-0.61,0.02-1.27,0.02-1.96c0-0.7-0.01-1.44-0.02-2.23c-0.01-0.79-0.02-1.68-0.02-2.66C197.2,58.73,197.46,58.48,197.85,58.48z
		"/>
	<path class="st0" d="M205.33,70.55c-0.1,0.01-0.34,0.02-0.72,0.02V83.6c-0.05,0.29-0.16,0.5-0.34,0.65
		c-0.18,0.14-0.37,0.22-0.56,0.22s-0.37-0.07-0.52-0.2c-0.16-0.13-0.26-0.33-0.31-0.59V58.94c0.14-0.5,0.41-0.76,0.79-0.76
		c0.19,0,0.37,0.07,0.54,0.2c0.17,0.13,0.3,0.33,0.4,0.59v9.86c0.5-0.07,0.94-0.31,1.31-0.72c0.37-0.41,0.68-0.91,0.94-1.49
		s0.46-1.22,0.61-1.91s0.28-1.33,0.38-1.93c0.12-0.74,0.31-1.52,0.58-2.34c0.26-0.82,0.74-1.5,1.44-2.05
		c0.22-0.26,0.49-0.4,0.83-0.4c0.22,0,0.43,0.1,0.65,0.29c0.22,0.19,0.35,0.42,0.4,0.68c-0.1,0.41-0.22,0.69-0.38,0.85
		c-0.16,0.16-0.4,0.23-0.74,0.23c-0.34,0.48-0.64,1.06-0.9,1.73c-0.26,0.67-0.43,1.34-0.5,2.02c-0.05,0.38-0.13,0.83-0.23,1.33
		s-0.26,1.03-0.47,1.57s-0.44,1.06-0.7,1.57s-0.55,0.95-0.86,1.33c0.53,0.58,0.94,1.15,1.24,1.71s0.52,1.13,0.67,1.69
		c0.14,0.56,0.24,1.12,0.29,1.67c0.05,0.55,0.07,1.1,0.07,1.66c0,0.34,0.02,0.82,0.05,1.46c0.04,0.64,0.11,1.28,0.23,1.93
		c0.12,0.65,0.31,1.23,0.56,1.75c0.25,0.52,0.62,0.83,1.1,0.95c0.24-0.17,0.49-0.17,0.76-0.02s0.4,0.39,0.4,0.7
		c0,0.41-0.13,0.7-0.4,0.88s-0.49,0.27-0.68,0.27c-0.29,0-0.59-0.1-0.92-0.29c-0.32-0.19-0.62-0.42-0.9-0.68
		c-0.28-0.26-0.51-0.54-0.7-0.83c-0.19-0.29-0.3-0.53-0.32-0.72c-0.24-0.77-0.41-1.52-0.52-2.25c-0.11-0.73-0.19-1.46-0.25-2.18
		c-0.06-0.72-0.13-1.45-0.2-2.18c-0.07-0.73-0.19-1.49-0.36-2.29c-0.05-0.14-0.11-0.33-0.2-0.56c-0.08-0.23-0.2-0.46-0.34-0.7
		c-0.14-0.24-0.3-0.46-0.47-0.65c-0.17-0.19-0.34-0.31-0.5-0.36C205.5,70.55,205.43,70.54,205.33,70.55z"/>
</g>
<g>
	<path class="st108" d="M88.04,344.82c0.32,0,0.55,0.21,0.7,0.62c0.04,3.01,0.1,6,0.18,8.99s0.14,5.94,0.18,8.85
		c0.09-0.02,0.17-0.03,0.22-0.04c0.06-0.01,0.12-0.01,0.2-0.01c0.13,0,0.27,0.03,0.42,0.08c0.15,0.05,0.31,0.12,0.48,0.2
		s0.33,0.14,0.49,0.2s0.31,0.08,0.46,0.08c0.06,0,0.11-0.01,0.15-0.04c0.05-0.03,0.11-0.11,0.18-0.24
		c-0.21-0.19-0.34-0.33-0.41-0.43c-0.07-0.1-0.1-0.2-0.1-0.29c0-0.15,0.07-0.29,0.2-0.42c0.13-0.13,0.31-0.21,0.53-0.22
		c0.35,0.06,0.62,0.2,0.8,0.43c0.18,0.23,0.27,0.51,0.27,0.83c0,0.58-0.16,1.01-0.48,1.29c-0.32,0.28-0.65,0.42-1.01,0.42
		c-0.37,0-0.7-0.08-0.99-0.25c-0.29-0.17-0.54-0.25-0.74-0.25c-0.26,0-0.49,0.07-0.7,0.21c-0.21,0.14-0.41,0.23-0.62,0.27
		c-0.24,0.04-0.44-0.05-0.59-0.25c-0.15-0.21-0.19-0.43-0.11-0.67c0-3.06-0.05-6.17-0.14-9.32s-0.16-6.29-0.2-9.41
		C87.54,345.01,87.75,344.82,88.04,344.82z"/>
	<path class="st108" d="M96.21,345.42c0.31-0.21,0.69-0.4,1.13-0.55c0.22,0.02,0.46,0.05,0.7,0.1c0.24,0.05,0.46,0.12,0.64,0.21
		c0.28,0.15,0.54,0.45,0.78,0.9c0.24,0.45,0.45,0.94,0.63,1.47c0.18,0.53,0.32,1.05,0.42,1.55c0.1,0.5,0.15,0.89,0.15,1.15
		c0,0.5,0.04,1.11,0.11,1.81c0.07,0.7,0.11,1.35,0.11,1.95v1.41c0,0.51-0.01,1.04-0.04,1.6c-0.03,0.55-0.07,1.1-0.13,1.65
		c-0.06,0.55-0.14,1.07-0.25,1.55c0,0.41-0.05,0.9-0.15,1.47c-0.1,0.57-0.27,1.12-0.49,1.64c-0.22,0.52-0.52,0.97-0.9,1.33
		c-0.37,0.36-0.83,0.55-1.37,0.55c-0.43,0-0.79-0.12-1.08-0.36c-0.29-0.24-0.54-0.55-0.76-0.91c-0.21-0.36-0.39-0.76-0.52-1.18
		l-0.36-1.19c-0.17-0.56-0.29-1.06-0.38-1.5c-0.08-0.44-0.15-0.87-0.21-1.3c-0.09-0.56-0.15-1.19-0.17-1.9
		c-0.02-0.71-0.03-1.41-0.03-2.1v-0.98c0-0.9,0.05-1.82,0.14-2.77c0.09-0.95,0.28-1.87,0.56-2.74c0.04-0.06,0.09-0.18,0.17-0.36
		c0.07-0.19,0.15-0.4,0.24-0.64l0.25-0.71c0.08-0.23,0.16-0.42,0.24-0.57C95.72,345.81,95.9,345.63,96.21,345.42z M99.2,349.28
		c-0.05-0.46-0.13-0.92-0.25-1.37c-0.12-0.46-0.29-0.85-0.52-1.19c-0.22-0.34-0.53-0.5-0.92-0.5c-0.34,0.06-0.61,0.22-0.81,0.49
		s-0.38,0.6-0.52,0.99s-0.25,0.82-0.34,1.27l-0.24,1.33c-0.09,0.5-0.17,1.06-0.24,1.67c-0.07,0.61-0.09,1.18-0.07,1.72
		c0,0.6,0.04,1.19,0.11,1.78s0.11,1.22,0.11,1.89c0,0.26,0.01,0.5,0.03,0.71s0.05,0.45,0.1,0.7c0.05,0.25,0.1,0.55,0.15,0.9
		s0.13,0.77,0.22,1.27c0.07,0.26,0.17,0.55,0.29,0.87c0.12,0.32,0.26,0.62,0.41,0.92c0.15,0.3,0.32,0.55,0.52,0.74
		c0.2,0.2,0.42,0.29,0.66,0.29c0.19,0,0.35-0.13,0.49-0.39c0.14-0.26,0.26-0.57,0.35-0.92s0.16-0.71,0.21-1.08
		c0.05-0.37,0.09-0.64,0.13-0.83c0.09-0.6,0.16-1.07,0.2-1.41c0.04-0.35,0.07-0.67,0.11-0.97c0-0.65,0.03-1.33,0.1-2.04
		c0.07-0.71,0.1-1.41,0.1-2.1c0-0.5-0.02-1.1-0.07-1.78s-0.11-1.32-0.18-1.92C99.29,350.09,99.25,349.74,99.2,349.28z"/>
	<path class="st108" d="M104.94,345.42c0.31-0.21,0.69-0.4,1.13-0.55c0.22,0.02,0.46,0.05,0.7,0.1c0.24,0.05,0.46,0.12,0.64,0.21
		c0.28,0.15,0.54,0.45,0.78,0.9c0.24,0.45,0.45,0.94,0.63,1.47c0.18,0.53,0.32,1.05,0.42,1.55c0.1,0.5,0.15,0.89,0.15,1.15
		c0,0.5,0.04,1.11,0.11,1.81c0.07,0.7,0.11,1.35,0.11,1.95v1.41c0,0.51-0.01,1.04-0.04,1.6c-0.03,0.55-0.07,1.1-0.13,1.65
		c-0.06,0.55-0.14,1.07-0.25,1.55c0,0.41-0.05,0.9-0.15,1.47c-0.1,0.57-0.27,1.12-0.49,1.64c-0.22,0.52-0.52,0.97-0.9,1.33
		c-0.37,0.36-0.83,0.55-1.37,0.55c-0.43,0-0.79-0.12-1.08-0.36c-0.29-0.24-0.54-0.55-0.76-0.91c-0.21-0.36-0.39-0.76-0.52-1.18
		l-0.36-1.19c-0.17-0.56-0.29-1.06-0.38-1.5c-0.08-0.44-0.15-0.87-0.21-1.3c-0.09-0.56-0.15-1.19-0.17-1.9
		c-0.02-0.71-0.03-1.41-0.03-2.1v-0.98c0-0.9,0.05-1.82,0.14-2.77c0.09-0.95,0.28-1.87,0.56-2.74c0.04-0.06,0.09-0.18,0.17-0.36
		c0.07-0.19,0.15-0.4,0.24-0.64l0.25-0.71c0.08-0.23,0.16-0.42,0.24-0.57C104.45,345.81,104.63,345.63,104.94,345.42z
		 M107.94,349.28c-0.05-0.46-0.13-0.92-0.25-1.37c-0.12-0.46-0.29-0.85-0.52-1.19c-0.22-0.34-0.53-0.5-0.92-0.5
		c-0.34,0.06-0.61,0.22-0.81,0.49s-0.38,0.6-0.52,0.99s-0.25,0.82-0.34,1.27l-0.24,1.33c-0.09,0.5-0.17,1.06-0.24,1.67
		c-0.07,0.61-0.09,1.18-0.07,1.72c0,0.6,0.04,1.19,0.11,1.78s0.11,1.22,0.11,1.89c0,0.26,0.01,0.5,0.03,0.71s0.05,0.45,0.1,0.7
		c0.05,0.25,0.1,0.55,0.15,0.9s0.13,0.77,0.22,1.27c0.07,0.26,0.17,0.55,0.29,0.87c0.12,0.32,0.26,0.62,0.41,0.92
		s0.32,0.55,0.52,0.74c0.2,0.2,0.42,0.29,0.66,0.29c0.19,0,0.35-0.13,0.49-0.39c0.14-0.26,0.26-0.57,0.35-0.92s0.16-0.71,0.21-1.08
		c0.05-0.37,0.09-0.64,0.13-0.83c0.09-0.6,0.16-1.07,0.2-1.41c0.04-0.35,0.07-0.67,0.11-0.97c0-0.65,0.03-1.33,0.1-2.04
		c0.06-0.71,0.1-1.41,0.1-2.1c0-0.5-0.02-1.1-0.07-1.78s-0.11-1.32-0.18-1.92C108.03,350.09,107.98,349.74,107.94,349.28z"/>
	<path class="st108" d="M113.78,354.55c-0.07,0.01-0.26,0.01-0.56,0.01v10.14c-0.04,0.22-0.13,0.39-0.27,0.5
		c-0.14,0.11-0.28,0.17-0.43,0.17s-0.28-0.05-0.41-0.15c-0.12-0.1-0.2-0.26-0.24-0.46v-19.24c0.11-0.39,0.32-0.59,0.62-0.59
		c0.15,0,0.29,0.05,0.42,0.15c0.13,0.1,0.23,0.26,0.31,0.46v7.67c0.39-0.06,0.73-0.24,1.02-0.56c0.29-0.32,0.53-0.71,0.73-1.16
		c0.2-0.46,0.35-0.95,0.48-1.48c0.12-0.53,0.22-1.03,0.29-1.5c0.09-0.58,0.24-1.18,0.45-1.82c0.21-0.63,0.58-1.17,1.12-1.6
		c0.17-0.21,0.38-0.31,0.64-0.31c0.17,0,0.34,0.08,0.5,0.22c0.17,0.15,0.27,0.33,0.31,0.53c-0.07,0.32-0.17,0.54-0.29,0.66
		c-0.12,0.12-0.31,0.18-0.57,0.18c-0.26,0.37-0.49,0.82-0.7,1.34c-0.21,0.52-0.34,1.04-0.39,1.57c-0.04,0.3-0.1,0.64-0.18,1.04
		c-0.08,0.39-0.21,0.8-0.36,1.22s-0.34,0.83-0.55,1.22c-0.21,0.39-0.43,0.74-0.67,1.04c0.41,0.45,0.73,0.89,0.97,1.33
		c0.23,0.44,0.41,0.88,0.52,1.32s0.19,0.87,0.22,1.3c0.04,0.43,0.06,0.86,0.06,1.29c0,0.26,0.01,0.64,0.04,1.13
		c0.03,0.5,0.09,0.99,0.18,1.5s0.24,0.96,0.43,1.36c0.2,0.4,0.48,0.65,0.85,0.74c0.19-0.13,0.38-0.14,0.59-0.01
		c0.21,0.12,0.31,0.3,0.31,0.55c0,0.32-0.1,0.54-0.31,0.69c-0.21,0.14-0.38,0.21-0.53,0.21c-0.22,0-0.46-0.08-0.71-0.22
		c-0.25-0.15-0.49-0.33-0.7-0.53c-0.21-0.21-0.4-0.42-0.55-0.64c-0.15-0.22-0.23-0.41-0.25-0.56c-0.19-0.6-0.32-1.18-0.41-1.75
		s-0.15-1.13-0.2-1.69c-0.05-0.56-0.1-1.12-0.15-1.7c-0.06-0.57-0.15-1.16-0.28-1.78c-0.04-0.11-0.09-0.26-0.15-0.43
		c-0.07-0.18-0.15-0.36-0.27-0.55c-0.11-0.19-0.23-0.35-0.36-0.5c-0.13-0.15-0.26-0.24-0.39-0.28
		C113.91,354.54,113.85,354.54,113.78,354.55z"/>
	<path class="st108" d="M126.96,344.87c0.11,0,0.22,0.03,0.34,0.1c0.11,0.06,0.19,0.16,0.22,0.29c0.54,0.93,0.94,1.86,1.19,2.77
		s0.43,1.81,0.53,2.69s0.16,1.73,0.18,2.55c0.02,0.82,0.07,1.6,0.17,2.32v-0.03c0.04,0.21,0.06,0.43,0.08,0.69l0.06,0.74
		c0.13,1.16,0.24,2.16,0.32,3.01s0.13,1.68,0.13,2.48c0,0.26,0,0.56-0.01,0.9s-0.04,0.66-0.08,0.96c-0.05,0.31-0.13,0.57-0.24,0.77
		c-0.11,0.21-0.27,0.31-0.48,0.31c-0.3,0-0.51-0.12-0.64-0.38s-0.2-0.51-0.2-0.77c0-0.21,0.08-0.35,0.25-0.45
		c0.02-0.17,0.03-0.35,0.03-0.55v-0.57c0-0.67-0.03-1.35-0.1-2.04c-0.06-0.69-0.12-1.3-0.15-1.82l-0.06-0.59
		c-0.49,0-0.97,0.01-1.46,0.04c-0.49,0.03-0.97,0.04-1.46,0.04l-0.06,0.9c-0.02,0.19-0.03,0.38-0.04,0.59s-0.02,0.44-0.03,0.71
		c-0.01,0.27-0.01,0.59-0.01,0.97v1.34v1.68c0,0.13-0.06,0.27-0.18,0.42s-0.29,0.22-0.52,0.22c-0.28,0-0.49-0.16-0.64-0.48v-1.51
		c0-0.26,0-0.53-0.01-0.8c-0.01-0.27-0.01-0.55-0.01-0.83c0-0.77,0.03-1.5,0.1-2.2c0.06-0.7,0.12-1.4,0.15-2.09l0.08-1.34
		c0.06-0.95,0.14-1.94,0.27-2.97c0.12-1.03,0.26-2.01,0.41-2.94l0.08-0.48c0.13-0.75,0.28-1.48,0.46-2.2
		c0.18-0.72,0.42-1.43,0.74-2.14C126.54,344.98,126.74,344.87,126.96,344.87z M127.02,356.98c0.47-0.03,0.92-0.04,1.37-0.04
		l-0.14-1.32c0-0.15-0.01-0.34-0.03-0.56c-0.02-0.22-0.03-0.46-0.04-0.7s-0.02-0.49-0.04-0.73c-0.02-0.24-0.03-0.47-0.03-0.67v-0.62
		c0-0.88-0.08-1.8-0.24-2.76c-0.16-0.96-0.42-1.85-0.8-2.67c-0.15,0.41-0.26,0.77-0.32,1.08c-0.07,0.31-0.13,0.68-0.18,1.11
		c-0.09,1.12-0.23,2.27-0.42,3.46c-0.19,1.19-0.33,2.32-0.42,3.4l-0.08,1.06C126.1,357.02,126.55,357.01,127.02,356.98z"/>
	<path class="st108" d="M130.98,345.91c-0.1-0.11-0.15-0.24-0.15-0.39c0-0.15,0.06-0.29,0.17-0.43c0.11-0.14,0.28-0.23,0.5-0.27
		h5.57c0.21,0.07,0.36,0.18,0.46,0.31c0.1,0.13,0.15,0.27,0.15,0.42c0,0.13-0.05,0.25-0.14,0.36c-0.09,0.11-0.24,0.19-0.45,0.22
		h-2.18c0,2.97,0.01,6.01,0.03,9.14c0.02,3.13,0.03,6.19,0.03,9.2c-0.04,0.22-0.13,0.39-0.27,0.5c-0.14,0.11-0.28,0.17-0.43,0.17
		c-0.15,0-0.28-0.05-0.39-0.15c-0.11-0.1-0.19-0.26-0.22-0.46c0-3.06-0.01-6.16-0.03-9.28c-0.02-3.13-0.03-6.16-0.03-9.11h-2.16
		C131.24,346.09,131.08,346.02,130.98,345.91z"/>
	<path class="st108" d="M142.52,345.91c-0.1-0.11-0.15-0.24-0.15-0.39c0-0.15,0.06-0.29,0.17-0.43c0.11-0.14,0.28-0.23,0.5-0.27
		h5.57c0.21,0.07,0.36,0.18,0.46,0.31c0.1,0.13,0.15,0.27,0.15,0.42c0,0.13-0.05,0.25-0.14,0.36c-0.09,0.11-0.24,0.19-0.45,0.22
		h-2.18c0,2.97,0.01,6.01,0.03,9.14c0.02,3.13,0.03,6.19,0.03,9.2c-0.04,0.22-0.13,0.39-0.27,0.5c-0.14,0.11-0.28,0.17-0.43,0.17
		c-0.15,0-0.28-0.05-0.39-0.15c-0.11-0.1-0.19-0.26-0.22-0.46c0-3.06-0.01-6.16-0.03-9.28s-0.03-6.16-0.03-9.11h-2.16
		C142.77,346.09,142.62,346.02,142.52,345.91z"/>
	<path class="st108" d="M156.25,345.1c0.32,0,0.55,0.21,0.7,0.62c0,3,0.01,6.05,0.03,9.14s0.03,6.2,0.03,9.34
		c0,0.17-0.05,0.31-0.15,0.42s-0.23,0.21-0.38,0.28c-0.17-0.02-0.34-0.08-0.52-0.2s-0.27-0.27-0.27-0.48c0-1.57,0-3.12-0.01-4.66
		c-0.01-1.54-0.02-3.1-0.04-4.69c-0.6,0-1.2-0.01-1.81-0.03c-0.61-0.02-1.2-0.03-1.78-0.03c0,0.9,0,1.8-0.01,2.72
		s-0.02,1.8-0.04,2.66c-0.02,0.86-0.05,1.67-0.08,2.42c-0.04,0.76-0.08,1.41-0.14,1.97c-0.04,0.22-0.12,0.39-0.24,0.5
		c-0.12,0.11-0.26,0.17-0.41,0.17c-0.09,0-0.19-0.02-0.29-0.07c-0.1-0.05-0.19-0.11-0.27-0.18c-0.07-0.07-0.13-0.16-0.15-0.25
		c-0.03-0.09-0.02-0.2,0.01-0.31c0.13-1.34,0.22-2.72,0.27-4.13c0.05-1.41,0.07-2.81,0.07-4.21c0-1.75-0.02-3.53-0.06-5.33
		c-0.04-1.8-0.06-3.52-0.06-5.17c0.11-0.39,0.32-0.59,0.62-0.59c0.32,0,0.55,0.21,0.7,0.62c0,0.95,0.01,2.11,0.04,3.49
		c0.03,1.37,0.04,2.83,0.04,4.38c0.6,0,1.18,0.01,1.74,0.03s1.18,0.03,1.85,0.03v-7.87C155.75,345.29,155.95,345.1,156.25,345.1z"/>
	<path class="st108" d="M159.97,355.55c0.02-3.05,0.03-6.26,0.03-9.62c-0.13-0.11-0.2-0.26-0.2-0.45c0-0.15,0.06-0.29,0.17-0.43
		c0.11-0.14,0.27-0.23,0.48-0.27h1.01c0.21,0,0.4,0,0.57-0.01s0.37-0.01,0.57-0.01c0.24,0,0.53,0.01,0.85,0.01
		c0.33,0.01,0.64,0.04,0.94,0.08c0.3,0.05,0.55,0.13,0.74,0.25c0.2,0.12,0.29,0.29,0.29,0.52c0,0.09-0.05,0.23-0.15,0.42
		c-0.1,0.19-0.27,0.28-0.49,0.28c-0.52,0-1.07-0.03-1.64-0.08c-0.57-0.06-1.18-0.09-1.83-0.11c0,0.63,0,1.27-0.01,1.9
		c-0.01,0.63-0.01,1.26-0.01,1.88v3.78c0.32-0.02,0.68-0.03,1.08-0.03h1.58c0.22,0.04,0.4,0.12,0.53,0.24
		c0.13,0.12,0.2,0.26,0.2,0.41c0,0.17-0.07,0.33-0.21,0.48s-0.41,0.22-0.8,0.22c-0.41,0-0.8-0.01-1.18-0.03
		c-0.37-0.02-0.77-0.03-1.2-0.03c-0.02,1.4-0.03,2.85-0.03,4.34v4.42c0.26,0,0.63-0.03,1.11-0.08c0.48-0.06,0.93-0.08,1.36-0.08
		c0.54,0,1,0.05,1.37,0.15c0.37,0.1,0.56,0.33,0.56,0.69c0,0.19-0.07,0.34-0.2,0.46c-0.13,0.12-0.28,0.18-0.45,0.18
		c-0.15,0-0.34-0.02-0.57-0.07c-0.23-0.05-0.48-0.07-0.74-0.07c-0.45,0-0.89,0.02-1.33,0.07c-0.44,0.05-0.88,0.07-1.33,0.07
		c-0.11,0.11-0.2,0.18-0.27,0.2c-0.06,0.02-0.12,0.03-0.15,0.03c-0.13,0-0.26-0.05-0.39-0.14c-0.13-0.09-0.22-0.26-0.28-0.5
		C159.95,361.62,159.96,358.61,159.97,355.55z"/>
	<path class="st108" d="M174.37,344.87c0.11,0,0.22,0.03,0.34,0.1c0.11,0.06,0.19,0.16,0.22,0.29c0.54,0.93,0.94,1.86,1.19,2.77
		s0.43,1.81,0.53,2.69s0.16,1.73,0.18,2.55c0.02,0.82,0.07,1.6,0.17,2.32v-0.03c0.04,0.21,0.06,0.43,0.08,0.69l0.06,0.74
		c0.13,1.16,0.24,2.16,0.32,3.01s0.13,1.68,0.13,2.48c0,0.26,0,0.56-0.01,0.9s-0.04,0.66-0.08,0.96c-0.05,0.31-0.13,0.57-0.24,0.77
		c-0.11,0.21-0.27,0.31-0.48,0.31c-0.3,0-0.51-0.12-0.64-0.38s-0.2-0.51-0.2-0.77c0-0.21,0.08-0.35,0.25-0.45
		c0.02-0.17,0.03-0.35,0.03-0.55v-0.57c0-0.67-0.03-1.35-0.1-2.04c-0.07-0.69-0.12-1.3-0.15-1.82l-0.06-0.59
		c-0.49,0-0.97,0.01-1.46,0.04c-0.49,0.03-0.97,0.04-1.46,0.04l-0.06,0.9c-0.02,0.19-0.03,0.38-0.04,0.59s-0.02,0.44-0.03,0.71
		c-0.01,0.27-0.01,0.59-0.01,0.97v1.34v1.68c0,0.13-0.06,0.27-0.18,0.42c-0.12,0.15-0.29,0.22-0.52,0.22
		c-0.28,0-0.49-0.16-0.64-0.48v-1.51c0-0.26,0-0.53-0.01-0.8c-0.01-0.27-0.01-0.55-0.01-0.83c0-0.77,0.03-1.5,0.1-2.2
		c0.06-0.7,0.12-1.4,0.15-2.09l0.08-1.34c0.06-0.95,0.14-1.94,0.27-2.97c0.12-1.03,0.26-2.01,0.41-2.94l0.08-0.48
		c0.13-0.75,0.28-1.48,0.46-2.2c0.18-0.72,0.42-1.43,0.74-2.14C173.95,344.98,174.14,344.87,174.37,344.87z M174.42,356.98
		c0.47-0.03,0.92-0.04,1.37-0.04l-0.14-1.32c0-0.15-0.01-0.34-0.03-0.56c-0.02-0.22-0.03-0.46-0.04-0.7s-0.02-0.49-0.04-0.73
		c-0.02-0.24-0.03-0.47-0.03-0.67v-0.62c0-0.88-0.08-1.8-0.24-2.76c-0.16-0.96-0.42-1.85-0.8-2.67c-0.15,0.41-0.26,0.77-0.32,1.08
		c-0.07,0.31-0.13,0.68-0.18,1.11c-0.09,1.12-0.23,2.27-0.42,3.46c-0.19,1.19-0.33,2.32-0.42,3.4l-0.08,1.06
		C173.5,357.02,173.96,357.01,174.42,356.98z"/>
	<path class="st108" d="M186.15,345.15c0.32,0,0.55,0.21,0.7,0.62c0.02,1.27,0.03,2.34,0.03,3.22s0,1.72,0.01,2.53
		s0.01,1.66,0.01,2.53c0,0.88,0.01,1.95,0.03,3.22c0,0.35,0.01,0.87,0.03,1.55c0.02,0.68,0.04,1.39,0.07,2.13
		c0.03,0.74,0.05,1.44,0.07,2.1c0.02,0.66,0.03,1.15,0.03,1.47c-0.04,0.21-0.13,0.36-0.27,0.46c-0.14,0.1-0.28,0.15-0.43,0.15
		c-0.13,0-0.28-0.05-0.46-0.14c-0.18-0.09-0.32-0.24-0.43-0.45l-3.95-14.67v14.42c-0.04,0.22-0.13,0.39-0.27,0.5
		c-0.14,0.11-0.28,0.17-0.43,0.17s-0.28-0.05-0.41-0.15c-0.12-0.1-0.2-0.26-0.24-0.46v-18.68c0.11-0.35,0.34-0.53,0.67-0.53
		c0.3,0,0.59,0.14,0.87,0.42l3.86,14.39c-0.02-0.86-0.04-1.64-0.06-2.35c-0.02-0.71-0.03-1.36-0.04-1.95
		c-0.01-0.59-0.01-1.14-0.01-1.65v-1.5c0-0.48,0-0.96,0.01-1.44c0.01-0.48,0.01-0.98,0.01-1.53c0-0.54,0-1.12-0.01-1.74
		c-0.01-0.62-0.01-1.31-0.01-2.07C185.65,345.35,185.86,345.15,186.15,345.15z"/>
	<path class="st108" d="M191.88,345.42c0.31-0.21,0.69-0.4,1.13-0.55c0.22,0.02,0.46,0.05,0.7,0.1c0.24,0.05,0.46,0.12,0.64,0.21
		c0.28,0.15,0.54,0.45,0.78,0.9c0.24,0.45,0.45,0.94,0.63,1.47c0.18,0.53,0.32,1.05,0.42,1.55c0.1,0.5,0.15,0.89,0.15,1.15
		c0,0.5,0.04,1.11,0.11,1.81c0.07,0.7,0.11,1.35,0.11,1.95v1.41c0,0.51-0.01,1.04-0.04,1.6c-0.03,0.55-0.07,1.1-0.13,1.65
		c-0.06,0.55-0.14,1.07-0.25,1.55c0,0.41-0.05,0.9-0.15,1.47c-0.1,0.57-0.27,1.12-0.49,1.64c-0.22,0.52-0.52,0.97-0.9,1.33
		c-0.37,0.36-0.83,0.55-1.37,0.55c-0.43,0-0.79-0.12-1.08-0.36c-0.29-0.24-0.54-0.55-0.76-0.91c-0.21-0.36-0.39-0.76-0.52-1.18
		l-0.36-1.19c-0.17-0.56-0.29-1.06-0.38-1.5c-0.08-0.44-0.15-0.87-0.21-1.3c-0.09-0.56-0.15-1.19-0.17-1.9
		c-0.02-0.71-0.03-1.41-0.03-2.1v-0.98c0-0.9,0.05-1.82,0.14-2.77c0.09-0.95,0.28-1.87,0.56-2.74c0.04-0.06,0.09-0.18,0.17-0.36
		c0.07-0.19,0.15-0.4,0.24-0.64l0.25-0.71c0.08-0.23,0.16-0.42,0.24-0.57C191.39,345.81,191.57,345.63,191.88,345.42z
		 M194.88,349.28c-0.05-0.46-0.13-0.92-0.25-1.37c-0.12-0.46-0.29-0.85-0.52-1.19c-0.22-0.34-0.53-0.5-0.92-0.5
		c-0.34,0.06-0.61,0.22-0.81,0.49s-0.38,0.6-0.52,0.99s-0.25,0.82-0.34,1.27l-0.24,1.33c-0.09,0.5-0.17,1.06-0.24,1.67
		c-0.07,0.61-0.09,1.18-0.07,1.72c0,0.6,0.04,1.19,0.11,1.78s0.11,1.22,0.11,1.89c0,0.26,0.01,0.5,0.03,0.71s0.05,0.45,0.1,0.7
		c0.05,0.25,0.1,0.55,0.15,0.9s0.13,0.77,0.22,1.27c0.07,0.26,0.17,0.55,0.29,0.87c0.12,0.32,0.26,0.62,0.41,0.92
		c0.15,0.3,0.32,0.55,0.52,0.74c0.2,0.2,0.42,0.29,0.66,0.29c0.19,0,0.35-0.13,0.49-0.39c0.14-0.26,0.26-0.57,0.35-0.92
		s0.16-0.71,0.21-1.08c0.05-0.37,0.09-0.64,0.13-0.83c0.09-0.6,0.16-1.07,0.2-1.41c0.04-0.35,0.07-0.67,0.11-0.97
		c0-0.65,0.03-1.33,0.1-2.04c0.07-0.71,0.1-1.41,0.1-2.1c0-0.5-0.02-1.1-0.07-1.78s-0.11-1.32-0.18-1.92
		C194.96,350.09,194.92,349.74,194.88,349.28z"/>
	<path class="st108" d="M197.2,345.91c-0.1-0.11-0.15-0.24-0.15-0.39c0-0.15,0.06-0.29,0.17-0.43c0.11-0.14,0.28-0.23,0.5-0.27h5.57
		c0.21,0.07,0.36,0.18,0.46,0.31c0.1,0.13,0.15,0.27,0.15,0.42c0,0.13-0.05,0.25-0.14,0.36c-0.09,0.11-0.24,0.19-0.45,0.22h-2.18
		c0,2.97,0.01,6.01,0.03,9.14c0.02,3.13,0.03,6.19,0.03,9.2c-0.04,0.22-0.13,0.39-0.27,0.5c-0.14,0.11-0.28,0.17-0.43,0.17
		c-0.15,0-0.28-0.05-0.39-0.15c-0.11-0.1-0.19-0.26-0.22-0.46c0-3.06-0.01-6.16-0.03-9.28c-0.02-3.13-0.03-6.16-0.03-9.11h-2.16
		C197.46,346.09,197.3,346.02,197.2,345.91z"/>
	<path class="st108" d="M210.93,345.1c0.32,0,0.55,0.21,0.7,0.62c0,3,0.01,6.05,0.03,9.14s0.03,6.2,0.03,9.34
		c0,0.17-0.05,0.31-0.15,0.42s-0.23,0.21-0.38,0.28c-0.17-0.02-0.34-0.08-0.52-0.2s-0.27-0.27-0.27-0.48c0-1.57,0-3.12-0.01-4.66
		c-0.01-1.54-0.02-3.1-0.04-4.69c-0.6,0-1.2-0.01-1.81-0.03c-0.61-0.02-1.2-0.03-1.78-0.03c0,0.9,0,1.8-0.01,2.72
		s-0.02,1.8-0.04,2.66c-0.02,0.86-0.05,1.67-0.08,2.42c-0.04,0.76-0.08,1.41-0.14,1.97c-0.04,0.22-0.12,0.39-0.24,0.5
		c-0.12,0.11-0.26,0.17-0.41,0.17c-0.09,0-0.19-0.02-0.29-0.07c-0.1-0.05-0.19-0.11-0.27-0.18c-0.07-0.07-0.13-0.16-0.15-0.25
		c-0.03-0.09-0.02-0.2,0.01-0.31c0.13-1.34,0.22-2.72,0.27-4.13c0.05-1.41,0.07-2.81,0.07-4.21c0-1.75-0.02-3.53-0.06-5.33
		c-0.04-1.8-0.06-3.52-0.06-5.17c0.11-0.39,0.32-0.59,0.62-0.59c0.32,0,0.55,0.21,0.7,0.62c0,0.95,0.01,2.11,0.04,3.49
		c0.03,1.37,0.04,2.83,0.04,4.38c0.6,0,1.18,0.01,1.74,0.03s1.18,0.03,1.85,0.03v-7.87C210.43,345.29,210.64,345.1,210.93,345.1z"/>
	<path class="st108" d="M214.66,355.55c0.02-3.05,0.03-6.26,0.03-9.62c-0.13-0.11-0.2-0.26-0.2-0.45c0-0.15,0.06-0.29,0.17-0.43
		c0.11-0.14,0.27-0.23,0.48-0.27h1.01c0.21,0,0.4,0,0.57-0.01s0.37-0.01,0.57-0.01c0.24,0,0.53,0.01,0.85,0.01
		c0.33,0.01,0.64,0.04,0.94,0.08c0.3,0.05,0.55,0.13,0.74,0.25c0.2,0.12,0.29,0.29,0.29,0.52c0,0.09-0.05,0.23-0.15,0.42
		c-0.1,0.19-0.27,0.28-0.49,0.28c-0.52,0-1.07-0.03-1.64-0.08c-0.57-0.06-1.18-0.09-1.83-0.11c0,0.63,0,1.27-0.01,1.9
		c-0.01,0.63-0.01,1.26-0.01,1.88v3.78c0.32-0.02,0.68-0.03,1.08-0.03h1.58c0.22,0.04,0.4,0.12,0.53,0.24
		c0.13,0.12,0.2,0.26,0.2,0.41c0,0.17-0.07,0.33-0.21,0.48s-0.41,0.22-0.8,0.22c-0.41,0-0.8-0.01-1.18-0.03
		c-0.37-0.02-0.77-0.03-1.2-0.03c-0.02,1.4-0.03,2.85-0.03,4.34v4.42c0.26,0,0.63-0.03,1.11-0.08c0.48-0.06,0.93-0.08,1.36-0.08
		c0.54,0,1,0.05,1.37,0.15s0.56,0.33,0.56,0.69c0,0.19-0.07,0.34-0.2,0.46c-0.13,0.12-0.28,0.18-0.45,0.18
		c-0.15,0-0.34-0.02-0.57-0.07c-0.23-0.05-0.48-0.07-0.74-0.07c-0.45,0-0.89,0.02-1.33,0.07c-0.44,0.05-0.88,0.07-1.33,0.07
		c-0.11,0.11-0.2,0.18-0.27,0.2c-0.07,0.02-0.12,0.03-0.15,0.03c-0.13,0-0.26-0.05-0.39-0.14c-0.13-0.09-0.22-0.26-0.28-0.5
		C214.63,361.62,214.64,358.61,214.66,355.55z"/>
	<path class="st108" d="M222.05,345.57c0-0.19,0.07-0.34,0.21-0.46c0.14-0.12,0.32-0.21,0.53-0.27c0.21-0.06,0.45-0.09,0.7-0.11
		s0.49-0.03,0.71-0.03c0.65,0,1.26,0.11,1.82,0.32s1.05,0.53,1.47,0.94c0.42,0.41,0.75,0.91,0.98,1.51s0.35,1.28,0.35,2.04
		c0,0.63-0.02,1.25-0.07,1.83c-0.05,0.59-0.13,1.12-0.25,1.6c-0.12,0.48-0.3,0.9-0.53,1.26c-0.23,0.36-0.54,0.64-0.91,0.83
		c0.3,0.37,0.53,0.86,0.69,1.46s0.28,1.21,0.35,1.83s0.12,1.22,0.14,1.79s0.03,1.01,0.03,1.33c0.02,0.37,0.06,0.76,0.11,1.15
		c0.06,0.39,0.17,0.71,0.34,0.95c0.24-0.15,0.46-0.22,0.64-0.22c0.21,0,0.38,0.08,0.53,0.25s0.22,0.44,0.22,0.81
		c0,0.24-0.09,0.43-0.28,0.56c-0.19,0.13-0.44,0.2-0.76,0.2c-0.49,0-0.87-0.15-1.15-0.45c-0.28-0.3-0.49-0.66-0.64-1.08
		s-0.24-0.86-0.28-1.32c-0.04-0.46-0.07-0.85-0.08-1.19c0-0.11-0.01-0.44-0.03-0.99c-0.02-0.55-0.06-1.15-0.14-1.79
		s-0.19-1.24-0.34-1.78c-0.15-0.54-0.35-0.85-0.59-0.92c-0.3,0.08-0.61,0.13-0.92,0.15s-0.63,0.04-0.95,0.04v8.48
		c0,0.19-0.06,0.35-0.18,0.49c-0.12,0.14-0.29,0.21-0.52,0.21c-0.17,0-0.31-0.07-0.42-0.21c-0.11-0.14-0.19-0.29-0.22-0.46
		l-0.06-18.14C222.22,346.08,222.05,345.87,222.05,345.57z M226.47,346.97c-0.67-0.63-1.51-0.95-2.52-0.95v8.48
		c0.78-0.02,1.4-0.13,1.86-0.34c0.46-0.21,0.81-0.51,1.06-0.91c0.25-0.4,0.42-0.9,0.49-1.51c0.07-0.61,0.11-1.32,0.11-2.14
		C227.48,348.48,227.15,347.61,226.47,346.97z"/>
	<path class="st108" d="M109.86,398.13v-18.31c-0.37-0.11-0.56-0.33-0.56-0.64c0-0.21,0.07-0.36,0.22-0.46
		c0.15-0.1,0.34-0.18,0.56-0.22c0.22-0.05,0.47-0.07,0.74-0.08c0.27-0.01,0.52-0.01,0.74-0.01c0.54,0,1.08,0.13,1.62,0.38
		c0.54,0.25,1.02,0.62,1.44,1.11c0.42,0.48,0.76,1.09,1.02,1.8c0.26,0.72,0.39,1.54,0.39,2.48c0,0.6-0.03,1.18-0.1,1.75
		s-0.17,1.11-0.31,1.61c-0.14,0.5-0.33,0.97-0.56,1.39c-0.23,0.42-0.51,0.76-0.83,1.02c-0.49,0.39-0.98,0.63-1.48,0.73
		c-0.5,0.09-1.04,0.14-1.6,0.14v7.11c0,0.34-0.18,0.57-0.53,0.7C110.3,398.6,110.04,398.45,109.86,398.13z M112.07,379.75
		c-0.21-0.03-0.42-0.04-0.64-0.04h-0.25v9.77c0.39-0.02,0.81-0.06,1.25-0.13c0.44-0.07,0.73-0.18,0.88-0.35
		c0.49-0.6,0.84-1.25,1.08-1.97s0.35-1.55,0.35-2.51c0-0.92-0.19-1.81-0.56-2.67c-0.37-0.87-0.91-1.52-1.6-1.95
		C112.44,379.83,112.27,379.77,112.07,379.75z"/>
	<path class="st108" d="M118.87,378.42c0.32,0,0.55,0.21,0.7,0.62c0.04,3,0.1,6,0.18,8.99c0.08,2.99,0.14,5.94,0.18,8.85
		c0.09-0.02,0.17-0.03,0.22-0.04c0.06-0.01,0.12-0.01,0.2-0.01c0.13,0,0.27,0.03,0.42,0.08c0.15,0.06,0.31,0.12,0.48,0.2
		c0.17,0.08,0.33,0.14,0.49,0.2s0.31,0.08,0.46,0.08c0.06,0,0.11-0.01,0.15-0.04c0.05-0.03,0.11-0.11,0.18-0.24
		c-0.21-0.19-0.34-0.33-0.41-0.43c-0.07-0.1-0.1-0.2-0.1-0.29c0-0.15,0.07-0.29,0.2-0.42c0.13-0.13,0.31-0.21,0.53-0.22
		c0.35,0.06,0.62,0.2,0.8,0.43c0.18,0.23,0.27,0.51,0.27,0.83c0,0.58-0.16,1.01-0.48,1.29c-0.32,0.28-0.65,0.42-1.01,0.42
		c-0.37,0-0.7-0.08-0.99-0.25c-0.29-0.17-0.54-0.25-0.74-0.25c-0.26,0-0.49,0.07-0.7,0.21c-0.21,0.14-0.41,0.23-0.62,0.27
		c-0.24,0.04-0.44-0.05-0.59-0.25c-0.15-0.21-0.19-0.43-0.11-0.67c0-3.06-0.05-6.17-0.14-9.32s-0.16-6.29-0.2-9.41
		C118.37,378.61,118.57,378.42,118.87,378.42z"/>
	<path class="st108" d="M127.78,378.47c0.11,0,0.22,0.03,0.34,0.1c0.11,0.07,0.19,0.16,0.22,0.29c0.54,0.93,0.94,1.86,1.19,2.77
		c0.25,0.91,0.43,1.81,0.53,2.69s0.16,1.73,0.18,2.55c0.02,0.82,0.07,1.6,0.17,2.32v-0.03c0.04,0.21,0.06,0.43,0.08,0.69l0.06,0.74
		c0.13,1.16,0.24,2.16,0.32,3.01c0.08,0.85,0.13,1.67,0.13,2.48c0,0.26,0,0.56-0.01,0.9s-0.04,0.66-0.08,0.97
		c-0.05,0.31-0.13,0.56-0.24,0.77c-0.11,0.21-0.27,0.31-0.48,0.31c-0.3,0-0.51-0.13-0.64-0.38s-0.2-0.51-0.2-0.77
		c0-0.21,0.08-0.36,0.25-0.45c0.02-0.17,0.03-0.35,0.03-0.54v-0.57c0-0.67-0.03-1.35-0.1-2.04c-0.06-0.69-0.12-1.3-0.15-1.82
		l-0.06-0.59c-0.49,0-0.97,0.01-1.46,0.04c-0.49,0.03-0.97,0.04-1.46,0.04l-0.06,0.9c-0.02,0.19-0.03,0.38-0.04,0.59
		c-0.01,0.21-0.02,0.44-0.03,0.71c-0.01,0.27-0.01,0.59-0.01,0.97v1.34v1.68c0,0.13-0.06,0.27-0.18,0.42
		c-0.12,0.15-0.29,0.22-0.52,0.22c-0.28,0-0.49-0.16-0.64-0.48v-1.51c0-0.26,0-0.53-0.01-0.8c-0.01-0.27-0.01-0.55-0.01-0.83
		c0-0.77,0.03-1.5,0.1-2.2c0.06-0.7,0.12-1.4,0.15-2.09l0.08-1.34c0.06-0.95,0.14-1.94,0.27-2.97c0.12-1.03,0.26-2.01,0.41-2.94
		l0.08-0.48c0.13-0.75,0.28-1.48,0.46-2.2c0.18-0.72,0.42-1.43,0.74-2.14C127.36,378.58,127.55,378.47,127.78,378.47z
		 M127.83,390.58c0.47-0.03,0.92-0.04,1.37-0.04l-0.14-1.32c0-0.15-0.01-0.34-0.03-0.56c-0.02-0.22-0.03-0.46-0.04-0.7
		c-0.01-0.24-0.02-0.49-0.04-0.73s-0.03-0.47-0.03-0.67v-0.62c0-0.88-0.08-1.8-0.24-2.76s-0.42-1.85-0.8-2.67
		c-0.15,0.41-0.26,0.77-0.32,1.08c-0.07,0.31-0.13,0.68-0.18,1.11c-0.09,1.12-0.23,2.27-0.42,3.46c-0.19,1.19-0.33,2.32-0.42,3.4
		l-0.08,1.06C126.91,390.62,127.37,390.61,127.83,390.58z"/>
	<path class="st108" d="M137.52,378.39c0.32,0,0.55,0.21,0.7,0.62c0,0.79-0.06,1.59-0.18,2.42c-0.12,0.83-0.27,1.66-0.45,2.49
		c-0.18,0.83-0.39,1.65-0.63,2.46l-0.73,2.34c-0.04,0.13-0.08,0.26-0.14,0.38c-0.06,0.12-0.14,0.29-0.25,0.49
		c0,0.21-0.02,0.39-0.06,0.55c-0.04,0.16-0.06,0.33-0.06,0.52c0,0.99,0.04,1.97,0.11,2.95s0.11,2.02,0.11,3.12v0.69
		c0,0.25-0.02,0.49-0.06,0.7c-0.04,0.21-0.11,0.4-0.21,0.55c-0.1,0.15-0.27,0.22-0.49,0.22c-0.21,0-0.36-0.08-0.48-0.25
		c-0.11-0.17-0.17-0.36-0.17-0.59c0-0.28,0.02-0.51,0.06-0.7c0.04-0.19,0.06-0.38,0.06-0.59c0-0.3-0.01-0.57-0.03-0.83
		c-0.02-0.25-0.04-0.54-0.06-0.85l-0.06-0.92c0-0.54-0.02-1.14-0.06-1.79c-0.04-0.65-0.06-1.3-0.06-1.93v-0.64
		c-0.26-0.35-0.49-0.81-0.7-1.37c-0.21-0.56-0.39-1.18-0.56-1.85s-0.31-1.37-0.43-2.09c-0.12-0.72-0.23-1.42-0.32-2.1
		c-0.09-0.68-0.17-1.32-0.22-1.9s-0.09-1.08-0.11-1.47c0.11-0.39,0.32-0.59,0.62-0.59c0.32,0,0.55,0.2,0.7,0.59
		c0.04,0.47,0.09,1.1,0.17,1.89s0.18,1.64,0.31,2.53c0.13,0.9,0.29,1.77,0.48,2.63c0.19,0.86,0.41,1.58,0.67,2.16
		c0.43-1.46,0.85-2.97,1.26-4.54c0.41-1.57,0.63-3.13,0.64-4.7C137.02,378.58,137.22,378.39,137.52,378.39z"/>
	<path class="st108" d="M139.76,389.15c0.02-3.05,0.03-6.26,0.03-9.62c-0.13-0.11-0.2-0.26-0.2-0.45c0-0.15,0.06-0.29,0.17-0.43
		c0.11-0.14,0.27-0.23,0.48-0.27h1.01c0.21,0,0.4,0,0.57-0.01c0.18-0.01,0.37-0.01,0.57-0.01c0.24,0,0.53,0,0.85,0.01
		c0.33,0.01,0.64,0.04,0.94,0.08c0.3,0.05,0.55,0.13,0.74,0.25c0.2,0.12,0.29,0.29,0.29,0.52c0,0.09-0.05,0.23-0.15,0.42
		s-0.27,0.28-0.49,0.28c-0.52,0-1.07-0.03-1.64-0.08c-0.57-0.05-1.18-0.09-1.83-0.11c0,0.63,0,1.27-0.01,1.9s-0.01,1.26-0.01,1.88
		v3.78c0.32-0.02,0.68-0.03,1.08-0.03h1.58c0.22,0.04,0.4,0.12,0.53,0.24c0.13,0.12,0.2,0.26,0.2,0.41c0,0.17-0.07,0.33-0.21,0.48
		c-0.14,0.15-0.41,0.22-0.8,0.22c-0.41,0-0.8-0.01-1.18-0.03c-0.37-0.02-0.77-0.03-1.2-0.03c-0.02,1.4-0.03,2.85-0.03,4.34v4.42
		c0.26,0,0.63-0.03,1.11-0.08c0.48-0.06,0.93-0.08,1.36-0.08c0.54,0,1,0.05,1.37,0.15c0.37,0.1,0.56,0.33,0.56,0.69
		c0,0.19-0.07,0.34-0.2,0.46c-0.13,0.12-0.28,0.18-0.45,0.18c-0.15,0-0.34-0.02-0.57-0.07c-0.23-0.05-0.48-0.07-0.74-0.07
		c-0.45,0-0.89,0.02-1.33,0.07s-0.88,0.07-1.33,0.07c-0.11,0.11-0.2,0.18-0.27,0.2c-0.06,0.02-0.12,0.03-0.15,0.03
		c-0.13,0-0.26-0.05-0.39-0.14c-0.13-0.09-0.22-0.26-0.28-0.5C139.73,395.23,139.74,392.21,139.76,389.15z"/>
	<path class="st108" d="M147.15,379.17c0-0.19,0.07-0.34,0.21-0.46c0.14-0.12,0.32-0.21,0.53-0.27c0.21-0.06,0.45-0.09,0.7-0.11
		c0.25-0.02,0.49-0.03,0.71-0.03c0.65,0,1.26,0.11,1.82,0.32s1.05,0.53,1.47,0.94s0.75,0.91,0.98,1.51s0.35,1.28,0.35,2.04
		c0,0.63-0.02,1.25-0.07,1.83c-0.05,0.59-0.13,1.12-0.25,1.6c-0.12,0.48-0.3,0.9-0.53,1.26c-0.23,0.36-0.54,0.64-0.91,0.83
		c0.3,0.37,0.53,0.86,0.69,1.46c0.16,0.6,0.28,1.21,0.35,1.83c0.07,0.63,0.12,1.22,0.14,1.79c0.02,0.57,0.03,1.01,0.03,1.33
		c0.02,0.37,0.06,0.76,0.11,1.15c0.06,0.39,0.17,0.71,0.34,0.95c0.24-0.15,0.46-0.22,0.64-0.22c0.21,0,0.38,0.08,0.53,0.25
		s0.22,0.44,0.22,0.81c0,0.24-0.09,0.43-0.28,0.56c-0.19,0.13-0.44,0.2-0.76,0.2c-0.49,0-0.87-0.15-1.15-0.45
		c-0.28-0.3-0.49-0.66-0.64-1.08s-0.24-0.86-0.28-1.32c-0.04-0.46-0.07-0.85-0.08-1.19c0-0.11-0.01-0.44-0.03-0.99
		c-0.02-0.55-0.06-1.15-0.14-1.79c-0.07-0.64-0.19-1.24-0.34-1.78c-0.15-0.54-0.35-0.85-0.59-0.92c-0.3,0.07-0.61,0.13-0.92,0.15
		c-0.32,0.03-0.63,0.04-0.95,0.04v8.48c0,0.19-0.06,0.35-0.18,0.49c-0.12,0.14-0.29,0.21-0.52,0.21c-0.17,0-0.31-0.07-0.42-0.21
		c-0.11-0.14-0.19-0.29-0.22-0.46l-0.06-18.14C147.32,379.68,147.15,379.47,147.15,379.17z M151.58,380.57
		c-0.67-0.63-1.51-0.95-2.52-0.95v8.48c0.78-0.02,1.4-0.13,1.86-0.34c0.46-0.21,0.81-0.51,1.06-0.91s0.42-0.91,0.49-1.51
		c0.07-0.61,0.11-1.32,0.11-2.14C152.58,382.08,152.25,381.21,151.58,380.57z"/>
	<path class="st108" d="M156.35,381.2c0.12-0.29,0.21-0.56,0.27-0.83c-0.15-0.11-0.24-0.26-0.28-0.45
		c-0.04-0.19-0.06-0.38-0.06-0.59c0-0.07,0.01-0.18,0.04-0.32s0.08-0.28,0.17-0.42s0.19-0.26,0.31-0.36
		c0.12-0.1,0.28-0.15,0.49-0.15c0.26,0,0.45,0.12,0.57,0.35c0.12,0.23,0.18,0.55,0.18,0.94c0,0.35-0.04,0.72-0.13,1.11
		s-0.2,0.73-0.34,1.04c-0.14,0.31-0.29,0.56-0.45,0.76s-0.32,0.29-0.49,0.29c-0.19,0-0.31-0.07-0.38-0.21
		c-0.06-0.14-0.1-0.3-0.1-0.49C156.17,381.71,156.23,381.49,156.35,381.2z"/>
	<path class="st108" d="M163.56,382.78c0-0.37,0.17-0.56,0.5-0.56c-0.06-0.73-0.21-1.3-0.46-1.72s-0.54-0.63-0.85-0.63
		c-0.26,0-0.5,0.07-0.71,0.22c-0.21,0.15-0.39,0.34-0.53,0.57c-0.14,0.23-0.25,0.49-0.32,0.77s-0.11,0.55-0.11,0.81
		c0,0.9,0.15,1.81,0.45,2.73c0.3,0.92,0.69,1.76,1.18,2.51c0.34,0.54,0.68,1.03,1.02,1.47c0.35,0.44,0.66,0.89,0.94,1.34
		c0.28,0.46,0.5,0.95,0.67,1.48s0.25,1.15,0.25,1.86c0,0.67-0.08,1.32-0.24,1.95c-0.16,0.63-0.37,1.18-0.63,1.65
		c-0.26,0.48-0.57,0.86-0.94,1.15c-0.36,0.29-0.75,0.43-1.16,0.43c-0.43,0-0.84-0.11-1.22-0.34c-0.38-0.22-0.72-0.52-1.01-0.88
		c-0.29-0.36-0.52-0.77-0.7-1.22c-0.18-0.45-0.27-0.9-0.27-1.34c0-0.08,0.01-0.19,0.03-0.34c0.02-0.15,0.05-0.3,0.1-0.46
		c0.05-0.16,0.1-0.3,0.17-0.42c0.06-0.12,0.15-0.18,0.27-0.18c0.17,0,0.35,0.1,0.53,0.31c0.19,0.21,0.28,0.4,0.28,0.59
		c0,0.07-0.01,0.15-0.04,0.22c-0.03,0.07-0.04,0.16-0.04,0.25c0,0.24,0.05,0.5,0.15,0.78c0.1,0.28,0.24,0.54,0.42,0.8
		c0.18,0.25,0.38,0.46,0.6,0.63c0.22,0.17,0.45,0.26,0.67,0.28c0.24,0,0.47-0.12,0.69-0.36s0.4-0.55,0.55-0.92s0.27-0.78,0.35-1.23
		c0.08-0.45,0.13-0.88,0.13-1.29c0-0.56-0.08-1.07-0.25-1.54s-0.38-0.91-0.63-1.34s-0.53-0.85-0.84-1.26l-0.91-1.26
		c-0.58-0.9-1.03-1.85-1.34-2.87c-0.32-1.02-0.48-2.05-0.48-3.09c0-0.52,0.08-1.02,0.24-1.48c0.16-0.47,0.37-0.88,0.63-1.25
		s0.56-0.65,0.88-0.87s0.67-0.32,1.02-0.32c0.63,0,1.23,0.34,1.79,1.01c0.3,0.37,0.55,0.83,0.74,1.36s0.29,1.1,0.29,1.69
		c0,0.34-0.12,0.63-0.36,0.9c-0.24,0.26-0.5,0.39-0.76,0.39c-0.35,0-0.59-0.25-0.7-0.76C163.57,382.95,163.56,382.88,163.56,382.78z
		"/>
	<path class="st108" d="M178.18,378.7c0.32,0,0.55,0.21,0.7,0.62c0,3.01,0.01,6.05,0.03,9.14c0.02,3.09,0.03,6.2,0.03,9.34
		c0,0.17-0.05,0.31-0.15,0.42c-0.1,0.11-0.23,0.21-0.38,0.28c-0.17-0.02-0.34-0.08-0.52-0.2c-0.18-0.11-0.27-0.27-0.27-0.48
		c0-1.57,0-3.12-0.01-4.66s-0.02-3.1-0.04-4.69c-0.6,0-1.2-0.01-1.81-0.03c-0.61-0.02-1.2-0.03-1.78-0.03c0,0.9,0,1.8-0.01,2.72
		c-0.01,0.91-0.02,1.8-0.04,2.66c-0.02,0.86-0.05,1.67-0.08,2.42c-0.04,0.76-0.08,1.41-0.14,1.97c-0.04,0.22-0.12,0.39-0.24,0.5
		c-0.12,0.11-0.26,0.17-0.41,0.17c-0.09,0-0.19-0.02-0.29-0.07c-0.1-0.05-0.19-0.11-0.27-0.18s-0.13-0.16-0.15-0.25
		c-0.03-0.09-0.02-0.2,0.01-0.31c0.13-1.34,0.22-2.72,0.27-4.13c0.05-1.41,0.07-2.81,0.07-4.21c0-1.75-0.02-3.53-0.06-5.33
		c-0.04-1.8-0.06-3.52-0.06-5.17c0.11-0.39,0.32-0.59,0.62-0.59c0.32,0,0.55,0.21,0.7,0.62c0,0.95,0.01,2.11,0.04,3.49
		c0.03,1.37,0.04,2.83,0.04,4.38c0.6,0,1.18,0.01,1.74,0.03c0.56,0.02,1.18,0.03,1.85,0.03v-7.87
		C177.67,378.89,177.88,378.7,178.18,378.7z"/>
	<path class="st108" d="M184.03,378.47c0.11,0,0.22,0.03,0.34,0.1c0.11,0.07,0.19,0.16,0.22,0.29c0.54,0.93,0.94,1.86,1.19,2.77
		c0.25,0.91,0.43,1.81,0.53,2.69s0.16,1.73,0.18,2.55c0.02,0.82,0.07,1.6,0.17,2.32v-0.03c0.04,0.21,0.06,0.43,0.08,0.69l0.06,0.74
		c0.13,1.16,0.24,2.16,0.32,3.01c0.08,0.85,0.13,1.67,0.13,2.48c0,0.26,0,0.56-0.01,0.9s-0.04,0.66-0.08,0.97
		c-0.05,0.31-0.13,0.56-0.24,0.77c-0.11,0.21-0.27,0.31-0.48,0.31c-0.3,0-0.51-0.13-0.64-0.38s-0.2-0.51-0.2-0.77
		c0-0.21,0.08-0.36,0.25-0.45c0.02-0.17,0.03-0.35,0.03-0.54v-0.57c0-0.67-0.03-1.35-0.1-2.04c-0.06-0.69-0.12-1.3-0.15-1.82
		l-0.06-0.59c-0.49,0-0.97,0.01-1.46,0.04c-0.49,0.03-0.97,0.04-1.46,0.04l-0.06,0.9c-0.02,0.19-0.03,0.38-0.04,0.59
		c-0.01,0.21-0.02,0.44-0.03,0.71c-0.01,0.27-0.01,0.59-0.01,0.97v1.34v1.68c0,0.13-0.06,0.27-0.18,0.42
		c-0.12,0.15-0.29,0.22-0.52,0.22c-0.28,0-0.49-0.16-0.64-0.48v-1.51c0-0.26,0-0.53-0.01-0.8c-0.01-0.27-0.01-0.55-0.01-0.83
		c0-0.77,0.03-1.5,0.1-2.2c0.06-0.7,0.12-1.4,0.15-2.09l0.08-1.34c0.06-0.95,0.14-1.94,0.27-2.97c0.12-1.03,0.26-2.01,0.41-2.94
		l0.08-0.48c0.13-0.75,0.28-1.48,0.46-2.2c0.18-0.72,0.42-1.43,0.74-2.14C183.61,378.58,183.8,378.47,184.03,378.47z M184.08,390.58
		c0.47-0.03,0.92-0.04,1.37-0.04l-0.14-1.32c0-0.15-0.01-0.34-0.03-0.56c-0.02-0.22-0.03-0.46-0.04-0.7
		c-0.01-0.24-0.02-0.49-0.04-0.73s-0.03-0.47-0.03-0.67v-0.62c0-0.88-0.08-1.8-0.24-2.76s-0.42-1.85-0.8-2.67
		c-0.15,0.41-0.26,0.77-0.32,1.08c-0.07,0.31-0.13,0.68-0.18,1.11c-0.09,1.12-0.23,2.27-0.42,3.46c-0.19,1.19-0.33,2.32-0.42,3.4
		l-0.08,1.06C183.16,390.62,183.62,390.61,184.08,390.58z"/>
	<path class="st108" d="M195.81,378.75c0.32,0,0.55,0.21,0.7,0.62c0.02,1.27,0.03,2.34,0.03,3.22c0,0.88,0,1.72,0.01,2.54
		c0.01,0.81,0.01,1.66,0.01,2.53s0.01,1.95,0.03,3.22c0,0.35,0.01,0.87,0.03,1.55c0.02,0.68,0.04,1.39,0.07,2.13
		c0.03,0.74,0.05,1.44,0.07,2.1s0.03,1.15,0.03,1.47c-0.04,0.21-0.13,0.36-0.27,0.46c-0.14,0.1-0.28,0.15-0.43,0.15
		c-0.13,0-0.28-0.05-0.46-0.14c-0.18-0.09-0.32-0.24-0.43-0.45l-3.95-14.67v14.42c-0.04,0.22-0.13,0.39-0.27,0.5
		c-0.14,0.11-0.28,0.17-0.43,0.17s-0.28-0.05-0.41-0.15c-0.12-0.1-0.2-0.26-0.24-0.46v-18.68c0.11-0.35,0.34-0.53,0.67-0.53
		c0.3,0,0.59,0.14,0.87,0.42l3.86,14.39c-0.02-0.86-0.04-1.64-0.06-2.35c-0.02-0.71-0.03-1.36-0.04-1.95
		c-0.01-0.59-0.01-1.14-0.01-1.65v-1.5c0-0.49,0-0.97,0.01-1.44c0.01-0.48,0.01-0.98,0.01-1.53s0-1.12-0.01-1.74
		c-0.01-0.62-0.01-1.31-0.01-2.07C195.31,378.95,195.52,378.75,195.81,378.75z"/>
	<path class="st108" d="M199.23,379.61c-0.11-0.12-0.17-0.26-0.17-0.41s0.06-0.29,0.17-0.43c0.11-0.14,0.28-0.23,0.5-0.27
		c0.69,0,1.32,0.05,1.88,0.15s1.05,0.29,1.48,0.55c0.43,0.26,0.79,0.62,1.09,1.06c0.3,0.45,0.54,1.02,0.73,1.71
		c0.19,0.63,0.35,1.3,0.49,2c0.14,0.7,0.26,1.39,0.36,2.07c0.1,0.68,0.18,1.34,0.24,1.99c0.06,0.64,0.08,1.24,0.08,1.78
		c0,0.52-0.03,1.02-0.08,1.5c-0.06,0.48-0.13,0.96-0.22,1.44c-0.19,0.84-0.37,1.57-0.55,2.18s-0.41,1.13-0.69,1.54
		c-0.21,0.35-0.5,0.68-0.88,0.97c-0.38,0.29-0.79,0.54-1.23,0.74c-0.44,0.21-0.88,0.36-1.32,0.48c-0.44,0.11-0.83,0.17-1.16,0.17
		c-0.3,0-0.5-0.09-0.62-0.27s-0.16-0.37-0.14-0.57c0.02-0.24,0.09-0.45,0.22-0.63s0.3-0.22,0.5-0.13c-0.04-0.26-0.06-0.52-0.06-0.77
		v-0.74c0-1.57,0.03-3.3,0.1-5.19s0.1-3.78,0.1-5.67v-2.38c0-0.43-0.01-0.85-0.04-1.27c-0.03-0.42-0.1-0.87-0.21-1.36
		C199.54,379.81,199.34,379.73,199.23,379.61z M202.45,396.74c0.34-0.21,0.58-0.4,0.73-0.55c0.04-0.04,0.14-0.18,0.31-0.42
		s0.33-0.57,0.48-0.98c0.07-0.22,0.14-0.46,0.21-0.7l0.18-0.7c0.06-0.22,0.1-0.42,0.14-0.59c0.04-0.17,0.06-0.27,0.06-0.31
		c0.09-0.41,0.15-0.82,0.18-1.22c0.03-0.4,0.04-0.82,0.04-1.25c0-1.33-0.11-2.66-0.32-3.99c-0.21-1.33-0.53-2.71-0.94-4.13
		c-0.19-0.65-0.48-1.12-0.87-1.39c-0.39-0.27-0.88-0.45-1.46-0.55c0.07,0.41,0.13,0.83,0.15,1.26s0.04,0.87,0.04,1.32v2.27
		c0,1.79-0.03,3.62-0.1,5.47c-0.06,1.86-0.1,3.67-0.1,5.45c0,0.11,0,0.22,0.01,0.34c0.01,0.11,0.01,0.22,0.01,0.34l0.17,0.87
		C201.76,397.14,202.11,396.96,202.45,396.74z"/>
</g>
<g>
	<g>
		<path class="st73" d="M259.29,272c-4.9-4.29-7.47-11.09-6.65-17.54l-0.09,0.2c0.39-3.66,3.01-6.63,5.5-9.33l0.31-0.79
			c-0.62,7.69-1.18,15.75,1.92,22.81c0.36,0.82,0.77,1.63,0.91,2.52c0.14,0.88-0.04,1.88-0.71,2.48"/>
		<g>
			<path d="M259.55,271.74c-4.86-4.61-7.12-10.6-6.54-17.28c0.03-0.36-0.54-0.52-0.7-0.19c0.79-1.7,3.77-8.03,6.06-8.74
				c0.34-0.11,0.35-3.17-0.53,0.8c-0.35,1.6-0.26,3.74-0.31,5.38c-0.09,3-0.02,6.02,0.46,8.98c0.44,2.73,3.62,8.96,2.17,11.46
				c-0.24,0.42,0.41,0.8,0.65,0.38c1.85-3.19-0.79-6.21-1.56-9.46c-1.46-6.09-1-12.35-0.51-18.53c0.04-0.45-0.59-0.46-0.74-0.1
				c-1.52,3.84-4.96,5.71-5.81,10.11c-0.08,0.39,0.49,0.7,0.69,0.29c-2.66,5.75,1.96,13.44,6.15,17.41
				C259.37,272.6,259.9,272.07,259.55,271.74L259.55,271.74z"/>
		</g>
	</g>
	<g>
		<path class="st73" d="M101.01,257.24c-12.94-8.89-18.81-26.33-20.86-41.9c-0.95-7.25-1.43-14.61-0.55-21.86
			c2.36-19.35,14.68-36.79,31.08-47.33c16.4-10.54,36.5-14.53,55.95-13.27s38.33,7.55,55.81,16.19
			c12.22,6.04,24.34,13.74,31.17,25.54c3.55,6.13,5.47,13.05,7.35,19.88c2.47,8.97,4.97,18.13,4.42,27.42
			c-1.47,24.93-24.15,44.56-26.48,69.42c-0.22,2.35-0.27,4.79-1.31,6.91c-1.04,2.12-3.45,3.8-5.7,3.11
			c-2.76-0.84-3.51-4.33-3.77-7.2c-0.51-5.43-1.02-10.87-1.52-16.3c-35.1,7.01-72.16,3.89-105.59-8.87
			c-8.87-3.39-13.55-5.74-20.49-12.22"/>
		<g>
			<path d="M101.2,256.92c-11.22-8.06-16.77-21.35-19.48-34.51c-2.95-14.3-3.48-29.48,1.93-43.26
				c10.69-27.23,38.04-42.99,66.26-45.67c29.08-2.76,60.48,7.08,84.79,22.88c6.06,3.94,11.73,8.65,16.03,14.51
				c4.8,6.55,7.24,14.27,9.41,22c4.06,14.49,7.03,28.46,1.9,43.06c-4.75,13.53-13.45,25.19-18.96,38.38
				c-2.3,5.51-3.79,11.09-4.53,17.01c-0.05,0.59-0.1,1.18-0.15,1.77c0.3,4.75-2.61,6.68-8.72,5.78c-1.49-2.15-1.27-5.84-1.5-8.35
				c-0.4-4.23-0.79-8.45-1.19-12.68c-0.02-0.25-0.22-0.41-0.47-0.36c-22.6,4.4-45.84,4.83-68.56,1.07
				c-19.53-3.23-42.18-8.35-57.15-22.06c-0.36-0.33-0.89,0.2-0.53,0.53c14.3,13.11,35.29,18.19,53.89,21.63
				c21.54,3.98,43.75,4.3,65.38,0.84c2.17-0.35,5.24-1.83,6.86,0.16c0.98,1.21,0.7,7.45,0.85,9.05c0.31,3.33,0.01,8.13,2.1,11.04
				c3.86,5.38,8.77-0.49,9.59-4.83c0.91-4.79,1.08-9.45,2.56-14.15c1.53-4.88,3.66-9.54,5.99-14.08
				c4.29-8.38,9.32-16.39,13.09-25.04c3.5-8.04,5.69-16.48,5.18-25.3c-0.62-10.81-3.93-21.98-7.48-32.16
				c-6.59-18.88-22.36-29.3-39.77-37.42c-35.97-16.79-82.63-22.9-115.35,4.45c-15.85,13.25-25.05,32.47-24.35,53.2
				c0.65,19.03,5.67,41.41,22.01,53.15C101.21,257.84,101.59,257.19,101.2,256.92L101.2,256.92z"/>
		</g>
	</g>
	<g>
		<path class="st73" d="M262.84,273.3c-0.1,1.92,0.12,3.85,0.63,5.7c0.17,0.59,0.36,1.19,0.7,1.7c0.35,0.53,0.82,0.95,1.29,1.37
			c1.31,1.16,2.78,2.39,4.53,2.38c-0.42-1.67-2.96-2.35-2.93-4.07c2.74,1.01,4.98,3.3,5.93,6.07c0.8-2.25-0.41-4.67-1.59-6.75
			c1.26,1.58,3.46,2.35,5.44,1.91c-1.79-0.97-3.03-2.88-3.18-4.91c-0.04-0.57-0.06-1.24-0.53-1.56c-0.27-0.18-0.62-0.18-0.95-0.21
			c-0.99-0.07-1.96-0.38-2.8-0.91c1.17,0.13,2.34,0.26,3.51,0.39c0.04-1.43-1.57-2.4-2.99-2.38s-2.76,0.67-4.15,0.99
			c-1.39,0.32-3.08,0.18-3.9-0.99"/>
		<g>
			<path d="M262.46,273.3c-0.12,5.04,1.67,10.9,7.53,11.52c0.32,0.03,0.42-0.34,0.32-0.56c-0.66-1.54-2.61-2.28-2.89-3.98
				c-0.18,0.14-0.37,0.28-0.55,0.42c2.74,1.16,4.66,3.06,5.76,5.85c0.12,0.32,0.63,0.39,0.72,0c0.6-2.61-0.38-4.77-1.62-7.04
				c-0.2,0.15-0.39,0.3-0.59,0.45c1.61,1.7,3.5,2.32,5.8,2.01c0.34-0.05,0.33-0.53,0.09-0.69c-2.19-1.41-2.39-2.89-3.05-5.18
				c-0.07-0.24-0.04-0.54-0.19-0.74c-0.93-1.22-2.88-0.97-4.22-1.67c-0.06,0.23-0.13,0.47-0.19,0.7c1.17,0.13,2.34,0.26,3.51,0.39
				c0.27,0.03,0.4-0.26,0.36-0.47c-0.91-5.59-8.52,0.2-11.14-2.55c-0.33-0.35-0.86,0.18-0.53,0.53c0.96,1.02,2.05,1.33,3.45,1.22
				c1-0.07,1.91-0.51,2.87-0.74c1.58-0.82,2.85-0.44,3.81,1.13c-0.78-0.09-1.56-0.17-2.34-0.26c-0.37-0.04-0.51,0.54-0.19,0.7
				c0.83,0.43,2.2,0.52,2.89,0.95c1.52,0.94,1.09,1.84,1.6,3.2c0.57,1.52,1.63,2.58,2.97,3.45c0.03-0.23,0.06-0.46,0.09-0.69
				c-2.1,0.29-3.66-0.33-5.07-1.82c-0.3-0.31-0.79,0.09-0.59,0.45c1.15,2.1,2.13,3.95,1.55,6.46c0.24,0,0.48,0,0.72,0
				c-1.17-2.95-3.18-5.06-6.11-6.29c-0.31-0.13-0.61,0.08-0.55,0.42c0.11,0.63,0.3,1.02,0.69,1.53c0.59,0.78,3.9,3.36,0.36,1.37
				c-3.76-2.11-4.64-6.05-4.54-10.08C263.22,272.82,262.47,272.82,262.46,273.3L262.46,273.3z"/>
		</g>
	</g>
	<g>
		<path class="st74" d="M260.9,272.88c-0.48,1.1-1.35,1.99-1.94,3.03c-0.68,1.18-1,2.57-0.92,3.93c0.84-0.86,1.67-1.73,2.51-2.59
			c-0.02,1.32-0.05,2.64-0.07,3.96c0,0.11,0.01,0.23,0.1,0.28c0.09,0.05,0.21-0.01,0.29-0.08c0.62-0.52,0.87-1.37,0.92-2.18
			c0.05-0.81-0.06-1.62-0.01-2.43c0.13-2.01,1.26-3.82,2.5-5.41c1.24-1.59,2.64-3.09,3.49-4.92c0.09-0.19,0.17-0.38,0.17-0.58
			c0.02-0.74-0.99-1.15-1.67-0.85c-0.68,0.3-1.08,1.01-1.42,1.67c-0.01-0.62-0.08-1.35-0.62-1.67c-0.46-0.27-1.08-0.07-1.45,0.32
			c-0.36,0.39-0.53,0.92-0.65,1.44c-0.4,1.68-0.53,3.41-0.87,5.11c-0.33,1.7-0.9,3.4-2.03,4.7"/>
		<g>
			<path d="M260.58,272.69c-1.35,2.53-2.88,4.14-2.91,7.15c0,0.32,0.41,0.5,0.64,0.27c0.56-0.58,1.12-1.15,1.67-1.73
				c0.38-0.37,0.44-0.09,0.16,0.85c0.22,0.76-0.2,1.59,0.08,2.36c0.07,0.19,0.25,0.32,0.46,0.26c1.55-0.45,1.44-2.59,1.48-3.84
				c0.14-4.64,3.4-6.75,5.46-10.47c1.74-3.15-1.58-3.72-3.1-1.04c0.23,0.06,0.47,0.13,0.7,0.19c-0.1-1.45-1.08-3.03-2.67-1.64
				c-0.91,0.8-0.99,2.62-1.17,3.67c-0.47,2.78-0.72,5.32-2.48,7.69c-0.29,0.39,0.36,0.76,0.65,0.38c1.1-1.47,1.69-3,2.07-4.79
				c0.22-1.01,0.31-2.05,0.48-3.07c0.06-0.34,0.11-0.68,0.17-1.02c-0.06-1.29,0.67-1.69,2.19-1.21c0.03,0.35,0.51,0.53,0.7,0.19
				c1.69-0.3,2.2-0.06,1.53,0.7c-0.25,0.42-0.53,0.82-0.85,1.19c-0.59,0.8-1.24,1.55-1.84,2.34c-0.83,1.1-1.64,2.24-2.12,3.54
				c-0.34,0.91-0.41,1.79-0.48,2.74c-0.04,0.58-0.25,3.17-0.54,2.82c-0.32-0.4,0.04-2.5,0.05-2.97c0.01-0.32-0.42-0.5-0.64-0.27
				c-0.56,0.58-1.12,1.15-1.67,1.73c-0.15-0.93,0.07-1.8,0.67-2.61c0.57-1.06,1.38-1.96,1.94-3.03
				C261.45,272.64,260.81,272.27,260.58,272.69L260.58,272.69z"/>
		</g>
	</g>
	<g>
		<path class="st73" d="M194.98,282.32c-0.16,5.2-0.31,10.51,1.18,15.49c0.26,0.88,0.61,1.79,1.34,2.35
			c0.81,0.62,1.95,0.68,2.91,0.34c0.96-0.33,1.77-1.01,2.48-1.74c4.03-4.14,5.37-10.2,5.73-15.96c0.05-0.79,0-1.76-0.7-2.14
			c-0.32-0.18-0.7-0.18-1.06-0.18c-4.24,0.03-8.49,0.32-12.7,0.88"/>
		<g>
			<path d="M194.6,282.32c-0.11,3.78-0.24,7.59,0.29,11.35c0.26,1.86,0.48,4.55,1.72,6.1c2.82,3.5,6.85-0.7,8.5-3.2
				c1.61-2.44,2.57-5.24,3.15-8.08c0.39-1.9,1.38-5.16,0.62-6.98c-0.57-1.34-1.31-1.32-2.73-1.38c-3.96-0.17-8.07,0.38-11.99,0.87
				c-0.47,0.06-0.48,0.81,0,0.75c3.19-0.4,8.15-1.7,11.28-0.86c3.91,1.04,2.76,3.93,2.22,6.79c-0.3,1.63-0.71,3.25-1.31,4.79
				c-0.84,2.18-2.05,4.38-3.74,6.04c-3.16,3.1-6.15-0.29-6.77-3.54c-0.79-4.16-0.63-8.43-0.51-12.64
				C195.37,281.84,194.62,281.84,194.6,282.32L194.6,282.32z"/>
		</g>
	</g>
	<g>
		<path class="st73" d="M79.57,207.54c-0.69-0.23-3.09,6.47-8.41,18.33c-1.43,3.18-1.59,3.71-1.84,4.9
			c-1.3,6.26,3.54,12.91,9.79,14.24c2.44,0.52,5.37,0.17,6.83-1.86c1.32-1.83,0.42-4.05-1.01-9.17c-2.43-8.71-5.53-19.78-5.21-25.54
			C79.73,208.2,79.77,207.61,79.57,207.54z"/>
		<g>
			<path d="M79.47,207.18c-1.1,0.16-1.78,2.73-2.13,3.51c-2.24,4.97-4.31,10.01-6.51,14.99c-2.95,6.68-2.63,13.88,4.31,18.12
				c5.2,3.18,12.98,2.06,11.44-5.25c-1.21-5.72-3.22-11.31-4.58-17c-0.76-3.23-1.51-6.5-1.81-9.81c-0.12-1.37,0.24-3.01-0.26-4.29
				c-0.17-0.44-0.9-0.25-0.72,0.2c0.73,1.88,0.27,4.69,0.58,6.77c0.54,3.53,1.39,7.01,2.27,10.46c0.94,3.68,1.99,7.34,3.01,11
				c0.89,3.21,2.78,7.02-2.28,8.8c-2.78,0.98-6.21-0.72-8.32-2.33c-8.49-6.47-3.74-14.49-0.47-22.02c0.52-1.21,3.9-12.17,5.66-12.43
				C80.15,207.83,79.94,207.11,79.47,207.18z"/>
		</g>
	</g>
	<g>
		<path class="st73" d="M153.31,275.24c-0.32,7.02-0.62,14.16,1.13,20.96c0.39,1.52,1.09,3.22,2.59,3.65
			c1.76,0.5,3.4-1.04,4.45-2.54c3.18-4.55,4.91-10.1,4.89-15.65c0-0.25-0.01-0.51-0.16-0.71c-0.17-0.22-0.43-0.3-0.53-0.33
			c-4.78-1.31-6.7-1.46-6.7-1.46c-1.45-0.11-3.53-0.47-6.05-1.63"/>
		<g>
			<path d="M152.94,275.24c-0.21,4.68-0.43,9.39-0.01,14.06c0.26,2.88,0.32,6.89,2.07,9.32c2.68,3.71,6,0.25,7.72-2.52
				c2.06-3.31,3.35-7.16,3.82-11.02c0.14-1.18,0.75-3.37-0.06-4.39c-1.08-1.37-4.87-1.48-6.53-1.77c-2.42-0.42-4.62-0.8-6.91-1.75
				c-0.45-0.18-0.64,0.54-0.2,0.72c2.32,0.96,4.49,1.33,6.91,1.75c1.2,0.21,3.15,0.29,4.18,0.9c3.4,2.05,1.75,6.3,0.84,9.21
				c-0.67,2.15-2.29,7.09-4.44,8.38c-3.79,0.35-5.76-0.9-5.92-3.75c-0.35-1.68-0.59-3.38-0.73-5.09c-0.42-4.67-0.2-9.38,0.01-14.06
				C153.71,274.76,152.96,274.76,152.94,275.24L152.94,275.24z"/>
		</g>
	</g>
	<path class="st75" d="M153.63,250.93c-2.93,0.8-6.54,1.54-10.72,1.89c-3.69,0.3-6.98,0.23-9.74,0c0.65-4.72,1.3-9.44,1.95-14.16
		c4.27,1.62,7.48,1.48,9.74,0.94c3.97-0.95,7-3.6,7.8-2.83c0.4,0.39-0.02,1.45-0.49,2.36c-0.37,1.25-0.84,3.44-0.49,6.14
		C152.02,247.87,152.98,249.81,153.63,250.93z"/>
	<g>
		<path class="st73" d="M127.02,271.57c-7.09-3.45-14.44-6.4-21.26-10.35c-1.82-1.06-4.95-3.87-3.77-5.93
			c-2.76,4.09-5.52,8.75-9.43,11.76c-3.91,3.01-8.82,4.97-13.74,4.54c-2.94-0.26-5.75-1.35-8.42-2.62
			c-3.02-1.44-5.99-3.18-8.15-5.74c-4.22-5.01-4.58-12.37-2.69-18.64c1.89-6.27,5.7-11.74,9.25-17.24c1.05-1.62,2.12-3.54,1.55-5.38
			c-0.71-2.28-3.71-3.14-5.97-2.37s-6.15,2.21-7.71,4.03c-2.2-0.96-3.03-2.74-4.64-4.53c-1.61-1.79-4.52-3.06-6.31-1.47
			c-1.25,1.11-1.26,3.1-0.63,4.65c0.63,1.54,1.77,2.82,2.62,4.25c2.99,5.07,2.09,11.51,0.37,17.14c-1.71,5.63-4.16,11.23-3.98,17.11
			c0.11,3.68,1.27,7.27,2.86,10.59c6.32,13.22,19.94,22.55,34.52,24.04c14.58,1.49,29.64-4.76,39.17-15.9
			c7.05-8.24,11.06-18.74,13.01-29.4s1.97-21.58,1.82-32.43"/>
		<g>
			<path d="M127.21,271.24c-4.38-2.1-8.82-4.05-13.2-6.15c-2.98-1.43-13-4.88-11.66-9.7c0.12-0.42-0.45-0.63-0.69-0.29
				c-3.71,5.55-7.28,11.25-13.51,14.24c-8.52,4.08-21.07,0.41-26.49-7.49c-4.42-6.44-3.07-14.96-0.04-21.63
				c1.13-2.48,2.52-4.84,3.95-7.16c1.57-2.53,4.13-5.28,4.95-8.18c0.69-2.43,0.09-4.58-2.39-5.57c-3.57-1.44-6.68,1.48-9.84,2.53
				c-1.85,0.62-0.45,2.04-3.48,0.02c-0.84-0.56-1.39-1.76-2.07-2.5c-1.03-1.12-2.15-2.24-3.7-2.63c-2.37-0.59-4.37,0.52-4.72,3.06
				c-0.21,1.52,0.53,2.86,1.21,4.14c2.02,3.83,3.79,6.38,3.73,10.96c-0.09,7.2-3.8,13.6-5.08,20.57
				c-1.84,10.06,3.14,19.8,9.99,26.92c14.41,14.99,37.29,17.58,55.07,7.12c25.04-14.73,26.92-45.86,26.6-71.81
				c-0.01-0.48-0.76-0.48-0.75,0c0.24,19.18-0.09,39.78-10.91,56.44c-9.92,15.29-28.9,24.04-46.95,20.25
				c-16.76-3.52-35.73-19.94-32.32-38.72c1.41-7.77,5.87-15.04,5.03-23.16c-0.17-1.61-0.52-3.17-1.16-4.65
				c-0.59-1.38-2.26-2.9-2.61-4.29c0.38-6.34,2.24-7.74,5.58-4.19c0.59,0.68,1.15,1.38,1.69,2.09c0.99,1.1,1.76,1.78,3.02,2.5
				c0.15,0.08,0.33,0.06,0.45-0.06c1.55-1.46,3.35-2.33,5.3-3.11c0.74-0.29,1.49-0.56,2.24-0.82c1.59,1.98,3.18,3.96,4.76,5.94
				c0,2.12-4.54,7.1-5.59,8.89c-2.72,4.64-5.01,9.62-5.46,15.04c-0.97,11.62,7.74,19.81,18.78,21.88c5.1,0.95,10.18-0.53,14.44-3.37
				c2.17-1.44,4-3.26,5.63-5.28c1-1.23,3.17-5.96,4.45-6.33c2.19-0.63-0.75-0.68-0.11-0.41c-0.26-0.11,0.69,2,0.71,2.03
				c0.78,1.36,2.21,2.35,3.49,3.2c6.51,4.28,14.26,6.99,21.26,10.35C127.26,272.1,127.64,271.45,127.21,271.24L127.21,271.24z"/>
		</g>
	</g>
	<g>
		<g>
			<path d="M101.82,215.3c6.54,13.37,6.66,27.89-1.13,40.78c-0.25,0.41,0.4,0.79,0.65,0.38c7.94-13.12,7.8-27.91,1.13-41.53
				C102.25,214.49,101.6,214.86,101.82,215.3L101.82,215.3z"/>
		</g>
	</g>
	<g>
		<g>
			<path d="M99.93,189.49c17.63-8,37.76-8.08,55.45-0.22c0.44,0.19,0.82-0.45,0.38-0.65c-17.96-7.98-38.32-7.91-56.21,0.22
				C99.12,189.04,99.5,189.69,99.93,189.49L99.93,189.49z"/>
		</g>
	</g>
	<g>
		<g>
			<path d="M114.29,177.45c9.74-3.72,20-3.64,29.68,0.22c0.45,0.18,0.64-0.55,0.2-0.72c-9.79-3.91-20.23-3.99-30.08-0.22
				C113.64,176.9,113.83,177.63,114.29,177.45L114.29,177.45z"/>
		</g>
	</g>
	<g>
		<g>
			<path d="M157.02,204.96c1.82-0.74,3.7-0.93,5.62-0.51c0.47,0.1,0.67-0.62,0.2-0.72c-2.04-0.44-4.08-0.28-6.02,0.51
				C156.38,204.42,156.58,205.15,157.02,204.96L157.02,204.96z"/>
		</g>
	</g>
	<g>
		<g>
			<path d="M154.14,211.74c2.23-2.04,7.2-2.23,9.92-1.04c0.44,0.19,0.82-0.45,0.38-0.65c-3.13-1.37-8.23-1.22-10.83,1.16
				C153.25,211.54,153.79,212.07,154.14,211.74L154.14,211.74z"/>
		</g>
	</g>
	<g>
		<g>
			<path d="M156.36,218.28c1.38,0.08,2.76,0.04,4.13-0.12c0.47-0.06,0.48-0.81,0-0.75c-1.38,0.16-2.75,0.2-4.13,0.12
				C155.88,217.5,155.88,218.25,156.36,218.28L156.36,218.28z"/>
		</g>
	</g>
	<g>
		<g>
			<path d="M86.78,200.56c1.83-0.74,3.72-1.27,5.67-1.59c0.48-0.08,0.27-0.8-0.2-0.72c-1.95,0.32-3.84,0.85-5.67,1.59
				C86.13,200.02,86.33,200.75,86.78,200.56L86.78,200.56z"/>
		</g>
	</g>
	<g>
		<g>
			<path d="M91.25,204.08c-0.71,0.8-1.19,1.73-1.35,2.79c-0.12,0.77-0.16,1.94,0.39,2.59c0.51,0.6,1.43,0.55,2.04,0.14
				c0.83-0.56,1.13-1.77,1.28-2.7c0.12-0.74-0.03-1.57-0.78-1.92c-0.93-0.43-1.48,0.38-1.76,1.16c-0.27,0.73-0.73,2.13-0.13,2.82
				c0.39,0.45,1.13,0.42,1.39-0.15c0.2-0.44-0.45-0.82-0.65-0.38c-0.22-0.14-0.3-0.32-0.24-0.55c0.03-0.3,0.08-0.6,0.16-0.9
				c0.06-0.22,0.12-0.43,0.2-0.65c0.15-0.75,0.52-0.69,1.12,0.16c0.11,0.62-0.44,2.01-0.87,2.39c-1.26,1.08-1.5-0.98-1.42-1.73
				c0.11-0.96,0.53-1.83,1.17-2.55C92.1,204.25,91.57,203.72,91.25,204.08L91.25,204.08z"/>
		</g>
	</g>
	<g>
		<g>
			<path d="M86.67,215.54c1.72,0.13,3.44,0.27,5.16,0.4c0.48,0.04,0.48-0.71,0-0.75c-1.72-0.13-3.44-0.27-5.16-0.4
				C86.19,214.76,86.19,215.51,86.67,215.54L86.67,215.54z"/>
		</g>
	</g>
	<g>
		<g>
			<path d="M178.18,185.7c11.25,20.18-22.37,48.19-0.66,65.15c6.36,4.97,16.48,7.09,23.81,3.11c7.93-4.3,12.68-12.87,13.63-21.62
				c0.05-0.48-0.7-0.48-0.75,0c-1.17,10.77-9.06,22.61-20.88,22.9c-11.09,0.27-22.9-7.7-22.52-19.67c0.15-4.85,2.23-9.74,3.66-14.32
				c1.53-4.87,3.1-9.73,4.57-14.61c2.16-7.17,3.62-14.45-0.21-21.33C178.59,184.9,177.94,185.27,178.18,185.7L178.18,185.7z"/>
		</g>
	</g>
	<g>
		<g>
			<path d="M184.14,227.55c0.45,8.28,0.72,16.6-2.96,24.27c-0.21,0.43,0.44,0.81,0.65,0.38c3.74-7.79,3.53-16.21,3.07-24.65
				C184.86,227.07,184.11,227.06,184.14,227.55L184.14,227.55z"/>
		</g>
	</g>
	<g>
		<g>
			<path d="M191.54,249.53c0.36,1.31,0.14,2.61-0.62,3.73c-0.27,0.4,0.38,0.78,0.65,0.38c0.86-1.28,1.11-2.82,0.7-4.31
				C192.13,248.87,191.41,249.06,191.54,249.53L191.54,249.53z"/>
		</g>
	</g>
	<g>
		<g>
			<path d="M201.13,236.34c0.5,5.45,2.07,12.58-0.1,17.76c-0.19,0.44,0.54,0.64,0.72,0.2c2.22-5.3,0.63-12.44,0.13-17.96
				C201.84,235.86,201.09,235.86,201.13,236.34L201.13,236.34z"/>
		</g>
	</g>
	<g>
		<g>
			<path d="M235.44,192.79c0.12,13.72,8.99,27.09,6.86,40.79c-1.12,7.21-3.02,14.76-10.58,17.3c-6.58,2.21-18.04,4.11-22.66-2.73
				c-0.27-0.4-0.92-0.02-0.65,0.38c3.6,5.32,10.6,5.41,16.4,4.67c5.61-0.71,12.22-2.15,14.92-7.65c3.07-6.26,4.43-14.43,3.14-21.3
				c-1.97-10.46-6.58-20.74-6.67-31.48C236.19,192.3,235.44,192.3,235.44,192.79L235.44,192.79z"/>
		</g>
	</g>
	<g>
		<g>
			<path d="M156.78,232.79c-7.47,2.38-6.58,16.72-1.1,20.69c0.39,0.28,0.77-0.37,0.38-0.65c-4.76-3.44-5.88-17.15,0.93-19.32
				C157.43,233.37,157.24,232.65,156.78,232.79L156.78,232.79z"/>
		</g>
	</g>
	<g>
		<g>
			<path d="M133.92,252.99c3.04,0.63,6.06,0.89,9.16,0.55c3.42-0.37,6.67-1.55,10.1-1.89c0.48-0.05,0.48-0.8,0-0.75
				c-6.66,0.66-12.24,2.78-19.06,1.36C133.64,252.17,133.44,252.89,133.92,252.99L133.92,252.99z"/>
		</g>
	</g>
	<g>
		<g>
			<path d="M136.42,250.61c3.46-5.37,9.62-7.55,15.37-9.57c0.45-0.16,0.26-0.88-0.2-0.72c-5.95,2.1-12.24,4.38-15.82,9.92
				C135.51,250.63,136.15,251.01,136.42,250.61L136.42,250.61z"/>
		</g>
	</g>
	<g>
		<path class="st73" d="M114.23,286.37c0.09,1.15,0.17,2.3,0.26,3.45c0.11,1.47,0.23,2.96,0.75,4.34c0.52,1.38,1.52,2.65,2.91,3.15
			c2,0.72,4.3-0.37,5.59-2.06c1.29-1.69,1.78-3.85,2.14-5.94c0.84-4.88,1.18-9.84,1-14.79c-0.04-1.23-0.14-2.53-0.83-3.55
			c-0.37,1.44-0.76,2.92-1.64,4.11c-0.61,0.82-1.41,1.47-2.19,2.13c-3.26,2.77-6.16,5.98-8.59,9.5"/>
		<g>
			<path d="M113.86,286.37c0.24,3.23-0.12,8.23,2.81,10.5c2.02,1.56,4.58,1.18,6.45-0.43c2.96-2.53,3.25-7.24,3.67-10.82
				c0.54-4.55,1.59-10.54-0.42-14.86c-0.14-0.3-0.61-0.2-0.69,0.09c-1.67,6.07-8.71,10.51-12.39,15.66
				c-0.28,0.39,0.37,0.77,0.65,0.38c2.53-3.55,5.36-6.49,8.53-9.43c0.75-0.69,1.65-1.35,2.25-2.21c0.31-0.43,0.57-0.88,0.77-1.37
				c0.34-1.73,0.6-1.86,0.76-0.39c1.49,2.65,0.14,9.14-0.22,12.12c-0.17,1.43-0.3,5.14-1.24,6.7c-6.97,3.42-10.28,2.59-9.93-2.51
				c-0.09-1.15-0.17-2.3-0.26-3.45C114.57,285.89,113.82,285.88,113.86,286.37L113.86,286.37z"/>
		</g>
	</g>
	<g>
		<g>
			<path d="M59.12,256.32c-2.63,2.27-4.21,5.33-4.58,8.79c-0.05,0.48,0.7,0.48,0.75,0c0.35-3.26,1.88-6.12,4.36-8.26
				C60.02,256.53,59.49,256.01,59.12,256.32L59.12,256.32z"/>
		</g>
	</g>
	<g>
		<g>
			<path d="M64.36,264.32c-3.16,2.98-4.71,7.08-4.3,11.41c0.05,0.48,0.8,0.48,0.75,0c-0.4-4.15,1.04-8.01,4.08-10.88
				C65.24,264.52,64.71,263.99,64.36,264.32L64.36,264.32z"/>
		</g>
	</g>
	<g>
		<g>
			<path d="M92.41,268.08c2.18,3.41,3.29,7.15,3.3,11.2c0,0.48,0.75,0.48,0.75,0c-0.01-4.16-1.16-8.08-3.41-11.58
				C92.8,267.3,92.15,267.67,92.41,268.08L92.41,268.08z"/>
		</g>
	</g>
	<g>
		<g>
			<path d="M101.05,259.57c1.32,1.39,2.24,3.02,2.75,4.87c0.13,0.47,0.85,0.27,0.72-0.2c-0.54-1.97-1.53-3.73-2.94-5.2
				C101.25,258.69,100.72,259.22,101.05,259.57L101.05,259.57z"/>
		</g>
	</g>
	<g>
		<g>
			<path class="st0" d="M139.31,239.68c-0.41,0.68-0.51,1.55-0.19,2.28c0.32,0.72,1.09,1.25,1.88,1.2c0.48-0.03,0.93-0.25,1.33-0.52
				c1.02-0.69,1.83-1.84,1.75-3.07c0.09,1.49,1.59,2.73,3.07,2.55c1.48-0.18,2.63-1.76,2.35-3.22"/>
			<g>
				<path d="M138.99,239.49c-0.69,1.51-0.46,3.53,1.44,3.97c2.19,0.51,3.94-2.02,4.04-3.9c-0.25,0.03-0.49,0.07-0.74,0.1
					c0.73,4.06,6.45,3.37,6.16-0.77c-0.03-0.48-0.78-0.48-0.75,0c0.11,1.58-0.54,2.21-2.08,2.41c-0.9,0.48-1.54,0.3-1.91-0.56
					c-0.46-0.32-0.7-0.74-0.7-1.27c-0.08-0.43-0.72-0.3-0.74,0.1c0.02,0.81-0.24,1.47-0.78,1.99c-0.87,1.32-1.97,0.76-3.3-1.68
					C139.83,239.43,139.19,239.05,138.99,239.49L138.99,239.49z"/>
			</g>
		</g>
		<path class="st0" d="M139.99,239.7c-0.13,0.18-0.37,0.58-0.37,1.1c0.01,0.76,0.54,1.47,1.34,1.83c0.25,0.01,0.6-0.01,0.98-0.17
			c0.5-0.21,0.75-0.59,0.97-0.8c0.97-0.97,0-1.95,0-1.95H139.99z"/>
	</g>
	<g>
		<g>
			<path d="M152.47,236.45c-5.35,2.99-11.38,3.62-17.25,1.91c-0.46-0.14-0.66,0.59-0.2,0.72c6.06,1.77,12.31,1.1,17.83-1.99
				C153.27,236.86,152.89,236.21,152.47,236.45L152.47,236.45z"/>
		</g>
	</g>
	<g>
		<g>
			<path class="st0" d="M152.36,249.77c0.93-0.62-1.91-1.23-2.99-0.97s-1.99,1.01-2.68,1.88c-0.41-0.75-1.01-1.61-1.87-1.55
				c-0.57,0.04-1.02,0.5-1.3,0.99s-0.45,1.05-0.77,1.52c-0.33-1.11-1.48-1.92-2.64-1.86s-2.22,0.98-2.44,2.11
				c-0.48-0.48-0.97-0.96-1.56-1.27c-0.59-0.32-1.32-0.46-1.95-0.22c-0.63,0.24-1.11,0.92-0.98,1.58
				C133.19,251.98,143.04,255.98,152.36,249.77z"/>
			<g>
				<path d="M152.69,249.96c0.06-0.1,0.12-0.2,0.18-0.3c0.08-0.14,0.06-0.34-0.06-0.45c-0.7-0.66-1.81-0.89-2.77-0.84
					c-1.36,0.08-2.27,1.41-3.5,1.38c-0.72-0.01-0.74-1.09-1.81-0.97c-1.11,0.13-1.48,1.82-2.07,1.87c-0.49,0.04-1.63-1.29-2.59-1.23
					c-1.06,0.07-1.8,1.48-2.42,1.54c-0.99,0.1-1.76-1.12-2.98-0.97c-1.2,0.15-1.59,0.75-1.84,1.9c-0.05,0.21,0.06,0.38,0.26,0.46
					c6.39,2.5,13.75,1.28,19.46-2.25c0.41-0.25,0.03-0.9-0.38-0.65c-4.07,2.51-8.58,3.74-13.36,3.35c-1.34-0.11-2.67-0.33-3.97-0.68
					c-3.45-0.93,1.67-0.79,2.57,0.06c0.22,0.21,0.53,0.1,0.63-0.17c1.46-0.06,2.93-0.11,4.39-0.17c0.13,0.25,0.52,0.24,0.65,0
					c0.44-1.33,1.54-1.65,3.29-0.96c0.13,0.2,0.42,0.26,0.59,0.08c1.08-1.51,2.36-2.09,3.82-1.73c0.46-0.02,0.88,0.1,1.26,0.36
					C151.8,250,152.45,250.38,152.69,249.96z"/>
			</g>
		</g>
		<path class="st0" d="M133.52,251.75c0.6-0.3,3.02-1.43,4.12,0c0.15,0.19,0.44,0.65,0.37,0.8c-0.1,0.21-0.87-0.46-1.75-0.8
			C135.64,251.51,134.73,251.35,133.52,251.75z"/>
		<ellipse class="st0" cx="140.28" cy="251.45" rx="2.25" ry="1.13"/>
		
			<ellipse transform="matrix(0.9885 -0.1515 0.1515 0.9885 -36.2889 24.8874)" class="st0" cx="145.23" cy="250.66" rx="1.13" ry="0.89"/>
	</g>
	<path class="st73" d="M101.01,258.21c0,0,0-3.9,2.92-3.9s19.49,9.74,19.49,9.74l2.92,3.9c0,0,0,4.87-2.92,4.87
		s-14.62-5.85-14.62-5.85l-4.87-5.85L101.01,258.21z"/>
</g>
</svg>
